<svg xmlns="http://www.w3.org/2000/svg" xmlns:xlink="http://www.w3.org/1999/xlink" contentStyleType="text/css" data-diagram-type="DESCRIPTION" height="522px" preserveAspectRatio="none" style="width:849px;height:522px;background:#FFFFFF;" version="1.1" viewBox="0 0 849 522" width="849px" zoomAndPan="magnify"><defs/><g><!--entity SPA--><g class="entity" data-entity="SPA" data-source-line="3" data-uid="ent0002" id="entity_SPA"><rect fill="#F1F1F1" height="36.2969" rx="2.5" ry="2.5" style="stroke:#181818;stroke-width:0.5;" width="91.8867" x="295.5" y="7"/><text fill="#000000" font-family="sans-serif" font-size="14" lengthAdjust="spacing" textLength="71.8867" x="305.5" y="29.9951">SPA Client</text></g><!--entity API--><g class="entity" data-entity="API" data-source-line="4" data-uid="ent0003" id="entity_API"><rect fill="#F1F1F1" height="36.2969" rx="2.5" ry="2.5" style="stroke:#181818;stroke-width:0.5;" width="85.6318" x="298.62" y="120.29"/><text fill="#000000" font-family="sans-serif" font-size="14" lengthAdjust="spacing" textLength="65.6318" x="308.62" y="143.2851">API Layer</text></g><!--entity BE--><g class="entity" data-entity="BE" data-source-line="5" data-uid="ent0004" id="entity_BE"><rect fill="#F1F1F1" height="36.2969" rx="2.5" ry="2.5" style="stroke:#181818;stroke-width:0.5;" width="128.9238" x="276.98" y="233.59"/><text fill="#000000" font-family="sans-serif" font-size="14" lengthAdjust="spacing" textLength="108.9238" x="286.98" y="256.5851">Booking Engine</text></g><!--entity NM--><g class="entity" data-entity="NM" data-source-line="6" data-uid="ent0005" id="entity_NM"><rect fill="#F1F1F1" height="36.2969" rx="2.5" ry="2.5" style="stroke:#181818;stroke-width:0.5;" width="166.1455" x="606.37" y="233.59"/><text fill="#000000" font-family="sans-serif" font-size="14" lengthAdjust="spacing" textLength="146.1455" x="616.37" y="256.5851">Notification Manager</text></g><!--entity RS--><g class="entity" data-entity="RS" data-source-line="7" data-uid="ent0006" id="entity_RS"><rect fill="#F1F1F1" height="36.2969" rx="2.5" ry="2.5" style="stroke:#181818;stroke-width:0.5;" width="144.8789" x="7" y="233.59"/><text fill="#000000" font-family="sans-serif" font-size="14" lengthAdjust="spacing" textLength="124.8789" x="17" y="256.5851">Reporting Service</text></g><!--entity DA--><g class="entity" data-entity="DA" data-source-line="8" data-uid="ent0007" id="entity_DA"><rect fill="#F1F1F1" height="36.2969" rx="2.5" ry="2.5" style="stroke:#181818;stroke-width:0.5;" width="106.584" x="103.15" y="346.89"/><text fill="#000000" font-family="sans-serif" font-size="14" lengthAdjust="spacing" textLength="86.584" x="113.15" y="369.8851">Repositories</text></g><!--entity DB--><g class="entity" data-entity="DB" data-source-line="10" data-uid="ent0008" id="entity_DB"><path d="M93.65,470.18 C93.65,460.18 156.4439,460.18 156.4439,460.18 C156.4439,460.18 219.2379,460.18 219.2379,470.18 L219.2379,495.4769 C219.2379,505.4769 156.4439,505.4769 156.4439,505.4769 C156.4439,505.4769 93.65,505.4769 93.65,495.4769 L93.65,470.18" fill="#F1F1F1" style="stroke:#181818;stroke-width:0.5;"/><path d="M93.65,470.18 C93.65,480.18 156.4439,480.18 156.4439,480.18 C156.4439,480.18 219.2379,480.18 219.2379,470.18" fill="none" style="stroke:#181818;stroke-width:0.5;"/><text fill="#000000" font-family="sans-serif" font-size="14" lengthAdjust="spacing" textLength="105.5879" x="103.65" y="497.1751">PostgreSQL DB</text></g><!--entity REDIS--><g class="entity" data-entity="REDIS" data-source-line="11" data-uid="ent0009" id="entity_REDIS"><path d="M409.87,351.89 L583.0028,351.89 C588.0028,351.89 588.0028,365.0384 588.0028,365.0384 C588.0028,365.0384 588.0028,378.1869 583.0028,378.1869 L409.87,378.1869 C404.87,378.1869 404.87,365.0384 404.87,365.0384 C404.87,365.0384 404.87,351.89 409.87,351.89" fill="#F1F1F1" style="stroke:#181818;stroke-width:0.5;"/><path d="M583.0028,351.89 C578.0028,351.89 578.0028,365.0384 578.0028,365.0384 C578.0028,378.1869 583.0028,378.1869 583.0028,378.1869" fill="none" style="stroke:#181818;stroke-width:0.5;"/><text fill="#000000" font-family="sans-serif" font-size="14" lengthAdjust="spacing" textLength="163.1328" x="409.87" y="369.8851">Redis (Cache &amp; Queue)</text></g><!--entity EXT--><g class="entity" data-entity="EXT" data-source-line="12" data-uid="ent0010" id="entity_EXT"><rect fill="#F1F1F1" height="36.2969" rx="2.5" ry="2.5" style="stroke:#181818;stroke-width:0.5;" width="163.3496" x="672.76" y="346.89"/><text fill="#000000" font-family="sans-serif" font-size="14" lengthAdjust="spacing" textLength="143.3496" x="682.76" y="369.8851">Email/SMS Providers</text></g><!--link SPA to API--><g class="link" data-entity-1="SPA" data-entity-2="API" data-source-line="14" data-uid="lnk11" id="link_SPA_API"><path d="M341.44,43.53 C341.44,64.32 341.44,92.91 341.44,113.81" fill="none" id="SPA-to-API" style="stroke:#181818;stroke-width:1;"/><polygon fill="#181818" points="341.44,119.81,345.44,110.81,341.44,114.81,337.44,110.81,341.44,119.81" style="stroke:#181818;stroke-width:1;"/><text fill="#000000" font-family="sans-serif" font-size="13" lengthAdjust="spacing" textLength="78.1714" x="342.44" y="86.3569">HTTPS/JSON</text></g><!--link API to BE--><g class="link" data-entity-1="API" data-entity-2="BE" data-source-line="15" data-uid="lnk12" id="link_API_BE"><path d="M341.44,156.83 C341.44,177.62 341.44,206.21 341.44,227.1" fill="none" id="API-to-BE" style="stroke:#181818;stroke-width:1;"/><polygon fill="#181818" points="341.44,233.1,345.44,224.1,341.44,228.1,337.44,224.1,341.44,233.1" style="stroke:#181818;stroke-width:1;"/><text fill="#000000" font-family="sans-serif" font-size="13" lengthAdjust="spacing" textLength="242.1631" x="342.44" y="199.6569">booking, availability, profiles, reports</text></g><!--link BE to DA--><g class="link" data-entity-1="BE" data-entity-2="DA" data-source-line="16" data-uid="lnk13" id="link_BE_DA"><path d="M308.87,270.17 C292.93,278.86 273.54,289.68 256.44,299.89 C231.12,315.01 207.8915,329.9508 187.9015,343.1108" fill="none" id="BE-to-DA" style="stroke:#181818;stroke-width:1;"/><polygon fill="#181818" points="182.89,346.41,192.6067,344.8022,187.0663,343.6607,188.2078,338.1202,182.89,346.41" style="stroke:#181818;stroke-width:1;"/><text fill="#000000" font-family="sans-serif" font-size="13" lengthAdjust="spacing" textLength="66.625" x="257.44" y="312.9569">read/write</text></g><!--link DA to DB--><g class="link" data-entity-1="DA" data-entity-2="DB" data-source-line="17" data-uid="lnk14" id="link_DA_DB"><path d="M156.44,383.62 C156.44,403.99 156.44,431.59 156.44,453.71" fill="none" id="DA-to-DB" style="stroke:#181818;stroke-width:1;"/><polygon fill="#181818" points="156.44,459.71,160.44,450.71,156.44,454.71,152.44,450.71,156.44,459.71" style="stroke:#181818;stroke-width:1;"/><text fill="#000000" font-family="sans-serif" font-size="13" lengthAdjust="spacing" textLength="78.0762" x="157.44" y="426.2469">SQL queries</text></g><!--link BE to REDIS--><g class="link" data-entity-1="BE" data-entity-2="REDIS" data-source-line="18" data-uid="lnk15" id="link_BE_REDIS"><path d="M335.02,270.29 C331.12,284.28 328.58,303.66 338.44,316.89 C354.26,338.12 373.4786,348.6289 398.9786,355.3589" fill="none" id="BE-to-REDIS" style="stroke:#181818;stroke-width:1;"/><polygon fill="#181818" points="404.78,356.89,397.0987,350.7258,399.9455,355.6141,395.0572,358.4609,404.78,356.89" style="stroke:#181818;stroke-width:1;"/><text fill="#000000" font-family="sans-serif" font-size="13" lengthAdjust="spacing" textLength="113.3247" x="339.44" y="312.9569">cache availability</text></g><!--link BE to REDIS--><g class="link" data-entity-1="BE" data-entity-2="REDIS" data-source-line="19" data-uid="lnk16" id="link_BE_REDIS"><path d="M405.42,270.38 C423.57,277.5 442.46,287.13 457.44,299.89 C474.11,314.08 483.3777,331.7376 489.3677,346.0076" fill="none" id="BE-to-REDIS-1" style="stroke:#181818;stroke-width:1;"/><polygon fill="#181818" points="491.69,351.54,491.8948,341.6933,489.7548,346.9297,484.5183,344.7896,491.69,351.54" style="stroke:#181818;stroke-width:1;"/><text fill="#000000" font-family="sans-serif" font-size="13" lengthAdjust="spacing" textLength="87.6865" x="474.44" y="312.9569">enqueue jobs</text></g><!--link NM to REDIS--><g class="link" data-entity-1="NM" data-entity-2="REDIS" data-source-line="20" data-uid="lnk17" id="link_NM_REDIS"><path d="M658.86,270.37 C619.64,292.99 557.7882,328.6635 523.3882,348.4935" fill="none" id="NM-to-REDIS" style="stroke:#181818;stroke-width:1;"/><polygon fill="#181818" points="518.19,351.49,527.9849,350.4607,522.5218,348.9929,523.9896,343.5298,518.19,351.49" style="stroke:#181818;stroke-width:1;"/><text fill="#000000" font-family="sans-serif" font-size="13" lengthAdjust="spacing" textLength="87.6992" x="606.44" y="312.9569">dequeue jobs</text></g><!--link NM to EXT--><g class="link" data-entity-1="NM" data-entity-2="EXT" data-source-line="21" data-uid="lnk18" id="link_NM_EXT"><path d="M699.6,270.13 C711.74,290.91 728.9152,320.3182 741.1152,341.2182" fill="none" id="NM-to-EXT" style="stroke:#181818;stroke-width:1;"/><polygon fill="#181818" points="744.14,346.4,743.0574,336.6108,741.6194,342.0819,736.1483,340.6439,744.14,346.4" style="stroke:#181818;stroke-width:1;"/><text fill="#000000" font-family="sans-serif" font-size="13" lengthAdjust="spacing" textLength="115.2734" x="726.44" y="312.9569">send notifications</text></g><!--link RS to DA--><g class="link" data-entity-1="RS" data-entity-2="DA" data-source-line="22" data-uid="lnk19" id="link_RS_DA"><path d="M73.78,270.26 C70.48,283.88 68.36,302.75 76.44,316.89 C83.72,329.62 90.6979,336.3231 103.4179,343.4631" fill="none" id="RS-to-DA" style="stroke:#181818;stroke-width:1;"/><polygon fill="#181818" points="108.65,346.4,102.7598,338.5066,104.2899,343.9526,98.8439,345.4827,108.65,346.4" style="stroke:#181818;stroke-width:1;"/><text fill="#000000" font-family="sans-serif" font-size="13" lengthAdjust="spacing" textLength="112.3472" x="77.44" y="312.9569">data aggregation</text></g><!--SRC=[PP5FJyCm3CNl-HJM3WYaJRrpG6hNIWojfLjsuEgsNZ5qIKcoeNrxafO_tRWb_ZtxvJdsdLMF1WzGwqEl5IadtRaZC5GxL6r7GlmIcCaoXcN7_Zm3jE2lKngNArZZcSm0_MqA4wszLmkPQbdHe4YogQ3GZlTSesEj84U5xVUW8f_AjjHhuy8aIUR4zJXgAwyrbfqsJ7R0QIn4Wmuhj0IpKblN6fARDQJ9o1FnSQGZXTQ6BTmkiNubk85DgDwD5bcwkd393iXT97C9fT4dRiYCPjdBJeYmgSNY8Mm1xk5njojbz2IV2n4A0IIPhrVZKkQ09pyBA-xOdUVG6xtdZkpSVqD8QuLNXwOqzas6i8a-3JiIwMYI9huSulWG8VEFV7YoH_MGPkfnhI0rvd_JbHL5Vi4Q-izyHayigGRKvD-isCg_XuQD0xP-rUr0lm00]--></g></svg>