<svg xmlns="http://www.w3.org/2000/svg" xmlns:xlink="http://www.w3.org/1999/xlink" contentStyleType="text/css" data-diagram-type="DESCRIPTION" height="476px" preserveAspectRatio="none" style="width:697px;height:476px;background:#FFFFFF;" version="1.1" viewBox="0 0 697 476" width="697px" zoomAndPan="magnify"><title>Deployment View - Prime-Cuts Booking</title><defs/><g><g class="title" data-source-line="10"><text fill="#000000" font-family="sans-serif" font-size="14" font-weight="bold" lengthAdjust="spacing" textLength="309.9209" x="186.715" y="22.9951">Deployment View - Prime-Cuts Booking</text></g><!--entity DB--><g class="entity" data-entity="DB" data-source-line="3" data-uid="ent0002" id="entity_DB"><path d="M6,423.6869 C6,413.6869 93.2837,413.6869 93.2837,413.6869 C93.2837,413.6869 180.5674,413.6869 180.5674,423.6869 L180.5674,448.9838 C180.5674,458.9838 93.2837,458.9838 93.2837,458.9838 C93.2837,458.9838 6,458.9838 6,448.9838 L6,423.6869" fill="#F1F1F1" style="stroke:#181818;stroke-width:0.5;"/><path d="M6,423.6869 C6,433.6869 93.2837,433.6869 93.2837,433.6869 C93.2837,433.6869 180.5674,433.6869 180.5674,423.6869" fill="none" style="stroke:#181818;stroke-width:0.5;"/><text fill="#000000" font-family="sans-serif" font-size="14" lengthAdjust="spacing" textLength="154.5674" x="16" y="450.682">PostgreSQL (Multi-AZ)</text></g><!--entity REDIS--><g class="entity" data-entity="REDIS" data-source-line="4" data-uid="ent0003" id="entity_REDIS"><path d="M220.72,423.1869 L393.8528,423.1869 C398.8528,423.1869 398.8528,436.3353 398.8528,436.3353 C398.8528,436.3353 398.8528,449.4838 393.8528,449.4838 L220.72,449.4838 C215.72,449.4838 215.72,436.3353 215.72,436.3353 C215.72,436.3353 215.72,423.1869 220.72,423.1869" fill="#F1F1F1" style="stroke:#181818;stroke-width:0.5;"/><path d="M393.8528,423.1869 C388.8528,423.1869 388.8528,436.3353 388.8528,436.3353 C388.8528,449.4838 393.8528,449.4838 393.8528,449.4838" fill="none" style="stroke:#181818;stroke-width:0.5;"/><text fill="#000000" font-family="sans-serif" font-size="14" lengthAdjust="spacing" textLength="163.1328" x="220.72" y="441.182">Redis (Cache &amp; Queue)</text></g><!--entity APP--><g class="entity" data-entity="APP" data-source-line="5" data-uid="ent0004" id="entity_APP"><polygon fill="#F1F1F1" points="167.85,299.8969,177.85,289.8969,446.7113,289.8969,446.7113,326.1938,436.7113,336.1938,167.85,336.1938,167.85,299.8969" style="stroke:#181818;stroke-width:0.5;"/><line style="stroke:#181818;stroke-width:0.5;" x1="436.7113" x2="446.7113" y1="299.8969" y2="289.8969"/><line style="stroke:#181818;stroke-width:0.5;" x1="167.85" x2="436.7113" y1="299.8969" y2="299.8969"/><line style="stroke:#181818;stroke-width:0.5;" x1="436.7113" x2="436.7113" y1="299.8969" y2="336.1938"/><text fill="#000000" font-family="sans-serif" font-size="14" lengthAdjust="spacing" textLength="238.8613" x="182.85" y="322.892">App Server Pool (Node.js/Express)</text></g><!--entity LB--><g class="entity" data-entity="LB" data-source-line="6" data-uid="ent0005" id="entity_LB"><polygon fill="#F1F1F1" points="186.32,176.5969,196.32,166.5969,428.2536,166.5969,428.2536,202.8938,418.2536,212.8938,186.32,212.8938,186.32,176.5969" style="stroke:#181818;stroke-width:0.5;"/><line style="stroke:#181818;stroke-width:0.5;" x1="418.2536" x2="428.2536" y1="176.5969" y2="166.5969"/><line style="stroke:#181818;stroke-width:0.5;" x1="186.32" x2="418.2536" y1="176.5969" y2="176.5969"/><line style="stroke:#181818;stroke-width:0.5;" x1="418.2536" x2="418.2536" y1="176.5969" y2="212.8938"/><text fill="#000000" font-family="sans-serif" font-size="14" lengthAdjust="spacing" textLength="201.9336" x="201.32" y="199.592">Load Balancer / API Gateway</text></g><!--entity CDN--><g class="entity" data-entity="CDN" data-source-line="7" data-uid="ent0006" id="entity_CDN"><polygon fill="#F1F1F1" points="206.51,53.2969,216.51,43.2969,408.0637,43.2969,408.0637,79.5938,398.0637,89.5938,206.51,89.5938,206.51,53.2969" style="stroke:#181818;stroke-width:0.5;"/><line style="stroke:#181818;stroke-width:0.5;" x1="398.0637" x2="408.0637" y1="53.2969" y2="43.2969"/><line style="stroke:#181818;stroke-width:0.5;" x1="206.51" x2="398.0637" y1="53.2969" y2="53.2969"/><line style="stroke:#181818;stroke-width:0.5;" x1="398.0637" x2="398.0637" y1="53.2969" y2="89.5938"/><text fill="#000000" font-family="sans-serif" font-size="14" lengthAdjust="spacing" textLength="161.5537" x="221.51" y="76.292">CDN (S3 + CloudFront)</text></g><!--entity EXT--><g class="entity" data-entity="EXT" data-source-line="8" data-uid="ent0007" id="entity_EXT"><polygon fill="#F1F1F1" points="434.22,423.1869,444.22,413.1869,680.3509,413.1869,680.3509,449.4838,670.3509,459.4838,434.22,459.4838,434.22,423.1869" style="stroke:#181818;stroke-width:0.5;"/><line style="stroke:#181818;stroke-width:0.5;" x1="670.3509" x2="680.3509" y1="423.1869" y2="413.1869"/><line style="stroke:#181818;stroke-width:0.5;" x1="434.22" x2="670.3509" y1="423.1869" y2="423.1869"/><line style="stroke:#181818;stroke-width:0.5;" x1="670.3509" x2="670.3509" y1="423.1869" y2="459.4838"/><text fill="#000000" font-family="sans-serif" font-size="14" lengthAdjust="spacing" textLength="206.1309" x="449.22" y="446.182">External Email/SMS Providers</text></g><!--link CDN to LB--><g class="link" data-entity-1="CDN" data-entity-2="LB" data-source-line="12" data-uid="lnk8" id="link_CDN_LB"><path d="M307.28,89.9769 C307.28,111.7669 307.28,138.5869 307.28,160.3369" fill="none" id="CDN-to-LB" style="stroke:#181818;stroke-width:1;"/><polygon fill="#181818" points="307.28,166.3369,311.28,157.3369,307.28,161.3369,303.28,157.3369,307.28,166.3369" style="stroke:#181818;stroke-width:1;"/><text fill="#000000" font-family="sans-serif" font-size="13" lengthAdjust="spacing" textLength="41.7485" x="308.28" y="132.6638">HTTPS</text></g><!--link LB to APP--><g class="link" data-entity-1="LB" data-entity-2="APP" data-source-line="13" data-uid="lnk9" id="link_LB_APP"><path d="M307.28,213.2769 C307.28,235.0669 307.28,261.8869 307.28,283.6269" fill="none" id="LB-to-APP" style="stroke:#181818;stroke-width:1;"/><polygon fill="#181818" points="307.28,289.6269,311.28,280.6269,307.28,284.6269,303.28,280.6269,307.28,289.6269" style="stroke:#181818;stroke-width:1;"/><text fill="#000000" font-family="sans-serif" font-size="13" lengthAdjust="spacing" textLength="41.7485" x="308.28" y="255.9638">HTTPS</text></g><!--link APP to DB--><g class="link" data-entity-1="APP" data-entity-2="DB" data-source-line="14" data-uid="lnk10" id="link_APP_DB"><path d="M267.53,336.5769 C228.85,358.4969 175.68,388.6385 137.32,410.3785" fill="none" id="APP-to-DB" style="stroke:#181818;stroke-width:1;"/><polygon fill="#181818" points="132.1,413.3369,141.9022,412.3793,136.45,410.8716,137.9577,405.4194,132.1,413.3369" style="stroke:#181818;stroke-width:1;"/><text fill="#000000" font-family="sans-serif" font-size="13" lengthAdjust="spacing" textLength="69.5513" x="214.28" y="379.2538">JDBC (TLS)</text></g><!--link APP to REDIS--><g class="link" data-entity-1="APP" data-entity-2="REDIS" data-source-line="15" data-uid="lnk11" id="link_APP_REDIS"><path d="M307.28,336.5769 C307.28,362.0569 307.28,396.6469 307.28,416.9369" fill="none" id="APP-to-REDIS" style="stroke:#181818;stroke-width:1;"/><polygon fill="#181818" points="307.28,422.9369,311.28,413.9369,307.28,417.9369,303.28,413.9369,307.28,422.9369" style="stroke:#181818;stroke-width:1;"/><text fill="#000000" font-family="sans-serif" font-size="13" lengthAdjust="spacing" textLength="62.5688" x="308.28" y="379.2538">TCP (TLS)</text></g><!--link APP to EXT--><g class="link" data-entity-1="APP" data-entity-2="EXT" data-source-line="16" data-uid="lnk12" id="link_APP_EXT"><path d="M353.72,336.5769 C398.48,358.2869 460.452,388.3574 505.272,410.1074" fill="none" id="APP-to-EXT" style="stroke:#181818;stroke-width:1;"/><polygon fill="#181818" points="510.67,412.7269,504.3194,405.199,506.1717,410.544,500.8267,412.3963,510.67,412.7269" style="stroke:#181818;stroke-width:1;"/><text fill="#000000" font-family="sans-serif" font-size="13" lengthAdjust="spacing" textLength="55.7388" x="448.28" y="379.2538">API Calls</text></g><!--SRC=[NP1DJyCm38Rl-HNM3gWJAZjmuu2qfWM6kgbRAeIucTOQWJGfIRgFVu-xJJjminu_Jkmt_6ZReySE6jVrpfADAXuDWQScejqQ4gB5Y9yO22QL2t7hIQrBI9Q3YJgTVqmdW07oJFmEDB2peLO7I2GsNmGti1xfsTaK-K89wrgsvdqFYloEF5JE6KXMZE- -mwmuz9v2E4_Cg-hYbmvRoD2WRNXanfq5F6EaFHvFPfbTH9cl857tS0lIkA5zyix6ysFSkJZ58PAtQA3eK9kPMYgelDlfbdmugSLxBKJKaNF8gJVks74kyAPf3ochkgDK3Z50vXpdjnLY_3LD7taDU82NkgwKu78aVC8LZVN8yj5wpJC9ILsgwPMV0k9MBQj_7Lw8-NYqH6F27m00]--></g></svg>