<svg xmlns="http://www.w3.org/2000/svg" xmlns:xlink="http://www.w3.org/1999/xlink" contentStyleType="text/css" data-diagram-type="DESCRIPTION" height="606px" preserveAspectRatio="none" style="width:1025px;height:606px;background:#FFFFFF;" version="1.1" viewBox="0 0 1025 606" width="1025px" zoomAndPan="magnify"><defs/><g><!--cluster crm--><g class="cluster" data-entity="crm" data-source-line="4" data-uid="ent0002" id="cluster_crm"><path d="M8.5,6 L155.2012,6 A3.75,3.75 0 0 1 157.7012,8.5 L164.7012,28.2969 L1015.5,28.2969 A2.5,2.5 0 0 1 1018,30.7969 L1018,475.98 A2.5,2.5 0 0 1 1015.5,478.48 L8.5,478.48 A2.5,2.5 0 0 1 6,475.98 L6,8.5 A2.5,2.5 0 0 1 8.5,6" fill="none" style="stroke:#000000;stroke-width:1.5;"/><line style="stroke:#000000;stroke-width:1.5;" x1="6" x2="164.7012" y1="28.2969" y2="28.2969"/><text fill="#000000" font-family="sans-serif" font-size="14" font-weight="bold" lengthAdjust="spacing" textLength="145.7012" x="10" y="20.9951">InsureSphere CRM</text></g><!--cluster Domain Microservices--><g class="cluster" data-entity="Domain Microservices" data-source-line="9" data-uid="ent0006" id="cluster_Domain Microservices"><path d="M32.5,294.89 L206.75,294.89 A3.75,3.75 0 0 1 209.25,297.39 L216.25,317.1869 L991.5,317.1869 A2.5,2.5 0 0 1 994,319.6869 L994,379.69 A2.5,2.5 0 0 1 991.5,382.19 L32.5,382.19 A2.5,2.5 0 0 1 30,379.69 L30,297.39 A2.5,2.5 0 0 1 32.5,294.89" fill="none" style="stroke:#000000;stroke-width:1.5;"/><line style="stroke:#000000;stroke-width:1.5;" x1="30" x2="216.25" y1="317.1869" y2="317.1869"/><text fill="#000000" font-family="sans-serif" font-size="14" font-weight="bold" lengthAdjust="spacing" textLength="173.25" x="34" y="309.8851">Domain Microservices</text></g><!--cluster Legacy / External Systems--><g class="cluster" data-entity="Legacy . External Systems" data-source-line="22" data-uid="ent0015" id="cluster_Legacy . External Systems"><path d="M40.5,502.48 L249.0938,502.48 A3.75,3.75 0 0 1 251.5938,504.98 L258.5938,524.7769 L932.5,524.7769 A2.5,2.5 0 0 1 935,527.2769 L935,597.28 A2.5,2.5 0 0 1 932.5,599.78 L40.5,599.78 A2.5,2.5 0 0 1 38,597.28 L38,504.98 A2.5,2.5 0 0 1 40.5,502.48" fill="none" style="stroke:#000000;stroke-width:1.5;"/><line style="stroke:#000000;stroke-width:1.5;" x1="38" x2="258.5938" y1="524.7769" y2="524.7769"/><text fill="#000000" font-family="sans-serif" font-size="14" font-weight="bold" lengthAdjust="spacing" textLength="207.5938" x="42" y="517.4751">Legacy / External Systems</text></g><!--entity spa--><g class="entity" data-entity="spa" data-source-line="5" data-uid="ent0003" id="entity_spa"><rect fill="#F1F1F1" height="36.2969" rx="2.5" ry="2.5" style="stroke:#181818;stroke-width:0.5;" width="91.4629" x="415.27" y="41"/><text fill="#000000" font-family="sans-serif" font-size="14" lengthAdjust="spacing" textLength="71.4629" x="425.27" y="63.9951">React SPA</text></g><!--entity api--><g class="entity" data-entity="api" data-source-line="6" data-uid="ent0004" id="entity_api"><rect fill="#F1F1F1" height="36.2969" rx="2.5" ry="2.5" style="stroke:#181818;stroke-width:0.5;" width="108.4434" x="406.78" y="137.3"/><text fill="#000000" font-family="sans-serif" font-size="14" lengthAdjust="spacing" textLength="88.4434" x="416.78" y="160.2951">API Gateway</text></g><!--entity bff--><g class="entity" data-entity="bff" data-source-line="7" data-uid="ent0005" id="entity_bff"><rect fill="#F1F1F1" height="36.2969" rx="2.5" ry="2.5" style="stroke:#181818;stroke-width:0.5;" width="111.9229" x="405.04" y="233.59"/><text fill="#000000" font-family="sans-serif" font-size="14" lengthAdjust="spacing" textLength="91.9229" x="415.04" y="256.5851">GraphQL BFF</text></g><!--entity kafka--><g class="entity" data-entity="kafka" data-source-line="17" data-uid="ent0012" id="entity_kafka"><path d="M398.92,431.19 L523.0733,431.19 C528.0733,431.19 528.0733,444.3384 528.0733,444.3384 C528.0733,444.3384 528.0733,457.4869 523.0733,457.4869 L398.92,457.4869 C393.92,457.4869 393.92,444.3384 393.92,444.3384 C393.92,444.3384 393.92,431.19 398.92,431.19" fill="#F1F1F1" style="stroke:#181818;stroke-width:0.5;"/><path d="M523.0733,431.19 C518.0733,431.19 518.0733,444.3384 518.0733,444.3384 C518.0733,457.4869 523.0733,457.4869 523.0733,457.4869" fill="none" style="stroke:#181818;stroke-width:0.5;"/><text fill="#000000" font-family="sans-serif" font-size="14" lengthAdjust="spacing" textLength="114.1533" x="398.92" y="449.1851">Kafka Event Bus</text></g><!--entity camunda--><g class="entity" data-entity="camunda" data-source-line="18" data-uid="ent0013" id="entity_camunda"><rect fill="#F1F1F1" height="36.2969" rx="2.5" ry="2.5" style="stroke:#181818;stroke-width:0.5;" width="150.8672" x="195.57" y="233.59"/><text fill="#000000" font-family="sans-serif" font-size="14" lengthAdjust="spacing" textLength="130.8672" x="205.57" y="256.5851">Camunda 8 (Saga)</text></g><!--entity esb--><g class="entity" data-entity="esb" data-source-line="19" data-uid="ent0014" id="entity_esb"><rect fill="#F1F1F1" height="36.2969" rx="2.5" ry="2.5" style="stroke:#181818;stroke-width:0.5;" width="88.1064" x="226.95" y="426.19"/><text fill="#000000" font-family="sans-serif" font-size="14" lengthAdjust="spacing" textLength="68.1064" x="236.95" y="449.1851">ESB / ACL</text></g><!--entity cc--><g class="entity" data-entity="cc" data-source-line="10" data-uid="ent0007" id="entity_cc"><rect fill="#F1F1F1" height="36.2969" rx="2.5" ry="2.5" style="stroke:#181818;stroke-width:0.5;" width="147.5449" x="197.23" y="329.89"/><text fill="#000000" font-family="sans-serif" font-size="14" lengthAdjust="spacing" textLength="127.5449" x="207.23" y="352.8851">Customer Context</text></g><!--entity is--><g class="entity" data-entity="is" data-source-line="11" data-uid="ent0008" id="entity_is"><rect fill="#F1F1F1" height="36.2969" rx="2.5" ry="2.5" style="stroke:#181818;stroke-width:0.5;" width="152.1455" x="576.93" y="329.89"/><text fill="#000000" font-family="sans-serif" font-size="14" lengthAdjust="spacing" textLength="132.1455" x="586.93" y="352.8851">Interaction Service</text></g><!--entity tas--><g class="entity" data-entity="tas" data-source-line="12" data-uid="ent0009" id="entity_tas"><rect fill="#F1F1F1" height="36.2969" rx="2.5" ry="2.5" style="stroke:#181818;stroke-width:0.5;" width="161.8662" x="380.07" y="329.89"/><text fill="#000000" font-family="sans-serif" font-size="14" lengthAdjust="spacing" textLength="141.8662" x="390.07" y="352.8851">Task &amp; Alert Service</text></g><!--entity mss--><g class="entity" data-entity="mss" data-source-line="13" data-uid="ent0010" id="entity_mss"><rect fill="#F1F1F1" height="36.2969" rx="2.5" ry="2.5" style="stroke:#181818;stroke-width:0.5;" width="213.915" x="764.04" y="329.89"/><text fill="#000000" font-family="sans-serif" font-size="14" lengthAdjust="spacing" textLength="193.915" x="774.04" y="352.8851">Marketing Segment Service</text></g><!--entity ps--><g class="entity" data-entity="ps" data-source-line="14" data-uid="ent0011" id="entity_ps"><rect fill="#F1F1F1" height="36.2969" rx="2.5" ry="2.5" style="stroke:#181818;stroke-width:0.5;" width="116.9609" x="45.52" y="329.89"/><text fill="#000000" font-family="sans-serif" font-size="14" lengthAdjust="spacing" textLength="96.9609" x="55.52" y="352.8851">Policy Service</text></g><!--entity mainframe--><g class="entity" data-entity="mainframe" data-source-line="23" data-uid="ent0016" id="entity_mainframe"><path d="M521.92,547.98 C521.92,537.98 591.9976,537.98 591.9976,537.98 C591.9976,537.98 662.0753,537.98 662.0753,547.98 L662.0753,573.2769 C662.0753,583.2769 591.9976,583.2769 591.9976,583.2769 C591.9976,583.2769 521.92,583.2769 521.92,573.2769 L521.92,547.98" fill="#F1F1F1" style="stroke:#181818;stroke-width:0.5;"/><path d="M521.92,547.98 C521.92,557.98 591.9976,557.98 591.9976,557.98 C591.9976,557.98 662.0753,557.98 662.0753,547.98" fill="none" style="stroke:#181818;stroke-width:0.5;"/><text fill="#000000" font-family="sans-serif" font-size="14" lengthAdjust="spacing" textLength="120.1553" x="531.92" y="574.9751">Policy Mainframe</text></g><!--entity claims--><g class="entity" data-entity="claims" data-source-line="24" data-uid="ent0017" id="entity_claims"><path d="M54.14,547.98 C54.14,537.98 116.0008,537.98 116.0008,537.98 C116.0008,537.98 177.8617,537.98 177.8617,547.98 L177.8617,573.2769 C177.8617,583.2769 116.0008,583.2769 116.0008,583.2769 C116.0008,583.2769 54.14,583.2769 54.14,573.2769 L54.14,547.98" fill="#F1F1F1" style="stroke:#181818;stroke-width:0.5;"/><path d="M54.14,547.98 C54.14,557.98 116.0008,557.98 116.0008,557.98 C116.0008,557.98 177.8617,557.98 177.8617,547.98" fill="none" style="stroke:#181818;stroke-width:0.5;"/><text fill="#000000" font-family="sans-serif" font-size="14" lengthAdjust="spacing" textLength="103.7217" x="64.14" y="574.9751">Claims System</text></g><!--entity billing--><g class="entity" data-entity="billing" data-source-line="25" data-uid="ent0018" id="entity_billing"><path d="M212.36,547.98 C212.36,537.98 270.9977,537.98 270.9977,537.98 C270.9977,537.98 329.6354,537.98 329.6354,547.98 L329.6354,573.2769 C329.6354,583.2769 270.9977,583.2769 270.9977,583.2769 C270.9977,583.2769 212.36,583.2769 212.36,573.2769 L212.36,547.98" fill="#F1F1F1" style="stroke:#181818;stroke-width:0.5;"/><path d="M212.36,547.98 C212.36,557.98 270.9977,557.98 270.9977,557.98 C270.9977,557.98 329.6354,557.98 329.6354,547.98" fill="none" style="stroke:#181818;stroke-width:0.5;"/><text fill="#000000" font-family="sans-serif" font-size="14" lengthAdjust="spacing" textLength="97.2754" x="222.36" y="574.9751">Billing AS/400</text></g><!--entity dwh--><g class="entity" data-entity="dwh" data-source-line="26" data-uid="ent0019" id="entity_dwh"><path d="M364.68,547.98 C364.68,537.98 425.9974,537.98 425.9974,537.98 C425.9974,537.98 487.3148,537.98 487.3148,547.98 L487.3148,573.2769 C487.3148,583.2769 425.9974,583.2769 425.9974,583.2769 C425.9974,583.2769 364.68,583.2769 364.68,573.2769 L364.68,547.98" fill="#F1F1F1" style="stroke:#181818;stroke-width:0.5;"/><path d="M364.68,547.98 C364.68,557.98 425.9974,557.98 425.9974,557.98 C425.9974,557.98 487.3148,557.98 487.3148,547.98" fill="none" style="stroke:#181818;stroke-width:0.5;"/><text fill="#000000" font-family="sans-serif" font-size="14" lengthAdjust="spacing" textLength="102.6348" x="374.68" y="574.9751">Teradata DWH</text></g><!--entity sfmc--><g class="entity" data-entity="sfmc" data-source-line="27" data-uid="ent0020" id="entity_sfmc"><path d="M706.2865,548.1566 C709.4808,539.0524 714.9876,538.658 721.2902,545.1703 C725.7037,536.7075 731.3203,538.5418 736.4214,544.4461 C740.5127,538.8925 746.8944,538.5298 750.4329,545.0855 C753.7466,537.2064 761.1868,536.486 765.3731,544.2522 C770.2509,537.7908 774.4631,538.8808 778.6502,544.9822 C782.006,536.0973 788.3431,535.4061 793.8367,543.0137 C797.1259,534.6742 804.6763,533.5116 809.3913,541.6694 C814.6254,535.8163 821.6104,537.3164 824.3278,544.5433 C827.4395,538.3593 833.6802,537.5354 837.9352,543.2341 C842.624,534.9394 849.9853,534.6493 854.4178,543.4808 C860.0968,538.0238 864.6308,539.1267 867.7481,546.2049 C872.1025,539.0396 876.5538,537.767 882.2775,544.8042 C887.1605,539.2102 893.3516,540.4138 896.5935,546.7701 C900.7021,539.5651 908.3565,537.9257 913.322,545.8209 C922.4346,546.3866 928.0842,553.7259 922.7405,562.4698 C926.0568,572.7205 921.7254,576.8704 911.6932,576.9068 C908.4085,583.8768 902.5931,584.4478 898.038,578.2214 C893.9535,586.0994 887.8735,584.4459 883.4486,578.5828 C879.3646,587.0846 872.0632,586.3869 867.5164,579.0483 C864.179,585.5017 858.4601,588.1003 853.2025,581.0896 C850.4642,587.8049 843.5933,587.9322 839.4959,582.6413 C834.6712,589.5301 827.9415,589.6803 824.04,581.6828 C820.2391,589.3899 813.8137,589.8249 808.9189,582.8061 C805.346,588.2303 799.4871,589.0441 796.0366,582.6725 C791.9606,591.0348 784.4526,589.5906 780.3767,582.6724 C774.912,589.3334 768.3647,586.2501 765.9818,579.3911 C762.1475,585.3147 755.2652,585.4602 751.896,578.8675 C747.2829,585.2962 740.197,586.2048 736.7145,577.7168 C732.8884,585.0044 725.9381,584.8134 721.5255,578.3654 C717.4689,584.3603 710.6085,583.6953 707.1105,577.6941 C696.3807,577.9481 692.8447,572.5519 696.2022,562.615 C691.7263,552.7151 696.3469,548.002 706.2865,548.1566" fill="#F1F1F1" style="stroke:#181818;stroke-width:0.5;"/><text fill="#000000" font-family="sans-serif" font-size="14" lengthAdjust="spacing" textLength="191.9873" x="712.01" y="565.4751">Salesforce Marketing Cloud</text></g><!--link spa to api--><g class="link" data-entity-1="spa" data-entity-2="api" data-source-line="30" data-uid="lnk21" id="link_spa_api"><path d="M461,77.44 C461,94.35 461,113.96 461,130.94" fill="none" id="spa-to-api" style="stroke:#181818;stroke-width:1;"/><polygon fill="#181818" points="461,136.94,465,127.94,461,131.94,457,127.94,461,136.94" style="stroke:#181818;stroke-width:1;"/></g><!--link api to bff--><g class="link" data-entity-1="api" data-entity-2="bff" data-source-line="31" data-uid="lnk22" id="link_api_bff"><path d="M461,173.74 C461,190.65 461,210.26 461,227.24" fill="none" id="api-to-bff" style="stroke:#181818;stroke-width:1;"/><polygon fill="#181818" points="461,233.24,465,224.24,461,228.24,457,224.24,461,233.24" style="stroke:#181818;stroke-width:1;"/></g><!--link bff to cc--><g class="link" data-entity-1="bff" data-entity-2="cc" data-source-line="32" data-uid="lnk23" id="link_bff_cc"><path d="M404.58,269.77 C390.71,274.66 376.1,280.45 363,286.89 C338.34,299.02 317.1883,313.023 299.1283,326.033" fill="none" id="bff-to-cc" style="stroke:#181818;stroke-width:1;"/><polygon fill="#181818" points="294.26,329.54,303.9005,327.525,298.3169,326.6175,299.2245,321.0339,294.26,329.54" style="stroke:#181818;stroke-width:1;"/></g><!--link bff to is--><g class="link" data-entity-1="bff" data-entity-2="is" data-source-line="33" data-uid="lnk24" id="link_bff_is"><path d="M517.37,269.86 C531.24,274.75 545.87,280.51 559,286.89 C584.09,299.08 605.7901,313.1414 624.2701,326.1214" fill="none" id="bff-to-is" style="stroke:#181818;stroke-width:1;"/><polygon fill="#181818" points="629.18,329.57,624.1142,321.1238,625.0884,326.6962,619.5161,327.6703,629.18,329.57" style="stroke:#181818;stroke-width:1;"/></g><!--link bff to tas--><g class="link" data-entity-1="bff" data-entity-2="tas" data-source-line="34" data-uid="lnk25" id="link_bff_tas"><path d="M461,270.04 C461,286.94 461,306.55 461,323.53" fill="none" id="bff-to-tas" style="stroke:#181818;stroke-width:1;"/><polygon fill="#181818" points="461,329.53,465,320.53,461,324.53,457,320.53,461,329.53" style="stroke:#181818;stroke-width:1;"/></g><!--link cc to kafka--><g class="link" data-entity-1="cc" data-entity-2="kafka" data-source-line="36" data-uid="lnk26" id="link_cc_kafka"><path d="M306.29,366.55 C343.85,385.19 396.9857,411.5622 430.2457,428.0722" fill="none" id="cc-to-kafka" style="stroke:#181818;stroke-width:1;"/><polygon fill="#181818" points="435.62,430.74,429.3371,423.1555,431.1414,428.5169,425.78,430.3212,435.62,430.74" style="stroke:#181818;stroke-width:1;"/></g><!--link is to kafka--><g class="link" data-entity-1="is" data-entity-2="kafka" data-source-line="37" data-uid="lnk27" id="link_is_kafka"><path d="M617.34,366.55 C579.38,385.19 525.6453,411.5846 492.0353,428.0946" fill="none" id="is-to-kafka" style="stroke:#181818;stroke-width:1;"/><polygon fill="#181818" points="486.65,430.74,496.4916,430.3621,491.1378,428.5355,492.9644,423.1817,486.65,430.74" style="stroke:#181818;stroke-width:1;"/></g><!--link ps to kafka--><g class="link" data-entity-1="ps" data-entity-2="kafka" data-source-line="38" data-uid="lnk28" id="link_ps_kafka"><path d="M131.55,366.64 C145.57,374.89 163.18,384.21 180,390.19 C218.48,403.87 317.6043,420.9685 387.7843,432.1185" fill="none" id="ps-to-kafka" style="stroke:#181818;stroke-width:1;"/><polygon fill="#181818" points="393.71,433.06,385.4491,427.6974,388.7719,432.2755,384.1938,435.5983,393.71,433.06" style="stroke:#181818;stroke-width:1;"/></g><!--link kafka to tas--><g class="link" data-entity-1="kafka" data-entity-2="tas" data-source-line="39" data-uid="lnk29" id="link_kafka_tas"><path d="M461,430.96 C461,414.43 461,391.05 461,372.33" fill="none" id="kafka-to-tas" style="stroke:#181818;stroke-width:1;"/><polygon fill="#181818" points="461,366.33,457,375.33,461,371.33,465,375.33,461,366.33" style="stroke:#181818;stroke-width:1;"/></g><!--link kafka to mss--><g class="link" data-entity-1="kafka" data-entity-2="mss" data-source-line="40" data-uid="lnk30" id="link_kafka_mss"><path d="M528.31,433.49 C586.63,424.33 673.03,409.24 747,390.19 C772.48,383.62 794.6635,376.5324 817.5035,368.5824" fill="none" id="kafka-to-mss" style="stroke:#181818;stroke-width:1;"/><polygon fill="#181818" points="823.17,366.61,813.3553,365.7909,818.4479,368.2536,815.9851,373.3463,823.17,366.61" style="stroke:#181818;stroke-width:1;"/></g><!--link camunda to tas--><g class="link" data-entity-1="camunda" data-entity-2="tas" data-source-line="42" data-uid="lnk31" id="link_camunda_tas"><path d="M322.72,270.24 C335.75,275.16 349.56,280.84 362,286.89 C387.86,299.46 410.7018,313.471 430.2618,326.291" fill="none" id="camunda-to-tas" style="stroke:#181818;stroke-width:1;"/><polygon fill="#181818" points="435.28,329.58,429.9454,321.301,431.0982,326.8391,425.56,327.9919,435.28,329.58" style="stroke:#181818;stroke-width:1;"/></g><!--link camunda to ps--><g class="link" data-entity-1="camunda" data-entity-2="ps" data-source-line="43" data-uid="lnk32" id="link_camunda_ps"><path d="M215.86,270.29 C203.72,275.01 191.17,280.58 180,286.89 C158.9,298.81 141.9726,312.3617 127.2826,325.4317" fill="none" id="camunda-to-ps" style="stroke:#181818;stroke-width:1;"/><polygon fill="#181818" points="122.8,329.42,132.1827,326.426,126.5355,326.0964,126.8651,320.4492,122.8,329.42" style="stroke:#181818;stroke-width:1;"/></g><!--link cc to camunda--><g class="link" data-entity-1="cc" data-entity-2="camunda" data-source-line="44" data-uid="lnk33" id="link_cc_camunda"><path d="M271,329.53 C271,312.55 271,292.94 271,276.04" fill="none" id="cc-to-camunda" style="stroke:#181818;stroke-width:1;"/><polygon fill="#181818" points="271,270.04,267,279.04,271,275.04,275,279.04,271,270.04" style="stroke:#181818;stroke-width:1;"/></g><!--link cc to esb--><g class="link" data-entity-1="cc" data-entity-2="esb" data-source-line="46" data-uid="lnk34" id="link_cc_esb"><path d="M271,366.33 C271,383.24 271,402.85 271,419.83" fill="none" id="cc-to-esb" style="stroke:#181818;stroke-width:1;"/><polygon fill="#181818" points="271,425.83,275,416.83,271,420.83,267,416.83,271,425.83" style="stroke:#181818;stroke-width:1;"/></g><!--link ps to esb--><g class="link" data-entity-1="ps" data-entity-2="esb" data-source-line="47" data-uid="lnk35" id="link_ps_esb"><path d="M135.02,366.55 C164.92,383.44 204.6949,405.9006 234.6349,422.8006" fill="none" id="ps-to-esb" style="stroke:#181818;stroke-width:1;"/><polygon fill="#181818" points="239.86,425.75,233.9886,417.8426,235.5058,423.2922,230.0562,424.8093,239.86,425.75" style="stroke:#181818;stroke-width:1;"/></g><!--link esb to mainframe--><g class="link" data-entity-1="esb" data-entity-2="mainframe" data-source-line="48" data-uid="lnk36" id="link_esb_mainframe"><path d="M307.53,462.9 C327.33,471.58 352.49,481.28 376,486.48 C404.04,492.69 478.04,484.57 505,494.48 C529.97,503.66 549.4119,518.4404 565.8019,533.5004" fill="none" id="esb-to-mainframe" style="stroke:#181818;stroke-width:1;"/><polygon fill="#181818" points="570.22,537.56,566.2992,528.5252,566.5382,534.177,560.8864,534.416,570.22,537.56" style="stroke:#181818;stroke-width:1;"/></g><!--link esb to claims--><g class="link" data-entity-1="esb" data-entity-2="claims" data-source-line="49" data-uid="lnk37" id="link_esb_claims"><path d="M242.32,462.78 C227.87,471.85 210.22,483.35 195,494.48 C176.35,508.13 160.8331,520.8241 145.5831,533.8441" fill="none" id="esb-to-claims" style="stroke:#181818;stroke-width:1;"/><polygon fill="#181818" points="141.02,537.74,150.4619,534.9383,144.8226,534.4934,145.2675,528.8541,141.02,537.74" style="stroke:#181818;stroke-width:1;"/></g><!--link esb to billing--><g class="link" data-entity-1="esb" data-entity-2="billing" data-source-line="50" data-uid="lnk38" id="link_esb_billing"><path d="M271,462.69 C271,482.8 271,509.96 271,531.8" fill="none" id="esb-to-billing" style="stroke:#181818;stroke-width:1;"/><polygon fill="#181818" points="271,537.8,275,528.8,271,532.8,267,528.8,271,537.8" style="stroke:#181818;stroke-width:1;"/></g><!--link esb to dwh--><g class="link" data-entity-1="esb" data-entity-2="dwh" data-source-line="51" data-uid="lnk39" id="link_esb_dwh"><path d="M299.68,462.78 C314.13,471.85 331.78,483.35 347,494.48 C365.65,508.13 381.1669,520.8241 396.4169,533.8441" fill="none" id="esb-to-dwh" style="stroke:#181818;stroke-width:1;"/><polygon fill="#181818" points="400.98,537.74,396.7325,528.8541,397.1774,534.4934,391.5381,534.9383,400.98,537.74" style="stroke:#181818;stroke-width:1;"/></g><!--link mss to sfmc--><g class="link" data-entity-1="mss" data-entity-2="sfmc" data-source-line="52" data-uid="lnk40" id="link_mss_sfmc"><path d="M865.74,366.63 C854.32,404.79 829.0188,489.3615 816.4188,531.5015" fill="none" id="mss-to-sfmc" style="stroke:#181818;stroke-width:1;"/><polygon fill="#181818" points="814.7,537.25,821.1106,529.7731,816.1324,532.4596,813.4459,527.4813,814.7,537.25" style="stroke:#181818;stroke-width:1;"/></g><!--SRC=[PL9BRzim3BxxLn0-5DkXI0yzx3J0STCsM09aTO6T6Pbs1ElXINBJOEX_doG_OhS76NnyfCdlessuQj6W17l2Kf-vgg52OIcnKuPfsMf5oXNk8WWCCOUg5fGaBR86Qu9qgsndg6XFP0ZobtqAQ84P2VyIkDP3-aB871I7B09iYyjqTjZ24pewuoK2iELBm9F1zlHx1-l7nmWuLbNY4TCS3reYLx3dp6XBveqpicaSOj4cxwpJaWpaMZbwT_sux3DiwvF63yorWgBl5f7SVaQ-ectW1Z91nYsW3hzWzsWQSe7eWcePGlC2QRyK7BJWxB90jG7q4LR_sr7d5_-5LOEmUGi5wyv6K1DYI_vob9qg4Nx0jm9h_DultWUNo4snXXLa-Iv2o1wJZvdUEwhHZxI2pRkdIA60uc8ToO7i4XqUqT8q-zwhKlbR6dOSlGKq5yYb7HhrWyN80hJcGWJgic9rVtVNtq0VMi1UlMx1WuS_pn5KdazXFw6x4j821TbA6qPm5ICFkVuiAyd2jluyuVRsPxn2_w8T3iw_QFk36Kr_4QCP54yOYtQl0BSpfvqxyJjLNRrm1CaWovIU-rx_uHUZUACVb1h-4Kp_-euJvMDa87TqHnP7Fn3cnuXs8EG_]--></g></svg>