<svg xmlns="http://www.w3.org/2000/svg" xmlns:xlink="http://www.w3.org/1999/xlink" contentStyleType="text/css" data-diagram-type="DESCRIPTION" height="461px" preserveAspectRatio="none" style="width:760px;height:461px;background:#FFFFFF;" version="1.1" viewBox="0 0 760 461" width="760px" zoomAndPan="magnify"><defs/><g><!--cluster Legacy Systems--><g class="cluster" data-entity="Legacy Systems" data-source-line="6" data-uid="ent0006" id="cluster_Legacy Systems"><rect fill="none" height="96.3" rx="2.5" ry="2.5" style="stroke:#181818;stroke-width:1;" width="733" x="7" y="359.39"/><path d="M143.834,359.39 L143.834,368.6869 L133.834,378.6869 L7,378.6869" fill="none" style="stroke:#181818;stroke-width:1;"/><text fill="#000000" font-family="sans-serif" font-size="14" font-weight="bold" lengthAdjust="spacing" textLength="126.834" x="10" y="373.3851">Legacy Systems</text></g><!--entity Mainframe--><g class="entity" data-entity="Mainframe" data-source-line="7" data-uid="ent0007" id="entity_Mainframe"><path d="M22.92,404.39 C22.92,394.39 92.9976,394.39 92.9976,394.39 C92.9976,394.39 163.0753,394.39 163.0753,404.39 L163.0753,429.6869 C163.0753,439.6869 92.9976,439.6869 92.9976,439.6869 C92.9976,439.6869 22.92,439.6869 22.92,429.6869 L22.92,404.39" fill="#F1F1F1" style="stroke:#181818;stroke-width:0.5;"/><path d="M22.92,404.39 C22.92,414.39 92.9976,414.39 92.9976,414.39 C92.9976,414.39 163.0753,414.39 163.0753,404.39" fill="none" style="stroke:#181818;stroke-width:0.5;"/><text fill="#000000" font-family="sans-serif" font-size="14" lengthAdjust="spacing" textLength="120.1553" x="32.92" y="431.3851">Policy Mainframe</text></g><!--entity Claims--><g class="entity" data-entity="Claims" data-source-line="8" data-uid="ent0008" id="entity_Claims"><path d="M197.99,404.39 C197.99,394.39 253.9959,394.39 253.9959,394.39 C253.9959,394.39 310.0017,394.39 310.0017,404.39 L310.0017,429.6869 C310.0017,439.6869 253.9959,439.6869 253.9959,439.6869 C253.9959,439.6869 197.99,439.6869 197.99,429.6869 L197.99,404.39" fill="#F1F1F1" style="stroke:#181818;stroke-width:0.5;"/><path d="M197.99,404.39 C197.99,414.39 253.9959,414.39 253.9959,414.39 C253.9959,414.39 310.0017,414.39 310.0017,404.39" fill="none" style="stroke:#181818;stroke-width:0.5;"/><text fill="#000000" font-family="sans-serif" font-size="14" lengthAdjust="spacing" textLength="92.0117" x="207.99" y="431.3851">Claims (Java)</text></g><!--entity Billing--><g class="entity" data-entity="Billing" data-source-line="9" data-uid="ent0009" id="entity_Billing"><path d="M344.9,404.39 C344.9,394.39 408.9996,394.39 408.9996,394.39 C408.9996,394.39 473.0992,394.39 473.0992,404.39 L473.0992,429.6869 C473.0992,439.6869 408.9996,439.6869 408.9996,439.6869 C408.9996,439.6869 344.9,439.6869 344.9,429.6869 L344.9,404.39" fill="#F1F1F1" style="stroke:#181818;stroke-width:0.5;"/><path d="M344.9,404.39 C344.9,414.39 408.9996,414.39 408.9996,414.39 C408.9996,414.39 473.0992,414.39 473.0992,404.39" fill="none" style="stroke:#181818;stroke-width:0.5;"/><text fill="#000000" font-family="sans-serif" font-size="14" lengthAdjust="spacing" textLength="108.1992" x="354.9" y="431.3851">Billing (AS/400)</text></g><!--entity DWH--><g class="entity" data-entity="DWH" data-source-line="10" data-uid="ent0010" id="entity_DWH"><path d="M508.35,404.39 C508.35,394.39 615.9979,394.39 615.9979,394.39 C615.9979,394.39 723.6459,394.39 723.6459,404.39 L723.6459,429.6869 C723.6459,439.6869 615.9979,439.6869 615.9979,439.6869 C615.9979,439.6869 508.35,439.6869 508.35,429.6869 L508.35,404.39" fill="#F1F1F1" style="stroke:#181818;stroke-width:0.5;"/><path d="M508.35,404.39 C508.35,414.39 615.9979,414.39 615.9979,414.39 C615.9979,414.39 723.6459,414.39 723.6459,404.39" fill="none" style="stroke:#181818;stroke-width:0.5;"/><text fill="#000000" font-family="sans-serif" font-size="14" lengthAdjust="spacing" textLength="195.2959" x="518.35" y="431.3851">Data Warehouse (Teradata)</text></g><!--entity Agent--><g class="entity" data-entity="Agent" data-source-line="2" data-uid="ent0002" id="entity_Agent"><ellipse cx="337.9986" cy="14" fill="#F1F1F1" rx="8" ry="8" style="stroke:#181818;stroke-width:0.5;"/><path d="M337.9986,22 L337.9986,49 M324.9986,30 L350.9986,30 M337.9986,49 L324.9986,64 M337.9986,49 L350.9986,64" fill="none" style="stroke:#181818;stroke-width:0.5;"/><text fill="#000000" font-family="sans-serif" font-size="14" lengthAdjust="spacing" textLength="114.5771" x="280.71" y="78.4951">Insurance Agent</text></g><!--entity Support--><g class="entity" data-entity="Support" data-source-line="3" data-uid="ent0003" id="entity_Support"><ellipse cx="493.9989" cy="14" fill="#F1F1F1" rx="8" ry="8" style="stroke:#181818;stroke-width:0.5;"/><path d="M493.9989,22 L493.9989,49 M480.9989,30 L506.9989,30 M493.9989,49 L480.9989,64 M493.9989,49 L506.9989,64" fill="none" style="stroke:#181818;stroke-width:0.5;"/><text fill="#000000" font-family="sans-serif" font-size="14" lengthAdjust="spacing" textLength="127.7979" x="430.1" y="78.4951">Customer Support</text></g><!--entity CRM--><g class="entity" data-entity="CRM" data-source-line="4" data-uid="ent0004" id="entity_CRM"><polygon fill="#F1F1F1" points="331.4,152.8,341.4,142.8,500.5992,142.8,500.5992,179.0969,490.5992,189.0969,331.4,189.0969,331.4,152.8" style="stroke:#181818;stroke-width:0.5;"/><line style="stroke:#181818;stroke-width:0.5;" x1="490.5992" x2="500.5992" y1="152.8" y2="142.8"/><line style="stroke:#181818;stroke-width:0.5;" x1="331.4" x2="490.5992" y1="152.8" y2="152.8"/><line style="stroke:#181818;stroke-width:0.5;" x1="490.5992" x2="490.5992" y1="152.8" y2="189.0969"/><text fill="#000000" font-family="sans-serif" font-size="14" lengthAdjust="spacing" textLength="129.1992" x="346.4" y="175.7951">InsureSphere CRM</text></g><!--entity ESB--><g class="entity" data-entity="ESB" data-source-line="5" data-uid="ent0005" id="entity_ESB"><polygon fill="#F1F1F1" points="219.2,276.1,229.2,266.1,442.7928,266.1,442.7928,302.3969,432.7928,312.3969,219.2,312.3969,219.2,276.1" style="stroke:#181818;stroke-width:0.5;"/><line style="stroke:#181818;stroke-width:0.5;" x1="432.7928" x2="442.7928" y1="276.1" y2="266.1"/><line style="stroke:#181818;stroke-width:0.5;" x1="219.2" x2="432.7928" y1="276.1" y2="276.1"/><line style="stroke:#181818;stroke-width:0.5;" x1="432.7928" x2="432.7928" y1="276.1" y2="312.3969"/><text fill="#000000" font-family="sans-serif" font-size="14" lengthAdjust="spacing" textLength="183.5928" x="234.2" y="299.0951">Integration Platform (ESB)</text></g><!--entity SFMC--><g class="entity" data-entity="SFMC" data-source-line="12" data-uid="ent0011" id="entity_SFMC"><path d="M487.2865,276.7766 C490.4808,267.6724 495.9876,267.278 502.2902,273.7903 C506.7037,265.3275 512.3203,267.1618 517.4214,273.0661 C521.5127,267.5125 527.8944,267.1498 531.4329,273.7055 C534.7466,265.8264 542.1868,265.106 546.3731,272.8722 C551.2509,266.4108 555.4631,267.5008 559.6502,273.6022 C563.006,264.7173 569.3431,264.0261 574.8367,271.6337 C578.1259,263.2942 585.6763,262.1316 590.3913,270.2894 C595.6254,264.4363 602.6104,265.9364 605.3278,273.1633 C608.4395,266.9793 614.6802,266.1554 618.9352,271.8541 C623.624,263.5594 630.9853,263.2693 635.4178,272.1008 C641.0968,266.6438 645.6308,267.7467 648.7481,274.8249 C653.1025,267.6596 657.5538,266.387 663.2775,273.4242 C668.1605,267.8302 674.3516,269.0338 677.5935,275.3901 C681.7021,268.1851 689.3565,266.5457 694.322,274.4409 C703.4346,275.0066 709.0842,282.3459 703.7405,291.0898 C707.0568,301.3405 702.7254,305.4904 692.6932,305.5268 C689.4085,312.4968 683.5931,313.0678 679.038,306.8414 C674.9535,314.7194 668.8735,313.0659 664.4486,307.2028 C660.3646,315.7046 653.0632,315.0069 648.5164,307.6683 C645.179,314.1217 639.4601,316.7203 634.2025,309.7096 C631.4642,316.4249 624.5933,316.5522 620.4959,311.2613 C615.6712,318.1501 608.9415,318.3003 605.04,310.3028 C601.2391,318.0099 594.8137,318.4449 589.9189,311.4261 C586.346,316.8503 580.4871,317.6641 577.0366,311.2925 C572.9606,319.6548 565.4526,318.2106 561.3767,311.2924 C555.912,317.9534 549.3647,314.8701 546.9818,308.0111 C543.1475,313.9347 536.2652,314.0802 532.896,307.4875 C528.2829,313.9162 521.197,314.8248 517.7145,306.3368 C513.8884,313.6244 506.9381,313.4334 502.5255,306.9854 C498.4689,312.9803 491.6085,312.3153 488.1105,306.3141 C477.3807,306.5681 473.8447,301.1719 477.2022,291.235 C472.7263,281.3351 477.3469,276.622 487.2865,276.7766" fill="#F1F1F1" style="stroke:#181818;stroke-width:0.5;"/><text fill="#000000" font-family="sans-serif" font-size="14" lengthAdjust="spacing" textLength="191.9873" x="493.01" y="294.0951">Salesforce Marketing Cloud</text></g><!--link Agent to CRM--><g class="link" data-entity-1="Agent" data-entity-2="CRM" data-source-line="13" data-uid="lnk12" id="link_Agent_CRM"><path d="M362.25,82.05 C375.13,101.92 387.2678,120.6243 398.2678,137.6043" fill="none" id="Agent-to-CRM" style="stroke:#181818;stroke-width:1;"/><polygon fill="#181818" points="401.53,142.64,399.9938,132.9117,398.8115,138.4436,393.2796,137.2613,401.53,142.64" style="stroke:#181818;stroke-width:1;"/></g><!--link Support to CRM--><g class="link" data-entity-1="Support" data-entity-2="CRM" data-source-line="14" data-uid="lnk13" id="link_Support_CRM"><path d="M469.75,82.05 C456.87,101.92 444.7322,120.6243 433.7322,137.6043" fill="none" id="Support-to-CRM" style="stroke:#181818;stroke-width:1;"/><polygon fill="#181818" points="430.47,142.64,438.7204,137.2613,433.1885,138.4436,432.0062,132.9117,430.47,142.64" style="stroke:#181818;stroke-width:1;"/></g><!--link CRM to ESB--><g class="link" data-entity-1="CRM" data-entity-2="ESB" data-source-line="15" data-uid="lnk14" id="link_CRM_ESB"><path d="M396.22,189.49 C388.65,198.47 380.14,209.05 373,219.1 C362.34,234.1 354.6044,246.6564 346.6444,260.4164" fill="none" id="CRM-to-ESB" style="stroke:#181818;stroke-width:1;"/><polygon fill="#181818" points="343.64,265.61,351.609,259.8226,346.1437,261.282,344.6843,255.8167,343.64,265.61" style="stroke:#181818;stroke-width:1;"/></g><!--link ESB to Mainframe--><g class="link" data-entity-1="ESB" data-entity-2="Mainframe" data-source-line="16" data-uid="lnk15" id="link_ESB_Mainframe"><path d="M265.02,312.78 C237.95,323.09 206.75,336.36 180,351.39 C158.18,363.65 140.2199,376.8528 123.5099,390.3328" fill="none" id="ESB-to-Mainframe" style="stroke:#181818;stroke-width:1;"/><polygon fill="#181818" points="118.84,394.1,128.3563,391.5624,122.7316,390.9606,123.3334,385.3359,118.84,394.1" style="stroke:#181818;stroke-width:1;"/></g><!--link ESB to Claims--><g class="link" data-entity-1="ESB" data-entity-2="Claims" data-source-line="17" data-uid="lnk16" id="link_ESB_Claims"><path d="M317.23,312.73 C303.13,335.77 284.4821,366.2424 270.5221,389.0524" fill="none" id="ESB-to-Claims" style="stroke:#181818;stroke-width:1;"/><polygon fill="#181818" points="267.39,394.17,275.4998,388.5816,270,389.9053,268.6763,384.4055,267.39,394.17" style="stroke:#181818;stroke-width:1;"/></g><!--link ESB to Billing--><g class="link" data-entity-1="ESB" data-entity-2="Billing" data-source-line="18" data-uid="lnk17" id="link_ESB_Billing"><path d="M344.94,312.73 C359.23,335.77 378.1271,366.2614 392.2771,389.0714" fill="none" id="ESB-to-Billing" style="stroke:#181818;stroke-width:1;"/><polygon fill="#181818" points="395.44,394.17,394.0947,384.4134,392.8043,389.9211,387.2966,388.6306,395.44,394.17" style="stroke:#181818;stroke-width:1;"/></g><!--link ESB to DWH--><g class="link" data-entity-1="ESB" data-entity-2="DWH" data-source-line="19" data-uid="lnk18" id="link_ESB_DWH"><path d="M395.13,312.88 C424.64,323.77 459.93,337.47 491,351.39 C519.99,364.38 546.4869,378.0059 570.7469,391.0659" fill="none" id="ESB-to-DWH" style="stroke:#181818;stroke-width:1;"/><polygon fill="#181818" points="576.03,393.91,570.0014,386.1218,571.6274,391.5399,566.2093,393.166,576.03,393.91" style="stroke:#181818;stroke-width:1;"/></g><!--link CRM to SFMC--><g class="link" data-entity-1="CRM" data-entity-2="SFMC" data-source-line="20" data-uid="lnk19" id="link_CRM_SFMC"><path d="M408.27,189.33 C404.7,204.03 403.15,222.91 413,236.1 C421.96,248.1 442.2857,256.7257 471.7457,264.8457" fill="none" id="CRM-to-SFMC" style="stroke:#181818;stroke-width:1;"/><polygon fill="#181818" points="477.53,266.44,469.9164,260.1923,472.7097,265.1114,467.7907,267.9047,477.53,266.44" style="stroke:#181818;stroke-width:1;"/><text fill="#000000" font-family="sans-serif" font-size="13" lengthAdjust="spacing" textLength="131.4282" x="414" y="232.1669">tokenized segments</text></g><!--link SFMC to CRM--><g class="link" data-entity-1="SFMC" data-entity-2="CRM" data-source-line="21" data-uid="lnk20" id="link_SFMC_CRM"><path d="M580.94,265.65 C574.58,250.68 564.37,231.55 550,219.1 C535.57,206.59 523.3373,199.2106 505.5073,191.7706" fill="none" id="SFMC-to-CRM" style="stroke:#181818;stroke-width:1;"/><polygon fill="#181818" points="499.97,189.46,506.7355,196.6173,504.5844,191.3855,509.8163,189.2343,499.97,189.46" style="stroke:#181818;stroke-width:1;"/><text fill="#000000" font-family="sans-serif" font-size="13" lengthAdjust="spacing" textLength="187.9097" x="565" y="232.1669">campaign results (token IDs)</text></g><!--SRC=[LL3BRk904BpxApgSoC6ObNBAOIKmMIqhBA4r4UV6Rimeyx2cnqH9jF- -xR5Dn64qrLtLhtgewQmimUfOxb-B7Ln2QFavopo-BneLBjsfO_ALiu5iM5JEPFZE6a_S_waIWjEpyschqOREwEpwuscnp7QhmqjvoCQk2LR1UPXjBNSURINZ6cat0-G1JOAyu-0CUIYxjdL-K8muiQwciGULxOKyGVwtY1BvRtIWncDGpi9UOv3T3CnVolLZ50f8pXwDA7VKOFK1vGS7CZo3hmIWne0dP67tJYjX2rGswcFrBRgJvXgLOPZ_mIiEKuRCdMYjj5QsWVcgp9wMoq4t9k-46q5mH4yN9yx3_40UUtQes1n_9_-IIhkkXbc9cbWE53yBz6yK-W5vpms-_Iho9DeBQVepUZHQUOlbHTpR8Y_YxoEdp7ZE54vRJt6_qzIedmdF4DmRMVL9DJ0rHZRW93BZN55KQ5fKZGLFtEaWziKQs6xuyJy0]--></g></svg>