<svg xmlns="http://www.w3.org/2000/svg" xmlns:xlink="http://www.w3.org/1999/xlink" contentStyleType="text/css" data-diagram-type="DESCRIPTION" height="769px" preserveAspectRatio="none" style="width:2872px;height:769px;background:#FFFFFF;" version="1.1" viewBox="0 0 2872 769" width="2872px" zoomAndPan="magnify"><defs/><g><!--cluster Azure West Europe (Primary)--><g class="cluster" data-entity="Azure West Europe .Primary." data-source-line="9" data-uid="ent0002" id="cluster_Azure West Europe .Primary."><path d="M89.141,163.2336 C127.7316,110.0846 158.057,121.4427 190.7039,169.2151 C222.6273,118.564 255.3288,116.8501 295.2371,160.3497 C333.6728,124.2426 361.8656,131.1763 389.2937,173.5431 C417.4731,120.0621 448.8754,115.3771 488.7992,161.8517 C520.5375,108.1576 563.4132,106.1955 596.5914,160.4134 C628.8121,115.7725 665.9072,115.3999 696.6398,162.0445 C725.5107,119.3178 772.2195,114.4818 796.3244,167.0311 C824.6579,116.6294 856.3349,110.7019 892.9326,158.9368 C931.7508,123.4027 964.8355,113.0728 992.1593,171.124 C1025.1479,122.443 1065.2295,117.6956 1102.3649,166.4328 C1134.76,118.4559 1176.0576,124.8077 1200.3064,174.5939 C1232.2753,130.0052 1263.0169,120.6072 1300.5057,168.6211 C1327.5476,119.9096 1377.4463,117.4616 1405.6775,167.3525 C1434.5077,118.0255 1468.4344,119.3665 1496.7953,167.79 C1503.0952,169.3695 1504.3352,173.608 1500.5886,178.6853 C1554.645,213.7203 1572.167,254.1231 1512.5599,300.3429 C1580.5153,340.833 1563.5878,393.4897 1509.9848,431.5948 C1572.7138,463.2399 1566.7856,519.5684 1517.8193,558.1293 C1556.545,603.2668 1559.9111,655.3334 1489.7953,674.19 C1495.4326,670.0789 1500.1169,669.9239 1502.4748,677.6908 C1479.1166,737.2312 1425.9632,745.9483 1389.3478,690.7633 C1358.9729,744.8429 1322.4551,732.1231 1290.4993,692.4298 C1253.7301,729.75 1212.0958,723.6208 1187.6177,677.3096 C1168.9598,725.153 1131.6438,726.8164 1101.2339,689.1869 C1070.3195,743.0501 1032.2634,731.8764 1000.9141,689.641 C971.8506,740.6451 926.5243,737.1116 893.3842,694.3142 C862.9769,739.9689 824.618,733.8392 799.8351,688.53 C763.3722,739.0681 730.5925,743.2056 693.268,689.41 C654.7536,731.3204 620.7479,725.5518 589.4203,680.7984 C568.6846,722.2371 528.6859,732.7188 499.4938,689.8145 C465.7001,744.8146 412.3757,747.8794 382.3607,686.0267 C360.9136,725.2441 322.8154,733.4255 298.0256,689.4138 C252.6235,745.8423 218.8584,734.9641 186.8131,676.4864 C153.2818,729.1379 96.7164,721.0667 71.7953,667.19 C76.6426,666.7475 79.0117,669.6345 76.8415,674.2254 C12.206,645.1951 19.4749,587.2256 74.3763,555.7089 C15.0277,518.8587 14.3906,464.3817 72.8808,426.1711 C18.5881,384.938 12.6649,341.014 78.978,305.8948 C6,267.8822 16.6415,198.9727 78.7953,160.79 C83.4312,157.2216 86.7643,157.2368 89.141,163.2336" fill="#ADD8E6" style="stroke:#181818;stroke-width:1;"/><text fill="#000000" font-family="sans-serif" font-size="14" font-weight="bold" lengthAdjust="spacing" textLength="230.3301" x="669.1302" y="178.7851">Azure West Europe (Primary)</text></g><!--cluster aks_primary--><g class="cluster" data-entity="aks_primary" data-source-line="10" data-uid="ent0003" id="cluster_aks_primary"><polygon fill="none" points="103.7953,221.79,113.7953,211.79,483.7953,211.79,483.7953,527.89,473.7953,537.89,103.7953,537.89,103.7953,221.79" style="stroke:#181818;stroke-width:1;"/><line style="stroke:#181818;stroke-width:1;" x1="473.7953" x2="483.7953" y1="221.79" y2="211.79"/><line style="stroke:#181818;stroke-width:1;" x1="103.7953" x2="473.7953" y1="221.79" y2="221.79"/><line style="stroke:#181818;stroke-width:1;" x1="473.7953" x2="473.7953" y1="221.79" y2="537.89"/><text fill="#000000" font-family="sans-serif" font-size="14" font-weight="bold" lengthAdjust="spacing" textLength="93.1055" x="243.2425" y="237.7851">AKS Cluster</text></g><!--cluster Azure North Europe (DR)--><g class="cluster" data-entity="Azure North Europe .DR." data-source-line="19" data-uid="ent0010" id="cluster_Azure North Europe .DR."><path d="M1557.2758,634.5018 C1578.7283,602.7438 1598.0592,609.2751 1619.7391,634.2514 C1637.3818,591.9008 1677.9893,595.5271 1701.6354,627.6495 C1723.378,591.6479 1755.1058,591.9447 1780.268,623.6798 C1803.2981,590.9709 1831.4207,600.5354 1847.7655,630.8407 C1872.0449,599.4396 1894.2586,595.016 1916.1593,633.1795 C1939.5805,594.7148 1969.0735,592.9491 1993.8095,631.86 C2015.9272,601.7459 2040.5521,600.4419 2063.8623,630.471 C2088.0089,585.2793 2122.8302,584.8965 2150.0716,627.4296 C2166.1333,597.5139 2197.703,601.6172 2213.3777,627.8658 C2236.695,586.7656 2269.6262,589.5321 2294.2907,626.4691 C2317.2922,592.4987 2348.1116,587.7273 2371.1945,626.3829 C2389.6018,597.5659 2421.8393,591.7537 2439.1655,627.5207 C2462.5434,594.447 2490.4413,589.4832 2517.2046,623.5879 C2536.8024,589.4363 2567.9807,594.1107 2584.1541,627.0073 C2594.2968,631.8691 2595.3264,640.4578 2585.5057,646.6904 C2594.7652,651.6729 2594.5681,657.2939 2588.1361,664.5831 C2599.0249,672.0854 2598.3028,681.8167 2586.1275,687.2777 C2595.1909,691.772 2597.3867,698.834 2590.127,706.6912 C2570.3252,743.4557 2539.7189,752.7982 2511.564,715.5589 C2487.6376,749.8711 2467.2809,750.6761 2444.1433,714.8012 C2424.0748,751.6394 2388.4565,748.6826 2372.6601,710.7187 C2351.3344,747.3501 2323.3192,743.9271 2299.0557,713.9657 C2277.4463,757.1362 2251.5938,752.7751 2222.5337,721.6385 C2192.0155,750.7262 2166.6695,747.9768 2143.9261,712.2143 C2124.2736,749.5075 2101.9244,747.1885 2074.3885,720.8261 C2042.6174,762.26 2018.7209,754.4057 1993.4256,714.3892 C1969.647,755.7922 1940.4422,753.9024 1915.7591,715.2669 C1896.8932,750.0602 1866.933,746.4184 1847.7008,715.6471 C1827.7548,755.5972 1793.3548,747.6036 1773.4885,715.5649 C1746.1266,749.118 1722.3887,746.5068 1703.9715,707.0483 C1682.3081,743.0195 1651.9557,742.3554 1626.2614,711.7536 C1597.048,748.6896 1570.3855,749.8025 1545.7719,707.1045 C1532.5301,703.1888 1532.8471,693.5299 1540.5436,684.723 C1531.4701,681.4223 1529.6868,675.0263 1536.7008,668.0236 C1526.0261,658.7049 1528.8817,651.7367 1540.0723,645.7237 C1539.0962,634.0763 1547.8548,630.2102 1557.2758,634.5018" fill="#ADD8E6" style="stroke:#181818;stroke-width:1;"/><text fill="#000000" font-family="sans-serif" font-size="14" font-weight="bold" lengthAdjust="spacing" textLength="195.6377" x="1965.9764" y="641.6751">Azure North Europe (DR)</text></g><!--entity pg_primary--><g class="entity" data-entity="pg_primary" data-source-line="14" data-uid="ent0006" id="entity_pg_primary"><path d="M960.0953,516.89 C960.0953,506.89 1099.7969,506.89 1099.7969,506.89 C1099.7969,506.89 1239.4986,506.89 1239.4986,516.89 L1239.4986,542.1869 C1239.4986,552.1869 1099.7969,552.1869 1099.7969,552.1869 C1099.7969,552.1869 960.0953,552.1869 960.0953,542.1869 L960.0953,516.89" fill="#F1F1F1" style="stroke:#181818;stroke-width:0.5;"/><path d="M960.0953,516.89 C960.0953,526.89 1099.7969,526.89 1099.7969,526.89 C1099.7969,526.89 1239.4986,526.89 1239.4986,516.89" fill="none" style="stroke:#181818;stroke-width:0.5;"/><text fill="#000000" font-family="sans-serif" font-size="14" lengthAdjust="spacing" textLength="259.4033" x="970.0953" y="543.8851">PostgreSQL Flexible Server (Primary)</text></g><!--entity kafka_primary--><g class="entity" data-entity="kafka_primary" data-source-line="15" data-uid="ent0007" id="entity_kafka_primary"><path d="M1279.5653,516.39 L1476.0292,516.39 C1481.0292,516.39 1481.0292,529.5384 1481.0292,529.5384 C1481.0292,529.5384 1481.0292,542.6869 1476.0292,542.6869 L1279.5653,542.6869 C1274.5653,542.6869 1274.5653,529.5384 1274.5653,529.5384 C1274.5653,529.5384 1274.5653,516.39 1279.5653,516.39" fill="#F1F1F1" style="stroke:#181818;stroke-width:0.5;"/><path d="M1476.0292,516.39 C1471.0292,516.39 1471.0292,529.5384 1471.0292,529.5384 C1471.0292,542.6869 1476.0292,542.6869 1476.0292,542.6869" fill="none" style="stroke:#181818;stroke-width:0.5;"/><text fill="#000000" font-family="sans-serif" font-size="14" lengthAdjust="spacing" textLength="186.4639" x="1279.5653" y="534.3851">Confluent Kafka (West-EU)</text></g><!--entity mule_primary--><g class="entity" data-entity="mule_primary" data-source-line="16" data-uid="ent0008" id="entity_mule_primary"><polygon fill="#F1F1F1" points="507.5153,516.39,517.5153,506.39,718.0788,506.39,718.0788,542.6869,708.0788,552.6869,507.5153,552.6869,507.5153,516.39" style="stroke:#181818;stroke-width:0.5;"/><line style="stroke:#181818;stroke-width:0.5;" x1="708.0788" x2="718.0788" y1="516.39" y2="506.39"/><line style="stroke:#181818;stroke-width:0.5;" x1="507.5153" x2="708.0788" y1="516.39" y2="516.39"/><line style="stroke:#181818;stroke-width:0.5;" x1="708.0788" x2="708.0788" y1="516.39" y2="552.6869"/><text fill="#000000" font-family="sans-serif" font-size="14" lengthAdjust="spacing" textLength="170.5635" x="522.5153" y="539.3851">MuleSoft RTF (Adapters)</text></g><!--entity blob_primary--><g class="entity" data-entity="blob_primary" data-source-line="17" data-uid="ent0009" id="entity_blob_primary"><rect fill="#F1F1F1" height="36.2969" rx="35" ry="35" style="stroke:#181818;stroke-width:0.5;" width="172.2158" x="752.6853" y="511.39"/><text fill="#000000" font-family="sans-serif" font-size="14" lengthAdjust="spacing" textLength="152.2158" x="762.6853" y="534.3851">Blob Storage (WORM)</text></g><!--entity ms--><g class="entity" data-entity="ms" data-source-line="11" data-uid="ent0004" id="entity_ms"><rect fill="#F1F1F1" height="46.2969" rx="2.5" ry="2.5" style="stroke:#181818;stroke-width:0.5;" width="194.2051" x="265.6953" y="383.09"/><rect fill="#F1F1F1" height="10" style="stroke:#181818;stroke-width:0.5;" width="15" x="439.9004" y="388.09"/><rect fill="#F1F1F1" height="2" style="stroke:#181818;stroke-width:0.5;" width="4" x="437.9004" y="390.09"/><rect fill="#F1F1F1" height="2" style="stroke:#181818;stroke-width:0.5;" width="4" x="437.9004" y="394.09"/><text fill="#000000" font-family="sans-serif" font-size="14" lengthAdjust="spacing" textLength="154.2051" x="280.6953" y="416.0851">Domain Microservices</text></g><!--entity gateway--><g class="entity" data-entity="gateway" data-source-line="12" data-uid="ent0005" id="entity_gateway"><rect fill="#F1F1F1" height="46.2969" rx="2.5" ry="2.5" style="stroke:#181818;stroke-width:0.5;" width="179.3232" x="266.1353" y="259.79"/><rect fill="#F1F1F1" height="10" style="stroke:#181818;stroke-width:0.5;" width="15" x="425.4585" y="264.79"/><rect fill="#F1F1F1" height="2" style="stroke:#181818;stroke-width:0.5;" width="4" x="423.4585" y="266.79"/><rect fill="#F1F1F1" height="2" style="stroke:#181818;stroke-width:0.5;" width="4" x="423.4585" y="270.79"/><text fill="#000000" font-family="sans-serif" font-size="14" lengthAdjust="spacing" textLength="139.3232" x="281.1353" y="292.7851">API Gateway (Kong)</text></g><!--entity aks_dr--><g class="entity" data-entity="aks_dr" data-source-line="20" data-uid="ent0011" id="entity_aks_dr"><polygon fill="#F1F1F1" points="1552.6753,660.68,1562.6753,650.68,1708.9204,650.68,1708.9204,686.9769,1698.9204,696.9769,1552.6753,696.9769,1552.6753,660.68" style="stroke:#181818;stroke-width:0.5;"/><line style="stroke:#181818;stroke-width:0.5;" x1="1698.9204" x2="1708.9204" y1="660.68" y2="650.68"/><line style="stroke:#181818;stroke-width:0.5;" x1="1552.6753" x2="1698.9204" y1="660.68" y2="660.68"/><line style="stroke:#181818;stroke-width:0.5;" x1="1698.9204" x2="1698.9204" y1="660.68" y2="696.9769"/><text fill="#000000" font-family="sans-serif" font-size="14" lengthAdjust="spacing" textLength="116.2451" x="1567.6753" y="683.6751">AKS Cluster - DR</text></g><!--entity pg_dr--><g class="entity" data-entity="pg_dr" data-source-line="21" data-uid="ent0012" id="entity_pg_dr"><path d="M2166.0153,661.18 C2166.0153,651.18 2260.798,651.18 2260.798,651.18 C2260.798,651.18 2355.5807,651.18 2355.5807,661.18 L2355.5807,686.4769 C2355.5807,696.4769 2260.798,696.4769 2260.798,696.4769 C2260.798,696.4769 2166.0153,696.4769 2166.0153,686.4769 L2166.0153,661.18" fill="#F1F1F1" style="stroke:#181818;stroke-width:0.5;"/><path d="M2166.0153,661.18 C2166.0153,671.18 2260.798,671.18 2260.798,671.18 C2260.798,671.18 2355.5807,671.18 2355.5807,661.18" fill="none" style="stroke:#181818;stroke-width:0.5;"/><text fill="#000000" font-family="sans-serif" font-size="14" lengthAdjust="spacing" textLength="169.5654" x="2176.0153" y="688.1751">PostgreSQL Geo-Replica</text></g><!--entity kafka_dr--><g class="entity" data-entity="kafka_dr" data-source-line="22" data-uid="ent0013" id="entity_kafka_dr"><path d="M2395.6453,660.68 L2569.947,660.68 C2574.947,660.68 2574.947,673.8284 2574.947,673.8284 C2574.947,673.8284 2574.947,686.9769 2569.947,686.9769 L2395.6453,686.9769 C2390.6453,686.9769 2390.6453,673.8284 2390.6453,673.8284 C2390.6453,673.8284 2390.6453,660.68 2395.6453,660.68" fill="#F1F1F1" style="stroke:#181818;stroke-width:0.5;"/><path d="M2569.947,660.68 C2564.947,660.68 2564.947,673.8284 2564.947,673.8284 C2564.947,686.9769 2569.947,686.9769 2569.947,686.9769" fill="none" style="stroke:#181818;stroke-width:0.5;"/><text fill="#000000" font-family="sans-serif" font-size="14" lengthAdjust="spacing" textLength="164.3018" x="2395.6453" y="678.6751">Kafka Mirror (North-EU)</text></g><!--entity blob_dr--><g class="entity" data-entity="blob_dr" data-source-line="23" data-uid="ent0014" id="entity_blob_dr"><rect fill="#F1F1F1" height="36.2969" rx="35" ry="35" style="stroke:#181818;stroke-width:0.5;" width="146.0547" x="1984.7653" y="655.68"/><text fill="#000000" font-family="sans-serif" font-size="14" lengthAdjust="spacing" textLength="126.0547" x="1994.7653" y="678.6751">Blob Storage (DR)</text></g><!--entity mule_dr--><g class="entity" data-entity="mule_dr" data-source-line="24" data-uid="ent0015" id="entity_mule_dr"><polygon fill="#F1F1F1" points="1744.1153,660.68,1754.1153,650.68,1949.4834,650.68,1949.4834,686.9769,1939.4834,696.9769,1744.1153,696.9769,1744.1153,660.68" style="stroke:#181818;stroke-width:0.5;"/><line style="stroke:#181818;stroke-width:0.5;" x1="1939.4834" x2="1949.4834" y1="660.68" y2="650.68"/><line style="stroke:#181818;stroke-width:0.5;" x1="1744.1153" x2="1939.4834" y1="660.68" y2="660.68"/><line style="stroke:#181818;stroke-width:0.5;" x1="1939.4834" x2="1939.4834" y1="660.68" y2="696.9769"/><text fill="#000000" font-family="sans-serif" font-size="14" lengthAdjust="spacing" textLength="165.3682" x="1759.1153" y="683.6751">MuleSoft RTF (Standby)</text></g><!--entity camunda--><g class="entity" data-entity="camunda" data-source-line="26" data-uid="ent0016" id="entity_camunda"><path d="M1536.446,516.1335 C1542.482,507.6931 1549.2983,507.3864 1555.4909,515.9582 C1560.697,506.2107 1569.7158,507.6701 1575.2554,515.5851 C1580.3106,506.287 1586.8966,506.4204 1593.2363,514.2354 C1597.4884,505.4092 1604.5146,505.127 1610.2597,512.684 C1614.5856,504.1451 1622.2616,502.4122 1627.7211,511.5651 C1634.3751,502.9799 1641.7988,503.3406 1646.2426,513.7234 C1651.2752,503.008 1657.537,503.8778 1664.7822,511.4844 C1670.0199,504.0457 1678.0843,502.4659 1682.712,512.1241 C1688.9206,504.5279 1696.4746,505.3414 1701.0296,513.9889 C1707.4948,506.9055 1713.7068,505.0651 1718.9328,515.272 C1724.5502,506.8712 1729.8793,507.4257 1735.5784,515.1879 C1741.7999,506.2933 1749.2212,506.1849 1755.7496,514.8351 C1761.5931,507.3809 1767.9319,507.4577 1773.7613,514.8523 C1778.8749,507.0448 1785.5227,507.3164 1790.8717,514.5851 C1802.2795,517.0472 1805.2741,522.7818 1798.0886,532.6655 C1802.3999,541.2486 1800.1577,546.7801 1790.1323,547.8519 C1784.2994,557.6246 1775.8159,556.4104 1771.4011,546.5022 C1765.197,554.6319 1759.5066,555.6414 1753.226,546.5831 C1748.8557,555.4173 1742.7323,554.7127 1737.5197,547.4027 C1731.4547,557.7261 1724.0062,558.2318 1717.8653,547.4735 C1713.0479,556.7722 1707.6924,556.6135 1701.436,548.8599 C1696.3486,556.6536 1688.9493,556.0538 1683.8037,548.9286 C1679.1237,558.6126 1671.4866,558.196 1665.2852,550.5548 C1659.2723,558.6133 1650.0028,557.5257 1645.396,548.8806 C1639.3866,557.5606 1632.9885,558.9356 1626.9738,548.8858 C1622.4064,556.6416 1616.4049,555.2597 1611.804,548.9219 C1606.6056,556.8315 1597.2494,557.9716 1593.0469,547.884 C1587.3741,556.2334 1578.271,556.3203 1574.6827,545.8499 C1569.8977,553.9982 1560.6672,555.7316 1555.8522,545.8813 C1550.2853,555.723 1541.8109,553.7923 1536.871,545.2344 C1533.1539,544.1715 1531.4099,541.0957 1534.6661,537.9283 C1530.5017,536.4241 1529.5159,532.6871 1533.4286,529.9327 C1530.3404,526.8326 1531.8977,523.0947 1535.743,522.0234 C1533.3484,519.954 1533.5302,517.5692 1536.446,516.1335" fill="#ADD8E6" style="stroke:#181818;stroke-width:0.5;"/><text fill="#000000" font-family="sans-serif" font-size="14" lengthAdjust="spacing" textLength="238.7246" x="1543.4353" y="534.3851">Camunda 8 SaaS (dual-region EU)</text></g><!--entity sfmc--><g class="entity" data-entity="sfmc" data-source-line="27" data-uid="ent0017" id="entity_sfmc"><path d="M2620.651,660.8457 C2624.8311,652.6906 2631.5382,651.4028 2637.6459,658.7297 C2642.5882,650.3772 2650.4757,652.4642 2654.2549,659.9495 C2659.03,653.2138 2664.4832,650.6141 2670.1296,659.0371 C2674.48,649.8251 2683.2562,651.5355 2687.9623,658.6486 C2691.3644,648.8462 2700.2979,649.9456 2705.6239,656.5815 C2710.4484,648.0021 2716.5196,647.0617 2722.6879,655.2106 C2728.0107,646.3319 2736.9519,648.014 2740.7369,656.7834 C2746.0627,649.2007 2751.09,649.2227 2755.5331,657.6017 C2761.0316,649.8826 2766.7245,648.7412 2773.0222,656.7108 C2779.1121,648.7948 2787.8583,649.9472 2791.8075,659.0708 C2796.1597,651.356 2804.2787,651.3498 2808.7212,658.9712 C2813.2699,650.7325 2818.1913,649.5292 2824.2104,657.5724 C2831.3338,650.2873 2837.5125,652.1475 2841.0136,661.2799 C2845.2374,651.7552 2853.1793,650.6806 2859.2281,659.4643 C2863.543,660.8711 2864.052,664.7701 2860.397,667.3572 C2864.4569,668.8611 2865.2009,672.4259 2861.6443,675.149 C2864.6371,678.0401 2863.5348,681.1723 2859.5508,681.8997 C2864.5547,684.6508 2864.62,687.8003 2860.45,691.418 C2855.1019,700.5253 2846.4271,700.7691 2841.9517,690.5813 C2838.9698,697.8419 2832.8594,699.8598 2826.7605,694.2644 C2819.8299,703.5846 2813.5391,704.4162 2806.9752,693.8987 C2803.3698,703.3886 2797.3281,703.3162 2790.4731,697.3735 C2785.849,705.5216 2780.5519,705.7272 2774.7526,698.5814 C2768.9294,708.2058 2762.0371,708.7538 2755.0688,699.7943 C2750.2296,706.243 2745.369,707.1335 2740.7924,699.5274 C2735.6304,708.608 2726.1177,708.2379 2721.2526,699.2072 C2715.6891,704.9693 2708.3558,705.3113 2705.8023,696.1011 C2700.8954,703.1684 2693.6536,704.6321 2688.7729,696.0726 C2682.5215,704.5453 2676.0877,705.2269 2670.3651,695.5366 C2663.7804,701.6363 2656.2045,702.4944 2653.0418,691.9705 C2648.7229,699.4668 2642.5601,699.6418 2637.361,692.9428 C2630.421,700.7482 2623.5338,700.0429 2619.1395,690.2995 C2608.644,691.3392 2603.698,683.5171 2608.2376,674.3073 C2605.9427,665.0791 2611.205,659.2472 2620.651,660.8457" fill="#ADD8E6" style="stroke:#181818;stroke-width:0.5;"/><text fill="#000000" font-family="sans-serif" font-size="14" lengthAdjust="spacing" textLength="226.4951" x="2624.5453" y="678.6751">Salesforce Marketing Cloud (US)</text></g><!--entity user--><g class="entity" data-entity="user" data-source-line="28" data-uid="ent0018" id="entity_user"><ellipse cx="355.7962" cy="14" fill="#F1F1F1" rx="8" ry="8" style="stroke:#181818;stroke-width:0.5;"/><path d="M355.7962,22 L355.7962,49 M342.7962,30 L368.7962,30 M355.7962,49 L342.7962,64 M355.7962,49 L368.7962,64" fill="none" style="stroke:#181818;stroke-width:0.5;"/><text fill="#000000" font-family="sans-serif" font-size="14" lengthAdjust="spacing" textLength="130.9219" x="290.3353" y="78.4951">Browser / Agent UI</text></g><!--link user to gateway--><g class="link" data-entity-1="user" data-entity-2="gateway" data-source-line="30" data-uid="lnk19" id="link_user_gateway"><path d="M355.7953,82.24 C355.7953,132.17 355.7953,212.76 355.7953,253.51" fill="none" id="user-to-gateway" style="stroke:#181818;stroke-width:1;"/><polygon fill="#181818" points="355.7953,259.51,359.7953,250.51,355.7953,254.51,351.7953,250.51,355.7953,259.51" style="stroke:#181818;stroke-width:1;"/><text fill="#000000" font-family="sans-serif" font-size="13" lengthAdjust="spacing" textLength="41.7485" x="356.7953" y="124.8569">HTTPS</text></g><!--link gateway to ms--><g class="link" data-entity-1="gateway" data-entity-2="ms" data-source-line="31" data-uid="lnk20" id="link_gateway_ms"><path d="M357.0953,306.47 C358.3553,328.26 359.8983,355.09 361.1583,376.84" fill="none" id="gateway-to-ms" style="stroke:#181818;stroke-width:1;"/><polygon fill="#181818" points="361.5053,382.83,364.9781,373.6137,361.2161,377.8384,356.9915,374.0764,361.5053,382.83" style="stroke:#181818;stroke-width:1;"/><text fill="#000000" font-family="sans-serif" font-size="13" lengthAdjust="spacing" textLength="103.4351" x="359.7953" y="349.1569">REST / GraphQL</text></g><!--link ms to kafka_primary--><g class="link" data-entity-1="ms" data-entity-2="kafka_primary" data-source-line="32" data-uid="lnk21" id="link_ms_kafka_primary"><path d="M460.2753,413.97 C577.0753,422.47 778.5953,438.55 950.7953,459.39 C1087.3953,475.92 1121.1053,483.55 1256.7953,506.39 C1274.2753,509.33 1287.2329,511.6119 1304.7529,514.8119" fill="none" id="ms-to-kafka_primary" style="stroke:#181818;stroke-width:1;"/><polygon fill="#181818" points="1310.6553,515.89,1302.5205,510.338,1305.7367,514.9916,1301.083,518.2078,1310.6553,515.89" style="stroke:#181818;stroke-width:1;"/><text fill="#000000" font-family="sans-serif" font-size="13" lengthAdjust="spacing" textLength="43.7988" x="1073.7953" y="472.4569">events</text></g><!--link ms to pg_primary--><g class="link" data-entity-1="ms" data-entity-2="pg_primary" data-source-line="33" data-uid="lnk22" id="link_ms_pg_primary"><path d="M460.2853,416.4 C547.0853,425.21 677.3753,440.03 789.7953,459.39 C865.0553,472.34 943.7919,490.1157 1005.5619,504.9857" fill="none" id="ms-to-pg_primary" style="stroke:#181818;stroke-width:1;"/><polygon fill="#181818" points="1011.3953,506.39,1003.5814,500.3947,1006.5342,505.2198,1001.7091,508.1725,1011.3953,506.39" style="stroke:#181818;stroke-width:1;"/><text fill="#000000" font-family="sans-serif" font-size="13" lengthAdjust="spacing" textLength="66.625" x="875.7953" y="472.4569">read/write</text></g><!--link kafka_primary to kafka_dr--><g class="link" data-entity-1="kafka_primary" data-entity-2="kafka_dr" data-source-line="34" data-uid="lnk23" id="link_kafka_primary_kafka_dr"><path d="M1416.7622,545.1699 C1443.3222,554.5599 1476.0353,564.62 1510.7953,569.89 C1536.4253,573.79 2422.2353,568.3 2443.7953,582.68 C2470.1853,600.28 2478.0118,633.944 2480.7618,654.294" fill="none" id="kafka_primary-kafka_dr" style="stroke:#181818;stroke-width:1;"/><polygon fill="#181818" points="1411.1053,543.17,1418.2573,549.9411,1415.8193,544.8366,1420.9239,542.3986,1411.1053,543.17" style="stroke:#181818;stroke-width:1;"/><polygon fill="#181818" points="2481.5653,660.24,2484.324,650.7854,2480.8957,655.285,2476.3961,651.8567,2481.5653,660.24" style="stroke:#181818;stroke-width:1;"/><text fill="#000000" font-family="sans-serif" font-size="13" lengthAdjust="spacing" textLength="91.2729" x="2460.7953" y="595.7469">MirrorMaker 2</text></g><!--link pg_primary to pg_dr--><g class="link" data-entity-1="pg_primary" data-entity-2="pg_dr" data-source-line="35" data-uid="lnk24" id="link_pg_primary_pg_dr"><path d="M1174.6353,552.59 C1200.4453,559.32 1229.6853,565.96 1256.7953,569.89 C1453.1453,598.36 1958.3753,551.98 2148.7953,607.68 C2179.4553,616.65 2205.6462,632.2702 2227.2762,647.4702" fill="none" id="pg_primary-to-pg_dr" style="stroke:#181818;stroke-width:1;"/><polygon fill="#181818" points="2232.1853,650.92,2227.1215,642.4726,2228.0944,648.0452,2222.5218,649.0181,2232.1853,650.92" style="stroke:#181818;stroke-width:1;"/><text fill="#000000" font-family="sans-serif" font-size="13" lengthAdjust="spacing" textLength="100.5469" x="2111.7953" y="595.7469">WAL Streaming</text></g><!--link ms to mule_primary--><g class="link" data-entity-1="ms" data-entity-2="mule_primary" data-source-line="36" data-uid="lnk25" id="link_ms_mule_primary"><path d="M409.2353,429.77 C453.9953,451.49 515.9673,481.5505 560.7873,503.3005" fill="none" id="ms-to-mule_primary" style="stroke:#181818;stroke-width:1;"/><polygon fill="#181818" points="566.1853,505.92,559.8346,498.3921,561.687,503.7371,556.342,505.5894,566.1853,505.92" style="stroke:#181818;stroke-width:1;"/><text fill="#000000" font-family="sans-serif" font-size="13" lengthAdjust="spacing" textLength="63.4448" x="502.7953" y="472.4569">Async API</text></g><!--link mule_primary to sfmc--><g class="link" data-entity-1="mule_primary" data-entity-2="sfmc" data-source-line="37" data-uid="lnk26" id="link_mule_primary_sfmc"><path d="M670.5553,553.13 C690.5753,559.9 713.3753,566.43 734.7953,569.89 C897.7953,596.26 2056.3253,568.09 2220.7953,582.68 C2265.7053,586.67 2275.9353,595.23 2320.7953,599.68 C2380.5253,605.62 2532.2653,594.38 2590.7953,607.68 C2629.0453,616.37 2664.2767,632.3538 2693.0767,647.5238" fill="none" id="mule_primary-to-sfmc" style="stroke:#181818;stroke-width:1;"/><polygon fill="#181818" points="2698.3853,650.32,2692.2865,642.5866,2693.9615,647.9898,2688.5582,649.6647,2698.3853,650.32" style="stroke:#181818;stroke-width:1;"/><text fill="#000000" font-family="sans-serif" font-size="13" lengthAdjust="spacing" textLength="113.3755" x="2321.7953" y="595.7469">REST + Webhook</text></g><!--link ms to camunda--><g class="link" data-entity-1="ms" data-entity-2="camunda" data-source-line="38" data-uid="lnk27" id="link_ms_camunda"><path d="M460.3053,407.38 C697.7453,408.43 1300.7453,415.48 1496.7953,459.39 C1540.6653,469.21 1582.3263,487.2017 1615.0863,503.3917" fill="none" id="ms-to-camunda" style="stroke:#181818;stroke-width:1;"/><polygon fill="#181818" points="1620.4653,506.05,1614.169,498.4766,1615.9828,503.8348,1610.6246,505.6485,1620.4653,506.05" style="stroke:#181818;stroke-width:1;"/><text fill="#000000" font-family="sans-serif" font-size="13" lengthAdjust="spacing" textLength="34.2012" x="1548.7953" y="472.4569">gRPC</text></g><!--link ms to blob_primary--><g class="link" data-entity-1="ms" data-entity-2="blob_primary" data-source-line="39" data-uid="lnk28" id="link_ms_blob_primary"><path d="M456.0053,429.85 C493.0153,438.91 535.9453,449.52 574.7953,459.39 C642.3053,476.53 713.5257,495.2421 766.8857,509.3921" fill="none" id="ms-to-blob_primary" style="stroke:#181818;stroke-width:1;"/><polygon fill="#181818" points="772.6853,510.93,765.0112,504.7567,767.8523,509.6484,762.9607,512.4895,772.6853,510.93" style="stroke:#181818;stroke-width:1;"/><text fill="#000000" font-family="sans-serif" font-size="13" lengthAdjust="spacing" textLength="140.1182" x="640.7953" y="472.4569">audit events (nightly)</text></g><!--link blob_primary to blob_dr--><g class="link" data-entity-1="blob_primary" data-entity-2="blob_dr" data-source-line="41" data-uid="lnk29" id="link_blob_primary_blob_dr"><path d="M876.4353,548.17 C895.8153,556.37 920.0853,565.31 942.7953,569.89 C970.6953,575.53 1939.8553,598.48 1966.7953,607.68 C1995.4753,617.48 2018.5771,635.4705 2035.6971,651.2005" fill="none" id="blob_primary-to-blob_dr" style="stroke:#181818;stroke-width:1;"/><polygon fill="#181818" points="2040.1153,655.26,2036.1943,646.2253,2036.4334,651.8771,2030.7816,652.1162,2040.1153,655.26" style="stroke:#181818;stroke-width:1;"/><text fill="#000000" font-family="sans-serif" font-size="13" lengthAdjust="spacing" textLength="103.2383" x="1810.7953" y="595.7469">Geo-Replication</text></g><!--link mule_primary to mule_dr--><g class="link" data-entity-1="mule_primary" data-entity-2="mule_dr" data-source-line="42" data-uid="lnk30" id="link_mule_primary_mule_dr"><path d="M672.8453,553.13 C692.3453,559.6 714.2553,565.95 734.7953,569.89 C928.1553,607.02 980.0653,591.63 1176.7953,599.68 C1207.3253,600.93 1697.2353,599.95 1726.7953,607.68 C1759.1353,616.15 1787.2318,631.7537 1810.4718,647.0337" fill="none" id="mule_primary-to-mule_dr" style="stroke:#181818;stroke-width:1;"/><polygon fill="#181818" points="1815.4853,650.33,1810.1626,642.0433,1811.3074,647.5831,1805.7676,648.7279,1815.4853,650.33" style="stroke:#181818;stroke-width:1;"/><text fill="#000000" font-family="sans-serif" font-size="13" lengthAdjust="spacing" textLength="120.0532" x="1177.7953" y="595.7469">Async Config Sync</text></g><!--link gateway to aks_primary--><g class="link" data-entity-1="gateway" data-entity-2="aks_primary" data-source-line="44" data-uid="lnk31" id="link_gateway_aks_primary"><path d="M268.1453,306.54 C229.0553,321.47 186.7253,345.44 163.7953,383.09 C128.0753,441.74 215.3994,521.8309 218.2794,524.4409" fill="none" id="gateway-to-aks_primary" style="stroke:#181818;stroke-width:1;stroke-dasharray:7,7;"/><polygon fill="#181818" points="222.7253,528.47,218.7425,519.4624,219.0203,525.1124,213.3703,525.3903,222.7253,528.47" style="stroke:#181818;stroke-width:1;"/><text fill="#000000" font-family="sans-serif" font-size="13" lengthAdjust="spacing" textLength="82.7036" x="164.7953" y="410.8069">deployed_on</text></g><!--link ms to aks_primary--><g class="link" data-entity-1="ms" data-entity-2="aks_primary" data-source-line="45" data-uid="lnk32" id="link_ms_aks_primary"><path d="M315.4053,429.79 C285.2353,446.64 247.9753,472.59 226.7953,506.39 C221.8153,514.33 222.1473,520.8715 222.2773,522.4015" fill="none" id="ms-to-aks_primary" style="stroke:#181818;stroke-width:1;stroke-dasharray:7,7;"/><polygon fill="#181818" points="222.7853,528.38,226.009,519.0737,222.362,523.398,218.0377,519.751,222.7853,528.38" style="stroke:#181818;stroke-width:1;"/></g><!--link mule_primary to Azure West Europe (Primary)--><g class="link" data-entity-1="mule_primary" data-entity-2="Azure West Europe .Primary." data-source-line="46" data-uid="lnk33" id="link_mule_primary_Azure West Europe .Primary."><path d="M612.7953,553.08 C612.7953,592.58 612.7953,664.35 612.7953,666.77" fill="none" id="mule_primary-to-Azure West Europe (Primary)" style="stroke:#181818;stroke-width:1;stroke-dasharray:7,7;"/><polygon fill="#181818" points="612.7953,672.77,616.7953,663.77,612.7953,667.77,608.7953,663.77,612.7953,672.77" style="stroke:#181818;stroke-width:1;"/></g><!--SRC=[VLHDRzf04BtxLqmv6LKaKazLL4K2Gj8eE24s4STey0vcvOzrTzS9jCf_xwoD7KEJ7h3mp7kpRzxC-ekWZIm8fW_1uk5-Th_qTqE8LLwgWWeBWzq0qC3ECwaiIjIOWwROOf5a17yyW0d6QQ9LLOYfofI6rLPQSd6b1UacDiaOvBtrQiIPgiI7_BbCjdQILSJu1ZKO_wuqmOgCXLcbLKdWBxJCKU-7Wxf6eGGnx2w2QLOPIxhMZAbvBXjSZO9-MrSgHrb086Ej3EaN6PEfMRavXOuNjt23bbvn3_wTAf9X3KoQ4AFV-2VGuXeDorWeOnDDqUCShZFQoJKR5V49fFkokK2PjFAO_wkYYibJLMouTpxs3ZSfWk-w7isU6aRgOZrIqtTGPHIfZOLmUGt-M6393fY6aNEkHp1MQKoOCydK6gB3cxzw28C6l-PuXpyPmBtITjjDu2hyp7mOmLNOJK3epzov8JKAgSnaZAqVDVXWHMD08BNchV3hmq-CgD6Vj5JBQnkgWH-P5V4YY_M-vnL3kxQdcFDQ8do72342NrIOZJGbKXNGAeaRJ4k9C2EpKJec252dP6MHi2ykvpz53SLiyjZ3c9MoQArUUVtW7CQ9c_hJRGsfEEPvxWcZqMMxQd01FvVBHUIrxowN6mw7isZ9DMuqbjl7kSSnbpfQ5qRH2nzXskpx-d5A4uhpL-skxZ7hntiXeHdOp2F0bALzyter3YLhq6eyvqbmpPpRRy_hho9ZncPVnC1topjAEAGpg6tgAz_xzLQfj2rpC9ppIRYOjj7-td8AAo7jeL_m2_T9oVP3ppk2TRnQSsyRBG_uNrM7zUYakwig4uZulzTDvEpiykYxSm62QwezYMTNqvm2ZeznoVz-xVu2]--></g></svg>