<svg xmlns="http://www.w3.org/2000/svg" xmlns:xlink="http://www.w3.org/1999/xlink" contentStyleType="text/css" data-diagram-type="SEQUENCE" height="972px" preserveAspectRatio="none" style="width:1563px;height:972px;background:#FFFFFF;" version="1.1" viewBox="0 0 1563 972" width="1563px" zoomAndPan="magnify"><defs/><g><rect fill="#FFFFFF" height="951.7422" style="stroke:#181818;stroke-width:1.5;" width="1552.5308" x="5" y="15"/><path d="M106.3213,15 L106.3213,24.2969 L96.3213,34.2969 L5,34.2969" fill="none" style="stroke:#181818;stroke-width:1.5;"/><text fill="#000000" font-family="sans-serif" font-size="14" lengthAdjust="spacing" textLength="91.3213" x="8" y="28.9951">--&gt; ESB: ACK</text><g><title>CC</title><rect fill="#FFFFFF" height="507.125" style="stroke:#181818;stroke-width:1;" width="10" x="715.0752" y="359.5234"/></g><g><title>Agent</title><rect fill="#000000" fill-opacity="0.00000" height="757.0547" width="8" x="34.7197" y="118.5938"/><line style="stroke:#181818;stroke-width:0.5;stroke-dasharray:5,5;" x1="38" x2="38" y1="118.5938" y2="875.6484"/></g><g><title>SPA</title><rect fill="#000000" fill-opacity="0.00000" height="757.0547" width="8" x="196.8892" y="118.5938"/><line style="stroke:#181818;stroke-width:0.5;stroke-dasharray:5,5;" x1="200.436" x2="200.436" y1="118.5938" y2="875.6484"/></g><g><title>API</title><rect fill="#000000" fill-opacity="0.00000" height="757.0547" width="8" x="411.2109" y="118.5938"/><line style="stroke:#181818;stroke-width:0.5;stroke-dasharray:5,5;" x1="415.1367" x2="415.1367" y1="118.5938" y2="875.6484"/></g><g><title>BFF</title><rect fill="#000000" fill-opacity="0.00000" height="757.0547" width="8" x="488.1821" y="118.5938"/><line style="stroke:#181818;stroke-width:0.5;stroke-dasharray:5,5;" x1="491.3271" x2="491.3271" y1="118.5938" y2="875.6484"/></g><g><title>CC</title><rect fill="#000000" fill-opacity="0.00000" height="757.0547" width="8" x="716.0752" y="118.5938"/><line style="stroke:#181818;stroke-width:0.5;stroke-dasharray:5,5;" x1="719.2998" x2="719.2998" y1="118.5938" y2="875.6484"/></g><g><title>Saga</title><rect fill="#000000" fill-opacity="0.00000" height="757.0547" width="8" x="958.147" y="118.5938"/><line style="stroke:#181818;stroke-width:0.5;stroke-dasharray:5,5;" x1="961.6812" x2="961.6812" y1="118.5938" y2="875.6484"/></g><g><title>ESB</title><rect fill="#000000" fill-opacity="0.00000" height="757.0547" width="8" x="1153.5654" y="118.5938"/><line style="stroke:#181818;stroke-width:0.5;stroke-dasharray:5,5;" x1="1156.897" x2="1156.897" y1="118.5938" y2="875.6484"/></g><g><title>Billing</title><rect fill="#000000" fill-opacity="0.00000" height="757.0547" width="8" x="1295.8604" y="118.5938"/><line style="stroke:#181818;stroke-width:0.5;stroke-dasharray:5,5;" x1="1299.3989" x2="1299.3989" y1="118.5938" y2="875.6484"/></g><g><title>Mainframe</title><rect fill="#000000" fill-opacity="0.00000" height="757.0547" width="8" x="1378.7896" y="118.5938"/><line style="stroke:#181818;stroke-width:0.5;stroke-dasharray:5,5;" x1="1382.3218" x2="1382.3218" y1="118.5938" y2="875.6484"/></g><g><title>TaskService</title><rect fill="#000000" fill-opacity="0.00000" height="757.0547" width="8" x="1482.394" y="118.5938"/><line style="stroke:#181818;stroke-width:0.5;stroke-dasharray:5,5;" x1="1486.2573" x2="1486.2573" y1="118.5938" y2="875.6484"/></g><g class="participant participant-head" data-participant="Agent"><text fill="#000000" font-family="sans-serif" font-size="14" lengthAdjust="spacing" textLength="41.4395" x="15" y="115.292">Agent</text><ellipse cx="38.7197" cy="50.7969" fill="#E2E2F0" rx="8" ry="8" style="stroke:#181818;stroke-width:0.5;"/><path d="M38.7197,58.7969 L38.7197,85.7969 M25.7197,66.7969 L51.7197,66.7969 M38.7197,85.7969 L25.7197,100.7969 M38.7197,85.7969 L51.7197,100.7969" fill="none" style="stroke:#181818;stroke-width:0.5;"/></g><g class="participant participant-tail" data-participant="Agent"><text fill="#000000" font-family="sans-serif" font-size="14" lengthAdjust="spacing" textLength="41.4395" x="15" y="887.6436">Agent</text><ellipse cx="38.7197" cy="899.4453" fill="#E2E2F0" rx="8" ry="8" style="stroke:#181818;stroke-width:0.5;"/><path d="M38.7197,907.4453 L38.7197,934.4453 M25.7197,915.4453 L51.7197,915.4453 M38.7197,934.4453 L25.7197,949.4453 M38.7197,934.4453 L51.7197,949.4453" fill="none" style="stroke:#181818;stroke-width:0.5;"/></g><g class="participant participant-head" data-participant="SPA"><rect fill="#E2E2F0" height="30.2969" rx="2.5" ry="2.5" style="stroke:#181818;stroke-width:0.5;" width="40.9063" x="180.436" y="87.2969"/><text fill="#000000" font-family="sans-serif" font-size="14" lengthAdjust="spacing" textLength="26.9063" x="187.436" y="107.292">SPA</text></g><g class="participant participant-tail" data-participant="SPA"><rect fill="#E2E2F0" height="30.2969" rx="2.5" ry="2.5" style="stroke:#181818;stroke-width:0.5;" width="40.9063" x="180.436" y="874.6484"/><text fill="#000000" font-family="sans-serif" font-size="14" lengthAdjust="spacing" textLength="26.9063" x="187.436" y="894.6436">SPA</text></g><g class="participant participant-head" data-participant="API"><rect fill="#E2E2F0" height="30.2969" rx="2.5" ry="2.5" style="stroke:#181818;stroke-width:0.5;" width="36.1484" x="397.1367" y="87.2969"/><text fill="#000000" font-family="sans-serif" font-size="14" lengthAdjust="spacing" textLength="22.1484" x="404.1367" y="107.292">API</text></g><g class="participant participant-tail" data-participant="API"><rect fill="#E2E2F0" height="30.2969" rx="2.5" ry="2.5" style="stroke:#181818;stroke-width:0.5;" width="36.1484" x="397.1367" y="874.6484"/><text fill="#000000" font-family="sans-serif" font-size="14" lengthAdjust="spacing" textLength="22.1484" x="404.1367" y="894.6436">API</text></g><g class="participant participant-head" data-participant="BFF"><rect fill="#E2E2F0" height="30.2969" rx="2.5" ry="2.5" style="stroke:#181818;stroke-width:0.5;" width="39.71" x="472.3271" y="87.2969"/><text fill="#000000" font-family="sans-serif" font-size="14" lengthAdjust="spacing" textLength="25.71" x="479.3271" y="107.292">BFF</text></g><g class="participant participant-tail" data-participant="BFF"><rect fill="#E2E2F0" height="30.2969" rx="2.5" ry="2.5" style="stroke:#181818;stroke-width:0.5;" width="39.71" x="472.3271" y="874.6484"/><text fill="#000000" font-family="sans-serif" font-size="14" lengthAdjust="spacing" textLength="25.71" x="479.3271" y="894.6436">BFF</text></g><g class="participant participant-head" data-participant="CustomerService"><rect fill="#E2E2F0" height="30.2969" rx="2.5" ry="2.5" style="stroke:#181818;stroke-width:0.5;" width="33.5508" x="703.2998" y="87.2969"/><text fill="#000000" font-family="sans-serif" font-size="14" lengthAdjust="spacing" textLength="19.5508" x="710.2998" y="107.292">CC</text></g><g class="participant participant-tail" data-participant="CustomerService"><rect fill="#E2E2F0" height="30.2969" rx="2.5" ry="2.5" style="stroke:#181818;stroke-width:0.5;" width="33.5508" x="703.2998" y="874.6484"/><text fill="#000000" font-family="sans-serif" font-size="14" lengthAdjust="spacing" textLength="19.5508" x="710.2998" y="894.6436">CC</text></g><g class="participant participant-head" data-participant="Camunda"><rect fill="#E2E2F0" height="30.2969" rx="2.5" ry="2.5" style="stroke:#181818;stroke-width:0.5;" width="48.9316" x="937.6812" y="87.2969"/><text fill="#000000" font-family="sans-serif" font-size="14" lengthAdjust="spacing" textLength="34.9316" x="944.6812" y="107.292">Saga</text></g><g class="participant participant-tail" data-participant="Camunda"><rect fill="#E2E2F0" height="30.2969" rx="2.5" ry="2.5" style="stroke:#181818;stroke-width:0.5;" width="48.9316" x="937.6812" y="874.6484"/><text fill="#000000" font-family="sans-serif" font-size="14" lengthAdjust="spacing" textLength="34.9316" x="944.6812" y="894.6436">Saga</text></g><g class="participant participant-head" data-participant="ESB"><rect fill="#E2E2F0" height="30.2969" rx="2.5" ry="2.5" style="stroke:#181818;stroke-width:0.5;" width="41.3369" x="1136.897" y="87.2969"/><text fill="#000000" font-family="sans-serif" font-size="14" lengthAdjust="spacing" textLength="27.3369" x="1143.897" y="107.292">ESB</text></g><g class="participant participant-tail" data-participant="ESB"><rect fill="#E2E2F0" height="30.2969" rx="2.5" ry="2.5" style="stroke:#181818;stroke-width:0.5;" width="41.3369" x="1136.897" y="874.6484"/><text fill="#000000" font-family="sans-serif" font-size="14" lengthAdjust="spacing" textLength="27.3369" x="1143.897" y="894.6436">ESB</text></g><g class="participant participant-head" data-participant="Billing"><rect fill="#E2E2F0" height="30.2969" rx="2.5" ry="2.5" style="stroke:#181818;stroke-width:0.5;" width="56.9229" x="1271.3989" y="87.2969"/><text fill="#000000" font-family="sans-serif" font-size="14" lengthAdjust="spacing" textLength="42.9229" x="1278.3989" y="107.292">Billing</text></g><g class="participant participant-tail" data-participant="Billing"><rect fill="#E2E2F0" height="30.2969" rx="2.5" ry="2.5" style="stroke:#181818;stroke-width:0.5;" width="56.9229" x="1271.3989" y="874.6484"/><text fill="#000000" font-family="sans-serif" font-size="14" lengthAdjust="spacing" textLength="42.9229" x="1278.3989" y="894.6436">Billing</text></g><g class="participant participant-head" data-participant="Mainframe"><rect fill="#E2E2F0" height="30.2969" rx="2.5" ry="2.5" style="stroke:#181818;stroke-width:0.5;" width="88.9355" x="1338.3218" y="87.2969"/><text fill="#000000" font-family="sans-serif" font-size="14" lengthAdjust="spacing" textLength="74.9355" x="1345.3218" y="107.292">Mainframe</text></g><g class="participant participant-tail" data-participant="Mainframe"><rect fill="#E2E2F0" height="30.2969" rx="2.5" ry="2.5" style="stroke:#181818;stroke-width:0.5;" width="88.9355" x="1338.3218" y="874.6484"/><text fill="#000000" font-family="sans-serif" font-size="14" lengthAdjust="spacing" textLength="74.9355" x="1345.3218" y="894.6436">Mainframe</text></g><g class="participant participant-head" data-participant="TaskService"><rect fill="#E2E2F0" height="30.2969" rx="2.5" ry="2.5" style="stroke:#181818;stroke-width:0.5;" width="98.2734" x="1437.2573" y="87.2969"/><text fill="#000000" font-family="sans-serif" font-size="14" lengthAdjust="spacing" textLength="84.2734" x="1444.2573" y="107.292">TaskService</text></g><g class="participant participant-tail" data-participant="TaskService"><rect fill="#E2E2F0" height="30.2969" rx="2.5" ry="2.5" style="stroke:#181818;stroke-width:0.5;" width="98.2734" x="1437.2573" y="874.6484"/><text fill="#000000" font-family="sans-serif" font-size="14" lengthAdjust="spacing" textLength="84.2734" x="1444.2573" y="894.6436">TaskService</text></g><g><title>CC</title><rect fill="#FFFFFF" height="507.125" style="stroke:#181818;stroke-width:1;" width="10" x="715.0752" y="359.5234"/></g><rect fill="#EEEEEE" height="3" style="stroke:#EEEEEE;stroke-width:1;" width="1530.5308" x="10" y="149.1602"/><line style="stroke:#000000;stroke-width:1;" x1="10" x2="1540.5308" y1="149.1602" y2="149.1602"/><line style="stroke:#000000;stroke-width:1;" x1="10" x2="1540.5308" y1="152.1602" y2="152.1602"/><rect fill="#EEEEEE" height="23.1328" style="stroke:#000000;stroke-width:2;" width="71.5479" x="739.4915" y="138.5938"/><text fill="#000000" font-family="sans-serif" font-size="13" font-weight="bold" lengthAdjust="spacing" textLength="53.022" x="745.4915" y="154.6606">Initiate</text><g class="message" data-participant-1="Agent" data-participant-2="SPA"><polygon fill="#181818" points="188.8892,188.8594,198.8892,192.8594,188.8892,196.8594,192.8892,192.8594" style="stroke:#181818;stroke-width:1;"/><line style="stroke:#181818;stroke-width:1;" x1="38.7197" x2="194.8892" y1="192.8594" y2="192.8594"/><text fill="#000000" font-family="sans-serif" font-size="13" lengthAdjust="spacing" textLength="138.1694" x="45.7197" y="187.7935">Update Address form</text></g><g class="message" data-participant-1="SPA" data-participant-2="API"><polygon fill="#181818" points="403.2109,217.9922,413.2109,221.9922,403.2109,225.9922,407.2109,221.9922" style="stroke:#181818;stroke-width:1;"/><line style="stroke:#181818;stroke-width:1;" x1="200.8892" x2="409.2109" y1="221.9922" y2="221.9922"/><text fill="#000000" font-family="sans-serif" font-size="13" lengthAdjust="spacing" textLength="190.3218" x="207.8892" y="216.9263">PUT /customers/{id}/address</text></g><g class="message" data-participant-1="API" data-participant-2="BFF"><polygon fill="#181818" points="480.1821,247.125,490.1821,251.125,480.1821,255.125,484.1821,251.125" style="stroke:#181818;stroke-width:1;"/><line style="stroke:#181818;stroke-width:1;" x1="415.2109" x2="486.1821" y1="251.125" y2="251.125"/><text fill="#000000" font-family="sans-serif" font-size="13" lengthAdjust="spacing" textLength="52.9712" x="422.2109" y="246.0591">Forward</text></g><g class="message" data-participant-1="BFF" data-participant-2="CustomerService"><polygon fill="#181818" points="708.0752,276.2578,718.0752,280.2578,708.0752,284.2578,712.0752,280.2578" style="stroke:#181818;stroke-width:1;"/><line style="stroke:#181818;stroke-width:1;" x1="492.1821" x2="714.0752" y1="280.2578" y2="280.2578"/><text fill="#000000" font-family="sans-serif" font-size="13" lengthAdjust="spacing" textLength="203.8931" x="499.1821" y="275.1919">cmd AddressChangeRequested</text></g><g class="message" data-participant-1="CustomerService" data-participant-2="CustomerService"><line style="stroke:#181818;stroke-width:1;" x1="720.0752" x2="762.0752" y1="309.3906" y2="309.3906"/><line style="stroke:#181818;stroke-width:1;" x1="762.0752" x2="762.0752" y1="309.3906" y2="322.3906"/><line style="stroke:#181818;stroke-width:1;" x1="721.0752" x2="762.0752" y1="322.3906" y2="322.3906"/><polygon fill="#181818" points="731.0752,318.3906,721.0752,322.3906,731.0752,326.3906,727.0752,322.3906" style="stroke:#181818;stroke-width:1;"/><text fill="#000000" font-family="sans-serif" font-size="13" lengthAdjust="spacing" textLength="192.1753" x="727.0752" y="304.3247">validate &amp; persist (write side)</text></g><g class="message" data-participant-1="CustomerService" data-participant-2="CustomerService"><line style="stroke:#181818;stroke-width:1;" x1="720.0752" x2="767.0752" y1="346.5234" y2="346.5234"/><line style="stroke:#181818;stroke-width:1;" x1="767.0752" x2="767.0752" y1="346.5234" y2="359.5234"/><line style="stroke:#181818;stroke-width:1;" x1="726.0752" x2="767.0752" y1="359.5234" y2="359.5234"/><polygon fill="#181818" points="736.0752,355.5234,726.0752,359.5234,736.0752,363.5234,732.0752,359.5234" style="stroke:#181818;stroke-width:1;"/><text fill="#000000" font-family="sans-serif" font-size="13" lengthAdjust="spacing" textLength="112.3472" x="732.0752" y="341.4575">write Outbox row</text></g><g class="message" data-participant-1="CustomerService" data-participant-2="BFF"><polygon fill="#181818" points="503.1821,389.6563,493.1821,393.6563,503.1821,397.6563,499.1821,393.6563" style="stroke:#181818;stroke-width:1;"/><line style="stroke:#181818;stroke-width:1;stroke-dasharray:2,2;" x1="497.1821" x2="714.0752" y1="393.6563" y2="393.6563"/><text fill="#000000" font-family="sans-serif" font-size="13" lengthAdjust="spacing" textLength="89.7305" x="509.1821" y="388.5903">202 Accepted</text></g><g class="message" data-participant-1="BFF" data-participant-2="API"><polygon fill="#181818" points="426.2109,418.7891,416.2109,422.7891,426.2109,426.7891,422.2109,422.7891" style="stroke:#181818;stroke-width:1;"/><line style="stroke:#181818;stroke-width:1;stroke-dasharray:2,2;" x1="420.2109" x2="491.1821" y1="422.7891" y2="422.7891"/><text fill="#000000" font-family="sans-serif" font-size="13" lengthAdjust="spacing" textLength="24.813" x="432.2109" y="417.7231">202</text></g><g class="message" data-participant-1="API" data-participant-2="SPA"><polygon fill="#181818" points="211.8892,447.9219,201.8892,451.9219,211.8892,455.9219,207.8892,451.9219" style="stroke:#181818;stroke-width:1;"/><line style="stroke:#181818;stroke-width:1;stroke-dasharray:2,2;" x1="205.8892" x2="414.2109" y1="451.9219" y2="451.9219"/><text fill="#000000" font-family="sans-serif" font-size="13" lengthAdjust="spacing" textLength="119.5645" x="217.8892" y="446.856">202 (task queued)</text></g><g class="message" data-participant-1="SPA" data-participant-2="Agent"><polygon fill="#181818" points="49.7197,477.0547,39.7197,481.0547,49.7197,485.0547,45.7197,481.0547" style="stroke:#181818;stroke-width:1;"/><line style="stroke:#181818;stroke-width:1;" x1="43.7197" x2="199.8892" y1="481.0547" y2="481.0547"/><text fill="#000000" font-family="sans-serif" font-size="13" lengthAdjust="spacing" textLength="84.335" x="55.7197" y="475.9888">Confirmation</text></g><rect fill="#EEEEEE" height="3" style="stroke:#EEEEEE;stroke-width:1;" width="1530.5308" x="10" y="509.6211"/><line style="stroke:#000000;stroke-width:1;" x1="10" x2="1540.5308" y1="509.6211" y2="509.6211"/><line style="stroke:#000000;stroke-width:1;" x1="10" x2="1540.5308" y1="512.6211" y2="512.6211"/><rect fill="#EEEEEE" height="23.1328" style="stroke:#000000;stroke-width:2;" width="160.4976" x="695.0166" y="499.0547"/><text fill="#000000" font-family="sans-serif" font-size="13" font-weight="bold" lengthAdjust="spacing" textLength="141.9717" x="701.0166" y="515.1216">Saga Orchestration</text><g class="message" data-participant-1="CustomerService" data-participant-2="Camunda"><polygon fill="#181818" points="950.147,549.3203,960.147,553.3203,950.147,557.3203,954.147,553.3203" style="stroke:#181818;stroke-width:1;"/><line style="stroke:#181818;stroke-width:1;" x1="725.0752" x2="956.147" y1="553.3203" y2="553.3203"/><text fill="#000000" font-family="sans-serif" font-size="13" lengthAdjust="spacing" textLength="213.0718" x="732.0752" y="548.2544">Event AddressChangeRequested</text></g><g class="message" data-participant-1="Camunda" data-participant-2="ESB"><polygon fill="#181818" points="1145.5654,578.4531,1155.5654,582.4531,1145.5654,586.4531,1149.5654,582.4531" style="stroke:#181818;stroke-width:1;"/><line style="stroke:#181818;stroke-width:1;" x1="962.147" x2="1151.5654" y1="582.4531" y2="582.4531"/><text fill="#000000" font-family="sans-serif" font-size="13" lengthAdjust="spacing" textLength="171.4185" x="969.147" y="577.3872">cmd UpdateBillingAddress</text></g><g class="message" data-participant-1="ESB" data-participant-2="Billing"><polygon fill="#181818" points="1287.8604,607.5859,1297.8604,611.5859,1287.8604,615.5859,1291.8604,611.5859" style="stroke:#181818;stroke-width:1;"/><line style="stroke:#181818;stroke-width:1;" x1="1157.5654" x2="1293.8604" y1="611.5859" y2="611.5859"/><text fill="#000000" font-family="sans-serif" font-size="13" lengthAdjust="spacing" textLength="118.2949" x="1164.5654" y="606.52">batch-queue JSON</text></g><g class="message" data-participant-1="Billing" data-participant-2="ESB"><polygon fill="#181818" points="1168.5654,636.7188,1158.5654,640.7188,1168.5654,644.7188,1164.5654,640.7188" style="stroke:#181818;stroke-width:1;"/><line style="stroke:#181818;stroke-width:1;stroke-dasharray:2,2;" x1="1162.5654" x2="1298.8604" y1="640.7188" y2="640.7188"/><text fill="#000000" font-family="sans-serif" font-size="13" lengthAdjust="spacing" textLength="79.606" x="1174.5654" y="635.6528">ACK queued</text></g><g class="message" data-participant-1="ESB" data-participant-2="Camunda"><polygon fill="#181818" points="973.147,665.8516,963.147,669.8516,973.147,673.8516,969.147,669.8516" style="stroke:#181818;stroke-width:1;"/><line style="stroke:#181818;stroke-width:1;stroke-dasharray:2,2;" x1="967.147" x2="1156.5654" y1="669.8516" y2="669.8516"/><text fill="#000000" font-family="sans-serif" font-size="13" lengthAdjust="spacing" textLength="162.8174" x="979.147" y="664.7856">evt BillingUpdateQueued</text></g><g class="message" data-participant-1="Camunda" data-participant-2="ESB"><polygon fill="#181818" points="1145.5654,694.9844,1155.5654,698.9844,1145.5654,702.9844,1149.5654,698.9844" style="stroke:#181818;stroke-width:1;"/><line style="stroke:#181818;stroke-width:1;" x1="962.147" x2="1151.5654" y1="698.9844" y2="698.9844"/><text fill="#000000" font-family="sans-serif" font-size="13" lengthAdjust="spacing" textLength="169.4189" x="969.147" y="693.9185">cmd UpdatePolicyAddress</text></g><g class="message" data-participant-1="ESB" data-participant-2="Mainframe"><polygon fill="#181818" points="1370.7896,724.1172,1380.7896,728.1172,1370.7896,732.1172,1374.7896,728.1172" style="stroke:#181818;stroke-width:1;"/><line style="stroke:#181818;stroke-width:1;" x1="1157.5654" x2="1376.7896" y1="728.1172" y2="728.1172"/><text fill="#000000" font-family="sans-serif" font-size="13" lengthAdjust="spacing" textLength="175.5127" x="1164.5654" y="723.0513">IBM MQ message (EBCDIC)</text></g><g class="message" data-participant-1="ESB" data-participant-2="Camunda"><polygon fill="#181818" points="973.147,753.25,963.147,757.25,973.147,761.25,969.147,757.25" style="stroke:#181818;stroke-width:1;"/><line style="stroke:#181818;stroke-width:1;stroke-dasharray:2,2;" x1="967.147" x2="1156.5654" y1="757.25" y2="757.25"/><text fill="#000000" font-family="sans-serif" font-size="13" lengthAdjust="spacing" textLength="170.3965" x="979.147" y="752.1841">evt PolicyAddressUpdated</text></g><g class="message" data-participant-1="Camunda" data-participant-2="CustomerService"><polygon fill="#181818" points="736.0752,782.3828,726.0752,786.3828,736.0752,790.3828,732.0752,786.3828" style="stroke:#181818;stroke-width:1;"/><line style="stroke:#181818;stroke-width:1;" x1="730.0752" x2="961.147" y1="786.3828" y2="786.3828"/><text fill="#000000" font-family="sans-serif" font-size="13" lengthAdjust="spacing" textLength="197.8818" x="742.0752" y="781.3169">evt AddressChangeCompleted</text></g><g class="message" data-participant-1="CustomerService" data-participant-2="CustomerService"><line style="stroke:#181818;stroke-width:1;" x1="725.0752" x2="767.0752" y1="815.5156" y2="815.5156"/><line style="stroke:#181818;stroke-width:1;" x1="767.0752" x2="767.0752" y1="815.5156" y2="828.5156"/><line style="stroke:#181818;stroke-width:1;" x1="726.0752" x2="767.0752" y1="828.5156" y2="828.5156"/><polygon fill="#181818" points="736.0752,824.5156,726.0752,828.5156,736.0752,832.5156,732.0752,828.5156" style="stroke:#181818;stroke-width:1;"/><text fill="#000000" font-family="sans-serif" font-size="13" lengthAdjust="spacing" textLength="179.5054" x="732.0752" y="810.4497">commit event + close Saga</text></g><g class="message" data-participant-1="Camunda" data-participant-2="TaskService"><polygon fill="#181818" points="1474.394,853.6484,1484.394,857.6484,1474.394,861.6484,1478.394,857.6484" style="stroke:#181818;stroke-width:1;"/><line style="stroke:#181818;stroke-width:1;" x1="962.147" x2="1480.394" y1="857.6484" y2="857.6484"/><text fill="#000000" font-family="sans-serif" font-size="13" lengthAdjust="spacing" textLength="139.7881" x="969.147" y="852.5825">evt TaskComplete(id)</text></g><!--SRC=[ZLB1Rjim3BthAtWQ4Wn1XXuBP83Z9K0sP4cNzWDOIN64MPOdoSw6OVy-IdBSAMs77aa-ak_n4Rat5efADfwrQBtYgiN6ms5VP76ntsJnShtEuh84T51spXijxK7QNd6PJyGA8mPrrmZCQgl3Cf-kwberLPRRecgE5hLaRB60JQEyGYzXiM2HFSm-1j9m2m-j28L222kTWwEnceKA0KW50VOFzp3d0rKt_wt4dpacD0i80f8y0gwDFQCLB4IKl5970Ax5PKzvmgQIt-IFJZel1Ri6lzZVOwqYsNVG4XNbF4pELb72AI6dRnkI6dQTVpG_mPepG-vL7wPUs_5itAZqviCD59pBDb2FSiThKIbTPJnm04yykkz0OZiffkDven6tK9hcgAn6hqmJtOhUxom_qMriJ0VVNbANdeDchFemwxNZ3Z3geDSPZ4Y-3wypDB9G3YfJbf2FwFbf5ed3vyFkAxkKPkEmelmoA4lj6I_PZ- -P5jubv7yexKsj-AyhHkCx4tIptCBs3ZILiP8mMItBJvjoofum0xd8xHLIsPQqE6Fr_752LtRWqkYsbc_-NcwqLfx61AVU0w-Daz7gVzVUqv_aAqFciccYnFGl]--></g></svg>