<svg xmlns="http://www.w3.org/2000/svg" xmlns:xlink="http://www.w3.org/1999/xlink" contentStyleType="text/css" data-diagram-type="SEQUENCE" height="531px" preserveAspectRatio="none" style="width:1176px;height:531px;background:#FFFFFF;" version="1.1" viewBox="0 0 1176 531" width="1176px" zoomAndPan="magnify"><defs/><g><g><title>Agent</title><rect fill="#000000" fill-opacity="0.00000" height="369.5938" width="8" x="24.7197" y="81.2969"/><line style="stroke:#181818;stroke-width:0.5;stroke-dasharray:5,5;" x1="28" x2="28" y1="81.2969" y2="450.8906"/></g><g><title>React SPA</title><rect fill="#000000" fill-opacity="0.00000" height="369.5938" width="8" x="213.0605" y="81.2969"/><line style="stroke:#181818;stroke-width:0.5;stroke-dasharray:5,5;" x1="216.3291" x2="216.3291" y1="81.2969" y2="450.8906"/></g><g><title>API Gateway</title><rect fill="#000000" fill-opacity="0.00000" height="369.5938" width="8" x="442.6104" y="81.2969"/><line style="stroke:#181818;stroke-width:0.5;stroke-dasharray:5,5;" x1="446.3887" x2="446.3887" y1="81.2969" y2="450.8906"/></g><g><title>GraphQL BFF</title><rect fill="#000000" fill-opacity="0.00000" height="369.5938" width="8" x="602.1772" y="81.2969"/><line style="stroke:#181818;stroke-width:0.5;stroke-dasharray:5,5;" x1="605.2158" x2="605.2158" y1="81.2969" y2="450.8906"/></g><g><title>Customer Context Service</title><rect fill="#000000" fill-opacity="0.00000" height="369.5938" width="8" x="791.959" y="81.2969"/><line style="stroke:#181818;stroke-width:0.5;stroke-dasharray:5,5;" x1="795.0908" x2="795.0908" y1="81.2969" y2="450.8906"/></g><g><title>Interaction Service</title><rect fill="#000000" fill-opacity="0.00000" height="369.5938" width="8" x="973.8999" y="81.2969"/><line style="stroke:#181818;stroke-width:0.5;stroke-dasharray:5,5;" x1="977.8271" x2="977.8271" y1="81.2969" y2="450.8906"/></g><g><title>Read Model DB</title><rect fill="#000000" fill-opacity="0.00000" height="369.5938" width="8" x="1114.9634" y="81.2969"/><line style="stroke:#181818;stroke-width:0.5;stroke-dasharray:5,5;" x1="1118.4004" x2="1118.4004" y1="81.2969" y2="450.8906"/></g><g class="participant participant-head" data-participant="Agent"><text fill="#000000" font-family="sans-serif" font-size="14" lengthAdjust="spacing" textLength="41.4395" x="5" y="77.9951">Agent</text><ellipse cx="28.7197" cy="13.5" fill="#E2E2F0" rx="8" ry="8" style="stroke:#181818;stroke-width:0.5;"/><path d="M28.7197,21.5 L28.7197,48.5 M15.7197,29.5 L41.7197,29.5 M28.7197,48.5 L15.7197,63.5 M28.7197,48.5 L41.7197,63.5" fill="none" style="stroke:#181818;stroke-width:0.5;"/></g><g class="participant participant-tail" data-participant="Agent"><text fill="#000000" font-family="sans-serif" font-size="14" lengthAdjust="spacing" textLength="41.4395" x="5" y="462.8857">Agent</text><ellipse cx="28.7197" cy="474.6875" fill="#E2E2F0" rx="8" ry="8" style="stroke:#181818;stroke-width:0.5;"/><path d="M28.7197,482.6875 L28.7197,509.6875 M15.7197,490.6875 L41.7197,490.6875 M28.7197,509.6875 L15.7197,524.6875 M28.7197,509.6875 L41.7197,524.6875" fill="none" style="stroke:#181818;stroke-width:0.5;"/></g><g class="participant participant-head" data-participant="SPA"><rect fill="#E2E2F0" height="30.2969" rx="2.5" ry="2.5" style="stroke:#181818;stroke-width:0.5;" width="85.4629" x="174.3291" y="50"/><text fill="#000000" font-family="sans-serif" font-size="14" lengthAdjust="spacing" textLength="71.4629" x="181.3291" y="69.9951">React SPA</text></g><g class="participant participant-tail" data-participant="SPA"><rect fill="#E2E2F0" height="30.2969" rx="2.5" ry="2.5" style="stroke:#181818;stroke-width:0.5;" width="85.4629" x="174.3291" y="449.8906"/><text fill="#000000" font-family="sans-serif" font-size="14" lengthAdjust="spacing" textLength="71.4629" x="181.3291" y="469.8857">React SPA</text></g><g class="participant participant-head" data-participant="API"><rect fill="#E2E2F0" height="30.2969" rx="2.5" ry="2.5" style="stroke:#181818;stroke-width:0.5;" width="102.4434" x="395.3887" y="50"/><text fill="#000000" font-family="sans-serif" font-size="14" lengthAdjust="spacing" textLength="88.4434" x="402.3887" y="69.9951">API Gateway</text></g><g class="participant participant-tail" data-participant="API"><rect fill="#E2E2F0" height="30.2969" rx="2.5" ry="2.5" style="stroke:#181818;stroke-width:0.5;" width="102.4434" x="395.3887" y="449.8906"/><text fill="#000000" font-family="sans-serif" font-size="14" lengthAdjust="spacing" textLength="88.4434" x="402.3887" y="469.8857">API Gateway</text></g><g class="participant participant-head" data-participant="BFF"><rect fill="#E2E2F0" height="30.2969" rx="2.5" ry="2.5" style="stroke:#181818;stroke-width:0.5;" width="105.9229" x="553.2158" y="50"/><text fill="#000000" font-family="sans-serif" font-size="14" lengthAdjust="spacing" textLength="91.9229" x="560.2158" y="69.9951">GraphQL BFF</text></g><g class="participant participant-tail" data-participant="BFF"><rect fill="#E2E2F0" height="30.2969" rx="2.5" ry="2.5" style="stroke:#181818;stroke-width:0.5;" width="105.9229" x="553.2158" y="449.8906"/><text fill="#000000" font-family="sans-serif" font-size="14" lengthAdjust="spacing" textLength="91.9229" x="560.2158" y="469.8857">GraphQL BFF</text></g><g class="participant participant-head" data-participant="CC"><rect fill="#E2E2F0" height="30.2969" rx="2.5" ry="2.5" style="stroke:#181818;stroke-width:0.5;" width="197.7363" x="697.0908" y="50"/><text fill="#000000" font-family="sans-serif" font-size="14" lengthAdjust="spacing" textLength="183.7363" x="704.0908" y="69.9951">Customer Context Service</text></g><g class="participant participant-tail" data-participant="CC"><rect fill="#E2E2F0" height="30.2969" rx="2.5" ry="2.5" style="stroke:#181818;stroke-width:0.5;" width="197.7363" x="697.0908" y="449.8906"/><text fill="#000000" font-family="sans-serif" font-size="14" lengthAdjust="spacing" textLength="183.7363" x="704.0908" y="469.8857">Customer Context Service</text></g><g class="participant participant-head" data-participant="IS"><rect fill="#E2E2F0" height="30.2969" rx="2.5" ry="2.5" style="stroke:#181818;stroke-width:0.5;" width="146.1455" x="904.8271" y="50"/><text fill="#000000" font-family="sans-serif" font-size="14" lengthAdjust="spacing" textLength="132.1455" x="911.8271" y="69.9951">Interaction Service</text></g><g class="participant participant-tail" data-participant="IS"><rect fill="#E2E2F0" height="30.2969" rx="2.5" ry="2.5" style="stroke:#181818;stroke-width:0.5;" width="146.1455" x="904.8271" y="449.8906"/><text fill="#000000" font-family="sans-serif" font-size="14" lengthAdjust="spacing" textLength="132.1455" x="911.8271" y="469.8857">Interaction Service</text></g><g class="participant participant-head" data-participant="RM"><text fill="#000000" font-family="sans-serif" font-size="14" lengthAdjust="spacing" textLength="107.126" x="1062.4004" y="77.9951">Read Model DB</text><path d="M1100.9634,29 C1100.9634,19 1118.9634,19 1118.9634,19 C1118.9634,19 1136.9634,19 1136.9634,29 L1136.9634,55 C1136.9634,65 1118.9634,65 1118.9634,65 C1118.9634,65 1100.9634,65 1100.9634,55 L1100.9634,29" fill="#E2E2F0" style="stroke:#181818;stroke-width:0.5;"/><path d="M1100.9634,29 C1100.9634,39 1118.9634,39 1118.9634,39 C1118.9634,39 1136.9634,39 1136.9634,29" fill="none" style="stroke:#181818;stroke-width:0.5;"/></g><g class="participant participant-tail" data-participant="RM"><text fill="#000000" font-family="sans-serif" font-size="14" lengthAdjust="spacing" textLength="107.126" x="1062.4004" y="462.8857">Read Model DB</text><path d="M1100.9634,476.1875 C1100.9634,466.1875 1118.9634,466.1875 1118.9634,466.1875 C1118.9634,466.1875 1136.9634,466.1875 1136.9634,476.1875 L1136.9634,502.1875 C1136.9634,512.1875 1118.9634,512.1875 1118.9634,512.1875 C1118.9634,512.1875 1100.9634,512.1875 1100.9634,502.1875 L1100.9634,476.1875" fill="#E2E2F0" style="stroke:#181818;stroke-width:0.5;"/><path d="M1100.9634,476.1875 C1100.9634,486.1875 1118.9634,486.1875 1118.9634,486.1875 C1118.9634,486.1875 1136.9634,486.1875 1136.9634,476.1875" fill="none" style="stroke:#181818;stroke-width:0.5;"/></g><g class="message" data-participant-1="Agent" data-participant-2="SPA"><polygon fill="#181818" points="205.0605,108.4297,215.0605,112.4297,205.0605,116.4297,209.0605,112.4297" style="stroke:#181818;stroke-width:1;"/><line style="stroke:#181818;stroke-width:1;" x1="28.7197" x2="211.0605" y1="112.4297" y2="112.4297"/><text fill="#000000" font-family="sans-serif" font-size="13" lengthAdjust="spacing" textLength="138.2329" x="35.7197" y="107.3638">Type customer name</text></g><g class="message" data-participant-1="SPA" data-participant-2="API"><polygon fill="#181818" points="434.6104,137.5625,444.6104,141.5625,434.6104,145.5625,438.6104,141.5625" style="stroke:#181818;stroke-width:1;"/><line style="stroke:#181818;stroke-width:1;" x1="217.0605" x2="440.6104" y1="141.5625" y2="141.5625"/><text fill="#000000" font-family="sans-serif" font-size="13" lengthAdjust="spacing" textLength="205.5498" x="224.0605" y="136.4966">GET /graphql (searchCustomer)</text></g><g class="message" data-participant-1="API" data-participant-2="BFF"><polygon fill="#181818" points="594.1772,166.6953,604.1772,170.6953,594.1772,174.6953,598.1772,170.6953" style="stroke:#181818;stroke-width:1;"/><line style="stroke:#181818;stroke-width:1;" x1="446.6104" x2="600.1772" y1="170.6953" y2="170.6953"/><text fill="#000000" font-family="sans-serif" font-size="13" lengthAdjust="spacing" textLength="135.5669" x="453.6104" y="165.6294">Forward request JWT</text></g><g class="message" data-participant-1="BFF" data-participant-2="CC"><polygon fill="#181818" points="783.959,195.8281,793.959,199.8281,783.959,203.8281,787.959,199.8281" style="stroke:#181818;stroke-width:1;"/><line style="stroke:#181818;stroke-width:1;" x1="606.1772" x2="789.959" y1="199.8281" y2="199.8281"/><text fill="#000000" font-family="sans-serif" font-size="13" lengthAdjust="spacing" textLength="165.7817" x="613.1772" y="194.7622">queryCustomerByName()</text></g><g class="message" data-participant-1="CC" data-participant-2="RM"><polygon fill="#181818" points="1106.9634,224.9609,1116.9634,228.9609,1106.9634,232.9609,1110.9634,228.9609" style="stroke:#181818;stroke-width:1;"/><line style="stroke:#181818;stroke-width:1;" x1="795.959" x2="1112.9634" y1="228.9609" y2="228.9609"/><text fill="#000000" font-family="sans-serif" font-size="13" lengthAdjust="spacing" textLength="95.3291" x="802.959" y="223.895">SQL SELECT ...</text></g><g class="message" data-participant-1="RM" data-participant-2="CC"><polygon fill="#181818" points="806.959,254.0938,796.959,258.0938,806.959,262.0938,802.959,258.0938" style="stroke:#181818;stroke-width:1;"/><line style="stroke:#181818;stroke-width:1;stroke-dasharray:2,2;" x1="800.959" x2="1117.9634" y1="258.0938" y2="258.0938"/><text fill="#000000" font-family="sans-serif" font-size="13" lengthAdjust="spacing" textLength="132.5137" x="812.959" y="253.0278">customer basic data</text></g><g class="message" data-participant-1="BFF" data-participant-2="IS"><polygon fill="#181818" points="965.8999,283.2266,975.8999,287.2266,965.8999,291.2266,969.8999,287.2266" style="stroke:#181818;stroke-width:1;"/><line style="stroke:#181818;stroke-width:1;" x1="606.1772" x2="971.8999" y1="287.2266" y2="287.2266"/><text fill="#000000" font-family="sans-serif" font-size="13" lengthAdjust="spacing" textLength="182.0952" x="613.1772" y="282.1606">getInteractions(customerId)</text></g><g class="message" data-participant-1="IS" data-participant-2="RM"><polygon fill="#181818" points="1106.9634,312.3594,1116.9634,316.3594,1106.9634,320.3594,1110.9634,316.3594" style="stroke:#181818;stroke-width:1;"/><line style="stroke:#181818;stroke-width:1;" x1="977.8999" x2="1112.9634" y1="316.3594" y2="316.3594"/><text fill="#000000" font-family="sans-serif" font-size="13" lengthAdjust="spacing" textLength="95.3291" x="984.8999" y="311.2935">SQL SELECT ...</text></g><g class="message" data-participant-1="RM" data-participant-2="IS"><polygon fill="#181818" points="988.8999,341.4922,978.8999,345.4922,988.8999,349.4922,984.8999,345.4922" style="stroke:#181818;stroke-width:1;"/><line style="stroke:#181818;stroke-width:1;stroke-dasharray:2,2;" x1="982.8999" x2="1117.9634" y1="345.4922" y2="345.4922"/><text fill="#000000" font-family="sans-serif" font-size="13" lengthAdjust="spacing" textLength="117.0635" x="994.8999" y="340.4263">last 5 interactions</text></g><g class="message" data-participant-1="BFF" data-participant-2="API"><polygon fill="#181818" points="457.6104,370.625,447.6104,374.625,457.6104,378.625,453.6104,374.625" style="stroke:#181818;stroke-width:1;"/><line style="stroke:#181818;stroke-width:1;stroke-dasharray:2,2;" x1="451.6104" x2="605.1772" y1="374.625" y2="374.625"/><text fill="#000000" font-family="sans-serif" font-size="13" lengthAdjust="spacing" textLength="111.5537" x="463.6104" y="369.5591">aggregated JSON</text></g><g class="message" data-participant-1="API" data-participant-2="SPA"><polygon fill="#181818" points="228.0605,399.7578,218.0605,403.7578,228.0605,407.7578,224.0605,403.7578" style="stroke:#181818;stroke-width:1;"/><line style="stroke:#181818;stroke-width:1;stroke-dasharray:2,2;" x1="222.0605" x2="445.6104" y1="403.7578" y2="403.7578"/><text fill="#000000" font-family="sans-serif" font-size="13" lengthAdjust="spacing" textLength="83.8779" x="234.0605" y="398.6919">200 OK JSON</text></g><g class="message" data-participant-1="SPA" data-participant-2="Agent"><polygon fill="#181818" points="39.7197,428.8906,29.7197,432.8906,39.7197,436.8906,35.7197,432.8906" style="stroke:#181818;stroke-width:1;"/><line style="stroke:#181818;stroke-width:1;" x1="33.7197" x2="216.0605" y1="432.8906" y2="432.8906"/><text fill="#000000" font-family="sans-serif" font-size="13" lengthAdjust="spacing" textLength="164.3408" x="45.7197" y="427.8247">Render dashboard (&lt;3 s)</text></g><!--SRC=[VP7DRi8m48JlVeeLf-G0HQrwGLKbI065yjSaKizBl0gH80csAStRT-t8Y5nwikBvl3ipmTpK2gO5LKOqg4oPbmrM1WO9OMuWtKy7WDgUVNcwZs69XcxOEe2_-y1IONFyMiDiiN00dtqWkcfJdqb1L5U6VdaNgPyo9qT7KH-E6L5igAoh7XUdGgB10sfobYLiQaad-9WvETa8uRB1yDrcW0baRKEG-zqLdabOWNKRQGBBUGPFXJL_EK6W2LL-z5P3OHb6EGoZYrhTK4bGTBcIDh3wpeHL68WYrlbMjVxjhDtohY0KB36GR1X8kPzqlfv76On68y5tG__sxf2ZbJdOa7vsdB9Ua7deH0UUZsKe6FX_WvjmGhRy2kN3b6x3lGei2aK5_sG9gtItxSBVYtmUZs7tsIc-GLVr11Ag95kNg8-7sZOKlBs03ly0]--></g></svg>