<svg xmlns="http://www.w3.org/2000/svg" xmlns:xlink="http://www.w3.org/1999/xlink" contentStyleType="text/css" data-diagram-type="DESCRIPTION" height="294px" preserveAspectRatio="none" style="width:1818px;height:294px;background:#FFFFFF;" version="1.1" viewBox="0 0 1818 294" width="1818px" zoomAndPan="magnify"><defs/><g><!--cluster K8S--><g class="cluster" data-entity="K8S" data-source-line="7" data-uid="ent0007" id="cluster_K8S"><polygon fill="none" points="16,57.29,26,47.29,1756,47.29,1756,139.58,1746,149.58,16,149.58,16,57.29" style="stroke:#181818;stroke-width:1;"/><line style="stroke:#181818;stroke-width:1;" x1="1746" x2="1756" y1="57.29" y2="47.29"/><line style="stroke:#181818;stroke-width:1;" x1="16" x2="1746" y1="57.29" y2="57.29"/><line style="stroke:#181818;stroke-width:1;" x1="1746" x2="1746" y1="57.29" y2="149.58"/><text fill="#000000" font-family="sans-serif" font-size="14" font-weight="bold" lengthAdjust="spacing" textLength="152.5576" x="805.7212" y="73.2851">Kubernetes Cluster</text></g><!--entity API Gateway (Ingress)--><g class="entity" data-entity="API Gateway .Ingress." data-source-line="8" data-uid="ent0008" id="entity_API Gateway .Ingress."><rect fill="#F1F1F1" height="46.2969" rx="2.5" ry="2.5" style="stroke:#181818;stroke-width:0.5;" width="194.6631" x="1189.67" y="87.29"/><rect fill="#F1F1F1" height="10" style="stroke:#181818;stroke-width:0.5;" width="15" x="1364.3331" y="92.29"/><rect fill="#F1F1F1" height="2" style="stroke:#181818;stroke-width:0.5;" width="4" x="1362.3331" y="94.29"/><rect fill="#F1F1F1" height="2" style="stroke:#181818;stroke-width:0.5;" width="4" x="1362.3331" y="98.29"/><text fill="#000000" font-family="sans-serif" font-size="14" lengthAdjust="spacing" textLength="154.6631" x="1204.67" y="120.2851">API Gateway (Ingress)</text></g><!--entity Auth Service--><g class="entity" data-entity="Auth Service" data-source-line="9" data-uid="ent0009" id="entity_Auth Service"><rect fill="#F1F1F1" height="46.2969" rx="2.5" ry="2.5" style="stroke:#181818;stroke-width:0.5;" width="129.0039" x="1419.5" y="87.29"/><rect fill="#F1F1F1" height="10" style="stroke:#181818;stroke-width:0.5;" width="15" x="1528.5039" y="92.29"/><rect fill="#F1F1F1" height="2" style="stroke:#181818;stroke-width:0.5;" width="4" x="1526.5039" y="94.29"/><rect fill="#F1F1F1" height="2" style="stroke:#181818;stroke-width:0.5;" width="4" x="1526.5039" y="98.29"/><text fill="#000000" font-family="sans-serif" font-size="14" lengthAdjust="spacing" textLength="89.0039" x="1434.5" y="120.2851">Auth Service</text></g><!--entity Customer Service--><g class="entity" data-entity="Customer Service" data-source-line="10" data-uid="ent0010" id="entity_Customer Service"><rect fill="#F1F1F1" height="46.2969" rx="2.5" ry="2.5" style="stroke:#181818;stroke-width:0.5;" width="164.1953" x="31.9" y="87.29"/><rect fill="#F1F1F1" height="10" style="stroke:#181818;stroke-width:0.5;" width="15" x="176.0953" y="92.29"/><rect fill="#F1F1F1" height="2" style="stroke:#181818;stroke-width:0.5;" width="4" x="174.0953" y="94.29"/><rect fill="#F1F1F1" height="2" style="stroke:#181818;stroke-width:0.5;" width="4" x="174.0953" y="98.29"/><text fill="#000000" font-family="sans-serif" font-size="14" lengthAdjust="spacing" textLength="124.1953" x="46.9" y="120.2851">Customer Service</text></g><!--entity Restaurant Service--><g class="entity" data-entity="Restaurant Service" data-source-line="11" data-uid="ent0011" id="entity_Restaurant Service"><rect fill="#F1F1F1" height="46.2969" rx="2.5" ry="2.5" style="stroke:#181818;stroke-width:0.5;" width="173.4648" x="405.27" y="87.29"/><rect fill="#F1F1F1" height="10" style="stroke:#181818;stroke-width:0.5;" width="15" x="558.7348" y="92.29"/><rect fill="#F1F1F1" height="2" style="stroke:#181818;stroke-width:0.5;" width="4" x="556.7348" y="94.29"/><rect fill="#F1F1F1" height="2" style="stroke:#181818;stroke-width:0.5;" width="4" x="556.7348" y="98.29"/><text fill="#000000" font-family="sans-serif" font-size="14" lengthAdjust="spacing" textLength="133.4648" x="420.27" y="120.2851">Restaurant Service</text></g><!--entity Order Service--><g class="entity" data-entity="Order Service" data-source-line="12" data-uid="ent0012" id="entity_Order Service"><rect fill="#F1F1F1" height="46.2969" rx="2.5" ry="2.5" style="stroke:#181818;stroke-width:0.5;" width="136.2227" x="613.89" y="87.29"/><rect fill="#F1F1F1" height="10" style="stroke:#181818;stroke-width:0.5;" width="15" x="730.1127" y="92.29"/><rect fill="#F1F1F1" height="2" style="stroke:#181818;stroke-width:0.5;" width="4" x="728.1127" y="94.29"/><rect fill="#F1F1F1" height="2" style="stroke:#181818;stroke-width:0.5;" width="4" x="728.1127" y="98.29"/><text fill="#000000" font-family="sans-serif" font-size="14" lengthAdjust="spacing" textLength="96.2227" x="628.89" y="120.2851">Order Service</text></g><!--entity Driver Service--><g class="entity" data-entity="Driver Service" data-source-line="13" data-uid="ent0013" id="entity_Driver Service"><rect fill="#F1F1F1" height="46.2969" rx="2.5" ry="2.5" style="stroke:#181818;stroke-width:0.5;" width="139.2715" x="231.36" y="87.29"/><rect fill="#F1F1F1" height="10" style="stroke:#181818;stroke-width:0.5;" width="15" x="350.6315" y="92.29"/><rect fill="#F1F1F1" height="2" style="stroke:#181818;stroke-width:0.5;" width="4" x="348.6315" y="94.29"/><rect fill="#F1F1F1" height="2" style="stroke:#181818;stroke-width:0.5;" width="4" x="348.6315" y="98.29"/><text fill="#000000" font-family="sans-serif" font-size="14" lengthAdjust="spacing" textLength="99.2715" x="246.36" y="120.2851">Driver Service</text></g><!--entity Payment Service--><g class="entity" data-entity="Payment Service" data-source-line="14" data-uid="ent0014" id="entity_Payment Service"><rect fill="#F1F1F1" height="46.2969" rx="2.5" ry="2.5" style="stroke:#181818;stroke-width:0.5;" width="158.1113" x="784.94" y="87.29"/><rect fill="#F1F1F1" height="10" style="stroke:#181818;stroke-width:0.5;" width="15" x="923.0513" y="92.29"/><rect fill="#F1F1F1" height="2" style="stroke:#181818;stroke-width:0.5;" width="4" x="921.0513" y="94.29"/><rect fill="#F1F1F1" height="2" style="stroke:#181818;stroke-width:0.5;" width="4" x="921.0513" y="98.29"/><text fill="#000000" font-family="sans-serif" font-size="14" lengthAdjust="spacing" textLength="118.1113" x="799.94" y="120.2851">Payment Service</text></g><!--entity Notification Service--><g class="entity" data-entity="Notification Service" data-source-line="15" data-uid="ent0015" id="entity_Notification Service"><rect fill="#F1F1F1" height="46.2969" rx="2.5" ry="2.5" style="stroke:#181818;stroke-width:0.5;" width="176.5205" x="977.74" y="87.29"/><rect fill="#F1F1F1" height="10" style="stroke:#181818;stroke-width:0.5;" width="15" x="1134.2605" y="92.29"/><rect fill="#F1F1F1" height="2" style="stroke:#181818;stroke-width:0.5;" width="4" x="1132.2605" y="94.29"/><rect fill="#F1F1F1" height="2" style="stroke:#181818;stroke-width:0.5;" width="4" x="1132.2605" y="98.29"/><text fill="#000000" font-family="sans-serif" font-size="14" lengthAdjust="spacing" textLength="136.5205" x="992.74" y="120.2851">Notification Service</text></g><!--entity Mapping Service--><g class="entity" data-entity="Mapping Service" data-source-line="16" data-uid="ent0016" id="entity_Mapping Service"><rect fill="#F1F1F1" height="46.2969" rx="2.5" ry="2.5" style="stroke:#181818;stroke-width:0.5;" width="156.2725" x="1583.86" y="87.29"/><rect fill="#F1F1F1" height="10" style="stroke:#181818;stroke-width:0.5;" width="15" x="1720.1325" y="92.29"/><rect fill="#F1F1F1" height="2" style="stroke:#181818;stroke-width:0.5;" width="4" x="1718.1325" y="94.29"/><rect fill="#F1F1F1" height="2" style="stroke:#181818;stroke-width:0.5;" width="4" x="1718.1325" y="98.29"/><text fill="#000000" font-family="sans-serif" font-size="14" lengthAdjust="spacing" textLength="116.2725" x="1598.86" y="120.2851">Mapping Service</text></g><!--entity Customer--><g class="entity" data-entity="Customer" data-source-line="1" data-uid="ent0002" id="entity_Customer"><ellipse cx="905.002" cy="221.08" fill="#F1F1F1" rx="8" ry="8" style="stroke:#181818;stroke-width:0.5;"/><path d="M905.002,229.08 L905.002,256.08 M892.002,237.08 L918.002,237.08 M905.002,256.08 L892.002,271.08 M905.002,256.08 L918.002,271.08" fill="none" style="stroke:#181818;stroke-width:0.5;"/><text fill="#000000" font-family="sans-serif" font-size="14" lengthAdjust="spacing" textLength="68.0039" x="871" y="285.5751">Customer</text></g><!--entity RestaurantManager--><g class="entity" data-entity="RestaurantManager" data-source-line="2" data-uid="ent0003" id="entity_RestaurantManager"><ellipse cx="1046.0049" cy="221.08" fill="#F1F1F1" rx="8" ry="8" style="stroke:#181818;stroke-width:0.5;"/><path d="M1046.0049,229.08 L1046.0049,256.08 M1033.0049,237.08 L1059.0049,237.08 M1046.0049,256.08 L1033.0049,271.08 M1046.0049,256.08 L1059.0049,271.08" fill="none" style="stroke:#181818;stroke-width:0.5;"/><text fill="#000000" font-family="sans-serif" font-size="14" lengthAdjust="spacing" textLength="143.0898" x="974.46" y="285.5751">Restaurant Manager</text></g><!--entity Driver--><g class="entity" data-entity="Driver" data-source-line="3" data-uid="ent0004" id="entity_Driver"><ellipse cx="1174" cy="221.08" fill="#F1F1F1" rx="8" ry="8" style="stroke:#181818;stroke-width:0.5;"/><path d="M1174,229.08 L1174,256.08 M1161,237.08 L1187,237.08 M1174,256.08 L1161,271.08 M1174,256.08 L1187,271.08" fill="none" style="stroke:#181818;stroke-width:0.5;"/><text fill="#000000" font-family="sans-serif" font-size="14" lengthAdjust="spacing" textLength="43.0801" x="1152.46" y="285.5751">Driver</text></g><!--entity PlatformAdmin--><g class="entity" data-entity="PlatformAdmin" data-source-line="4" data-uid="ent0005" id="entity_PlatformAdmin"><ellipse cx="1310.0004" cy="221.08" fill="#F1F1F1" rx="8" ry="8" style="stroke:#181818;stroke-width:0.5;"/><path d="M1310.0004,229.08 L1310.0004,256.08 M1297.0004,237.08 L1323.0004,237.08 M1310.0004,256.08 L1297.0004,271.08 M1310.0004,256.08 L1323.0004,271.08" fill="none" style="stroke:#181818;stroke-width:0.5;"/><text fill="#000000" font-family="sans-serif" font-size="14" lengthAdjust="spacing" textLength="159.4209" x="1230.29" y="285.5751">Platform Administrator</text></g><!--entity LB--><g class="entity" data-entity="LB" data-source-line="6" data-uid="ent0006" id="entity_LB"><polygon fill="#F1F1F1" points="1425.06,237.58,1435.06,227.58,1564.933,227.58,1564.933,263.8769,1554.933,273.8769,1425.06,273.8769,1425.06,237.58" style="stroke:#181818;stroke-width:0.5;"/><line style="stroke:#181818;stroke-width:0.5;" x1="1554.933" x2="1564.933" y1="237.58" y2="227.58"/><line style="stroke:#181818;stroke-width:0.5;" x1="1425.06" x2="1554.933" y1="237.58" y2="237.58"/><line style="stroke:#181818;stroke-width:0.5;" x1="1554.933" x2="1554.933" y1="237.58" y2="273.8769"/><text fill="#000000" font-family="sans-serif" font-size="14" lengthAdjust="spacing" textLength="99.873" x="1440.06" y="260.5751">Load Balancer</text></g><!--entity PG--><g class="entity" data-entity="PG" data-source-line="19" data-uid="ent0017" id="entity_PG"><path d="M734.62,238.08 C734.62,228.08 784.9965,228.08 784.9965,228.08 C784.9965,228.08 835.3729,228.08 835.3729,238.08 L835.3729,263.3769 C835.3729,273.3769 784.9965,273.3769 784.9965,273.3769 C784.9965,273.3769 734.62,273.3769 734.62,263.3769 L734.62,238.08" fill="#F1F1F1" style="stroke:#181818;stroke-width:0.5;"/><path d="M734.62,238.08 C734.62,248.08 784.9965,248.08 784.9965,248.08 C784.9965,248.08 835.3729,248.08 835.3729,238.08" fill="none" style="stroke:#181818;stroke-width:0.5;"/><text fill="#000000" font-family="sans-serif" font-size="14" lengthAdjust="spacing" textLength="80.7529" x="744.62" y="265.0751">PostgreSQL</text></g><!--entity MG--><g class="entity" data-entity="MG" data-source-line="20" data-uid="ent0018" id="entity_MG"><path d="M353.32,238.08 C353.32,228.08 396.9972,228.08 396.9972,228.08 C396.9972,228.08 440.6745,228.08 440.6745,238.08 L440.6745,263.3769 C440.6745,273.3769 396.9972,273.3769 396.9972,273.3769 C396.9972,273.3769 353.32,273.3769 353.32,263.3769 L353.32,238.08" fill="#F1F1F1" style="stroke:#181818;stroke-width:0.5;"/><path d="M353.32,238.08 C353.32,248.08 396.9972,248.08 396.9972,248.08 C396.9972,248.08 440.6745,248.08 440.6745,238.08" fill="none" style="stroke:#181818;stroke-width:0.5;"/><text fill="#000000" font-family="sans-serif" font-size="14" lengthAdjust="spacing" textLength="67.3545" x="363.32" y="265.0751">MongoDB</text></g><!--entity KB--><g class="entity" data-entity="KB" data-source-line="21" data-uid="ent0019" id="entity_KB"><path d="M564.31,237.58 L613.685,237.58 C618.685,237.58 618.685,250.7284 618.685,250.7284 C618.685,250.7284 618.685,263.8769 613.685,263.8769 L564.31,263.8769 C559.31,263.8769 559.31,250.7284 559.31,250.7284 C559.31,250.7284 559.31,237.58 564.31,237.58" fill="#F1F1F1" style="stroke:#181818;stroke-width:0.5;"/><path d="M613.685,237.58 C608.685,237.58 608.685,250.7284 608.685,250.7284 C608.685,263.8769 613.685,263.8769 613.685,263.8769" fill="none" style="stroke:#181818;stroke-width:0.5;"/><text fill="#000000" font-family="sans-serif" font-size="14" lengthAdjust="spacing" textLength="39.375" x="564.31" y="255.5751">Kafka</text></g><!--entity S3--><g class="entity" data-entity="S3" data-source-line="22" data-uid="ent0020" id="entity_S3"><rect fill="#F1F1F1" height="36.2969" rx="35" ry="35" style="stroke:#181818;stroke-width:0.5;" width="37.7939" x="1775.1" y="92.29"/><text fill="#000000" font-family="sans-serif" font-size="14" lengthAdjust="spacing" textLength="17.7939" x="1785.1" y="115.2851">S3</text></g><!--entity REDIS--><g class="entity" data-entity="REDIS" data-source-line="23" data-uid="ent0021" id="entity_REDIS"><polygon fill="#F1F1F1" points="79.72,237.58,89.72,227.58,212.2718,227.58,212.2718,263.8769,202.2718,273.8769,79.72,273.8769,79.72,237.58" style="stroke:#181818;stroke-width:0.5;"/><line style="stroke:#181818;stroke-width:0.5;" x1="202.2718" x2="212.2718" y1="237.58" y2="227.58"/><line style="stroke:#181818;stroke-width:0.5;" x1="79.72" x2="202.2718" y1="237.58" y2="237.58"/><line style="stroke:#181818;stroke-width:0.5;" x1="202.2718" x2="202.2718" y1="237.58" y2="273.8769"/><text fill="#000000" font-family="sans-serif" font-size="14" lengthAdjust="spacing" textLength="92.5518" x="94.72" y="260.5751">Redis Cluster</text></g><!--link Customer to LB--><g class="link" data-entity-1="Customer" data-entity-2="LB" data-source-line="25" data-uid="lnk22" id="link_Customer_LB"><path d="M935.51,212.41 C946.5,201.45 959.85,190.91 974.5,185.08 C1060.2,151.01 1300.83,159.75 1389.5,185.08 C1418.33,193.32 1442.1846,208.3375 1462.3246,223.6575" fill="none" id="Customer-to-LB" style="stroke:#181818;stroke-width:1;"/><polygon fill="#181818" points="1467.1,227.29,1462.3586,218.6576,1463.1205,224.2629,1457.5152,225.0248,1467.1,227.29" style="stroke:#181818;stroke-width:1;"/></g><!--link RestaurantManager to LB--><g class="link" data-entity-1="RestaurantManager" data-entity-2="LB" data-source-line="26" data-uid="lnk23" id="link_RestaurantManager_LB"><path d="M1095.83,212.17 C1112.86,201.2 1132.65,190.71 1152.5,185.08 C1253.84,156.36 1288.22,156.14 1389.5,185.08 C1418.33,193.32 1442.1846,208.3375 1462.3246,223.6575" fill="none" id="RestaurantManager-to-LB" style="stroke:#181818;stroke-width:1;"/><polygon fill="#181818" points="1467.1,227.29,1462.3586,218.6576,1463.1205,224.2629,1457.5152,225.0248,1467.1,227.29" style="stroke:#181818;stroke-width:1;"/></g><!--link Driver to LB--><g class="link" data-entity-1="Driver" data-entity-2="LB" data-source-line="27" data-uid="lnk24" id="link_Driver_LB"><path d="M1195.87,214.64 C1204.99,202.97 1216.7,191.42 1230.5,185.08 C1294.73,155.62 1321.55,165.67 1389.5,185.08 C1418.33,193.32 1442.1846,208.3375 1462.3246,223.6575" fill="none" id="Driver-to-LB" style="stroke:#181818;stroke-width:1;"/><polygon fill="#181818" points="1467.1,227.29,1462.3586,218.6576,1463.1205,224.2629,1457.5152,225.0248,1467.1,227.29" style="stroke:#181818;stroke-width:1;"/></g><!--link PlatformAdmin to LB--><g class="link" data-entity-1="PlatformAdmin" data-entity-2="LB" data-source-line="28" data-uid="lnk25" id="link_PlatformAdmin_LB"><path d="M1389.85,250.73 C1401.49,250.73 1407.13,250.73 1418.77,250.73" fill="none" id="PlatformAdmin-to-LB" style="stroke:#181818;stroke-width:1;"/><polygon fill="#181818" points="1424.77,250.73,1415.77,246.73,1419.77,250.73,1415.77,254.73,1424.77,250.73" style="stroke:#181818;stroke-width:1;"/></g><!--link LB to API Gateway (Ingress)--><g class="link" data-entity-1="LB" data-entity-2="API Gateway .Ingress." data-source-line="30" data-uid="lnk26" id="link_LB_API Gateway .Ingress."><path d="M1461.13,227.21 C1422.46,201.5 1364.5563,163.0022 1325.8763,137.2822" fill="none" id="LB-to-API Gateway (Ingress)" style="stroke:#181818;stroke-width:1;"/><polygon fill="#181818" points="1320.88,133.96,1326.1596,142.2742,1325.0436,136.7285,1330.5892,135.6125,1320.88,133.96" style="stroke:#181818;stroke-width:1;"/></g><!--link API Gateway (Ingress) to Auth Service--><g class="link" data-entity-1="API Gateway .Ingress." data-entity-2="Auth Service" data-source-line="31" data-uid="lnk27" id="link_API Gateway .Ingress._Auth Service"><path d="M1384.73,110.43 C1396.23,110.43 1401.74,110.43 1413.24,110.43" fill="none" id="API Gateway (Ingress)-to-Auth Service" style="stroke:#181818;stroke-width:1;"/><polygon fill="#181818" points="1419.24,110.43,1410.24,106.43,1414.24,110.43,1410.24,114.43,1419.24,110.43" style="stroke:#181818;stroke-width:1;"/></g><!--link API Gateway (Ingress) to Customer Service--><g class="link" data-entity-1="API Gateway .Ingress." data-entity-2="Customer Service" data-source-line="32" data-uid="lnk28" id="link_API Gateway .Ingress._Customer Service"><path d="M1260.93,86.84 C1235.76,65.78 1195.54,36.45 1154.5,24.29 C1105.34,9.71 280.23,8.34 231.5,24.29 C194,36.56 162.9044,61.7211 140.9444,82.7411" fill="none" id="API Gateway (Ingress)-to-Customer Service" style="stroke:#181818;stroke-width:1;"/><polygon fill="#181818" points="136.61,86.89,145.8775,83.5563,140.222,83.4326,140.3457,77.7771,136.61,86.89" style="stroke:#181818;stroke-width:1;"/></g><!--link API Gateway (Ingress) to Restaurant Service--><g class="link" data-entity-1="API Gateway .Ingress." data-entity-2="Restaurant Service" data-source-line="33" data-uid="lnk29" id="link_API Gateway .Ingress._Restaurant Service"><path d="M1260.93,86.84 C1235.76,65.78 1195.54,36.45 1154.5,24.29 C1096.87,7.2 670.78,6.04 613.5,24.29 C575.06,36.53 542.7613,61.773 519.9513,82.803" fill="none" id="API Gateway (Ingress)-to-Restaurant Service" style="stroke:#181818;stroke-width:1;"/><polygon fill="#181818" points="515.54,86.87,524.8683,83.7103,519.2161,83.4808,519.4455,77.8286,515.54,86.87" style="stroke:#181818;stroke-width:1;"/></g><!--link API Gateway (Ingress) to Order Service--><g class="link" data-entity-1="API Gateway .Ingress." data-entity-2="Order Service" data-source-line="34" data-uid="lnk30" id="link_API Gateway .Ingress._Order Service"><path d="M1260.93,86.84 C1235.76,65.78 1195.54,36.45 1154.5,24.29 C1115.09,12.6 823.13,10.21 784.5,24.29 C750.43,36.7 723.8145,61.503 705.1045,82.473" fill="none" id="API Gateway (Ingress)-to-Order Service" style="stroke:#181818;stroke-width:1;"/><polygon fill="#181818" points="701.11,86.95,710.0865,82.8975,704.4388,83.2191,704.1171,77.5714,701.11,86.95" style="stroke:#181818;stroke-width:1;"/></g><!--link API Gateway (Ingress) to Driver Service--><g class="link" data-entity-1="API Gateway .Ingress." data-entity-2="Driver Service" data-source-line="35" data-uid="lnk31" id="link_API Gateway .Ingress._Driver Service"><path d="M1260.93,86.84 C1235.76,65.78 1195.54,36.45 1154.5,24.29 C1114.61,12.46 444.66,10.22 405.5,24.29 C370.98,36.68 343.775,61.5285 324.625,82.5085" fill="none" id="API Gateway (Ingress)-to-Driver Service" style="stroke:#181818;stroke-width:1;"/><polygon fill="#181818" points="320.58,86.94,329.6018,82.9894,323.9508,83.2471,323.6931,77.5961,320.58,86.94" style="stroke:#181818;stroke-width:1;"/></g><!--link API Gateway (Ingress) to Payment Service--><g class="link" data-entity-1="API Gateway .Ingress." data-entity-2="Payment Service" data-source-line="36" data-uid="lnk32" id="link_API Gateway .Ingress._Payment Service"><path d="M1260.93,86.84 C1235.76,65.78 1195.54,36.45 1154.5,24.29 C1116.79,13.1 1014.78,11.74 977.5,24.29 C940.92,36.6 911.0317,61.6564 889.9317,82.6664" fill="none" id="API Gateway (Ingress)-to-Payment Service" style="stroke:#181818;stroke-width:1;"/><polygon fill="#181818" points="885.68,86.9,894.8799,83.3841,889.2231,83.372,889.2352,77.7152,885.68,86.9" style="stroke:#181818;stroke-width:1;"/></g><!--link API Gateway (Ingress) to Notification Service--><g class="link" data-entity-1="API Gateway .Ingress." data-entity-2="Notification Service" data-source-line="37" data-uid="lnk33" id="link_API Gateway .Ingress._Notification Service"><path d="M1189.43,110.43 C1177.78,110.43 1172.13,110.43 1160.49,110.43" fill="none" id="API Gateway (Ingress)-to-Notification Service" style="stroke:#181818;stroke-width:1;"/><polygon fill="#181818" points="1154.49,110.43,1163.49,114.43,1159.49,110.43,1163.49,106.43,1154.49,110.43" style="stroke:#181818;stroke-width:1;"/></g><!--link API Gateway (Ingress) to Mapping Service--><g class="link" data-entity-1="API Gateway .Ingress." data-entity-2="Mapping Service" data-source-line="38" data-uid="lnk34" id="link_API Gateway .Ingress._Mapping Service"><path d="M1313.07,86.84 C1338.24,65.78 1378.46,36.45 1419.5,24.29 C1474.47,7.99 1494.16,6 1548.5,24.29 C1585.08,36.6 1614.9683,61.6564 1636.0683,82.6664" fill="none" id="API Gateway (Ingress)-to-Mapping Service" style="stroke:#181818;stroke-width:1;"/><polygon fill="#181818" points="1640.32,86.9,1636.7648,77.7152,1636.7769,83.372,1631.1201,83.3841,1640.32,86.9" style="stroke:#181818;stroke-width:1;"/></g><!--link Customer Service to MG--><g class="link" data-entity-1="Customer Service" data-entity-2="MG" data-source-line="40" data-uid="lnk35" id="link_Customer Service_MG"><path d="M146.51,133.92 C168.83,148.8 199.48,168.16 228,182.58 C269.14,203.38 312.671,220.278 347.341,232.688" fill="none" id="Customer Service-to-MG" style="stroke:#181818;stroke-width:1;"/><polygon fill="#181818" points="352.99,234.71,345.8645,227.9109,348.2825,233.025,343.1685,235.4429,352.99,234.71" style="stroke:#181818;stroke-width:1;"/><text fill="#000000" font-family="sans-serif" font-size="13" lengthAdjust="spacing" textLength="137.5093" x="229" y="178.6469">customer data/cache</text></g><!--link Restaurant Service to MG--><g class="link" data-entity-1="Restaurant Service" data-entity-2="MG" data-source-line="41" data-uid="lnk36" id="link_Restaurant Service_MG"><path d="M476.53,133.96 C458.75,159.83 433.1881,197.055 415.5481,222.725" fill="none" id="Restaurant Service-to-MG" style="stroke:#181818;stroke-width:1;"/><polygon fill="#181818" points="412.15,227.67,420.5438,222.5179,414.9818,223.5492,413.9505,217.9871,412.15,227.67" style="stroke:#181818;stroke-width:1;"/></g><!--link Driver Service to MG--><g class="link" data-entity-1="Driver Service" data-entity-2="MG" data-source-line="42" data-uid="lnk37" id="link_Driver Service_MG"><path d="M341.9,133.91 C354.11,142.4 366.49,153.08 375,165.58 C387.66,184.19 392.274,203.6878 394.564,221.7178" fill="none" id="Driver Service-to-MG" style="stroke:#181818;stroke-width:1;"/><polygon fill="#181818" points="395.32,227.67,398.1541,218.2377,394.69,222.7098,390.2179,219.2457,395.32,227.67" style="stroke:#181818;stroke-width:1;"/></g><!--link Order Service to PG--><g class="link" data-entity-1="Order Service" data-entity-2="PG" data-source-line="43" data-uid="lnk38" id="link_Order Service_PG"><path d="M700.26,133.89 C708,143.55 717.06,155.03 725,165.58 C740.65,186.37 754.3844,205.681 766.3344,222.791" fill="none" id="Order Service-to-PG" style="stroke:#181818;stroke-width:1;"/><polygon fill="#181818" points="769.77,227.71,767.896,218.0411,766.907,223.6108,761.3373,222.6218,769.77,227.71" style="stroke:#181818;stroke-width:1;"/></g><!--link Payment Service to PG--><g class="link" data-entity-1="Payment Service" data-entity-2="PG" data-source-line="44" data-uid="lnk39" id="link_Payment Service_PG"><path d="M851.13,133.96 C836.35,159.83 815.2471,196.7907 800.5771,222.4607" fill="none" id="Payment Service-to-PG" style="stroke:#181818;stroke-width:1;"/><polygon fill="#181818" points="797.6,227.67,805.5385,221.8407,800.0809,223.3289,798.5927,217.8713,797.6,227.67" style="stroke:#181818;stroke-width:1;"/></g><!--link Order Service to KB--><g class="link" data-entity-1="Order Service" data-entity-2="KB" data-source-line="46" data-uid="lnk40" id="link_Order Service_KB"><path d="M650.93,134 C640.33,142.9 629.12,153.81 621,165.58 C605.29,188.35 597.4266,214.0321 593.1966,231.3121" fill="none" id="Order Service-to-KB" style="stroke:#181818;stroke-width:1;"/><polygon fill="#181818" points="591.77,237.14,597.7952,229.3492,592.9589,232.2834,590.0247,227.447,591.77,237.14" style="stroke:#181818;stroke-width:1;"/><text fill="#000000" font-family="sans-serif" font-size="13" lengthAdjust="spacing" textLength="94.9102" x="622" y="178.6469">publish events</text></g><!--link Restaurant Service to KB--><g class="link" data-entity-1="Restaurant Service" data-entity-2="KB" data-source-line="47" data-uid="lnk41" id="link_Restaurant Service_KB"><path d="M509.47,133.86 C516.86,143.52 525.49,155.01 533,165.58 C550.78,190.62 567.1745,215.7035 577.8245,232.2635" fill="none" id="Restaurant Service-to-KB" style="stroke:#181818;stroke-width:1;"/><polygon fill="#181818" points="581.07,237.31,579.5661,227.5766,578.3654,233.1046,572.8375,231.9039,581.07,237.31" style="stroke:#181818;stroke-width:1;"/></g><!--link Driver Service to KB--><g class="link" data-entity-1="Driver Service" data-entity-2="KB" data-source-line="48" data-uid="lnk42" id="link_Driver Service_KB"><path d="M341.86,133.86 C356.32,141.6 372.78,150.18 388,157.58 C395.87,161.41 398.02,161.98 406,165.58 C461.6,190.72 520.9869,218.1655 556.6269,234.6955" fill="none" id="Driver Service-to-KB" style="stroke:#181818;stroke-width:1;"/><polygon fill="#181818" points="562.07,237.22,555.5884,229.8045,557.5341,235.1162,552.2224,237.0619,562.07,237.22" style="stroke:#181818;stroke-width:1;"/></g><!--link KB to Notification Service--><g class="link" data-entity-1="KB" data-entity-2="Notification Service" data-source-line="49" data-uid="lnk43" id="link_KB_Notification Service"><path d="M619.12,240.43 C644.97,232.58 683.28,221.27 717,212.58 C824.65,184.86 855.4,192.33 961,157.58 C980.67,151.11 996.2288,144.7651 1014.2488,136.5651" fill="none" id="KB-to-Notification Service" style="stroke:#181818;stroke-width:1;"/><polygon fill="#181818" points="1019.71,134.08,1009.8615,134.1669,1015.159,136.1509,1013.175,141.4484,1019.71,134.08" style="stroke:#181818;stroke-width:1;"/></g><!--link Customer Service to REDIS--><g class="link" data-entity-1="Customer Service" data-entity-2="REDIS" data-source-line="51" data-uid="lnk44" id="link_Customer Service_REDIS"><path d="M109.88,133.86 C108.05,148.03 107.09,166.61 111,182.58 C114.88,198.42 120.1122,209.5316 127.6722,222.0716" fill="none" id="Customer Service-to-REDIS" style="stroke:#181818;stroke-width:1;"/><polygon fill="#181818" points="130.77,227.21,129.5489,217.4371,128.1885,222.928,122.6977,221.5676,130.77,227.21" style="stroke:#181818;stroke-width:1;"/><text fill="#000000" font-family="sans-serif" font-size="13" lengthAdjust="spacing" textLength="38.4985" x="112" y="178.6469">cache</text></g><!--link Driver Service to REDIS--><g class="link" data-entity-1="Driver Service" data-entity-2="REDIS" data-source-line="52" data-uid="lnk45" id="link_Driver Service_REDIS"><path d="M258.43,133.99 C230.53,148.79 199.16,165.43 199,165.58 C180.15,183.09 167.9604,203.347 158.8304,221.717" fill="none" id="Driver Service-to-REDIS" style="stroke:#181818;stroke-width:1;"/><polygon fill="#181818" points="156.16,227.09,163.7476,220.8108,158.3853,222.6125,156.5836,217.2503,156.16,227.09" style="stroke:#181818;stroke-width:1;"/></g><!--link Notification Service to Customer--><g class="link" data-entity-1="Notification Service" data-entity-2="Customer" data-source-line="54" data-uid="lnk46" id="link_Notification Service_Customer"><path d="M1039.77,133.96 C1012.42,157.46 973.9608,190.4898 943.9108,216.3098" fill="none" id="Notification Service-to-Customer" style="stroke:#181818;stroke-width:1;"/><polygon fill="#181818" points="939.36,220.22,948.7931,217.3885,943.1524,216.9615,943.5794,211.3208,939.36,220.22" style="stroke:#181818;stroke-width:1;"/></g><!--link Notification Service to RestaurantManager--><g class="link" data-entity-1="Notification Service" data-entity-2="RestaurantManager" data-source-line="55" data-uid="lnk47" id="link_Notification Service_RestaurantManager"><path d="M1062.74,133.96 C1059.68,155.16 1055.8885,181.3717 1052.2685,206.4117" fill="none" id="Notification Service-to-RestaurantManager" style="stroke:#181818;stroke-width:1;"/><polygon fill="#181818" points="1051.41,212.35,1056.6566,204.0149,1052.1254,207.4014,1048.7389,202.8703,1051.41,212.35" style="stroke:#181818;stroke-width:1;"/></g><!--link Notification Service to Driver--><g class="link" data-entity-1="Notification Service" data-entity-2="Driver" data-source-line="56" data-uid="lnk48" id="link_Notification Service_Driver"><path d="M1083.59,133.96 C1102.36,158 1128.4162,191.3618 1148.6262,217.2318" fill="none" id="Notification Service-to-Driver" style="stroke:#181818;stroke-width:1;"/><polygon fill="#181818" points="1152.32,221.96,1149.9315,212.4052,1149.2419,218.0198,1143.6272,217.3302,1152.32,221.96" style="stroke:#181818;stroke-width:1;"/></g><!--SRC=[VLJBRi8m4BpxArOvjGVK0vUgXqe4gWX1sfGSgnwMn0IhO5FReK9L_xsE7Hvv-HRFpbWxi-jWfeM4QQcqs5D9q1vNL6ai9N8T8yU2Ia05mHM56Wvg_aoouqMSx51lXDnFyZtZLdX6m49CQOc66132HKuXM0hC8SGTyinSMIcMOLrQb6igETLKmNHdUgphYySKVWd0noIPGuIQ_k09xkQya5If-qzRAVKMKYgFBACME5jiW3UMRk4tcRU8pc43Il2qfotXgz1impBKJF168SR3WV7YYlqHagF6DIfZCn5AczxJzwMrbqGtjLZmGin2MuWZybtIiWe6Dr_eiWY9CIRDE218nnPAntLyAvgpPdAhbzay9UGInkYv2hixRuVNhjsXELU7aMLOVGtDOG1taiQ0VCpkv7pilf7w-ArP-wZj9V1nEzlX8_UlZK_HsIVIZGb6XXb7y0JPkLIjrKE6sPQIlg1g1MaxlU3Di2nibhLZzbpe5In2qz6XNE-OsW8z6fqQRiPiTsyp1ZVtZ8R36yh3Fe0g4XT2tztr6-c_s38klqiFf_EcV6JNnZy0]--></g></svg>