<svg xmlns="http://www.w3.org/2000/svg" xmlns:xlink="http://www.w3.org/1999/xlink" contentStyleType="text/css" data-diagram-type="DESCRIPTION" height="544px" preserveAspectRatio="none" style="width:1854px;height:544px;background:#FFFFFF;" version="1.1" viewBox="0 0 1854 544" width="1854px" zoomAndPan="magnify"><defs/><g><!--cluster Fork & Knife System--><g class="cluster" data-entity="Fork . Knife System" data-source-line="6" data-uid="ent0006" id="cluster_Fork . Knife System"><rect fill="none" height="431.19" rx="2.5" ry="2.5" style="stroke:#181818;stroke-width:1;" width="1326" x="90" y="107.09"/><text fill="#000000" font-family="sans-serif" font-size="14" font-weight="bold" lengthAdjust="spacing" textLength="161.7451" x="672.1274" y="122.0851">Fork &amp; Knife System</text></g><!--entity API Gateway--><g class="entity" data-entity="API Gateway" data-source-line="7" data-uid="ent0007" id="entity_API Gateway"><rect fill="#F1F1F1" height="46.2969" rx="2.5" ry="2.5" style="stroke:#181818;stroke-width:0.5;" width="128.4434" x="878.78" y="142.09"/><rect fill="#F1F1F1" height="10" style="stroke:#181818;stroke-width:0.5;" width="15" x="987.2234" y="147.09"/><rect fill="#F1F1F1" height="2" style="stroke:#181818;stroke-width:0.5;" width="4" x="985.2234" y="149.09"/><rect fill="#F1F1F1" height="2" style="stroke:#181818;stroke-width:0.5;" width="4" x="985.2234" y="153.09"/><text fill="#000000" font-family="sans-serif" font-size="14" lengthAdjust="spacing" textLength="88.4434" x="893.78" y="175.0851">API Gateway</text></g><!--entity Auth & Identity Service--><g class="entity" data-entity="Auth . Identity Service" data-source-line="8" data-uid="ent0008" id="entity_Auth . Identity Service"><rect fill="#F1F1F1" height="46.2969" rx="2.5" ry="2.5" style="stroke:#181818;stroke-width:0.5;" width="202.4766" x="105.76" y="263.39"/><rect fill="#F1F1F1" height="10" style="stroke:#181818;stroke-width:0.5;" width="15" x="288.2366" y="268.39"/><rect fill="#F1F1F1" height="2" style="stroke:#181818;stroke-width:0.5;" width="4" x="286.2366" y="270.39"/><rect fill="#F1F1F1" height="2" style="stroke:#181818;stroke-width:0.5;" width="4" x="286.2366" y="274.39"/><text fill="#000000" font-family="sans-serif" font-size="14" lengthAdjust="spacing" textLength="162.4766" x="120.76" y="296.3851">Auth &amp; Identity Service</text></g><!--entity Customer Service--><g class="entity" data-entity="Customer Service" data-source-line="9" data-uid="ent0009" id="entity_Customer Service"><rect fill="#F1F1F1" height="46.2969" rx="2.5" ry="2.5" style="stroke:#181818;stroke-width:0.5;" width="164.1953" x="379.9" y="263.39"/><rect fill="#F1F1F1" height="10" style="stroke:#181818;stroke-width:0.5;" width="15" x="524.0953" y="268.39"/><rect fill="#F1F1F1" height="2" style="stroke:#181818;stroke-width:0.5;" width="4" x="522.0953" y="270.39"/><rect fill="#F1F1F1" height="2" style="stroke:#181818;stroke-width:0.5;" width="4" x="522.0953" y="274.39"/><text fill="#000000" font-family="sans-serif" font-size="14" lengthAdjust="spacing" textLength="124.1953" x="394.9" y="296.3851">Customer Service</text></g><!--entity Restaurant Service--><g class="entity" data-entity="Restaurant Service" data-source-line="10" data-uid="ent0010" id="entity_Restaurant Service"><rect fill="#F1F1F1" height="46.2969" rx="2.5" ry="2.5" style="stroke:#181818;stroke-width:0.5;" width="173.4648" x="579.27" y="263.39"/><rect fill="#F1F1F1" height="10" style="stroke:#181818;stroke-width:0.5;" width="15" x="732.7348" y="268.39"/><rect fill="#F1F1F1" height="2" style="stroke:#181818;stroke-width:0.5;" width="4" x="730.7348" y="270.39"/><rect fill="#F1F1F1" height="2" style="stroke:#181818;stroke-width:0.5;" width="4" x="730.7348" y="274.39"/><text fill="#000000" font-family="sans-serif" font-size="14" lengthAdjust="spacing" textLength="133.4648" x="594.27" y="296.3851">Restaurant Service</text></g><!--entity Order Service--><g class="entity" data-entity="Order Service" data-source-line="11" data-uid="ent0011" id="entity_Order Service"><rect fill="#F1F1F1" height="46.2969" rx="2.5" ry="2.5" style="stroke:#181818;stroke-width:0.5;" width="136.2227" x="961.89" y="263.39"/><rect fill="#F1F1F1" height="10" style="stroke:#181818;stroke-width:0.5;" width="15" x="1078.1127" y="268.39"/><rect fill="#F1F1F1" height="2" style="stroke:#181818;stroke-width:0.5;" width="4" x="1076.1127" y="270.39"/><rect fill="#F1F1F1" height="2" style="stroke:#181818;stroke-width:0.5;" width="4" x="1076.1127" y="274.39"/><text fill="#000000" font-family="sans-serif" font-size="14" lengthAdjust="spacing" textLength="96.2227" x="976.89" y="296.3851">Order Service</text></g><!--entity Driver Service--><g class="entity" data-entity="Driver Service" data-source-line="12" data-uid="ent0012" id="entity_Driver Service"><rect fill="#F1F1F1" height="46.2969" rx="2.5" ry="2.5" style="stroke:#181818;stroke-width:0.5;" width="139.2715" x="787.37" y="263.39"/><rect fill="#F1F1F1" height="10" style="stroke:#181818;stroke-width:0.5;" width="15" x="906.6415" y="268.39"/><rect fill="#F1F1F1" height="2" style="stroke:#181818;stroke-width:0.5;" width="4" x="904.6415" y="270.39"/><rect fill="#F1F1F1" height="2" style="stroke:#181818;stroke-width:0.5;" width="4" x="904.6415" y="274.39"/><text fill="#000000" font-family="sans-serif" font-size="14" lengthAdjust="spacing" textLength="99.2715" x="802.37" y="296.3851">Driver Service</text></g><!--entity Payment Service--><g class="entity" data-entity="Payment Service" data-source-line="13" data-uid="ent0013" id="entity_Payment Service"><rect fill="#F1F1F1" height="46.2969" rx="2.5" ry="2.5" style="stroke:#181818;stroke-width:0.5;" width="158.1113" x="1054.95" y="369.69"/><rect fill="#F1F1F1" height="10" style="stroke:#181818;stroke-width:0.5;" width="15" x="1193.0613" y="374.69"/><rect fill="#F1F1F1" height="2" style="stroke:#181818;stroke-width:0.5;" width="4" x="1191.0613" y="376.69"/><rect fill="#F1F1F1" height="2" style="stroke:#181818;stroke-width:0.5;" width="4" x="1191.0613" y="380.69"/><text fill="#000000" font-family="sans-serif" font-size="14" lengthAdjust="spacing" textLength="118.1113" x="1069.95" y="402.6851">Payment Service</text></g><!--entity Notification Service--><g class="entity" data-entity="Notification Service" data-source-line="14" data-uid="ent0014" id="entity_Notification Service"><rect fill="#F1F1F1" height="46.2969" rx="2.5" ry="2.5" style="stroke:#181818;stroke-width:0.5;" width="176.5205" x="558.74" y="475.98"/><rect fill="#F1F1F1" height="10" style="stroke:#181818;stroke-width:0.5;" width="15" x="715.2605" y="480.98"/><rect fill="#F1F1F1" height="2" style="stroke:#181818;stroke-width:0.5;" width="4" x="713.2605" y="482.98"/><rect fill="#F1F1F1" height="2" style="stroke:#181818;stroke-width:0.5;" width="4" x="713.2605" y="486.98"/><text fill="#000000" font-family="sans-serif" font-size="14" lengthAdjust="spacing" textLength="136.5205" x="573.74" y="508.9751">Notification Service</text></g><!--entity Mapping & Routing Service--><g class="entity" data-entity="Mapping . Routing Service" data-source-line="15" data-uid="ent0015" id="entity_Mapping . Routing Service"><rect fill="#F1F1F1" height="46.2969" rx="2.5" ry="2.5" style="stroke:#181818;stroke-width:0.5;" width="230.3945" x="1169.8" y="263.39"/><rect fill="#F1F1F1" height="10" style="stroke:#181818;stroke-width:0.5;" width="15" x="1380.1945" y="268.39"/><rect fill="#F1F1F1" height="2" style="stroke:#181818;stroke-width:0.5;" width="4" x="1378.1945" y="270.39"/><rect fill="#F1F1F1" height="2" style="stroke:#181818;stroke-width:0.5;" width="4" x="1378.1945" y="274.39"/><text fill="#000000" font-family="sans-serif" font-size="14" lengthAdjust="spacing" textLength="190.3945" x="1184.8" y="296.3851">Mapping &amp; Routing Service</text></g><!--entity Kafka/EventBus--><g class="entity" data-entity="Kafka.EventBus" data-source-line="16" data-uid="ent0016" id="entity_Kafka.EventBus"><rect fill="#F1F1F1" height="46.2969" rx="2.5" ry="2.5" style="stroke:#181818;stroke-width:0.5;" width="149.9697" x="771.02" y="369.69"/><rect fill="#F1F1F1" height="10" style="stroke:#181818;stroke-width:0.5;" width="15" x="900.9897" y="374.69"/><rect fill="#F1F1F1" height="2" style="stroke:#181818;stroke-width:0.5;" width="4" x="898.9897" y="376.69"/><rect fill="#F1F1F1" height="2" style="stroke:#181818;stroke-width:0.5;" width="4" x="898.9897" y="380.69"/><text fill="#000000" font-family="sans-serif" font-size="14" lengthAdjust="spacing" textLength="109.9697" x="786.02" y="402.6851">Kafka/EventBus</text></g><!--entity PostgreSQL--><g class="entity" data-entity="PostgreSQL" data-source-line="17" data-uid="ent0017" id="entity_PostgreSQL"><rect fill="#F1F1F1" height="46.2969" rx="2.5" ry="2.5" style="stroke:#181818;stroke-width:0.5;" width="120.7529" x="1015.63" y="475.98"/><rect fill="#F1F1F1" height="10" style="stroke:#181818;stroke-width:0.5;" width="15" x="1116.3829" y="480.98"/><rect fill="#F1F1F1" height="2" style="stroke:#181818;stroke-width:0.5;" width="4" x="1114.3829" y="482.98"/><rect fill="#F1F1F1" height="2" style="stroke:#181818;stroke-width:0.5;" width="4" x="1114.3829" y="486.98"/><text fill="#000000" font-family="sans-serif" font-size="14" lengthAdjust="spacing" textLength="80.7529" x="1030.63" y="508.9751">PostgreSQL</text></g><!--entity MongoDB--><g class="entity" data-entity="MongoDB" data-source-line="18" data-uid="ent0018" id="entity_MongoDB"><rect fill="#F1F1F1" height="46.2969" rx="2.5" ry="2.5" style="stroke:#181818;stroke-width:0.5;" width="107.3545" x="612.32" y="369.69"/><rect fill="#F1F1F1" height="10" style="stroke:#181818;stroke-width:0.5;" width="15" x="699.6745" y="374.69"/><rect fill="#F1F1F1" height="2" style="stroke:#181818;stroke-width:0.5;" width="4" x="697.6745" y="376.69"/><rect fill="#F1F1F1" height="2" style="stroke:#181818;stroke-width:0.5;" width="4" x="697.6745" y="380.69"/><text fill="#000000" font-family="sans-serif" font-size="14" lengthAdjust="spacing" textLength="67.3545" x="627.32" y="402.6851">MongoDB</text></g><!--entity Customer--><g class="entity" data-entity="Customer" data-source-line="1" data-uid="ent0002" id="entity_Customer"><ellipse cx="40.002" cy="135.59" fill="#F1F1F1" rx="8" ry="8" style="stroke:#181818;stroke-width:0.5;"/><path d="M40.002,143.59 L40.002,170.59 M27.002,151.59 L53.002,151.59 M40.002,170.59 L27.002,185.59 M40.002,170.59 L53.002,185.59" fill="none" style="stroke:#181818;stroke-width:0.5;"/><text fill="#000000" font-family="sans-serif" font-size="14" lengthAdjust="spacing" textLength="68.0039" x="6" y="200.0851">Customer</text></g><!--entity RestaurantManager--><g class="entity" data-entity="RestaurantManager" data-source-line="2" data-uid="ent0003" id="entity_RestaurantManager"><ellipse cx="1776.0049" cy="135.59" fill="#F1F1F1" rx="8" ry="8" style="stroke:#181818;stroke-width:0.5;"/><path d="M1776.0049,143.59 L1776.0049,170.59 M1763.0049,151.59 L1789.0049,151.59 M1776.0049,170.59 L1763.0049,185.59 M1776.0049,170.59 L1789.0049,185.59" fill="none" style="stroke:#181818;stroke-width:0.5;"/><text fill="#000000" font-family="sans-serif" font-size="14" lengthAdjust="spacing" textLength="143.0898" x="1704.46" y="200.0851">Restaurant Manager</text></g><!--entity Driver--><g class="entity" data-entity="Driver" data-source-line="3" data-uid="ent0004" id="entity_Driver"><ellipse cx="1454" cy="135.59" fill="#F1F1F1" rx="8" ry="8" style="stroke:#181818;stroke-width:0.5;"/><path d="M1454,143.59 L1454,170.59 M1441,151.59 L1467,151.59 M1454,170.59 L1441,185.59 M1454,170.59 L1467,185.59" fill="none" style="stroke:#181818;stroke-width:0.5;"/><text fill="#000000" font-family="sans-serif" font-size="14" lengthAdjust="spacing" textLength="43.0801" x="1432.46" y="200.0851">Driver</text></g><!--entity PlatformAdmin--><g class="entity" data-entity="PlatformAdmin" data-source-line="4" data-uid="ent0005" id="entity_PlatformAdmin"><ellipse cx="1590.0004" cy="135.59" fill="#F1F1F1" rx="8" ry="8" style="stroke:#181818;stroke-width:0.5;"/><path d="M1590.0004,143.59 L1590.0004,170.59 M1577.0004,151.59 L1603.0004,151.59 M1590.0004,170.59 L1577.0004,185.59 M1590.0004,170.59 L1603.0004,185.59" fill="none" style="stroke:#181818;stroke-width:0.5;"/><text fill="#000000" font-family="sans-serif" font-size="14" lengthAdjust="spacing" textLength="159.4209" x="1510.29" y="200.0851">Platform Administrator</text></g><!--link Customer to API Gateway--><g class="link" data-entity-1="Customer" data-entity-2="API Gateway" data-source-line="21" data-uid="lnk19" id="link_Customer_API Gateway"><path d="M74.39,165.24 C342.44,165.24 604.49,165.24 872.53,165.24" fill="none" id="Customer-to-API Gateway" style="stroke:#181818;stroke-width:1;"/><polygon fill="#181818" points="878.53,165.24,869.53,161.24,873.53,165.24,869.53,169.24,878.53,165.24" style="stroke:#181818;stroke-width:1;"/></g><!--link RestaurantManager to API Gateway--><g class="link" data-entity-1="RestaurantManager" data-entity-2="API Gateway" data-source-line="22" data-uid="lnk20" id="link_RestaurantManager_API Gateway"><path d="M1745.97,126.74 C1726.72,105.33 1699.73,80.72 1669.5,69.09 C1548.82,22.68 1167.6444,109.129 1013.2844,147.319" fill="none" id="RestaurantManager-to-API Gateway" style="stroke:#181818;stroke-width:1;"/><polygon fill="#181818" points="1007.46,148.76,1017.1573,150.4814,1012.3137,147.5592,1015.2359,142.7156,1007.46,148.76" style="stroke:#181818;stroke-width:1;"/></g><!--link Driver to API Gateway--><g class="link" data-entity-1="Driver" data-entity-2="API Gateway" data-source-line="23" data-uid="lnk21" id="link_Driver_API Gateway"><path d="M1432.19,165.24 C1290.59,165.24 1154.98,165.24 1013.38,165.24" fill="none" id="Driver-to-API Gateway" style="stroke:#181818;stroke-width:1;"/><polygon fill="#181818" points="1007.38,165.24,1016.38,169.24,1012.38,165.24,1016.38,161.24,1007.38,165.24" style="stroke:#181818;stroke-width:1;"/></g><!--link PlatformAdmin to API Gateway--><g class="link" data-entity-1="PlatformAdmin" data-entity-2="API Gateway" data-source-line="24" data-uid="lnk22" id="link_PlatformAdmin_API Gateway"><path d="M1557.14,126.69 C1536.24,105.25 1507.21,80.64 1475.5,69.09 C1302.27,6 1087.0952,93.5248 993.5652,139.0348" fill="none" id="PlatformAdmin-to-API Gateway" style="stroke:#181818;stroke-width:1;"/><polygon fill="#181818" points="988.17,141.66,998.013,141.319,992.666,139.4723,994.5127,134.1254,988.17,141.66" style="stroke:#181818;stroke-width:1;"/></g><!--link API Gateway to Auth & Identity Service--><g class="link" data-entity-1="API Gateway" data-entity-2="Auth . Identity Service" data-source-line="26" data-uid="lnk23" id="link_API Gateway_Auth . Identity Service"><path d="M878.61,176.25 C767.59,193.57 532.97,230.45 335,263.39 C326.44,264.81 323.4646,265.301 314.5546,266.821" fill="none" id="API Gateway-to-Auth &amp; Identity Service" style="stroke:#181818;stroke-width:1;"/><polygon fill="#181818" points="308.64,267.83,318.1845,270.2595,313.5688,266.9892,316.8392,262.3735,308.64,267.83" style="stroke:#181818;stroke-width:1;"/></g><!--link API Gateway to Customer Service--><g class="link" data-entity-1="API Gateway" data-entity-2="Customer Service" data-source-line="27" data-uid="lnk24" id="link_API Gateway_Customer Service"><path d="M878.63,182.21 C792.36,203.6 644.9836,240.1559 550.3336,263.6259" fill="none" id="API Gateway-to-Customer Service" style="stroke:#181818;stroke-width:1;"/><polygon fill="#181818" points="544.51,265.07,554.2082,266.7863,549.363,263.8666,552.2827,259.0215,544.51,265.07" style="stroke:#181818;stroke-width:1;"/></g><!--link API Gateway to Restaurant Service--><g class="link" data-entity-1="API Gateway" data-entity-2="Restaurant Service" data-source-line="28" data-uid="lnk25" id="link_API Gateway_Restaurant Service"><path d="M890.57,188.82 C841.17,210.1 773.0606,239.4266 723.7206,260.6766" fill="none" id="API Gateway-to-Restaurant Service" style="stroke:#181818;stroke-width:1;"/><polygon fill="#181818" points="718.21,263.05,728.0582,263.1637,722.8022,261.0722,724.8937,255.8162,718.21,263.05" style="stroke:#181818;stroke-width:1;"/></g><!--link API Gateway to Order Service--><g class="link" data-entity-1="API Gateway" data-entity-2="Order Service" data-source-line="29" data-uid="lnk26" id="link_API Gateway_Order Service"><path d="M959.37,188.68 C974.92,210.01 994.6452,237.0518 1010.1752,258.3518" fill="none" id="API Gateway-to-Order Service" style="stroke:#181818;stroke-width:1;"/><polygon fill="#181818" points="1013.71,263.2,1011.6398,253.5712,1010.7643,259.1598,1005.1756,258.2843,1013.71,263.2" style="stroke:#181818;stroke-width:1;"/></g><!--link API Gateway to Driver Service--><g class="link" data-entity-1="API Gateway" data-entity-2="Driver Service" data-source-line="30" data-uid="lnk27" id="link_API Gateway_Driver Service"><path d="M926.83,188.68 C911.45,210.01 891.9679,237.0323 876.6179,258.3323" fill="none" id="API Gateway-to-Driver Service" style="stroke:#181818;stroke-width:1;"/><polygon fill="#181818" points="873.11,263.2,881.617,258.2371,876.0333,259.1436,875.1268,253.5598,873.11,263.2" style="stroke:#181818;stroke-width:1;"/></g><!--link API Gateway to Payment Service--><g class="link" data-entity-1="API Gateway" data-entity-2="Payment Service" data-source-line="31" data-uid="lnk28" id="link_API Gateway_Payment Service"><path d="M1007.4,186.11 C1045.16,201.19 1090.36,225.84 1116,263.39 C1137.72,295.19 1138.8642,335.8243 1136.9642,363.2843" fill="none" id="API Gateway-to-Payment Service" style="stroke:#181818;stroke-width:1;"/><polygon fill="#181818" points="1136.55,369.27,1141.1617,360.5676,1136.8951,364.2819,1133.1808,360.0154,1136.55,369.27" style="stroke:#181818;stroke-width:1;"/></g><!--link API Gateway to Notification Service--><g class="link" data-entity-1="API Gateway" data-entity-2="Notification Service" data-source-line="32" data-uid="lnk29" id="link_API Gateway_Notification Service"><path d="M878.42,167.01 C741.17,170.16 427.63,185.88 362,263.39 C284.96,354.38 464.6722,435.0445 571.8022,473.4645" fill="none" id="API Gateway-to-Notification Service" style="stroke:#181818;stroke-width:1;"/><polygon fill="#181818" points="577.45,475.49,570.3286,468.6866,572.7435,473.8021,567.628,476.217,577.45,475.49" style="stroke:#181818;stroke-width:1;"/></g><!--link API Gateway to Mapping & Routing Service--><g class="link" data-entity-1="API Gateway" data-entity-2="Mapping . Routing Service" data-source-line="33" data-uid="lnk30" id="link_API Gateway_Mapping . Routing Service"><path d="M1007.33,188.68 C1068.18,209.91 1153.385,239.6232 1214.425,260.9232" fill="none" id="API Gateway-to-Mapping &amp; Routing Service" style="stroke:#181818;stroke-width:1;"/><polygon fill="#181818" points="1220.09,262.9,1212.9104,256.1581,1215.3692,261.2527,1210.2746,263.7115,1220.09,262.9" style="stroke:#181818;stroke-width:1;"/></g><!--link Order Service to Kafka/EventBus--><g class="link" data-entity-1="Order Service" data-entity-2="Kafka.EventBus" data-source-line="35" data-uid="lnk31" id="link_Order Service_Kafka.EventBus"><path d="M990.08,310.17 C959.21,327.66 921.9098,348.8114 891.0698,366.2914" fill="none" id="Order Service-to-Kafka/EventBus" style="stroke:#181818;stroke-width:1;"/><polygon fill="#181818" points="885.85,369.25,895.6522,368.292,890.1999,366.7845,891.7074,361.3322,885.85,369.25" style="stroke:#181818;stroke-width:1;"/></g><!--link Restaurant Service to Kafka/EventBus--><g class="link" data-entity-1="Restaurant Service" data-entity-2="Kafka.EventBus" data-source-line="36" data-uid="lnk32" id="link_Restaurant Service_Kafka.EventBus"><path d="M705.06,310.17 C735.25,327.66 771.6584,348.7621 801.8284,366.2421" fill="none" id="Restaurant Service-to-Kafka/EventBus" style="stroke:#181818;stroke-width:1;"/><polygon fill="#181818" points="807.02,369.25,801.2379,361.2771,802.6937,366.7434,797.2274,368.1992,807.02,369.25" style="stroke:#181818;stroke-width:1;"/></g><!--link Driver Service to Kafka/EventBus--><g class="link" data-entity-1="Driver Service" data-entity-2="Kafka.EventBus" data-source-line="37" data-uid="lnk33" id="link_Driver Service_Kafka.EventBus"><path d="M854.62,310.17 C852.77,327.66 850.8615,345.8033 849.0115,363.2833" fill="none" id="Driver Service-to-Kafka/EventBus" style="stroke:#181818;stroke-width:1;"/><polygon fill="#181818" points="848.38,369.25,853.305,360.721,848.9062,364.2778,845.3494,359.879,848.38,369.25" style="stroke:#181818;stroke-width:1;"/></g><!--link Kafka/EventBus to Notification Service--><g class="link" data-entity-1="Kafka.EventBus" data-entity-2="Notification Service" data-source-line="38" data-uid="lnk34" id="link_Kafka.EventBus_Notification Service"><path d="M802.82,416.47 C769.44,433.96 728.7746,455.2752 695.4146,472.7552" fill="none" id="Kafka/EventBus-to-Notification Service" style="stroke:#181818;stroke-width:1;"/><polygon fill="#181818" points="690.1,475.54,699.9284,474.9059,694.5288,473.2194,696.2154,467.8198,690.1,475.54" style="stroke:#181818;stroke-width:1;"/></g><!--link Order Service to Payment Service--><g class="link" data-entity-1="Order Service" data-entity-2="Payment Service" data-source-line="40" data-uid="lnk35" id="link_Order Service_Payment Service"><path d="M1052.57,310.17 C1070.01,327.66 1089.8134,347.5213 1107.2434,365.0013" fill="none" id="Order Service-to-Payment Service" style="stroke:#181818;stroke-width:1;"/><polygon fill="#181818" points="1111.48,369.25,1107.9576,360.0526,1107.9495,365.7094,1102.2927,365.7013,1111.48,369.25" style="stroke:#181818;stroke-width:1;"/></g><!--link Payment Service to PostgreSQL--><g class="link" data-entity-1="Payment Service" data-entity-2="PostgreSQL" data-source-line="41" data-uid="lnk36" id="link_Payment Service_PostgreSQL"><path d="M1121.42,416.47 C1111.69,433.96 1101.1959,452.8162 1091.4759,470.2962" fill="none" id="Payment Service-to-PostgreSQL" style="stroke:#181818;stroke-width:1;"/><polygon fill="#181818" points="1088.56,475.54,1096.4297,469.6182,1090.9899,471.1702,1089.438,465.7304,1088.56,475.54" style="stroke:#181818;stroke-width:1;"/></g><!--link Order Service to PostgreSQL--><g class="link" data-entity-1="Order Service" data-entity-2="PostgreSQL" data-source-line="42" data-uid="lnk37" id="link_Order Service_PostgreSQL"><path d="M1028.64,309.75 C1027.63,335.67 1027.76,379.62 1037,415.98 C1042.41,437.25 1050.5126,454.4026 1059.4726,470.4326" fill="none" id="Order Service-to-PostgreSQL" style="stroke:#181818;stroke-width:1;"/><polygon fill="#181818" points="1062.4,475.67,1061.5004,465.8623,1059.9605,471.3055,1054.5173,469.7656,1062.4,475.67" style="stroke:#181818;stroke-width:1;"/></g><!--link Customer Service to MongoDB--><g class="link" data-entity-1="Customer Service" data-entity-2="MongoDB" data-source-line="43" data-uid="lnk38" id="link_Customer Service_MongoDB"><path d="M506.27,310.17 C540.48,327.66 582.2877,349.0387 616.4777,366.5187" fill="none" id="Customer Service-to-MongoDB" style="stroke:#181818;stroke-width:1;"/><polygon fill="#181818" points="621.82,369.25,615.6274,361.5915,617.3681,366.9739,611.9857,368.7146,621.82,369.25" style="stroke:#181818;stroke-width:1;"/></g><!--link Restaurant Service to MongoDB--><g class="link" data-entity-1="Restaurant Service" data-entity-2="MongoDB" data-source-line="44" data-uid="lnk39" id="link_Restaurant Service_MongoDB"><path d="M666,310.17 C666,327.66 666,345.77 666,363.25" fill="none" id="Restaurant Service-to-MongoDB" style="stroke:#181818;stroke-width:1;"/><polygon fill="#181818" points="666,369.25,670,360.25,666,364.25,662,360.25,666,369.25" style="stroke:#181818;stroke-width:1;"/></g><!--link Driver Service to MongoDB--><g class="link" data-entity-1="Driver Service" data-entity-2="MongoDB" data-source-line="45" data-uid="lnk40" id="link_Driver Service_MongoDB"><path d="M815.56,310.17 C783.52,327.66 744.646,348.8944 712.636,366.3744" fill="none" id="Driver Service-to-MongoDB" style="stroke:#181818;stroke-width:1;"/><polygon fill="#181818" points="707.37,369.25,717.1861,368.4472,711.7583,366.8536,713.3519,361.4259,707.37,369.25" style="stroke:#181818;stroke-width:1;"/></g><!--SRC=[VP9DJiCm48NtFiKe2tOLDq1gAQ2g54gpH5sCaacmsjYLFIcA47SdvATDRASx-yqtrhnvneIrWSVIiYx826okExACfK756rIOam6q45rLwEIeuvT6dY_DsoDofaqnJmkfciPUWKQIbWtMO2I4eOHHvKU2w5cR0zp1MicC8AuiKn71Zm3ud6zNy89CtrZjctl9NpMvIacnv0fYCcUPK5FhVOp4mTn3-Tsa3jZQ64bRh0fo6jyqoqmco5AhKM63fvDKUJtSJfVyVnfMrvWTyFxfN3-tA6txkhQS6ue_Njj-hNAzNEp5hn0N9xC7PmL-E1xI6V7qSJHUMOokC6k0gMq7M7_x0IYKHW1pqWaGRbe1n4ilm8JJ380tqXNEk6s36tZ8-WJfU9kW7E6Md_24_dvSfUC6_pJyq13mla6tl_vtJ-_XYWGNq9V_0000]--></g></svg>