<svg xmlns="http://www.w3.org/2000/svg" xmlns:xlink="http://www.w3.org/1999/xlink" contentStyleType="text/css" data-diagram-type="DESCRIPTION" height="424px" preserveAspectRatio="none" style="width:1457px;height:424px;background:#FFFFFF;" version="1.1" viewBox="0 0 1457 424" width="1457px" zoomAndPan="magnify"><defs/><g><!--cluster Presentation--><g class="cluster" data-entity="Presentation" data-source-line="3" data-uid="ent0002" id="cluster_Presentation"><rect fill="none" height="97" rx="2.5" ry="2.5" style="stroke:#181818;stroke-width:1;" width="166.47" x="7" y="240"/><text fill="#000000" font-family="sans-serif" font-size="14" font-weight="bold" lengthAdjust="spacing" textLength="101.6709" x="39.3996" y="254.9951">Presentation</text></g><!--cluster API Layer--><g class="cluster" data-entity="API Layer" data-source-line="7" data-uid="ent0004" id="cluster_API Layer"><rect fill="none" height="97" rx="2.5" ry="2.5" style="stroke:#181818;stroke-width:1;" width="220.7" x="201.47" y="240"/><text fill="#000000" font-family="sans-serif" font-size="14" font-weight="bold" lengthAdjust="spacing" textLength="75.0723" x="274.2839" y="254.9951">API Layer</text></g><!--cluster Application Services--><g class="cluster" data-entity="Application Services" data-source-line="11" data-uid="ent0006" id="cluster_Application Services"><rect fill="none" height="259" rx="2.5" ry="2.5" style="stroke:#181818;stroke-width:1;" width="201.11" x="450.17" y="159"/><text fill="#000000" font-family="sans-serif" font-size="14" font-weight="bold" lengthAdjust="spacing" textLength="160.7061" x="470.372" y="173.9951">Application Services</text></g><!--cluster Domain--><g class="cluster" data-entity="Domain" data-source-line="17" data-uid="ent0010" id="cluster_Domain"><rect fill="none" height="178" rx="2.5" ry="2.5" style="stroke:#181818;stroke-width:1;" width="211.1" x="679.28" y="7"/><text fill="#000000" font-family="sans-serif" font-size="14" font-weight="bold" lengthAdjust="spacing" textLength="60.04" x="754.81" y="21.9951">Domain</text></g><!--cluster Infrastructure--><g class="cluster" data-entity="Infrastructure" data-source-line="22" data-uid="ent0013" id="cluster_Infrastructure"><rect fill="none" height="219" rx="2.5" ry="2.5" style="stroke:#181818;stroke-width:1;" width="532.82" x="918.38" y="174"/><text fill="#000000" font-family="sans-serif" font-size="14" font-weight="bold" lengthAdjust="spacing" textLength="110.8721" x="1129.354" y="188.9951">Infrastructure</text></g><!--entity SPA Frontend--><g class="entity" data-entity="SPA Frontend" data-source-line="4" data-uid="ent0003" id="entity_SPA Frontend"><rect fill="#F1F1F1" height="46.2969" rx="2.5" ry="2.5" style="stroke:#181818;stroke-width:0.5;" width="134.4658" x="23" y="274.85"/><rect fill="#F1F1F1" height="10" style="stroke:#181818;stroke-width:0.5;" width="15" x="137.4658" y="279.85"/><rect fill="#F1F1F1" height="2" style="stroke:#181818;stroke-width:0.5;" width="4" x="135.4658" y="281.85"/><rect fill="#F1F1F1" height="2" style="stroke:#181818;stroke-width:0.5;" width="4" x="135.4658" y="285.85"/><text fill="#000000" font-family="sans-serif" font-size="14" lengthAdjust="spacing" textLength="94.4658" x="38" y="307.8451">SPA Frontend</text></g><!--entity API Gateway (NestJS)--><g class="entity" data-entity="API Gateway .NestJS." data-source-line="8" data-uid="ent0005" id="entity_API Gateway .NestJS."><rect fill="#F1F1F1" height="46.2969" rx="2.5" ry="2.5" style="stroke:#181818;stroke-width:0.5;" width="188.7021" x="217.47" y="274.85"/><rect fill="#F1F1F1" height="10" style="stroke:#181818;stroke-width:0.5;" width="15" x="386.1721" y="279.85"/><rect fill="#F1F1F1" height="2" style="stroke:#181818;stroke-width:0.5;" width="4" x="384.1721" y="281.85"/><rect fill="#F1F1F1" height="2" style="stroke:#181818;stroke-width:0.5;" width="4" x="384.1721" y="285.85"/><text fill="#000000" font-family="sans-serif" font-size="14" lengthAdjust="spacing" textLength="148.7021" x="232.47" y="307.8451">API Gateway (NestJS)</text></g><!--entity BookingService--><g class="entity" data-entity="BookingService" data-source-line="12" data-uid="ent0007" id="entity_BookingService"><rect fill="#F1F1F1" height="46.2969" rx="2.5" ry="2.5" style="stroke:#181818;stroke-width:0.5;" width="148.2334" x="476.61" y="193.85"/><rect fill="#F1F1F1" height="10" style="stroke:#181818;stroke-width:0.5;" width="15" x="604.8434" y="198.85"/><rect fill="#F1F1F1" height="2" style="stroke:#181818;stroke-width:0.5;" width="4" x="602.8434" y="200.85"/><rect fill="#F1F1F1" height="2" style="stroke:#181818;stroke-width:0.5;" width="4" x="602.8434" y="204.85"/><text fill="#000000" font-family="sans-serif" font-size="14" lengthAdjust="spacing" textLength="108.2334" x="491.61" y="226.8451">BookingService</text></g><!--entity SchedulingService--><g class="entity" data-entity="SchedulingService" data-source-line="13" data-uid="ent0008" id="entity_SchedulingService"><rect fill="#F1F1F1" height="46.2969" rx="2.5" ry="2.5" style="stroke:#181818;stroke-width:0.5;" width="169.1104" x="466.17" y="274.85"/><rect fill="#F1F1F1" height="10" style="stroke:#181818;stroke-width:0.5;" width="15" x="615.2804" y="279.85"/><rect fill="#F1F1F1" height="2" style="stroke:#181818;stroke-width:0.5;" width="4" x="613.2804" y="281.85"/><rect fill="#F1F1F1" height="2" style="stroke:#181818;stroke-width:0.5;" width="4" x="613.2804" y="285.85"/><text fill="#000000" font-family="sans-serif" font-size="14" lengthAdjust="spacing" textLength="129.1104" x="481.17" y="307.8451">SchedulingService</text></g><!--entity AdminService--><g class="entity" data-entity="AdminService" data-source-line="14" data-uid="ent0009" id="entity_AdminService"><rect fill="#F1F1F1" height="46.2969" rx="2.5" ry="2.5" style="stroke:#181818;stroke-width:0.5;" width="136.6055" x="482.42" y="355.85"/><rect fill="#F1F1F1" height="10" style="stroke:#181818;stroke-width:0.5;" width="15" x="599.0255" y="360.85"/><rect fill="#F1F1F1" height="2" style="stroke:#181818;stroke-width:0.5;" width="4" x="597.0255" y="362.85"/><rect fill="#F1F1F1" height="2" style="stroke:#181818;stroke-width:0.5;" width="4" x="597.0255" y="366.85"/><text fill="#000000" font-family="sans-serif" font-size="14" lengthAdjust="spacing" textLength="96.6055" x="497.42" y="388.8451">AdminService</text></g><!--entity BookingDomain--><g class="entity" data-entity="BookingDomain" data-source-line="18" data-uid="ent0011" id="entity_BookingDomain"><rect fill="#F1F1F1" height="46.2969" rx="2.5" ry="2.5" style="stroke:#181818;stroke-width:0.5;" width="155.2676" x="707.2" y="122.85"/><rect fill="#F1F1F1" height="10" style="stroke:#181818;stroke-width:0.5;" width="15" x="842.4676" y="127.85"/><rect fill="#F1F1F1" height="2" style="stroke:#181818;stroke-width:0.5;" width="4" x="840.4676" y="129.85"/><rect fill="#F1F1F1" height="2" style="stroke:#181818;stroke-width:0.5;" width="4" x="840.4676" y="133.85"/><text fill="#000000" font-family="sans-serif" font-size="14" lengthAdjust="spacing" textLength="115.2676" x="722.2" y="155.8451">Booking Domain</text></g><!--entity NotificationDomain--><g class="entity" data-entity="NotificationDomain" data-source-line="19" data-uid="ent0012" id="entity_NotificationDomain"><rect fill="#F1F1F1" height="46.2969" rx="2.5" ry="2.5" style="stroke:#181818;stroke-width:0.5;" width="179.1045" x="695.28" y="41.85"/><rect fill="#F1F1F1" height="10" style="stroke:#181818;stroke-width:0.5;" width="15" x="854.3845" y="46.85"/><rect fill="#F1F1F1" height="2" style="stroke:#181818;stroke-width:0.5;" width="4" x="852.3845" y="48.85"/><rect fill="#F1F1F1" height="2" style="stroke:#181818;stroke-width:0.5;" width="4" x="852.3845" y="52.85"/><text fill="#000000" font-family="sans-serif" font-size="14" lengthAdjust="spacing" textLength="139.1045" x="710.28" y="74.8451">Notification Domain</text></g><!--entity PostgreSQL--><g class="entity" data-entity="PostgreSQL" data-source-line="23" data-uid="ent0014" id="entity_PostgreSQL"><path d="M934.38,280.35 C934.38,270.35 984.7565,270.35 984.7565,270.35 C984.7565,270.35 1035.1329,270.35 1035.1329,280.35 L1035.1329,305.6469 C1035.1329,315.6469 984.7565,315.6469 984.7565,315.6469 C984.7565,315.6469 934.38,315.6469 934.38,305.6469 L934.38,280.35" fill="#F1F1F1" style="stroke:#181818;stroke-width:0.5;"/><path d="M934.38,280.35 C934.38,290.35 984.7565,290.35 984.7565,290.35 C984.7565,290.35 1035.1329,290.35 1035.1329,280.35" fill="none" style="stroke:#181818;stroke-width:0.5;"/><text fill="#000000" font-family="sans-serif" font-size="14" lengthAdjust="spacing" textLength="80.7529" x="944.38" y="307.3451">PostgreSQL</text></g><!--entity SQS--><g class="entity" data-entity="SQS" data-source-line="24" data-uid="ent0015" id="entity_SQS"><path d="M965.36,208.85 L1004.153,208.85 C1009.153,208.85 1009.153,221.9984 1009.153,221.9984 C1009.153,221.9984 1009.153,235.1469 1004.153,235.1469 L965.36,235.1469 C960.36,235.1469 960.36,221.9984 960.36,221.9984 C960.36,221.9984 960.36,208.85 965.36,208.85" fill="#F1F1F1" style="stroke:#181818;stroke-width:0.5;"/><path d="M1004.153,208.85 C999.153,208.85 999.153,221.9984 999.153,221.9984 C999.153,235.1469 1004.153,235.1469 1004.153,235.1469" fill="none" style="stroke:#181818;stroke-width:0.5;"/><text fill="#000000" font-family="sans-serif" font-size="14" lengthAdjust="spacing" textLength="28.793" x="965.36" y="226.8451">SQS</text></g><!--entity Redis--><g class="entity" data-entity="Redis" data-source-line="25" data-uid="ent0016" id="entity_Redis"><path d="M960.55,350.85 L1008.9611,350.85 C1013.9611,350.85 1013.9611,363.9984 1013.9611,363.9984 C1013.9611,363.9984 1013.9611,377.1469 1008.9611,377.1469 L960.55,377.1469 C955.55,377.1469 955.55,363.9984 955.55,363.9984 C955.55,363.9984 955.55,350.85 960.55,350.85" fill="#F1F1F1" style="stroke:#181818;stroke-width:0.5;"/><path d="M1008.9611,350.85 C1003.9611,350.85 1003.9611,363.9984 1003.9611,363.9984 C1003.9611,377.1469 1008.9611,377.1469 1008.9611,377.1469" fill="none" style="stroke:#181818;stroke-width:0.5;"/><text fill="#000000" font-family="sans-serif" font-size="14" lengthAdjust="spacing" textLength="38.4111" x="960.55" y="368.8451">Redis</text></g><!--entity Worker--><g class="entity" data-entity="Worker" data-source-line="26" data-uid="ent0017" id="entity_Worker"><rect fill="#F1F1F1" height="62.5938" rx="2.5" ry="2.5" style="stroke:#181818;stroke-width:0.5;" width="175.4199" x="1095.14" y="208.7"/><rect fill="#F1F1F1" height="10" style="stroke:#181818;stroke-width:0.5;" width="15" x="1250.5599" y="213.7"/><rect fill="#F1F1F1" height="2" style="stroke:#181818;stroke-width:0.5;" width="4" x="1248.5599" y="215.7"/><rect fill="#F1F1F1" height="2" style="stroke:#181818;stroke-width:0.5;" width="4" x="1248.5599" y="219.7"/><text fill="#000000" font-family="sans-serif" font-size="14" lengthAdjust="spacing" textLength="135.4199" x="1110.14" y="241.6951">Notification Worker</text><text fill="#000000" font-family="sans-serif" font-size="14" lengthAdjust="spacing" textLength="104.0498" x="1110.14" y="257.992">(AWS Lambda)</text></g><!--entity SendGrid--><g class="entity" data-entity="SendGrid" data-source-line="27" data-uid="ent0018" id="entity_SendGrid"><rect fill="#F1F1F1" height="46.2969" rx="2.5" ry="2.5" style="stroke:#181818;stroke-width:0.5;" width="104.6406" x="1330.56" y="293.85"/><rect fill="#F1F1F1" height="10" style="stroke:#181818;stroke-width:0.5;" width="15" x="1415.2006" y="298.85"/><rect fill="#F1F1F1" height="2" style="stroke:#181818;stroke-width:0.5;" width="4" x="1413.2006" y="300.85"/><rect fill="#F1F1F1" height="2" style="stroke:#181818;stroke-width:0.5;" width="4" x="1413.2006" y="304.85"/><text fill="#000000" font-family="sans-serif" font-size="14" lengthAdjust="spacing" textLength="64.6406" x="1345.56" y="326.8451">SendGrid</text></g><!--entity Twilio--><g class="entity" data-entity="Twilio" data-source-line="28" data-uid="ent0019" id="entity_Twilio"><rect fill="#F1F1F1" height="46.2969" rx="2.5" ry="2.5" style="stroke:#181818;stroke-width:0.5;" width="80.2363" x="1342.76" y="212.85"/><rect fill="#F1F1F1" height="10" style="stroke:#181818;stroke-width:0.5;" width="15" x="1402.9963" y="217.85"/><rect fill="#F1F1F1" height="2" style="stroke:#181818;stroke-width:0.5;" width="4" x="1400.9963" y="219.85"/><rect fill="#F1F1F1" height="2" style="stroke:#181818;stroke-width:0.5;" width="4" x="1400.9963" y="223.85"/><text fill="#000000" font-family="sans-serif" font-size="14" lengthAdjust="spacing" textLength="40.2363" x="1357.76" y="245.8451">Twilio</text></g><!--link SPA Frontend to API Gateway (NestJS)--><g class="link" data-entity-1="SPA Frontend" data-entity-2="API Gateway .NestJS." data-source-line="31" data-uid="lnk20" id="link_SPA Frontend_API Gateway .NestJS."><path d="M157.71,298 C176.39,298 191.07,298 211.02,298" fill="none" id="SPA Frontend-to-API Gateway (NestJS)" style="stroke:#181818;stroke-width:1;"/><polygon fill="#181818" points="217.02,298,208.02,294,212.02,298,208.02,302,217.02,298" style="stroke:#181818;stroke-width:1;"/></g><!--link API Gateway (NestJS) to BookingService--><g class="link" data-entity-1="API Gateway .NestJS." data-entity-2="BookingService" data-source-line="32" data-uid="lnk21" id="link_API Gateway .NestJS._BookingService"><path d="M381.98,274.35 C413.12,263.71 444.1125,253.1106 475.2125,242.4806" fill="none" id="API Gateway (NestJS)-to-BookingService" style="stroke:#181818;stroke-width:1;"/><polygon fill="#181818" points="480.89,240.54,471.08,239.6659,476.1587,242.1571,473.6674,247.2359,480.89,240.54" style="stroke:#181818;stroke-width:1;"/></g><!--link API Gateway (NestJS) to SchedulingService--><g class="link" data-entity-1="API Gateway .NestJS." data-entity-2="SchedulingService" data-source-line="33" data-uid="lnk22" id="link_API Gateway .NestJS._SchedulingService"><path d="M406.45,298 C426.11,298 440.72,298 459.99,298" fill="none" id="API Gateway (NestJS)-to-SchedulingService" style="stroke:#181818;stroke-width:1;"/><polygon fill="#181818" points="465.99,298,456.99,294,460.99,298,456.99,302,465.99,298" style="stroke:#181818;stroke-width:1;"/></g><!--link API Gateway (NestJS) to AdminService--><g class="link" data-entity-1="API Gateway .NestJS." data-entity-2="AdminService" data-source-line="34" data-uid="lnk23" id="link_API Gateway .NestJS._AdminService"><path d="M381.98,321.65 C413.53,332.43 445.0725,343.2192 476.4325,353.9392" fill="none" id="API Gateway (NestJS)-to-AdminService" style="stroke:#181818;stroke-width:1;"/><polygon fill="#181818" points="482.11,355.88,474.8877,349.1839,477.3788,354.2627,472.3,356.7538,482.11,355.88" style="stroke:#181818;stroke-width:1;"/></g><!--link BookingService to BookingDomain--><g class="link" data-entity-1="BookingService" data-entity-2="BookingDomain" data-source-line="36" data-uid="lnk24" id="link_BookingService_BookingDomain"><path d="M625.16,194.54 C651.19,186.57 674.8126,179.3455 701.1226,171.2955" fill="none" id="BookingService-to-BookingDomain" style="stroke:#181818;stroke-width:1;"/><polygon fill="#181818" points="706.86,169.54,697.0835,168.3482,702.0788,171.0029,699.4241,175.9982,706.86,169.54" style="stroke:#181818;stroke-width:1;"/></g><!--link SchedulingService to BookingDomain--><g class="link" data-entity-1="SchedulingService" data-entity-2="BookingDomain" data-source-line="37" data-uid="lnk25" id="link_SchedulingService_BookingDomain"><path d="M626.34,274.45 C637.71,269.67 649.05,264.19 659.28,258 C700.08,233.31 735.6245,198.6748 758.8445,173.8148" fill="none" id="SchedulingService-to-BookingDomain" style="stroke:#181818;stroke-width:1;"/><polygon fill="#181818" points="762.94,169.43,753.8735,173.2768,759.527,173.084,759.7199,178.7376,762.94,169.43" style="stroke:#181818;stroke-width:1;"/></g><!--link BookingService to PostgreSQL--><g class="link" data-entity-1="BookingService" data-entity-2="PostgreSQL" data-source-line="38" data-uid="lnk26" id="link_BookingService_PostgreSQL"><path d="M625.19,225.82 C695.65,234.84 804.85,250.31 898.38,270 C910.1,272.47 916.8019,274.0165 928.5219,277.1365" fill="none" id="BookingService-to-PostgreSQL" style="stroke:#181818;stroke-width:1;"/><polygon fill="#181818" points="934.32,278.68,926.6519,272.4994,929.4883,277.3937,924.5939,280.2301,934.32,278.68" style="stroke:#181818;stroke-width:1;"/></g><!--link SchedulingService to PostgreSQL--><g class="link" data-entity-1="SchedulingService" data-entity-2="PostgreSQL" data-source-line="39" data-uid="lnk27" id="link_SchedulingService_PostgreSQL"><path d="M635.54,297.03 C724.24,296 855.2804,294.49 928.1804,293.64" fill="none" id="SchedulingService-to-PostgreSQL" style="stroke:#181818;stroke-width:1;"/><polygon fill="#181818" points="934.18,293.57,925.134,289.6752,929.1803,293.6283,925.2272,297.6747,934.18,293.57" style="stroke:#181818;stroke-width:1;"/></g><!--link AdminService to PostgreSQL--><g class="link" data-entity-1="AdminService" data-entity-2="PostgreSQL" data-source-line="40" data-uid="lnk28" id="link_AdminService_PostgreSQL"><path d="M619.23,365.56 C706.45,348.2 850.3754,319.5513 927.9954,304.1013" fill="none" id="AdminService-to-PostgreSQL" style="stroke:#181818;stroke-width:1;"/><polygon fill="#181818" points="933.88,302.93,924.2723,300.7639,928.9762,303.9061,925.834,308.61,933.88,302.93" style="stroke:#181818;stroke-width:1;"/></g><!--link BookingDomain to SQS--><g class="link" data-entity-1="BookingDomain" data-entity-2="SQS" data-source-line="42" data-uid="lnk29" id="link_BookingDomain_SQS"><path d="M847.37,169.63 C885.5,184.27 926.7186,200.0997 954.4086,210.7297" fill="none" id="BookingDomain-to-SQS" style="stroke:#181818;stroke-width:1;"/><polygon fill="#181818" points="960.01,212.88,953.0414,205.9202,955.3421,211.088,950.1743,213.3888,960.01,212.88" style="stroke:#181818;stroke-width:1;"/></g><!--link SQS to Worker--><g class="link" data-entity-1="SQS" data-entity-2="Worker" data-source-line="43" data-uid="lnk30" id="link_SQS_Worker"><path d="M1009.41,224.17 C1030.8,226.13 1057.675,228.6025 1088.995,231.4725" fill="none" id="SQS-to-Worker" style="stroke:#181818;stroke-width:1;"/><polygon fill="#181818" points="1094.97,232.02,1086.3726,227.2154,1089.9909,231.5637,1085.6425,235.182,1094.97,232.02" style="stroke:#181818;stroke-width:1;"/></g><!--link Worker to SendGrid--><g class="link" data-entity-1="Worker" data-entity-2="SendGrid" data-source-line="44" data-uid="lnk31" id="link_Worker_SendGrid"><path d="M1265.54,271.76 C1287.38,280.26 1304.7877,287.026 1324.5177,294.696" fill="none" id="Worker-to-SendGrid" style="stroke:#181818;stroke-width:1;"/><polygon fill="#181818" points="1330.11,296.87,1323.1709,289.8808,1325.4498,295.0583,1320.2722,297.3372,1330.11,296.87" style="stroke:#181818;stroke-width:1;"/></g><!--link Worker to Twilio--><g class="link" data-entity-1="Worker" data-entity-2="Twilio" data-source-line="45" data-uid="lnk32" id="link_Worker_Twilio"><path d="M1270.99,238.24 C1295.9,237.74 1315.8212,237.3299 1336.3312,236.9199" fill="none" id="Worker-to-Twilio" style="stroke:#181818;stroke-width:1;"/><polygon fill="#181818" points="1342.33,236.8,1333.2519,232.9807,1337.331,236.8999,1333.4117,240.9791,1342.33,236.8" style="stroke:#181818;stroke-width:1;"/></g><!--link SchedulingService to Redis--><g class="link" data-entity-1="SchedulingService" data-entity-2="Redis" data-source-line="47" data-uid="lnk33" id="link_SchedulingService_Redis"><path d="M635.54,310.8 C733.69,325.8 885.0889,348.9236 949.2189,358.7236" fill="none" id="SchedulingService-to-Redis" style="stroke:#181818;stroke-width:1;"/><polygon fill="#181818" points="955.15,359.63,946.8575,354.3164,950.2074,358.8747,945.649,362.2245,955.15,359.63" style="stroke:#181818;stroke-width:1;"/></g><!--SRC=[VL91ReCm4Bpx5IjEoI5Vg4HLDKfLHQIkb4FRWuCtn0hOr3QDegf_Bs3JseJaWB1dTdO63INkBLW5MXG72rnepArGafYZa3NJh8AQvKTM8BNd4g6ZcInA91w69DDeK5hMoHBu9W1lD4lXKIjfKV8FyaF-XzDi1S_iZDfFTlSbitXYPvYjqTWdEXyfwheKURyTAEelaQDnubnLjPAjDTmhrSOjF1rHD3yWRyehRCeh8GSYT7rG5HDox9Du8nXePWPlXyJJQsN5ViWUI4BSwqBlbTnhPgnkSjjeT1auisp734AcZ2qqqirpYtuss23G3Vqxlo0NvaQAhT97rEzobcvfMqIruspUPt94hAHjVKijU1B3hoTH2fLqcUEcOR6uSnMFAqt8DDmhHktTcBmiyyPmr2s9JK9Vty35xecPYIL17zCRWe4mqPWZaPFxshRNzkdFlXxtSgml9yHSC-HAalxV-0K0]--></g></svg>