<svg xmlns="http://www.w3.org/2000/svg" xmlns:xlink="http://www.w3.org/1999/xlink" contentStyleType="text/css" data-diagram-type="DESCRIPTION" height="461px" preserveAspectRatio="none" style="width:445px;height:461px;background:#FFFFFF;" version="1.1" viewBox="0 0 445 461" width="445px" zoomAndPan="magnify"><defs/><g><!--cluster Prime-Cuts Booking System--><g class="cluster" data-entity="Prime-Cuts Booking System" data-source-line="7" data-uid="ent0006" id="cluster_Prime-Cuts Booking System"><rect fill="none" height="310.89" rx="2.5" ry="2.5" style="stroke:#181818;stroke-width:1;" width="235" x="111" y="144.8"/><text fill="#000000" font-family="sans-serif" font-size="14" font-weight="bold" lengthAdjust="spacing" textLength="219.1943" x="118.9028" y="159.7951">Prime-Cuts Booking System</text></g><!--entity Web SPA--><g class="entity" data-entity="Web SPA" data-source-line="8" data-uid="ent0007" id="entity_Web SPA"><rect fill="#F1F1F1" height="46.2969" rx="2.5" ry="2.5" style="stroke:#181818;stroke-width:0.5;" width="102.6992" x="176.65" y="179.8"/><rect fill="#F1F1F1" height="10" style="stroke:#181818;stroke-width:0.5;" width="15" x="259.3492" y="184.8"/><rect fill="#F1F1F1" height="2" style="stroke:#181818;stroke-width:0.5;" width="4" x="257.3492" y="186.8"/><rect fill="#F1F1F1" height="2" style="stroke:#181818;stroke-width:0.5;" width="4" x="257.3492" y="190.8"/><text fill="#000000" font-family="sans-serif" font-size="14" lengthAdjust="spacing" textLength="62.6992" x="191.65" y="212.7951">Web SPA</text></g><!--entity API Server--><g class="entity" data-entity="API Server" data-source-line="9" data-uid="ent0008" id="entity_API Server"><rect fill="#F1F1F1" height="46.2969" rx="2.5" ry="2.5" style="stroke:#181818;stroke-width:0.5;" width="112.5088" x="171.75" y="287.1"/><rect fill="#F1F1F1" height="10" style="stroke:#181818;stroke-width:0.5;" width="15" x="264.2588" y="292.1"/><rect fill="#F1F1F1" height="2" style="stroke:#181818;stroke-width:0.5;" width="4" x="262.2588" y="294.1"/><rect fill="#F1F1F1" height="2" style="stroke:#181818;stroke-width:0.5;" width="4" x="262.2588" y="298.1"/><text fill="#000000" font-family="sans-serif" font-size="14" lengthAdjust="spacing" textLength="72.5088" x="186.75" y="320.0951">API Server</text></g><!--entity PostgreSQL--><g class="entity" data-entity="PostgreSQL" data-source-line="10" data-uid="ent0009" id="entity_PostgreSQL"><path d="M177.63,404.39 C177.63,394.39 228.0065,394.39 228.0065,394.39 C228.0065,394.39 278.3829,394.39 278.3829,404.39 L278.3829,429.6869 C278.3829,439.6869 228.0065,439.6869 228.0065,439.6869 C228.0065,439.6869 177.63,439.6869 177.63,429.6869 L177.63,404.39" fill="#F1F1F1" style="stroke:#181818;stroke-width:0.5;"/><path d="M177.63,404.39 C177.63,414.39 228.0065,414.39 228.0065,414.39 C228.0065,414.39 278.3829,414.39 278.3829,404.39" fill="none" style="stroke:#181818;stroke-width:0.5;"/><text fill="#000000" font-family="sans-serif" font-size="14" lengthAdjust="spacing" textLength="80.7529" x="187.63" y="431.3851">PostgreSQL</text></g><!--entity Customer--><g class="entity" data-entity="Customer" data-source-line="2" data-uid="ent0002" id="entity_Customer"><ellipse cx="40.002" cy="14" fill="#F1F1F1" rx="8" ry="8" style="stroke:#181818;stroke-width:0.5;"/><path d="M40.002,22 L40.002,49 M27.002,30 L53.002,30 M40.002,49 L27.002,64 M40.002,49 L53.002,64" fill="none" style="stroke:#181818;stroke-width:0.5;"/><text fill="#000000" font-family="sans-serif" font-size="14" lengthAdjust="spacing" textLength="68.0039" x="6" y="78.4951">Customer</text></g><!--entity Receptionist--><g class="entity" data-entity="Receptionist" data-source-line="3" data-uid="ent0003" id="entity_Receptionist"><ellipse cx="177.0042" cy="14" fill="#F1F1F1" rx="8" ry="8" style="stroke:#181818;stroke-width:0.5;"/><path d="M177.0042,22 L177.0042,49 M164.0042,30 L190.0042,30 M177.0042,49 L164.0042,64 M177.0042,49 L190.0042,64" fill="none" style="stroke:#181818;stroke-width:0.5;"/><text fill="#000000" font-family="sans-serif" font-size="14" lengthAdjust="spacing" textLength="87.0283" x="133.49" y="78.4951">Receptionist</text></g><!--entity Barber--><g class="entity" data-entity="Barber" data-source-line="4" data-uid="ent0004" id="entity_Barber"><ellipse cx="278.9977" cy="14" fill="#F1F1F1" rx="8" ry="8" style="stroke:#181818;stroke-width:0.5;"/><path d="M278.9977,22 L278.9977,49 M265.9977,30 L291.9977,30 M278.9977,49 L265.9977,64 M278.9977,49 L291.9977,64" fill="none" style="stroke:#181818;stroke-width:0.5;"/><text fill="#000000" font-family="sans-serif" font-size="14" lengthAdjust="spacing" textLength="47.1953" x="255.4" y="78.4951">Barber</text></g><!--entity Owner--><g class="entity" data-entity="Owner" data-source-line="5" data-uid="ent0005" id="entity_Owner"><ellipse cx="413.006" cy="14" fill="#F1F1F1" rx="8" ry="8" style="stroke:#181818;stroke-width:0.5;"/><path d="M413.006,22 L413.006,49 M400.006,30 L426.006,30 M413.006,49 L400.006,64 M413.006,49 L426.006,64" fill="none" style="stroke:#181818;stroke-width:0.5;"/><text fill="#000000" font-family="sans-serif" font-size="14" lengthAdjust="spacing" textLength="45.7119" x="390.15" y="78.4951">Owner</text></g><!--link Customer to Web SPA--><g class="link" data-entity-1="Customer" data-entity-2="Web SPA" data-source-line="13" data-uid="lnk10" id="link_Customer_Web SPA"><path d="M47.06,81.97 C51.65,97.94 59.09,115.85 71,128.8 C99,159.22 136.4977,176.2342 170.5077,187.1642" fill="none" id="Customer-to-Web SPA" style="stroke:#181818;stroke-width:1;"/><polygon fill="#181818" points="176.22,189,168.8755,182.4382,171.4598,187.4702,166.4278,190.0545,176.22,189" style="stroke:#181818;stroke-width:1;"/><text fill="#000000" font-family="sans-serif" font-size="13" lengthAdjust="spacing" textLength="98.376" x="72" y="124.8669">Browse &amp; Book</text></g><!--link Owner to Web SPA--><g class="link" data-entity-1="Owner" data-entity-2="Web SPA" data-source-line="14" data-uid="lnk11" id="link_Owner_Web SPA"><path d="M395.87,82.02 C387.32,97.82 375.83,115.58 362,128.8 C338.44,151.32 312.0248,166.5692 285.2848,178.9492" fill="none" id="Owner-to-Web SPA" style="stroke:#181818;stroke-width:1;"/><polygon fill="#181818" points="279.84,181.47,289.6877,181.3186,284.3773,179.3693,286.3266,174.0589,279.84,181.47" style="stroke:#181818;stroke-width:1;"/><text fill="#000000" font-family="sans-serif" font-size="13" lengthAdjust="spacing" textLength="59.1411" x="378" y="124.8669">Admin UI</text></g><!--link Receptionist to Web SPA--><g class="link" data-entity-1="Receptionist" data-entity-2="Web SPA" data-source-line="15" data-uid="lnk12" id="link_Receptionist_Web SPA"><path d="M175.26,82.25 C175.59,97.06 177.26,114.03 182,128.8 C187.91,147.23 196.0003,160.8227 206.0903,174.5727" fill="none" id="Receptionist-to-Web SPA" style="stroke:#181818;stroke-width:1;"/><polygon fill="#181818" points="209.64,179.41,207.5403,169.7876,206.6819,175.3789,201.0906,174.5205,209.64,179.41" style="stroke:#181818;stroke-width:1;"/><text fill="#000000" font-family="sans-serif" font-size="13" lengthAdjust="spacing" textLength="49.791" x="183" y="124.8669">Desk UI</text></g><!--link Barber to Web SPA--><g class="link" data-entity-1="Barber" data-entity-2="Web SPA" data-source-line="16" data-uid="lnk13" id="link_Barber_Web SPA"><path d="M266.92,81.93 C257.08,112.27 245.3722,148.393 237.1222,173.813" fill="none" id="Barber-to-Web SPA" style="stroke:#181818;stroke-width:1;"/><polygon fill="#181818" points="235.27,179.52,241.8529,172.1943,236.8135,174.7642,234.2436,169.7248,235.27,179.52" style="stroke:#181818;stroke-width:1;"/><text fill="#000000" font-family="sans-serif" font-size="13" lengthAdjust="spacing" textLength="95.0054" x="258" y="124.8669">View Schedule</text></g><!--link Web SPA to API Server--><g class="link" data-entity-1="Web SPA" data-entity-2="API Server" data-source-line="18" data-uid="lnk14" id="link_Web SPA_API Server"><path d="M228,226.54 C228,244.3 228,262.94 228,280.69" fill="none" id="Web SPA-to-API Server" style="stroke:#181818;stroke-width:1;"/><polygon fill="#181818" points="228,286.69,232,277.69,228,281.69,224,277.69,228,286.69" style="stroke:#181818;stroke-width:1;"/></g><!--link API Server to PostgreSQL--><g class="link" data-entity-1="API Server" data-entity-2="PostgreSQL" data-source-line="19" data-uid="lnk15" id="link_API Server_PostgreSQL"><path d="M228,333.73 C228,351.53 228,370.26 228,387.96" fill="none" id="API Server-to-PostgreSQL" style="stroke:#181818;stroke-width:1;"/><polygon fill="#181818" points="228,393.96,232,384.96,228,388.96,224,384.96,228,393.96" style="stroke:#181818;stroke-width:1;"/></g><!--SRC=[PP31JeH038RlVOfc3zvu0Gyci5usCP5reXwCXp8qE65dXdIAP6DyTm5HIBZrx_zDstzIwq97GXuxiYqrRFHwOHIsIg6vC93LA7ZiaqRFiiWdjjofYy4bNLe5IVNlFmvXh64PYOTIdEVis6l28iPnPOFccfJz0Ry0yUsLApHb_ZxLUNb2m_B9CicQb2fAZ6LCsWYRymDy0_pTWrbsjpx7Moma3YDzC- -1-OuTazVU1Nm-mJR6Zhhdr4xGRx2T_U9uG6C_kEx7NuBLci5jYAsOtJNA3m00]--></g></svg>