<svg xmlns="http://www.w3.org/2000/svg" xmlns:xlink="http://www.w3.org/1999/xlink" contentStyleType="text/css" data-diagram-type="DESCRIPTION" height="419px" preserveAspectRatio="none" style="width:885px;height:419px;background:#FFFFFF;" version="1.1" viewBox="0 0 885 419" width="885px" zoomAndPan="magnify"><defs/><g><!--entity Customer--><g class="entity" data-entity="Customer" data-source-line="2" data-uid="ent0002" id="entity_Customer"><ellipse cx="40.002" cy="235" fill="#F1F1F1" rx="8" ry="8" style="stroke:#181818;stroke-width:0.5;"/><path d="M40.002,243 L40.002,270 M27.002,251 L53.002,251 M40.002,270 L27.002,285 M40.002,270 L53.002,285" fill="none" style="stroke:#181818;stroke-width:0.5;"/><text fill="#000000" font-family="sans-serif" font-size="14" lengthAdjust="spacing" textLength="68.0039" x="6" y="299.4951">Customer</text></g><!--entity SPA--><g class="entity" data-entity="SPA" data-source-line="3" data-uid="ent0003" id="entity_SPA"><rect fill="#F1F1F1" height="36.2969" rx="2.5" ry="2.5" style="stroke:#181818;stroke-width:0.5;" width="91.4629" x="225" y="246.5"/><text fill="#000000" font-family="sans-serif" font-size="14" lengthAdjust="spacing" textLength="71.4629" x="235" y="269.4951">React SPA</text></g><!--entity Backend--><g class="entity" data-entity="Backend" data-source-line="4" data-uid="ent0004" id="entity_Backend"><rect fill="#F1F1F1" height="36.2969" rx="2.5" ry="2.5" style="stroke:#181818;stroke-width:0.5;" width="136.9834" x="467.47" y="246.5"/><text fill="#000000" font-family="sans-serif" font-size="14" lengthAdjust="spacing" textLength="116.9834" x="477.47" y="269.4951">Node.js Backend</text></g><!--entity SendGrid--><g class="entity" data-entity="SendGrid" data-source-line="5" data-uid="ent0005" id="entity_SendGrid"><path d="M749.3227,203.6028 C752.6847,196.8872 758.1246,196.8411 762.7647,202.1773 C766.547,195.9658 772.3554,195.834 775.4887,202.8039 C778.7367,195.3102 782.7317,195.0515 788.3511,200.4352 C793.2439,194.5906 797.411,193.8111 802.1993,200.5501 C806.6931,195.025 810.9304,196.7122 813.7845,202.2649 C817.1798,196.8196 822.6635,196.949 825.9339,202.404 C830.1429,195.9152 834.2498,196.5074 838.6702,202.1827 C842.9372,196.6973 849.3824,196.7979 852.9488,203.036 C861.4917,206.8255 862.7943,214.0423 854.3398,219.2868 C860.9785,224.5462 859.7367,230.5385 852.1001,233.5574 C849.0946,240.033 844.6126,239.5085 840.4231,234.7928 C836.9189,242.3134 832.367,243.4738 826.692,236.9089 C823.6123,243.1283 819.5106,243.8557 815.004,238.3286 C812.6168,244.988 806.2557,246.886 801.8077,240.3969 C797.4852,245.8556 792.2408,246.696 788.4848,239.7866 C783.4387,244.839 777.7562,242.8293 775.5515,236.545 C770.8688,241.3475 766.5441,241.3219 762.9396,235.2899 C759.4172,241.1883 753.6845,241.2304 750.6289,234.823 C740.2173,233.6094 736.3498,228.019 741.7417,218.3035 C736.8996,209.4572 739.7481,205.0145 749.3227,203.6028" fill="#F1F1F1" style="stroke:#181818;stroke-width:0.5;"/><text fill="#000000" font-family="sans-serif" font-size="14" lengthAdjust="spacing" textLength="88.1836" x="756.15" y="222.4951">SendGrid EU</text></g><!--entity SMS--><g class="entity" data-entity="SMS" data-source-line="6" data-uid="ent0006" id="entity_SMS"><path d="M733.0442,284.2149 C736.6427,278.9302 742.3691,277.3587 745.8044,284.384 C748.6752,280.2827 752.7201,279.1426 755.7171,284.2481 C759.3799,279.2182 763.3817,278.7623 767.2953,283.9643 C770.2802,276.9183 774.4836,277.2086 779.4488,281.9167 C782.5928,276.2584 786.1776,276.4345 790.2606,280.9155 C793.701,275.926 798.3184,276.5555 800.9114,281.7977 C803.6935,276.0546 809.1509,275.8552 812.2065,281.5271 C815.0483,275.0489 820.8404,274.9298 823.9326,281.2986 C828.427,276.2588 832.2074,277.5896 834.5703,283.3902 C839.3394,278.3581 843.5485,278.4516 847.2724,284.5798 C850.2307,280.0785 854.0926,280.2907 857.1424,284.4759 C860.7395,278.9205 864.8885,279.3431 868.3068,284.6595 C877.1896,287.5127 878.1663,293.7435 872.1356,300.2575 C878.3672,306.5885 878.0732,310.9625 869.3778,314.3782 C865.5656,319.2248 862.1578,320.6631 857.8136,314.9614 C855.2237,321.2688 851.8538,321.0291 847.3798,316.8331 C843.9876,322.5443 839.0785,323.048 835.0885,317.4848 C832.2607,323.5623 826.5564,324.4597 822.9156,318.2931 C820.265,323.0465 816.822,323.3209 813.7194,318.7384 C810.4846,324.4119 805.4423,324.5109 801.7088,319.2881 C797.2756,324.7658 794.1738,323.0752 790.9241,318.0704 C786.3197,324.2519 780.9842,322.7892 777.8772,316.5034 C774.6751,321.7937 771.3447,320.8034 767.9373,316.7213 C764.2272,322.4422 759.3102,323.6603 755.2525,317.0798 C751.2442,322.5511 747.2434,320.9655 744.4889,315.81 C741.237,320.9538 735.6317,319.8563 733.1368,314.9545 C725.7577,310.8565 724.9492,305.2712 731.9404,300.0219 C725.2064,295.4127 725.4525,287.8238 733.0442,284.2149" fill="#F1F1F1" style="stroke:#181818;stroke-width:0.5;"/><text fill="#000000" font-family="sans-serif" font-size="14" lengthAdjust="spacing" textLength="121.5908" x="739.45" y="303.4951">Twilio/Vonage EU</text></g><!--entity RabbitMQ--><g class="entity" data-entity="RabbitMQ" data-source-line="7" data-uid="ent0007" id="entity_RabbitMQ"><path d="M760.97,133.5 L839.5276,133.5 C844.5276,133.5 844.5276,146.6484 844.5276,146.6484 C844.5276,146.6484 844.5276,159.7969 839.5276,159.7969 L760.97,159.7969 C755.97,159.7969 755.97,146.6484 755.97,146.6484 C755.97,146.6484 755.97,133.5 760.97,133.5" fill="#F1F1F1" style="stroke:#181818;stroke-width:0.5;"/><path d="M839.5276,133.5 C834.5276,133.5 834.5276,146.6484 834.5276,146.6484 C834.5276,159.7969 839.5276,159.7969 839.5276,159.7969" fill="none" style="stroke:#181818;stroke-width:0.5;"/><text fill="#000000" font-family="sans-serif" font-size="14" lengthAdjust="spacing" textLength="68.5576" x="760.97" y="151.4951">RabbitMQ</text></g><!--entity PostgreSQL--><g class="entity" data-entity="PostgreSQL" data-source-line="8" data-uid="ent0008" id="entity_PostgreSQL"><path d="M749.87,367 C749.87,357 800.2465,357 800.2465,357 C800.2465,357 850.6229,357 850.6229,367 L850.6229,392.2969 C850.6229,402.2969 800.2465,402.2969 800.2465,402.2969 C800.2465,402.2969 749.87,402.2969 749.87,392.2969 L749.87,367" fill="#F1F1F1" style="stroke:#181818;stroke-width:0.5;"/><path d="M749.87,367 C749.87,377 800.2465,377 800.2465,377 C800.2465,377 850.6229,377 850.6229,367" fill="none" style="stroke:#181818;stroke-width:0.5;"/><text fill="#000000" font-family="sans-serif" font-size="14" lengthAdjust="spacing" textLength="80.7529" x="759.87" y="393.9951">PostgreSQL</text></g><!--entity NotificationWorker--><g class="entity" data-entity="NotificationWorker" data-source-line="15" data-uid="ent0015" id="entity_NotificationWorker"><ellipse cx="800.2449" cy="14" fill="#F1F1F1" rx="8" ry="8" style="stroke:#181818;stroke-width:0.5;"/><path d="M800.2449,22 L800.2449,49 M787.2449,30 L813.2449,30 M800.2449,49 L787.2449,64 M800.2449,49 L813.2449,64" fill="none" style="stroke:#181818;stroke-width:0.5;"/><text fill="#000000" font-family="sans-serif" font-size="14" lengthAdjust="spacing" textLength="130.9697" x="734.76" y="78.4951">NotificationWorker</text></g><!--link Customer to SPA--><g class="link" data-entity-1="Customer" data-entity-2="SPA" data-source-line="9" data-uid="lnk9" id="link_Customer_SPA"><path d="M74.26,264.65 C113.91,264.65 174.36,264.65 218.61,264.65" fill="none" id="Customer-to-SPA" style="stroke:#181818;stroke-width:1;"/><polygon fill="#181818" points="224.61,264.65,215.61,260.65,219.61,264.65,215.61,268.65,224.61,264.65" style="stroke:#181818;stroke-width:1;"/><text fill="#000000" font-family="sans-serif" font-size="13" lengthAdjust="spacing" textLength="89.1528" x="105" y="260.7169">book/manage</text></g><!--link SPA to Backend--><g class="link" data-entity-1="SPA" data-entity-2="Backend" data-source-line="10" data-uid="lnk10" id="link_SPA_Backend"><path d="M316.69,264.65 C358.02,264.65 413.88,264.65 461.21,264.65" fill="none" id="SPA-to-Backend" style="stroke:#181818;stroke-width:1;"/><polygon fill="#181818" points="467.21,264.65,458.21,260.65,462.21,264.65,458.21,268.65,467.21,264.65" style="stroke:#181818;stroke-width:1;"/><text fill="#000000" font-family="sans-serif" font-size="13" lengthAdjust="spacing" textLength="89.4639" x="347.47" y="260.7169">REST (HTTPS)</text></g><!--link Backend to PostgreSQL--><g class="link" data-entity-1="Backend" data-entity-2="PostgreSQL" data-source-line="11" data-uid="lnk11" id="link_Backend_PostgreSQL"><path d="M570.85,283.07 C589.41,292.9 612.96,304.93 634.45,314.65 C672.56,331.89 711.0736,347.049 744.0636,359.449" fill="none" id="Backend-to-PostgreSQL" style="stroke:#181818;stroke-width:1;"/><polygon fill="#181818" points="749.68,361.56,742.6628,354.6492,744.9997,359.8008,739.8481,362.1377,749.68,361.56" style="stroke:#181818;stroke-width:1;"/><text fill="#000000" font-family="sans-serif" font-size="13" lengthAdjust="spacing" textLength="58.9253" x="635.45" y="310.7169">ACID ops</text></g><!--link Backend to RabbitMQ--><g class="link" data-entity-1="Backend" data-entity-2="RabbitMQ" data-source-line="12" data-uid="lnk12" id="link_Backend_RabbitMQ"><path d="M568.51,246.22 C587.35,235.54 611.93,222.17 634.45,211.65 C676.95,191.81 721.6545,174.5993 755.4245,162.2593" fill="none" id="Backend-to-RabbitMQ" style="stroke:#181818;stroke-width:1;"/><polygon fill="#181818" points="761.06,160.2,751.2338,159.5319,756.3637,161.9161,753.9796,167.046,761.06,160.2" style="stroke:#181818;stroke-width:1;"/><text fill="#000000" font-family="sans-serif" font-size="13" lengthAdjust="spacing" textLength="43.7988" x="642.95" y="182.7169">events</text></g><!--link Backend to SendGrid--><g class="link" data-entity-1="Backend" data-entity-2="SendGrid" data-source-line="13" data-uid="lnk13" id="link_Backend_SendGrid"><path d="M604.85,252.49 C647.04,244.93 694.8242,236.3691 735.0842,229.1491" fill="none" id="Backend-to-SendGrid" style="stroke:#181818;stroke-width:1;"/><polygon fill="#181818" points="740.99,228.09,731.4253,225.7415,736.0685,228.9726,732.8374,233.6159,740.99,228.09" style="stroke:#181818;stroke-width:1;"/><text fill="#000000" font-family="sans-serif" font-size="13" lengthAdjust="spacing" textLength="35.8516" x="646.95" y="232.7169">email</text></g><!--link Backend to SMS--><g class="link" data-entity-1="Backend" data-entity-2="SMS" data-source-line="14" data-uid="lnk14" id="link_Backend_SMS"><path d="M604.73,278.78 C614.67,280.58 624.8,282.28 634.45,283.65 C663.6,287.81 689.8513,290.5347 718.0113,292.9147" fill="none" id="Backend-to-SMS" style="stroke:#181818;stroke-width:1;"/><polygon fill="#181818" points="723.99,293.42,715.3588,288.6763,719.0078,292.9989,714.6851,296.6478,723.99,293.42" style="stroke:#181818;stroke-width:1;"/><text fill="#000000" font-family="sans-serif" font-size="13" lengthAdjust="spacing" textLength="26.2095" x="651.45" y="279.7169">sms</text></g><!--link NotificationWorker to RabbitMQ--><g class="link" data-entity-1="NotificationWorker" data-entity-2="RabbitMQ" data-source-line="15" data-uid="lnk16" id="link_NotificationWorker_RabbitMQ"><path d="M800.25,81.98 C800.25,99.95 800.25,114.21 800.25,127.19" fill="none" id="NotificationWorker-to-RabbitMQ" style="stroke:#0000FF;stroke-width:1;stroke-dasharray:7,7;"/><polygon fill="#0000FF" points="800.25,133.19,804.25,124.19,800.25,128.19,796.25,124.19,800.25,133.19" style="stroke:#0000FF;stroke-width:1;"/><text fill="#000000" font-family="sans-serif" font-size="13" lengthAdjust="spacing" textLength="59.0142" x="759.25" y="112.2169">consume</text></g><!--link NotificationWorker to SendGrid--><g class="link" data-entity-1="NotificationWorker" data-entity-2="SendGrid" data-source-line="16" data-uid="lnk17" id="link_NotificationWorker_SendGrid"><path d="M734.57,67.9 C688.41,88.88 639.06,121.83 664.45,160.15 C681.49,185.87 706.7917,198.504 734.9317,206.374" fill="none" id="NotificationWorker-to-SendGrid" style="stroke:#0000FF;stroke-width:1;stroke-dasharray:7,7;"/><polygon fill="#0000FF" points="740.71,207.99,733.1199,201.7138,735.8948,206.6433,730.9652,209.4181,740.71,207.99" style="stroke:#0000FF;stroke-width:1;"/></g><!--link NotificationWorker to SMS--><g class="link" data-entity-1="NotificationWorker" data-entity-2="SMS" data-source-line="17" data-uid="lnk18" id="link_NotificationWorker_SMS"><path d="M734.27,70.13 C707.56,84.51 679.51,105.18 664.45,133.15 C641.69,175.41 637.94,201.14 664.45,241.15 C678.17,261.85 695.3503,273.0449 718.4103,281.5449" fill="none" id="NotificationWorker-to-SMS" style="stroke:#0000FF;stroke-width:1;stroke-dasharray:7,7;"/><polygon fill="#0000FF" points="724.04,283.62,716.9788,276.7541,719.3486,281.8907,714.212,284.2604,724.04,283.62" style="stroke:#0000FF;stroke-width:1;"/></g><!--SRC=[ZP1FJyCm3CNl-HHMkO34s9q3qXWJ8D6fQmeS40StyRhGFuOaXQzF0csXjvtYlD-B_UA6zXuyWpNLmOCsbfGtt0bKdYsiU-Uv9IkYZ5tL42Gv1GOoMoM0Bfx_uPOrNRmvk4PLKwT_B4CjLCEzXaI6-jOQ3Pl7tmx3VUJ5bsaCBv-umuecKoh5HqyzGOvbQNow4nezbkW8CdQ-iYHt3sBC2ul5LOm6br0oryiMOpCHbKY6H87c6rd0wLrHPF9CZ7Aq_3KDhjNw_WRutSqSOv30wPCwFwVJBmDjqJHpcCgWkzQ9BNkpDmhZpf_PrZ7woqdPz7IkqHr8lyu6AUvStz9HpwQz7cLEvJS0]--></g></svg>