<svg xmlns="http://www.w3.org/2000/svg" xmlns:xlink="http://www.w3.org/1999/xlink" contentStyleType="text/css" data-diagram-type="DESCRIPTION" height="468px" preserveAspectRatio="none" style="width:715px;height:468px;background:#FFFFFF;" version="1.1" viewBox="0 0 715 468" width="715px" zoomAndPan="magnify"><defs/><g><!--entity Customer--><g class="entity" data-entity="Customer" data-source-line="5" data-uid="ent0002" id="entity_Customer"><ellipse cx="110.372" cy="14" fill="#F1F1F1" rx="8" ry="8" style="stroke:#181818;stroke-width:0.5;"/><path d="M110.372,22 L110.372,49 M97.372,30 L123.372,30 M110.372,49 L97.372,64 M110.372,49 L123.372,64" fill="none" style="stroke:#181818;stroke-width:0.5;"/><text fill="#000000" font-family="sans-serif" font-size="14" lengthAdjust="spacing" textLength="68.0039" x="76.37" y="78.4951">Customer</text></g><!--entity Receptionist--><g class="entity" data-entity="Receptionist" data-source-line="6" data-uid="ent0003" id="entity_Receptionist"><ellipse cx="248.3742" cy="14" fill="#F1F1F1" rx="8" ry="8" style="stroke:#181818;stroke-width:0.5;"/><path d="M248.3742,22 L248.3742,49 M235.3742,30 L261.3742,30 M248.3742,49 L235.3742,64 M248.3742,49 L261.3742,64" fill="none" style="stroke:#181818;stroke-width:0.5;"/><text fill="#000000" font-family="sans-serif" font-size="14" lengthAdjust="spacing" textLength="87.0283" x="204.86" y="78.4951">Receptionist</text></g><!--entity Barber--><g class="entity" data-entity="Barber" data-source-line="7" data-uid="ent0004" id="entity_Barber"><ellipse cx="401.3777" cy="14" fill="#F1F1F1" rx="8" ry="8" style="stroke:#181818;stroke-width:0.5;"/><path d="M401.3777,22 L401.3777,49 M388.3777,30 L414.3777,30 M401.3777,49 L388.3777,64 M401.3777,49 L414.3777,64" fill="none" style="stroke:#181818;stroke-width:0.5;"/><text fill="#000000" font-family="sans-serif" font-size="14" lengthAdjust="spacing" textLength="47.1953" x="377.78" y="78.4951">Barber</text></g><!--entity Owner--><g class="entity" data-entity="Owner" data-source-line="8" data-uid="ent0005" id="entity_Owner"><ellipse cx="536.376" cy="14" fill="#F1F1F1" rx="8" ry="8" style="stroke:#181818;stroke-width:0.5;"/><path d="M536.376,22 L536.376,49 M523.376,30 L549.376,30 M536.376,49 L523.376,64 M536.376,49 L549.376,64" fill="none" style="stroke:#181818;stroke-width:0.5;"/><text fill="#000000" font-family="sans-serif" font-size="14" lengthAdjust="spacing" textLength="45.7119" x="513.52" y="78.4951">Owner</text></g><!--entity SPA--><g class="entity" data-entity="SPA" data-source-line="9" data-uid="ent0006" id="entity_SPA"><polygon fill="#F1F1F1" points="268.64,168.8,278.64,158.8,380.1029,158.8,380.1029,195.0969,370.1029,205.0969,268.64,205.0969,268.64,168.8" style="stroke:#181818;stroke-width:0.5;"/><line style="stroke:#181818;stroke-width:0.5;" x1="370.1029" x2="380.1029" y1="168.8" y2="158.8"/><line style="stroke:#181818;stroke-width:0.5;" x1="268.64" x2="370.1029" y1="168.8" y2="168.8"/><line style="stroke:#181818;stroke-width:0.5;" x1="370.1029" x2="370.1029" y1="168.8" y2="205.0969"/><text fill="#000000" font-family="sans-serif" font-size="14" lengthAdjust="spacing" textLength="71.4629" x="283.64" y="191.7951">React SPA</text></g><!--entity Backend--><g class="entity" data-entity="Backend" data-source-line="10" data-uid="ent0007" id="entity_Backend"><polygon fill="#F1F1F1" points="245.88,292.1,255.88,282.1,402.8634,282.1,402.8634,318.3969,392.8634,328.3969,245.88,328.3969,245.88,292.1" style="stroke:#181818;stroke-width:0.5;"/><line style="stroke:#181818;stroke-width:0.5;" x1="392.8634" x2="402.8634" y1="292.1" y2="282.1"/><line style="stroke:#181818;stroke-width:0.5;" x1="245.88" x2="392.8634" y1="292.1" y2="292.1"/><line style="stroke:#181818;stroke-width:0.5;" x1="392.8634" x2="392.8634" y1="292.1" y2="328.3969"/><text fill="#000000" font-family="sans-serif" font-size="14" lengthAdjust="spacing" textLength="116.9834" x="260.88" y="315.0951">Node.js Backend</text></g><!--entity PostgreSQL--><g class="entity" data-entity="PostgreSQL" data-source-line="11" data-uid="ent0008" id="entity_PostgreSQL"><path d="M6,415.89 C6,405.89 56.3765,405.89 56.3765,405.89 C56.3765,405.89 106.7529,405.89 106.7529,415.89 L106.7529,441.1869 C106.7529,451.1869 56.3765,451.1869 56.3765,451.1869 C56.3765,451.1869 6,451.1869 6,441.1869 L6,415.89" fill="#F1F1F1" style="stroke:#181818;stroke-width:0.5;"/><path d="M6,415.89 C6,425.89 56.3765,425.89 56.3765,425.89 C56.3765,425.89 106.7529,425.89 106.7529,415.89" fill="none" style="stroke:#181818;stroke-width:0.5;"/><text fill="#000000" font-family="sans-serif" font-size="14" lengthAdjust="spacing" textLength="80.7529" x="16" y="442.8851">PostgreSQL</text></g><!--entity RabbitMQ--><g class="entity" data-entity="RabbitMQ" data-source-line="12" data-uid="ent0009" id="entity_RabbitMQ"><path d="M147.1,415.39 L225.6576,415.39 C230.6576,415.39 230.6576,428.5384 230.6576,428.5384 C230.6576,428.5384 230.6576,441.6869 225.6576,441.6869 L147.1,441.6869 C142.1,441.6869 142.1,428.5384 142.1,428.5384 C142.1,428.5384 142.1,415.39 147.1,415.39" fill="#F1F1F1" style="stroke:#181818;stroke-width:0.5;"/><path d="M225.6576,415.39 C220.6576,415.39 220.6576,428.5384 220.6576,428.5384 C220.6576,441.6869 225.6576,441.6869 225.6576,441.6869" fill="none" style="stroke:#181818;stroke-width:0.5;"/><text fill="#000000" font-family="sans-serif" font-size="14" lengthAdjust="spacing" textLength="68.5576" x="147.1" y="433.3851">RabbitMQ</text></g><!--entity SendGrid--><g class="entity" data-entity="SendGrid" data-source-line="13" data-uid="ent0010" id="entity_SendGrid"><path d="M273.4527,414.4928 C276.8147,407.7772 282.2546,407.7311 286.8947,413.0673 C290.677,406.8558 296.4854,406.724 299.6187,413.6939 C302.8667,406.2002 306.8617,405.9415 312.4811,411.3252 C317.3739,405.4806 321.541,404.7011 326.3293,411.4401 C330.8231,405.915 335.0604,407.6022 337.9145,413.1549 C341.3098,407.7096 346.7935,407.839 350.0639,413.294 C354.2729,406.8052 358.3798,407.3974 362.8002,413.0727 C367.0672,407.5873 373.5124,407.6879 377.0788,413.926 C385.6217,417.7155 386.9243,424.9323 378.4698,430.1768 C385.1085,435.4362 383.8667,441.4285 376.2301,444.4474 C373.2246,450.923 368.7426,450.3985 364.5531,445.6828 C361.0489,453.2034 356.497,454.3638 350.822,447.7989 C347.7423,454.0183 343.6406,454.7457 339.134,449.2186 C336.7468,455.878 330.3857,457.776 325.9377,451.2869 C321.6152,456.7456 316.3708,457.586 312.6148,450.6766 C307.5687,455.729 301.8862,453.7193 299.6815,447.435 C294.9988,452.2375 290.6741,452.2119 287.0696,446.1799 C283.5472,452.0783 277.8145,452.1204 274.7589,445.713 C264.3473,444.4994 260.4798,438.909 265.8717,429.1935 C261.0296,420.3472 263.8781,415.9045 273.4527,414.4928" fill="#F1F1F1" style="stroke:#181818;stroke-width:0.5;"/><text fill="#000000" font-family="sans-serif" font-size="14" lengthAdjust="spacing" textLength="88.1836" x="280.28" y="433.3851">SendGrid EU</text></g><!--entity SMS--><g class="entity" data-entity="SMS" data-source-line="14" data-uid="ent0011" id="entity_SMS"><path d="M426.7899,415.3766 C430.1243,408.4776 434.8456,407.4323 439.7894,413.7996 C443.9871,408.4971 448.0876,408.2292 452.2466,413.8439 C455.8076,408.751 459.3255,409.4798 462.6581,414.089 C466.2718,408 471.6627,406.7296 475.9759,413.3563 C478.3259,406.5575 484.6295,406.2084 488.5287,411.7847 C491.003,405.9009 495.8816,406.4201 499.1035,411.0314 C503.1846,405.1916 507.8839,404.5772 511.9328,411.0649 C515.4997,404.4158 520.4338,404.0408 524.4759,410.6142 C528.5542,404.5706 532.6159,406.015 536.071,411.2546 C539.4221,406.4798 544.4266,407.4854 546.5079,412.5952 C550.7996,407.9101 554.9083,406.6985 558.5978,413.2434 C562.3067,408.6046 567.6762,408.7412 570.4788,414.2995 C573.9893,407.2254 578.5941,407.2742 582.9402,413.5176 C586.6472,407.4667 592.8622,407.3166 596.6499,413.4266 C604.1174,417.2844 606.0974,421.8497 599.7615,428.548 C604.3605,435.4116 603.6514,440.6012 595.3651,443.7346 C592.6023,449.9839 587.3627,450.062 583.4106,444.9906 C579.9989,451.405 574.5494,450.5311 571.3594,444.7711 C569.2434,450.8081 563.4881,451.1885 559.867,446.3635 C556.1382,452.0091 551.1832,452.4035 547.7325,446.0815 C543.87,451.8933 538.7136,451.6581 534.6556,446.3105 C531.5761,450.1156 526.8776,449.945 524.5649,445.3855 C520.9606,452.2362 514.0721,451.3564 510.4921,445.3589 C507.0739,450.4013 503.4165,450.0782 500.2614,445.0906 C497.6011,450.3135 491.8451,450.9477 488.1585,446.3562 C483.646,453.2463 479.5278,452.8202 475.2701,446.1146 C470.251,451.6117 465.7307,451.5932 462.5822,444.2642 C460.3097,450.1895 456.3421,449.8914 452.5226,445.8211 C447.394,451.1432 442.0905,451.5717 438.475,444.1529 C434.9718,450.1908 431.1257,450.6323 427.1388,444.6075 C421.1738,440.0587 419.5896,434.6759 427.2381,430.2211 C419.214,425.2864 419.2311,420.7819 426.7899,415.3766" fill="#F1F1F1" style="stroke:#181818;stroke-width:0.5;"/><text fill="#000000" font-family="sans-serif" font-size="14" lengthAdjust="spacing" textLength="154.0342" x="433.36" y="433.3851">Twilio EU / Vonage EU</text></g><!--entity Redis--><g class="entity" data-entity="Redis" data-source-line="15" data-uid="ent0012" id="entity_Redis"><path d="M646.2649,414.3925 C648.6529,408.2457 654.4102,407.0438 658.5071,412.6058 C662.1841,404.658 666.4561,403.6398 672.4559,410.4033 C676.7966,405.3369 682.565,405.9186 685.0701,412.4072 C689.6628,407.008 695.0102,408.7388 697.6424,414.5967 C705.3589,416.7929 708.527,423.7671 701.3826,429.6546 C707.3474,434.9668 707.1646,441.3986 699.1862,444.6713 C696.5962,452.8706 691.4392,453.6298 685.1914,448.5166 C683.3499,455.6256 678.202,455.7094 673.5467,451.3815 C668.4424,456.555 661.4218,456.4292 659.1465,448.3155 C654.3191,454.4456 648.6456,451.2286 646.6013,445.3967 C638.1012,442.8699 637.4698,436.7227 642.6749,430.5672 C636.0342,424.6822 638.6172,417.1061 646.2649,414.3925" fill="#F1F1F1" style="stroke:#181818;stroke-width:0.5;"/><text fill="#000000" font-family="sans-serif" font-size="14" lengthAdjust="spacing" textLength="38.4111" x="652.17" y="433.3851">Redis</text></g><!--link Customer to SPA--><g class="link" data-entity-1="Customer" data-entity-2="SPA" data-source-line="16" data-uid="lnk13" id="link_Customer_SPA"><path d="M112.41,81.91 C115.17,98.25 121.06,116.49 133.38,128.8 C168.87,164.28 220.023,175.7246 262.573,179.4646" fill="none" id="Customer-to-SPA" style="stroke:#181818;stroke-width:1;"/><polygon fill="#181818" points="268.55,179.99,259.9348,175.2173,263.5692,179.5522,259.2343,183.1866,268.55,179.99" style="stroke:#181818;stroke-width:1;"/><text fill="#000000" font-family="sans-serif" font-size="13" lengthAdjust="spacing" textLength="96.6367" x="134.38" y="124.8669">Book / Manage</text></g><!--link Receptionist to SPA--><g class="link" data-entity-1="Receptionist" data-entity-2="SPA" data-source-line="17" data-uid="lnk14" id="link_Receptionist_SPA"><path d="M239.08,82.14 C237.25,97.43 237.83,114.77 245.38,128.8 C251.92,140.96 257.6784,147.4208 269.1784,155.0908" fill="none" id="Receptionist-to-SPA" style="stroke:#181818;stroke-width:1;"/><polygon fill="#181818" points="274.17,158.42,268.902,150.0984,270.0103,155.6457,264.4631,156.754,274.17,158.42" style="stroke:#181818;stroke-width:1;"/><text fill="#000000" font-family="sans-serif" font-size="13" lengthAdjust="spacing" textLength="111.5474" x="246.38" y="124.8669">Book for walk-ins</text></g><!--link Barber to SPA--><g class="link" data-entity-1="Barber" data-entity-2="SPA" data-source-line="18" data-uid="lnk15" id="link_Barber_SPA"><path d="M386,81.9 C379.36,96.81 371.11,113.95 362.38,128.8 C356.41,138.94 352.5509,144.7306 345.8209,153.7006" fill="none" id="Barber-to-SPA" style="stroke:#181818;stroke-width:1;"/><polygon fill="#181818" points="342.22,158.5,350.8209,153.7015,345.2207,154.5005,344.4217,148.9004,342.22,158.5" style="stroke:#181818;stroke-width:1;"/><text fill="#000000" font-family="sans-serif" font-size="13" lengthAdjust="spacing" textLength="93.5264" x="371.38" y="124.8669">View schedule</text></g><!--link Owner to SPA--><g class="link" data-entity-1="Owner" data-entity-2="SPA" data-source-line="19" data-uid="lnk16" id="link_Owner_SPA"><path d="M515.22,82.25 C504.49,98.47 490.16,116.5 473.38,128.8 C445.96,148.89 415.9468,160.2016 386.2968,168.1216" fill="none" id="Owner-to-SPA" style="stroke:#181818;stroke-width:1;"/><polygon fill="#181818" points="380.5,169.67,390.2274,171.2119,385.3306,168.3797,388.1629,163.4829,380.5,169.67" style="stroke:#181818;stroke-width:1;"/><text fill="#000000" font-family="sans-serif" font-size="13" lengthAdjust="spacing" textLength="106.8247" x="491.38" y="124.8669">Admin &amp; reports</text></g><!--link SPA to Backend--><g class="link" data-entity-1="SPA" data-entity-2="Backend" data-source-line="20" data-uid="lnk17" id="link_SPA_Backend"><path d="M324.38,205.48 C324.38,227.27 324.38,254.09 324.38,275.83" fill="none" id="SPA-to-Backend" style="stroke:#181818;stroke-width:1;"/><polygon fill="#181818" points="324.38,281.83,328.38,272.83,324.38,276.83,320.38,272.83,324.38,281.83" style="stroke:#181818;stroke-width:1;"/><text fill="#000000" font-family="sans-serif" font-size="13" lengthAdjust="spacing" textLength="89.4639" x="325.38" y="248.1669">REST (HTTPS)</text></g><!--link Backend to PostgreSQL--><g class="link" data-entity-1="Backend" data-entity-2="PostgreSQL" data-source-line="21" data-uid="lnk18" id="link_Backend_PostgreSQL"><path d="M260.78,328.88 C237.73,337.54 211.65,347.88 188.38,358.39 C156.55,372.77 126.8413,388.3358 100.9013,402.5558" fill="none" id="Backend-to-PostgreSQL" style="stroke:#181818;stroke-width:1;"/><polygon fill="#181818" points="95.64,405.44,105.4548,404.6213,100.0244,403.0365,101.6092,397.6062,95.64,405.44" style="stroke:#181818;stroke-width:1;"/><text fill="#000000" font-family="sans-serif" font-size="13" lengthAdjust="spacing" textLength="48.7373" x="189.38" y="371.4569">ACID tx</text></g><!--link Backend to RabbitMQ--><g class="link" data-entity-1="Backend" data-entity-2="RabbitMQ" data-source-line="22" data-uid="lnk19" id="link_Backend_RabbitMQ"><path d="M298.74,328.78 C269.75,354.26 228.0771,390.8894 204.9871,411.1794" fill="none" id="Backend-to-RabbitMQ" style="stroke:#181818;stroke-width:1;"/><polygon fill="#181818" points="200.48,415.14,209.881,412.2039,204.2359,411.8395,204.6003,406.1944,200.48,415.14" style="stroke:#181818;stroke-width:1;"/><text fill="#000000" font-family="sans-serif" font-size="13" lengthAdjust="spacing" textLength="43.7988" x="264.38" y="371.4569">events</text></g><!--link Backend to SendGrid--><g class="link" data-entity-1="Backend" data-entity-2="SendGrid" data-source-line="23" data-uid="lnk20" id="link_Backend_SendGrid"><path d="M324.38,328.78 C324.38,350.56 324.38,377.39 324.38,399.13" fill="none" id="Backend-to-SendGrid" style="stroke:#181818;stroke-width:1;"/><polygon fill="#181818" points="324.38,405.13,328.38,396.13,324.38,400.13,320.38,396.13,324.38,405.13" style="stroke:#181818;stroke-width:1;"/><text fill="#000000" font-family="sans-serif" font-size="13" lengthAdjust="spacing" textLength="60.5503" x="325.38" y="371.4569">email API</text></g><!--link Backend to SMS--><g class="link" data-entity-1="Backend" data-entity-2="SMS" data-source-line="24" data-uid="lnk21" id="link_Backend_SMS"><path d="M358.93,328.78 C392.23,350.49 437.3243,379.9024 470.6743,401.6524" fill="none" id="Backend-to-SMS" style="stroke:#181818;stroke-width:1;"/><polygon fill="#181818" points="475.7,404.93,470.3466,396.6631,471.5119,402.1987,465.9764,403.364,475.7,404.93" style="stroke:#181818;stroke-width:1;"/><text fill="#000000" font-family="sans-serif" font-size="13" lengthAdjust="spacing" textLength="50.9082" x="429.38" y="371.4569">sms API</text></g><!--link Backend to Redis--><g class="link" data-entity-1="Backend" data-entity-2="Redis" data-source-line="25" data-uid="lnk22" id="link_Backend_Redis"><path d="M399.05,328.86 C459.38,347.7 546.15,376.1 620.38,405.39 C625.76,407.52 625.9074,407.5246 631.4174,409.8646" fill="none" id="Backend-to-Redis" style="stroke:#181818;stroke-width:1;"/><polygon fill="#181818" points="636.94,412.21,630.2196,405.0102,632.3378,410.2555,627.0925,412.3737,636.94,412.21" style="stroke:#181818;stroke-width:1;"/><text fill="#000000" font-family="sans-serif" font-size="13" lengthAdjust="spacing" textLength="38.4985" x="532.38" y="371.4569">cache</text></g><!--SRC=[PP71JiCm44Jl_efLaH0S2fmv89LIGIK2QH9wtyJRO9BOnNO84kBVMQT9QK6MRE-yiUKTkqhfBLfim5BXKPSrmPS0kCMYAgrfjPoRsbWusLo54OYnaknEpMksYM-1XUTgtZfl6h93cL11Mw-CLiuFqYtQVC-VEyrxRIJ1927M88rd4q0Nra5_uldYpVNF8IrxEko5H8yvEeBOE5zQIbUFuhsbbY31F5S-MecYDgs4IShsUwiaB5vszm_roBDErSemXKjO6uqbxPrHEfWIaig9iKMOJc_2C-6Qyp0Lduimd1E7JVyrRRZf3kjgghGJkoWEB6j57RZYbMHRa-Z3EQ0psIWDf_nBMsEz4q4DT0Y37SaYpU3i8SlYz5oCSh3ynXFkcI_lm7yU6SQu6DC7QU-Ew3uyfWsg6cRnyjWGfSnSu_wHFZDc1N9RFm00]--></g></svg>