<svg xmlns="http://www.w3.org/2000/svg" xmlns:xlink="http://www.w3.org/1999/xlink" contentStyleType="text/css" data-diagram-type="DESCRIPTION" height="349px" preserveAspectRatio="none" style="width:1285px;height:349px;background:#FFFFFF;" version="1.1" viewBox="0 0 1285 349" width="1285px" zoomAndPan="magnify"><defs/><g><!--cluster Monolith--><g class="cluster" data-entity="Monolith" data-source-line="3" data-uid="ent0003" id="cluster_Monolith"><path d="M8.5,116.29 L78.8916,116.29 A3.75,3.75 0 0 1 81.3916,118.79 L88.3916,138.5869 L782.5,138.5869 A2.5,2.5 0 0 1 785,141.0869 L785,340.24 A2.5,2.5 0 0 1 782.5,342.74 L8.5,342.74 A2.5,2.5 0 0 1 6,340.24 L6,118.79 A2.5,2.5 0 0 1 8.5,116.29" fill="none" style="stroke:#000000;stroke-width:1.5;"/><line style="stroke:#000000;stroke-width:1.5;" x1="6" x2="88.3916" y1="138.5869" y2="138.5869"/><text fill="#000000" font-family="sans-serif" font-size="14" font-weight="bold" lengthAdjust="spacing" textLength="69.3916" x="10" y="131.2851">Monolith</text></g><!--entity Auth--><g class="entity" data-entity="Auth" data-source-line="4" data-uid="ent0004" id="entity_Auth"><rect fill="#F1F1F1" height="46.2969" rx="2.5" ry="2.5" style="stroke:#181818;stroke-width:0.5;" width="72.8125" x="332.59" y="151.29"/><rect fill="#F1F1F1" height="10" style="stroke:#181818;stroke-width:0.5;" width="15" x="385.4025" y="156.29"/><rect fill="#F1F1F1" height="2" style="stroke:#181818;stroke-width:0.5;" width="4" x="383.4025" y="158.29"/><rect fill="#F1F1F1" height="2" style="stroke:#181818;stroke-width:0.5;" width="4" x="383.4025" y="162.29"/><text fill="#000000" font-family="sans-serif" font-size="14" lengthAdjust="spacing" textLength="32.8125" x="347.59" y="184.2851">Auth</text></g><!--entity UserProfile--><g class="entity" data-entity="UserProfile" data-source-line="5" data-uid="ent0005" id="entity_UserProfile"><rect fill="#F1F1F1" height="46.2969" rx="2.5" ry="2.5" style="stroke:#181818;stroke-width:0.5;" width="115.9951" x="22" y="151.29"/><rect fill="#F1F1F1" height="10" style="stroke:#181818;stroke-width:0.5;" width="15" x="117.9951" y="156.29"/><rect fill="#F1F1F1" height="2" style="stroke:#181818;stroke-width:0.5;" width="4" x="115.9951" y="158.29"/><rect fill="#F1F1F1" height="2" style="stroke:#181818;stroke-width:0.5;" width="4" x="115.9951" y="162.29"/><text fill="#000000" font-family="sans-serif" font-size="14" lengthAdjust="spacing" textLength="75.9951" x="37" y="184.2851">UserProfile</text></g><!--entity ServiceStaff--><g class="entity" data-entity="ServiceStaff" data-source-line="6" data-uid="ent0006" id="entity_ServiceStaff"><rect fill="#F1F1F1" height="46.2969" rx="2.5" ry="2.5" style="stroke:#181818;stroke-width:0.5;" width="124.5537" x="172.72" y="151.29"/><rect fill="#F1F1F1" height="10" style="stroke:#181818;stroke-width:0.5;" width="15" x="277.2737" y="156.29"/><rect fill="#F1F1F1" height="2" style="stroke:#181818;stroke-width:0.5;" width="4" x="275.2737" y="158.29"/><rect fill="#F1F1F1" height="2" style="stroke:#181818;stroke-width:0.5;" width="4" x="275.2737" y="162.29"/><text fill="#000000" font-family="sans-serif" font-size="14" lengthAdjust="spacing" textLength="84.5537" x="187.72" y="184.2851">ServiceStaff</text></g><!--entity AvailabilityBooking--><g class="entity" data-entity="AvailabilityBooking" data-source-line="7" data-uid="ent0007" id="entity_AvailabilityBooking"><rect fill="#F1F1F1" height="46.2969" rx="2.5" ry="2.5" style="stroke:#181818;stroke-width:0.5;" width="173.6221" x="440.19" y="151.29"/><rect fill="#F1F1F1" height="10" style="stroke:#181818;stroke-width:0.5;" width="15" x="593.8121" y="156.29"/><rect fill="#F1F1F1" height="2" style="stroke:#181818;stroke-width:0.5;" width="4" x="591.8121" y="158.29"/><rect fill="#F1F1F1" height="2" style="stroke:#181818;stroke-width:0.5;" width="4" x="591.8121" y="162.29"/><text fill="#000000" font-family="sans-serif" font-size="14" lengthAdjust="spacing" textLength="133.6221" x="455.19" y="184.2851">AvailabilityBooking</text></g><!--entity Notification--><g class="entity" data-entity="Notification" data-source-line="8" data-uid="ent0008" id="entity_Notification"><rect fill="#F1F1F1" height="46.2969" rx="2.5" ry="2.5" style="stroke:#181818;stroke-width:0.5;" width="120.3291" x="648.84" y="151.29"/><rect fill="#F1F1F1" height="10" style="stroke:#181818;stroke-width:0.5;" width="15" x="749.1691" y="156.29"/><rect fill="#F1F1F1" height="2" style="stroke:#181818;stroke-width:0.5;" width="4" x="747.1691" y="158.29"/><rect fill="#F1F1F1" height="2" style="stroke:#181818;stroke-width:0.5;" width="4" x="747.1691" y="162.29"/><text fill="#000000" font-family="sans-serif" font-size="14" lengthAdjust="spacing" textLength="80.3291" x="663.84" y="184.2851">Notification</text></g><!--entity Reporting--><g class="entity" data-entity="Reporting" data-source-line="9" data-uid="ent0009" id="entity_Reporting"><rect fill="#F1F1F1" height="46.2969" rx="2.5" ry="2.5" style="stroke:#181818;stroke-width:0.5;" width="108.6875" x="25.66" y="280.44"/><rect fill="#F1F1F1" height="10" style="stroke:#181818;stroke-width:0.5;" width="15" x="114.3475" y="285.44"/><rect fill="#F1F1F1" height="2" style="stroke:#181818;stroke-width:0.5;" width="4" x="112.3475" y="287.44"/><rect fill="#F1F1F1" height="2" style="stroke:#181818;stroke-width:0.5;" width="4" x="112.3475" y="291.44"/><text fill="#000000" font-family="sans-serif" font-size="14" lengthAdjust="spacing" textLength="68.6875" x="40.66" y="313.4351">Reporting</text></g><!--entity SPA--><g class="entity" data-entity="SPA" data-source-line="1" data-uid="ent0002" id="entity_SPA"><rect fill="#F1F1F1" height="46.2969" rx="2.5" ry="2.5" style="stroke:#181818;stroke-width:0.5;" width="66.9063" x="341.55" y="7"/><rect fill="#F1F1F1" height="10" style="stroke:#181818;stroke-width:0.5;" width="15" x="388.4563" y="12"/><rect fill="#F1F1F1" height="2" style="stroke:#181818;stroke-width:0.5;" width="4" x="386.4563" y="14"/><rect fill="#F1F1F1" height="2" style="stroke:#181818;stroke-width:0.5;" width="4" x="386.4563" y="18"/><text fill="#000000" font-family="sans-serif" font-size="14" lengthAdjust="spacing" textLength="26.9063" x="356.55" y="39.9951">SPA</text></g><!--entity PostgreSQL--><g class="entity" data-entity="PostgreSQL" data-source-line="12" data-uid="ent0010" id="entity_PostgreSQL"><path d="M800.62,290.94 C800.62,280.94 850.9965,280.94 850.9965,280.94 C850.9965,280.94 901.3729,280.94 901.3729,290.94 L901.3729,316.2369 C901.3729,326.2369 850.9965,326.2369 850.9965,326.2369 C850.9965,326.2369 800.62,326.2369 800.62,316.2369 L800.62,290.94" fill="#F1F1F1" style="stroke:#181818;stroke-width:0.5;"/><path d="M800.62,290.94 C800.62,300.94 850.9965,300.94 850.9965,300.94 C850.9965,300.94 901.3729,300.94 901.3729,290.94" fill="none" style="stroke:#181818;stroke-width:0.5;"/><text fill="#000000" font-family="sans-serif" font-size="14" lengthAdjust="spacing" textLength="80.7529" x="810.62" y="317.9351">PostgreSQL</text></g><!--entity RedisQueue--><g class="entity" data-entity="RedisQueue" data-source-line="13" data-uid="ent0011" id="entity_RedisQueue"><path d="M613.8,17 L708.2033,17 C713.2033,17 713.2033,30.1484 713.2033,30.1484 C713.2033,30.1484 713.2033,43.2969 708.2033,43.2969 L613.8,43.2969 C608.8,43.2969 608.8,30.1484 608.8,30.1484 C608.8,30.1484 608.8,17 613.8,17" fill="#F1F1F1" style="stroke:#181818;stroke-width:0.5;"/><path d="M708.2033,17 C703.2033,17 703.2033,30.1484 703.2033,30.1484 C703.2033,43.2969 708.2033,43.2969 708.2033,43.2969" fill="none" style="stroke:#181818;stroke-width:0.5;"/><text fill="#000000" font-family="sans-serif" font-size="14" lengthAdjust="spacing" textLength="84.4033" x="613.8" y="34.9951">RedisQueue</text></g><!--entity RedisCache--><g class="entity" data-entity="RedisCache" data-source-line="14" data-uid="ent0012" id="entity_RedisCache"><rect fill="#F1F1F1" height="46.2969" rx="2.5" ry="2.5" style="stroke:#181818;stroke-width:0.5;" width="121.9492" x="936.03" y="280.44"/><rect fill="#F1F1F1" height="10" style="stroke:#181818;stroke-width:0.5;" width="15" x="1037.9792" y="285.44"/><rect fill="#F1F1F1" height="2" style="stroke:#181818;stroke-width:0.5;" width="4" x="1035.9792" y="287.44"/><rect fill="#F1F1F1" height="2" style="stroke:#181818;stroke-width:0.5;" width="4" x="1035.9792" y="291.44"/><text fill="#000000" font-family="sans-serif" font-size="14" lengthAdjust="spacing" textLength="81.9492" x="951.03" y="313.4351">RedisCache</text></g><!--entity SendGrid--><g class="entity" data-entity="SendGrid" data-source-line="24" data-uid="ent0019" id="entity_SendGrid"><ellipse cx="1137" cy="303.59" fill="#F1F1F1" rx="8" ry="8" style="stroke:#181818;stroke-width:0.5;"/><text fill="#000000" font-family="sans-serif" font-size="14" lengthAdjust="spacing" textLength="64.6406" x="1104.6797" y="333.5851">SendGrid</text></g><!--entity Twilio--><g class="entity" data-entity="Twilio" data-source-line="25" data-uid="ent0021" id="entity_Twilio"><ellipse cx="1250" cy="303.59" fill="#F1F1F1" rx="8" ry="8" style="stroke:#181818;stroke-width:0.5;"/><text fill="#000000" font-family="sans-serif" font-size="14" lengthAdjust="spacing" textLength="40.2363" x="1229.8818" y="333.5851">Twilio</text></g><!--link SPA to AvailabilityBooking--><g class="link" data-entity-1="SPA" data-entity-2="AvailabilityBooking" data-source-line="16" data-uid="lnk13" id="link_SPA_AvailabilityBooking"><path d="M388.66,53.75 C397.9,68 410.94,86.29 425,100.29 C444.45,119.67 464.4464,134.4092 484.8264,147.7192" fill="none" id="SPA-to-AvailabilityBooking" style="stroke:#181818;stroke-width:1;"/><polygon fill="#181818" points="489.85,151,484.5019,142.7297,485.6637,148.266,480.1274,149.4278,489.85,151" style="stroke:#181818;stroke-width:1;"/><text fill="#000000" font-family="sans-serif" font-size="13" lengthAdjust="spacing" textLength="105.4346" x="426" y="96.3569">GET /availability</text></g><!--link SPA to Auth--><g class="link" data-entity-1="SPA" data-entity-2="Auth" data-source-line="17" data-uid="lnk14" id="link_SPA_Auth"><path d="M352.63,53.6 C345.57,62.17 338.67,72.49 335,83.29 C327.1,106.58 336.1735,127.8433 348.1535,145.9833" fill="none" id="SPA-to-Auth" style="stroke:#181818;stroke-width:1;"/><polygon fill="#181818" points="351.46,150.99,349.838,141.2756,348.7046,146.8178,343.1624,145.6843,351.46,150.99" style="stroke:#181818;stroke-width:1;"/><text fill="#000000" font-family="sans-serif" font-size="13" lengthAdjust="spacing" textLength="31.6685" x="336" y="96.3569">login</text></g><!--link AvailabilityBooking to RedisCache--><g class="link" data-entity-1="AvailabilityBooking" data-entity-2="RedisCache" data-source-line="19" data-uid="lnk15" id="link_AvailabilityBooking_RedisCache"><path d="M614.27,194.68 C619.92,195.73 625.53,196.71 631,197.59 C750.19,216.86 789.19,182.03 901,227.59 C929.99,239.4 953.2265,258.4495 971.3265,275.9495" fill="none" id="AvailabilityBooking-to-RedisCache" style="stroke:#181818;stroke-width:1;"/><polygon fill="#181818" points="975.64,280.12,971.9501,270.9885,972.0454,276.6445,966.3893,276.7399,975.64,280.12" style="stroke:#181818;stroke-width:1;"/><text fill="#000000" font-family="sans-serif" font-size="13" lengthAdjust="spacing" textLength="103.1113" x="931" y="240.6569">getAvailability()</text></g><!--link AvailabilityBooking to PostgreSQL--><g class="link" data-entity-1="AvailabilityBooking" data-entity-2="PostgreSQL" data-source-line="20" data-uid="lnk16" id="link_AvailabilityBooking_PostgreSQL"><path d="M587.44,198 C639.87,217.73 717.71,247.4 785,274.59 C789.96,276.6 789.5793,276.4177 794.7293,278.5577" fill="none" id="AvailabilityBooking-to-PostgreSQL" style="stroke:#181818;stroke-width:1;"/><polygon fill="#181818" points="800.27,280.86,793.4939,273.7127,795.6528,278.9414,790.4241,281.1003,800.27,280.86" style="stroke:#181818;stroke-width:1;"/><text fill="#000000" font-family="sans-serif" font-size="13" lengthAdjust="spacing" textLength="184.5327" x="708" y="240.6569">SELECT slots / write booking</text></g><!--link AvailabilityBooking to RedisQueue--><g class="link" data-entity-1="AvailabilityBooking" data-entity-2="RedisQueue" data-source-line="21" data-uid="lnk17" id="link_AvailabilityBooking_RedisQueue"><path d="M527.79,151.04 C529.6,131.19 535.04,102.46 551,83.29 C566.82,64.29 585.5182,53.8296 607.2882,45.8296" fill="none" id="AvailabilityBooking-to-RedisQueue" style="stroke:#181818;stroke-width:1;"/><polygon fill="#181818" points="612.92,43.76,603.0926,43.1098,608.2269,45.4846,605.852,50.6189,612.92,43.76" style="stroke:#181818;stroke-width:1;"/><text fill="#000000" font-family="sans-serif" font-size="13" lengthAdjust="spacing" textLength="165.2866" x="552" y="96.3569">enqueue BookingCreated</text></g><!--link RedisQueue to Notification--><g class="link" data-entity-1="RedisQueue" data-entity-2="Notification" data-source-line="23" data-uid="lnk18" id="link_RedisQueue_Notification"><path d="M685.83,43.68 C700.46,52.55 717.68,65.95 726,83.29 C736.33,104.83 731.0793,126.5633 723.0093,145.4333" fill="none" id="RedisQueue-to-Notification" style="stroke:#181818;stroke-width:1;"/><polygon fill="#181818" points="720.65,150.95,727.8667,144.2478,722.6161,146.3528,720.5111,141.1021,720.65,150.95" style="stroke:#181818;stroke-width:1;"/><text fill="#000000" font-family="sans-serif" font-size="13" lengthAdjust="spacing" textLength="167.3369" x="731" y="96.3569">consume BookingCreated</text></g><!--link Notification to SendGrid--><g class="link" data-entity-1="Notification" data-entity-2="SendGrid" data-source-line="24" data-uid="lnk20" id="link_Notification_SendGrid"><path d="M769.49,176.87 C865.27,180.21 1046.28,191.27 1098,227.59 C1121.54,244.12 1130.5643,273.4506 1134.1243,289.0406" fill="none" id="Notification-to-SendGrid" style="stroke:#181818;stroke-width:1;"/><polygon fill="#181818" points="1135.46,294.89,1137.356,285.2254,1134.3469,290.0155,1129.5568,287.0063,1135.46,294.89" style="stroke:#181818;stroke-width:1;"/><text fill="#000000" font-family="sans-serif" font-size="13" lengthAdjust="spacing" textLength="71.2461" x="1114" y="240.6569">send email</text></g><!--link Notification to Twilio--><g class="link" data-entity-1="Notification" data-entity-2="Twilio" data-source-line="25" data-uid="lnk22" id="link_Notification_Twilio"><path d="M769.32,176 C882.78,178 1122.92,187.06 1194,227.59 C1221.67,243.37 1237.3796,273.4599 1244.3496,289.2699" fill="none" id="Notification-to-Twilio" style="stroke:#181818;stroke-width:1;"/><polygon fill="#181818" points="1246.77,294.76,1246.7995,284.9112,1244.753,290.1849,1239.4793,288.1384,1246.77,294.76" style="stroke:#181818;stroke-width:1;"/><text fill="#000000" font-family="sans-serif" font-size="13" lengthAdjust="spacing" textLength="63.1147" x="1214" y="240.6569">send SMS</text></g><!--SRC=[VP1DJm8n443lyoicdFH0k7imGKAuW06A9-EXT6UN2Ki7src8CVvtkqLb3UXjElDUvyF9RY-UlAAP3m7srcrjHTYRYPUQTTF3Tq1y7ZQwUMc3fqXX7gJaclBRK3Ym8wEsB7DYUB1SspKd-Ur1PCk-olb7KIxPMMNnER6alGJDvG-0mgfTsqWubwXL8BEOmcj33U6I2ewBDWJtCsnEZgpR440Q7FlzUxpI6UzmCbxXm7PAPpxjb81QAlO0r-oMEdTAR4NQvMvk_zJEQoJDZAVZqGfZBHfnWCV0IhW-qVytpdkd7yYVZl45Z09PfGAW0xLEzyZ9Sk9ZixkmVb6jPiWNay15Kc8AaNPff4jiTKn3oZTaPkOJ]--></g></svg>