<svg xmlns="http://www.w3.org/2000/svg" xmlns:xlink="http://www.w3.org/1999/xlink" contentStyleType="text/css" data-diagram-type="DESCRIPTION" height="697px" preserveAspectRatio="none" style="width:543px;height:697px;background:#FFFFFF;" version="1.1" viewBox="0 0 543 697" width="543px" zoomAndPan="magnify"><defs/><g><!--entity UI--><g class="entity" data-entity="UI" data-source-line="6" data-uid="ent0002" id="entity_UI"><rect fill="#E0E0F8" height="52.5938" rx="2.5" ry="2.5" style="stroke:#000000;stroke-width:0.5;" width="91.4629" x="216.37" y="7"/><text fill="#000000" font-family="sans-serif" font-size="14" lengthAdjust="spacing" textLength="71.4629" x="226.37" y="29.9951">React SPA</text><text fill="#000000" font-family="sans-serif" font-size="14" lengthAdjust="spacing" textLength="71.1895" x="226.37" y="46.292">(Agent UI)</text></g><!--entity BFF--><g class="entity" data-entity="BFF" data-source-line="7" data-uid="ent0003" id="entity_BFF"><rect fill="#E0E0F8" height="52.5938" rx="2.5" ry="2.5" style="stroke:#000000;stroke-width:0.5;" width="92.6865" x="215.75" y="136.59"/><text fill="#000000" font-family="sans-serif" font-size="14" lengthAdjust="spacing" textLength="71.5996" x="225.75" y="159.5851">Agent BFF</text><text fill="#000000" font-family="sans-serif" font-size="14" lengthAdjust="spacing" textLength="72.6865" x="225.75" y="175.882">(GraphQL)</text></g><!--entity Customer--><g class="entity" data-entity="Customer" data-source-line="8" data-uid="ent0004" id="entity_Customer"><rect fill="#E0E0F8" height="52.5938" rx="2.5" ry="2.5" style="stroke:#000000;stroke-width:0.5;" width="144.1953" x="7" y="266.19"/><text fill="#000000" font-family="sans-serif" font-size="14" lengthAdjust="spacing" textLength="124.1953" x="17" y="289.1851">Customer Service</text><text fill="#000000" font-family="sans-serif" font-size="14" lengthAdjust="spacing" textLength="92.7773" x="17" y="305.482">(Spring Boot)</text></g><!--entity Interaction--><g class="entity" data-entity="Interaction" data-source-line="9" data-uid="ent0005" id="entity_Interaction"><rect fill="#E0E0F8" height="36.2969" rx="2.5" ry="2.5" style="stroke:#000000;stroke-width:0.5;" width="152.1455" x="186.02" y="274.34"/><text fill="#000000" font-family="sans-serif" font-size="14" lengthAdjust="spacing" textLength="132.1455" x="196.02" y="297.3351">Interaction Service</text></g><!--entity Policy--><g class="entity" data-entity="Policy" data-source-line="10" data-uid="ent0006" id="entity_Policy"><rect fill="#E0E0F8" height="36.2969" rx="2.5" ry="2.5" style="stroke:#000000;stroke-width:0.5;" width="164.2383" x="372.98" y="274.34"/><text fill="#000000" font-family="sans-serif" font-size="14" lengthAdjust="spacing" textLength="144.2383" x="382.98" y="297.3351">Quote/Policy Service</text></g><!--entity Kafka--><g class="entity" data-entity="Kafka" data-source-line="11" data-uid="ent0007" id="entity_Kafka"><rect fill="#E0E0F8" height="36.2969" rx="2.5" ry="2.5" style="stroke:#000000;stroke-width:0.5;" width="113.5156" x="205.34" y="395.78"/><text fill="#000000" font-family="sans-serif" font-size="14" lengthAdjust="spacing" textLength="93.5156" x="215.34" y="418.7751">Kafka Cluster</text></g><!--entity Hub--><g class="entity" data-entity="Hub" data-source-line="12" data-uid="ent0008" id="entity_Hub"><rect fill="#E0E0F8" height="52.5938" rx="2.5" ry="2.5" style="stroke:#000000;stroke-width:0.5;" width="129.8809" x="197.16" y="509.08"/><text fill="#000000" font-family="sans-serif" font-size="14" lengthAdjust="spacing" textLength="109.8809" x="207.16" y="532.0751">Integration Hub</text><text fill="#000000" font-family="sans-serif" font-size="14" lengthAdjust="spacing" textLength="69.6514" x="207.16" y="548.372">(Camel-K)</text></g><!--entity Legacy--><g class="entity" data-entity="Legacy" data-source-line="13" data-uid="ent0009" id="entity_Legacy"><path d="M200.2002,648.3477 C203.8779,641.5058 207.9173,641.4797 212.4582,647.5266 C214.9851,640.6536 221.686,640.5226 225.7779,645.8129 C230.0025,640.6392 233.861,639.682 238.2726,645.6024 C241.6255,638.8882 246.9903,639.427 251.1898,644.6891 C255.8259,639.5903 259.8705,639.6218 263.9624,645.3321 C267.3627,639.1859 271.5729,639.4605 275.8378,644.4064 C280.2633,639.4466 287.0825,639.8122 289.5335,646.6908 C292.7568,641.2351 297.064,641.1865 300.9717,645.9226 C304.4416,639.0785 310.6291,639.4194 313.8508,646.1579 C319.2924,640.9723 324.8387,640.511 328.0304,648.5671 C334.7999,652.5845 337.4006,657.6363 330.1529,663.629 C335.7827,670.1628 336.2719,675.6594 326.8052,678.8791 C323.0041,685.098 318.1017,683.7689 314.8849,678.2842 C312.2508,684.5586 307.6479,686.4055 302.4389,681.0366 C298.8569,688.5933 292.2676,687.8778 288.4164,681.3037 C284.9484,688.2286 280.9126,688.0512 276.1823,682.5462 C272.8007,689.2732 266.6561,690.0285 262.6538,683.1641 C257.8434,687.9127 253.2635,688.9619 249.6812,681.8238 C245.6006,687.5278 240.5802,687.7608 236.6418,681.6665 C233.4942,687.2167 228.0721,686.2071 225.4913,681.0748 C220.3891,687.7053 215.7464,686.3267 212.057,679.6487 C207.9026,685.0479 202.4483,685.4033 199.2285,678.6611 C191.5852,676.6875 187.0242,670.1984 193.9751,663.2499 C188.2955,654.9051 191.2947,650.5998 200.2002,648.3477" fill="#F1F1F1" style="stroke:#181818;stroke-width:0.5;"/><text fill="#000000" font-family="sans-serif" font-size="14" lengthAdjust="spacing" textLength="113.8115" x="205.19" y="666.6651">Legacy Systems</text></g><!--link UI to BFF--><g class="link" data-entity-1="UI" data-entity-2="BFF" data-source-line="14" data-uid="lnk10" id="link_UI_BFF"><path d="M262.1,59.81 C262.1,82.07 262.1,108.18 262.1,130.42" fill="none" id="UI-to-BFF" style="stroke:#181818;stroke-width:1;"/><polygon fill="#181818" points="262.1,136.42,266.1,127.42,262.1,131.42,258.1,127.42,262.1,136.42" style="stroke:#181818;stroke-width:1;"/><text fill="#000000" font-family="sans-serif" font-size="13" lengthAdjust="spacing" textLength="41.7485" x="263.1" y="102.6569">HTTPS</text></g><!--link BFF to Customer--><g class="link" data-entity-1="BFF" data-entity-2="Customer" data-source-line="15" data-uid="lnk11" id="link_BFF_Customer"><path d="M215.34,185.21 C196.58,194.59 175.17,206.39 157.1,219.19 C137.66,232.95 122.2412,246.9559 107.5312,261.6759" fill="none" id="BFF-to-Customer" style="stroke:#181818;stroke-width:1;"/><polygon fill="#181818" points="103.29,265.92,112.4812,262.3813,106.8243,262.3833,106.8224,256.7264,103.29,265.92" style="stroke:#181818;stroke-width:1;"/><text fill="#000000" font-family="sans-serif" font-size="13" lengthAdjust="spacing" textLength="95.1704" x="158.1" y="232.2569">REST/GraphQL</text></g><!--link BFF to Interaction--><g class="link" data-entity-1="BFF" data-entity-2="Interaction" data-source-line="16" data-uid="lnk12" id="link_BFF_Interaction"><path d="M262.1,189.41 C262.1,214.57 262.1,246.34 262.1,268.19" fill="none" id="BFF-to-Interaction" style="stroke:#181818;stroke-width:1;"/><polygon fill="#181818" points="262.1,274.19,266.1,265.19,262.1,269.19,258.1,265.19,262.1,274.19" style="stroke:#181818;stroke-width:1;"/><text fill="#000000" font-family="sans-serif" font-size="13" lengthAdjust="spacing" textLength="33.4395" x="263.1" y="232.2569">REST</text></g><!--link BFF to Policy--><g class="link" data-entity-1="BFF" data-entity-2="Policy" data-source-line="17" data-uid="lnk13" id="link_BFF_Policy"><path d="M300.69,189.41 C338.64,214.5 390.5552,248.8107 423.6452,270.6907" fill="none" id="BFF-to-Policy" style="stroke:#181818;stroke-width:1;"/><polygon fill="#181818" points="428.65,274,423.349,265.6995,424.4793,271.2422,418.9365,272.3726,428.65,274" style="stroke:#181818;stroke-width:1;"/><text fill="#000000" font-family="sans-serif" font-size="13" lengthAdjust="spacing" textLength="33.4395" x="371.1" y="232.2569">REST</text></g><!--link Customer to Kafka--><g class="link" data-entity-1="Customer" data-entity-2="Kafka" data-source-line="18" data-uid="lnk14" id="link_Customer_Kafka"><path d="M103.01,319.11 C117.87,334.03 137.93,352.47 158.1,365.78 C175.72,377.41 191.157,385.1856 209.627,393.0256" fill="none" id="Customer-to-Kafka" style="stroke:#181818;stroke-width:1;"/><polygon fill="#181818" points="215.15,395.37,208.4284,388.1714,210.5475,393.4164,205.3025,395.5355,215.15,395.37" style="stroke:#181818;stroke-width:1;"/><text fill="#000000" font-family="sans-serif" font-size="13" lengthAdjust="spacing" textLength="94.9102" x="159.1" y="361.8469">publish events</text></g><!--link Interaction to Kafka--><g class="link" data-entity-1="Interaction" data-entity-2="Kafka" data-source-line="19" data-uid="lnk15" id="link_Interaction_Kafka"><path d="M262.1,311.11 C262.1,333.82 262.1,367.06 262.1,389.62" fill="none" id="Interaction-to-Kafka" style="stroke:#181818;stroke-width:1;"/><polygon fill="#181818" points="262.1,395.62,266.1,386.62,262.1,390.62,258.1,386.62,262.1,395.62" style="stroke:#181818;stroke-width:1;"/></g><!--link Policy to Kafka--><g class="link" data-entity-1="Policy" data-entity-2="Kafka" data-source-line="20" data-uid="lnk16" id="link_Policy_Kafka"><path d="M426.62,311.11 C390.03,333.76 331.9819,369.6824 295.4819,392.2724" fill="none" id="Policy-to-Kafka" style="stroke:#181818;stroke-width:1;"/><polygon fill="#181818" points="290.38,395.43,300.1379,394.0949,294.6316,392.7987,295.9278,387.2923,290.38,395.43" style="stroke:#181818;stroke-width:1;"/></g><!--link Kafka to Hub--><g class="link" data-entity-1="Kafka" data-entity-2="Hub" data-source-line="21" data-uid="lnk17" id="link_Kafka_Hub"><path d="M262.1,432.56 C262.1,452.67 262.1,479.76 262.1,502.73" fill="none" id="Kafka-to-Hub" style="stroke:#181818;stroke-width:1;"/><polygon fill="#181818" points="262.1,508.73,266.1,499.73,262.1,503.73,258.1,499.73,262.1,508.73" style="stroke:#181818;stroke-width:1;"/><text fill="#000000" font-family="sans-serif" font-size="13" lengthAdjust="spacing" textLength="59.0142" x="263.1" y="475.1469">consume</text></g><!--link Hub to Legacy--><g class="link" data-entity-1="Hub" data-entity-2="Legacy" data-source-line="22" data-uid="lnk18" id="link_Hub_Legacy"><path d="M262.1,562.16 C262.1,584.66 262.1,610.97 262.1,632.41" fill="none" id="Hub-to-Legacy" style="stroke:#181818;stroke-width:1;"/><polygon fill="#181818" points="262.1,638.41,266.1,629.41,262.1,633.41,258.1,629.41,262.1,638.41" style="stroke:#181818;stroke-width:1;"/><text fill="#000000" font-family="sans-serif" font-size="13" lengthAdjust="spacing" textLength="116.9683" x="263.1" y="604.7369">MQ/SOAP/Flat-File</text></g><!--SRC=[NP4nRy8m48Lt_ueJNTeX2cELeHA9I45GDH3OkfZa216E7TaE5Qhwtsl78PXEiT_xxjsTeyurRwca3KWiDEKLG_WX034jpfKK7IyJmOI4f_bqFarVhIDaYTAfCJCO-ILgJ54dMehlcbTmf4mXkQTEjaWB3Nas- -BFimgvXltoPG9KcQ_FEIzEKyEzIzgUDck76SddaavfqQ247EMbBj3WUIjjwrW8xKfkZ5-tv1gb6QKM_5RQivxkuvjEQ0mpmUhY-i0xoKTNz7Yca33J56NFzCh_vfMaVVD5Tp0p9xH15gpSl4OY1HDT2PCrLjHsl9gmHlMkayX-2K7mPfy38bZiTbbExDbguvj4i9tdkt1ulz7tTtV8Q0qR3keOP2stLmHjTs2rEW5Up1zIn0yRCJBat0LNRUzcEvDI2Aww1eczMNLOD8AFJPX_ph8mPLG7QStm3m00]--></g></svg>