<svg xmlns="http://www.w3.org/2000/svg" xmlns:xlink="http://www.w3.org/1999/xlink" contentStyleType="text/css" data-diagram-type="DESCRIPTION" height="409px" preserveAspectRatio="none" style="width:1526px;height:409px;background:#FFFFFF;" version="1.1" viewBox="0 0 1526 409" width="1526px" zoomAndPan="magnify"><defs/><g><!--cluster Services--><g class="cluster" data-entity="Services" data-source-line="5" data-uid="ent0003" id="cluster_Services"><path d="M167.02,77.29 L234.5542,77.29 A3.75,3.75 0 0 1 237.0542,79.79 L244.0542,99.5869 L1322.02,99.5869 A2.5,2.5 0 0 1 1324.52,102.0869 L1324.52,399.98 A2.5,2.5 0 0 1 1322.02,402.48 L167.02,402.48 A2.5,2.5 0 0 1 164.52,399.98 L164.52,79.79 A2.5,2.5 0 0 1 167.02,77.29" fill="none" style="stroke:#000000;stroke-width:1.5;"/><line style="stroke:#000000;stroke-width:1.5;" x1="164.52" x2="244.0542" y1="99.5869" y2="99.5869"/><text fill="#000000" font-family="sans-serif" font-size="14" font-weight="bold" lengthAdjust="spacing" textLength="66.5342" x="168.52" y="92.2851">Services</text></g><!--entity IS--><g class="entity" data-entity="IS" data-source-line="6" data-uid="ent0004" id="entity_IS"><rect fill="#F1F1F1" height="46.2969" rx="2.5" ry="2.5" style="stroke:#181818;stroke-width:0.5;" width="149.8467" x="180.6" y="112.29"/><rect fill="#F1F1F1" height="10" style="stroke:#181818;stroke-width:0.5;" width="15" x="310.4467" y="117.29"/><rect fill="#F1F1F1" height="2" style="stroke:#181818;stroke-width:0.5;" width="4" x="308.4467" y="119.29"/><rect fill="#F1F1F1" height="2" style="stroke:#181818;stroke-width:0.5;" width="4" x="308.4467" y="123.29"/><text fill="#000000" font-family="sans-serif" font-size="14" lengthAdjust="spacing" textLength="109.8467" x="195.6" y="145.2851">Identity Service</text></g><!--entity CS--><g class="entity" data-entity="CS" data-source-line="7" data-uid="ent0005" id="entity_CS"><rect fill="#F1F1F1" height="46.2969" rx="2.5" ry="2.5" style="stroke:#181818;stroke-width:0.5;" width="164.1953" x="180.42" y="226.24"/><rect fill="#F1F1F1" height="10" style="stroke:#181818;stroke-width:0.5;" width="15" x="324.6153" y="231.24"/><rect fill="#F1F1F1" height="2" style="stroke:#181818;stroke-width:0.5;" width="4" x="322.6153" y="233.24"/><rect fill="#F1F1F1" height="2" style="stroke:#181818;stroke-width:0.5;" width="4" x="322.6153" y="237.24"/><text fill="#000000" font-family="sans-serif" font-size="14" lengthAdjust="spacing" textLength="124.1953" x="195.42" y="259.2351">Customer Service</text></g><!--entity RS--><g class="entity" data-entity="RS" data-source-line="8" data-uid="ent0006" id="entity_RS"><rect fill="#F1F1F1" height="46.2969" rx="2.5" ry="2.5" style="stroke:#181818;stroke-width:0.5;" width="173.4648" x="379.79" y="226.24"/><rect fill="#F1F1F1" height="10" style="stroke:#181818;stroke-width:0.5;" width="15" x="533.2548" y="231.24"/><rect fill="#F1F1F1" height="2" style="stroke:#181818;stroke-width:0.5;" width="4" x="531.2548" y="233.24"/><rect fill="#F1F1F1" height="2" style="stroke:#181818;stroke-width:0.5;" width="4" x="531.2548" y="237.24"/><text fill="#000000" font-family="sans-serif" font-size="14" lengthAdjust="spacing" textLength="133.4648" x="394.79" y="259.2351">Restaurant Service</text></g><!--entity OS--><g class="entity" data-entity="OS" data-source-line="9" data-uid="ent0007" id="entity_OS"><rect fill="#F1F1F1" height="46.2969" rx="2.5" ry="2.5" style="stroke:#181818;stroke-width:0.5;" width="136.2227" x="785.41" y="340.18"/><rect fill="#F1F1F1" height="10" style="stroke:#181818;stroke-width:0.5;" width="15" x="901.6327" y="345.18"/><rect fill="#F1F1F1" height="2" style="stroke:#181818;stroke-width:0.5;" width="4" x="899.6327" y="347.18"/><rect fill="#F1F1F1" height="2" style="stroke:#181818;stroke-width:0.5;" width="4" x="899.6327" y="351.18"/><text fill="#000000" font-family="sans-serif" font-size="14" lengthAdjust="spacing" textLength="96.2227" x="800.41" y="373.1751">Order Service</text></g><!--entity DS--><g class="entity" data-entity="DS" data-source-line="10" data-uid="ent0008" id="entity_DS"><rect fill="#F1F1F1" height="46.2969" rx="2.5" ry="2.5" style="stroke:#181818;stroke-width:0.5;" width="139.2715" x="957.88" y="112.29"/><rect fill="#F1F1F1" height="10" style="stroke:#181818;stroke-width:0.5;" width="15" x="1077.1515" y="117.29"/><rect fill="#F1F1F1" height="2" style="stroke:#181818;stroke-width:0.5;" width="4" x="1075.1515" y="119.29"/><rect fill="#F1F1F1" height="2" style="stroke:#181818;stroke-width:0.5;" width="4" x="1075.1515" y="123.29"/><text fill="#000000" font-family="sans-serif" font-size="14" lengthAdjust="spacing" textLength="99.2715" x="972.88" y="145.2851">Driver Service</text></g><!--entity PS--><g class="entity" data-entity="PS" data-source-line="11" data-uid="ent0009" id="entity_PS"><rect fill="#F1F1F1" height="46.2969" rx="2.5" ry="2.5" style="stroke:#181818;stroke-width:0.5;" width="158.1113" x="588.46" y="226.24"/><rect fill="#F1F1F1" height="10" style="stroke:#181818;stroke-width:0.5;" width="15" x="726.5713" y="231.24"/><rect fill="#F1F1F1" height="2" style="stroke:#181818;stroke-width:0.5;" width="4" x="724.5713" y="233.24"/><rect fill="#F1F1F1" height="2" style="stroke:#181818;stroke-width:0.5;" width="4" x="724.5713" y="237.24"/><text fill="#000000" font-family="sans-serif" font-size="14" lengthAdjust="spacing" textLength="118.1113" x="603.46" y="259.2351">Payment Service</text></g><!--entity NS--><g class="entity" data-entity="NS" data-source-line="12" data-uid="ent0010" id="entity_NS"><rect fill="#F1F1F1" height="46.2969" rx="2.5" ry="2.5" style="stroke:#181818;stroke-width:0.5;" width="176.5205" x="1132.26" y="112.29"/><rect fill="#F1F1F1" height="10" style="stroke:#181818;stroke-width:0.5;" width="15" x="1288.7805" y="117.29"/><rect fill="#F1F1F1" height="2" style="stroke:#181818;stroke-width:0.5;" width="4" x="1286.7805" y="119.29"/><rect fill="#F1F1F1" height="2" style="stroke:#181818;stroke-width:0.5;" width="4" x="1286.7805" y="123.29"/><text fill="#000000" font-family="sans-serif" font-size="14" lengthAdjust="spacing" textLength="136.5205" x="1147.26" y="145.2851">Notification Service</text></g><!--entity RepoS--><g class="entity" data-entity="RepoS" data-source-line="13" data-uid="ent0011" id="entity_RepoS"><rect fill="#F1F1F1" height="46.2969" rx="2.5" ry="2.5" style="stroke:#181818;stroke-width:0.5;" width="164.8789" x="758.08" y="112.29"/><rect fill="#F1F1F1" height="10" style="stroke:#181818;stroke-width:0.5;" width="15" x="902.9589" y="117.29"/><rect fill="#F1F1F1" height="2" style="stroke:#181818;stroke-width:0.5;" width="4" x="900.9589" y="119.29"/><rect fill="#F1F1F1" height="2" style="stroke:#181818;stroke-width:0.5;" width="4" x="900.9589" y="123.29"/><text fill="#000000" font-family="sans-serif" font-size="14" lengthAdjust="spacing" textLength="124.8789" x="773.08" y="145.2851">Reporting Service</text></g><!--entity MA--><g class="entity" data-entity="MA" data-source-line="14" data-uid="ent0012" id="entity_MA"><rect fill="#F1F1F1" height="46.2969" rx="2.5" ry="2.5" style="stroke:#181818;stroke-width:0.5;" width="160.3193" x="365.36" y="112.29"/><rect fill="#F1F1F1" height="10" style="stroke:#181818;stroke-width:0.5;" width="15" x="505.6793" y="117.29"/><rect fill="#F1F1F1" height="2" style="stroke:#181818;stroke-width:0.5;" width="4" x="503.6793" y="119.29"/><rect fill="#F1F1F1" height="2" style="stroke:#181818;stroke-width:0.5;" width="4" x="503.6793" y="123.29"/><text fill="#000000" font-family="sans-serif" font-size="14" lengthAdjust="spacing" textLength="120.3193" x="380.36" y="145.2851">Mapping Adapter</text></g><!--entity PA--><g class="entity" data-entity="PA" data-source-line="15" data-uid="ent0013" id="entity_PA"><rect fill="#F1F1F1" height="46.2969" rx="2.5" ry="2.5" style="stroke:#181818;stroke-width:0.5;" width="162.1582" x="560.44" y="112.29"/><rect fill="#F1F1F1" height="10" style="stroke:#181818;stroke-width:0.5;" width="15" x="702.5982" y="117.29"/><rect fill="#F1F1F1" height="2" style="stroke:#181818;stroke-width:0.5;" width="4" x="700.5982" y="119.29"/><rect fill="#F1F1F1" height="2" style="stroke:#181818;stroke-width:0.5;" width="4" x="700.5982" y="123.29"/><text fill="#000000" font-family="sans-serif" font-size="14" lengthAdjust="spacing" textLength="122.1582" x="575.44" y="145.2851">Payment Adapter</text></g><!--entity APIGW--><g class="entity" data-entity="APIGW" data-source-line="3" data-uid="ent0002" id="entity_APIGW"><polygon fill="#F1F1F1" points="127.3,16,137.3,6,255.7434,6,255.7434,42.2969,245.7434,52.2969,127.3,52.2969,127.3,16" style="stroke:#181818;stroke-width:0.5;"/><line style="stroke:#181818;stroke-width:0.5;" x1="245.7434" x2="255.7434" y1="16" y2="6"/><line style="stroke:#181818;stroke-width:0.5;" x1="127.3" x2="245.7434" y1="16" y2="16"/><line style="stroke:#181818;stroke-width:0.5;" x1="245.7434" x2="245.7434" y1="16" y2="52.2969"/><text fill="#000000" font-family="sans-serif" font-size="14" lengthAdjust="spacing" textLength="88.4434" x="142.3" y="38.9951">API Gateway</text></g><!--entity EB--><g class="entity" data-entity="EB" data-source-line="18" data-uid="ent0014" id="entity_EB"><path d="M1340.73,228.59 C1340.73,218.59 1412.5166,218.59 1412.5166,218.59 C1412.5166,218.59 1484.3032,218.59 1484.3032,228.59 L1484.3032,270.1838 C1484.3032,280.1838 1412.5166,280.1838 1412.5166,280.1838 C1412.5166,280.1838 1340.73,280.1838 1340.73,270.1838 L1340.73,228.59" fill="#F1F1F1" style="stroke:#181818;stroke-width:0.5;"/><path d="M1340.73,228.59 C1340.73,238.59 1412.5166,238.59 1412.5166,238.59 C1412.5166,238.59 1484.3032,238.59 1484.3032,228.59" fill="none" style="stroke:#181818;stroke-width:0.5;"/><text fill="#000000" font-family="sans-serif" font-size="14" lengthAdjust="spacing" textLength="90.959" x="1350.73" y="255.5851">Event Broker</text><text fill="#000000" font-family="sans-serif" font-size="14" lengthAdjust="spacing" textLength="123.5732" x="1350.73" y="271.882">(Kafka/RabbitMQ)</text></g><!--link APIGW to IS--><g class="link" data-entity-1="APIGW" data-entity-2="IS" data-source-line="20" data-uid="lnk15" id="link_APIGW_IS"><path d="M205.41,52.77 C216.14,70.27 227.7911,89.2565 238.5211,106.7365" fill="none" id="APIGW-to-IS" style="stroke:#181818;stroke-width:1;"/><polygon fill="#181818" points="241.66,111.85,240.3607,102.0872,239.0443,107.5888,233.5427,106.2724,241.66,111.85" style="stroke:#181818;stroke-width:1;"/></g><!--link APIGW to CS--><g class="link" data-entity-1="APIGW" data-entity-2="CS" data-source-line="21" data-uid="lnk16" id="link_APIGW_CS"><path d="M126.96,37.68 C87.62,43.75 42.65,53.86 30.52,69.29 C6,100.5 8.09,125.85 30.52,158.59 C63.91,207.31 121.9309,228.4517 174.2409,238.6517" fill="none" id="APIGW-to-CS" style="stroke:#181818;stroke-width:1;"/><polygon fill="#181818" points="180.13,239.8,172.0619,234.1515,175.2224,238.8431,170.5308,242.0036,180.13,239.8" style="stroke:#181818;stroke-width:1;"/></g><!--link APIGW to RS--><g class="link" data-entity-1="APIGW" data-entity-2="RS" data-source-line="22" data-uid="lnk17" id="link_APIGW_RS"><path d="M127.02,47.04 C116.93,52.51 107.78,59.74 101.52,69.29 C79.76,102.48 76.8,127.54 101.52,158.59 C175.66,251.71 247.27,188.85 362.52,218.59 C371.25,220.84 374.5766,221.7024 383.6266,224.2024" fill="none" id="APIGW-to-RS" style="stroke:#181818;stroke-width:1;"/><polygon fill="#181818" points="389.41,225.8,381.8,219.548,384.5905,224.4686,379.6698,227.2592,389.41,225.8" style="stroke:#181818;stroke-width:1;"/></g><!--link APIGW to OS--><g class="link" data-entity-1="APIGW" data-entity-2="OS" data-source-line="23" data-uid="lnk18" id="link_APIGW_OS"><path d="M255.97,29.9 C481.48,29.37 1226.87,30.6 1326.52,69.29 C1421.82,106.3 1458.69,125.76 1501.52,218.59 C1512.99,243.45 1519.62,259.64 1501.52,280.18 C1463.59,323.23 1086.6601,349.2051 927.9101,358.3451" fill="none" id="APIGW-to-OS" style="stroke:#181818;stroke-width:1;"/><polygon fill="#181818" points="921.92,358.69,931.135,362.1661,926.9117,358.4026,930.6752,354.1793,921.92,358.69" style="stroke:#181818;stroke-width:1;"/></g><!--link APIGW to DS--><g class="link" data-entity-1="APIGW" data-entity-2="DS" data-source-line="24" data-uid="lnk19" id="link_APIGW_DS"><path d="M256.07,31.37 C426.01,34.9 877.12,46.33 940.52,69.29 C965.36,78.29 984.633,92.8692 1001.003,107.9192" fill="none" id="APIGW-to-DS" style="stroke:#181818;stroke-width:1;"/><polygon fill="#181818" points="1005.42,111.98,1001.5017,102.9441,1001.7392,108.596,996.0873,108.8334,1005.42,111.98" style="stroke:#181818;stroke-width:1;"/></g><!--link APIGW to PS--><g class="link" data-entity-1="APIGW" data-entity-2="PS" data-source-line="25" data-uid="lnk20" id="link_APIGW_PS"><path d="M172.05,52.44 C168.55,57.65 165.41,63.4 163.52,69.29 C151.4,107.08 137.58,128.55 163.52,158.59 C223.27,227.79 481.35,198.44 570.52,218.59 C579.63,220.65 583.3467,221.4964 592.6767,224.1364" fill="none" id="APIGW-to-PS" style="stroke:#181818;stroke-width:1;"/><polygon fill="#181818" points="598.45,225.77,590.8791,219.4707,593.6389,224.4087,588.7009,227.1685,598.45,225.77" style="stroke:#181818;stroke-width:1;"/></g><!--link CS to OS--><g class="link" data-entity-1="CS" data-entity-2="OS" data-source-line="26" data-uid="lnk21" id="link_CS_OS"><path d="M334.61,273.02 C343.95,275.61 353.43,278.08 362.52,280.18 C511.76,314.76 683.7731,340.0436 779.1331,352.8136" fill="none" id="CS-to-OS" style="stroke:#181818;stroke-width:1;"/><polygon fill="#181818" points="785.08,353.61,776.6905,348.4508,780.1242,352.9464,775.6287,356.3801,785.08,353.61" style="stroke:#181818;stroke-width:1;"/></g><!--link RS to OS--><g class="link" data-entity-1="RS" data-entity-2="OS" data-source-line="27" data-uid="lnk22" id="link_RS_OS"><path d="M544.37,272.91 C614.89,293.3 712.0161,321.4033 779.4161,340.8933" fill="none" id="RS-to-OS" style="stroke:#181818;stroke-width:1;"/><polygon fill="#181818" points="785.18,342.56,777.6454,336.2173,780.3768,341.1711,775.4231,343.9025,785.18,342.56" style="stroke:#181818;stroke-width:1;"/></g><!--link OS to EB--><g class="link" data-entity-1="OS" data-entity-2="EB" data-source-line="28" data-uid="lnk23" id="link_OS_EB"><path d="M922.07,353.74 C1014.39,341.42 1183.36,316.16 1324.52,280.18 C1329.68,278.87 1329.2171,279.1042 1334.5171,277.5342" fill="none" id="OS-to-EB" style="stroke:#181818;stroke-width:1;"/><polygon fill="#181818" points="1340.27,275.83,1330.5045,274.551,1335.4759,277.2501,1332.7768,282.2215,1340.27,275.83" style="stroke:#181818;stroke-width:1;"/></g><!--link DS to EB--><g class="link" data-entity-1="DS" data-entity-2="EB" data-source-line="29" data-uid="lnk24" id="link_DS_EB"><path d="M1097.45,154.59 C1157.85,170.54 1247.3,194.86 1324.52,218.59 C1329.76,220.2 1329.4493,220.0695 1334.8793,221.8195" fill="none" id="DS-to-EB" style="stroke:#181818;stroke-width:1;"/><polygon fill="#181818" points="1340.59,223.66,1333.2509,217.0921,1335.831,222.1263,1330.7969,224.7064,1340.59,223.66" style="stroke:#181818;stroke-width:1;"/></g><!--link EB to NS--><g class="link" data-entity-1="EB" data-entity-2="NS" data-source-line="30" data-uid="lnk25" id="link_EB_NS"><path d="M1360.74,218.19 C1328.65,199.49 1293.3138,178.8812 1264.0938,161.8512" fill="none" id="EB-to-NS" style="stroke:#181818;stroke-width:1;"/><polygon fill="#181818" points="1258.91,158.83,1264.6716,166.8177,1263.2299,161.3477,1268.6999,159.906,1258.91,158.83" style="stroke:#181818;stroke-width:1;"/></g><!--link RepoS to EB--><g class="link" data-entity-1="RepoS" data-entity-2="EB" data-source-line="31" data-uid="lnk26" id="link_RepoS_EB"><path d="M923.38,155.21 C929.17,156.4 934.93,157.53 940.52,158.59 C1110.26,190.62 1156.76,177.41 1324.52,218.59 C1329.69,219.86 1329.2275,219.6288 1334.5375,221.1688" fill="none" id="RepoS-to-EB" style="stroke:#181818;stroke-width:1;"/><polygon fill="#181818" points="1340.3,222.84,1332.7703,216.4914,1335.4979,221.4473,1330.542,224.1748,1340.3,222.84" style="stroke:#181818;stroke-width:1;"/></g><!--link MA to RS--><g class="link" data-entity-1="MA" data-entity-2="RS" data-source-line="32" data-uid="lnk27" id="link_MA_RS"><path d="M450.8257,164.7272 C454.4857,184.2472 457.5637,200.6329 461.2237,220.1429" fill="none" id="MA-RS" style="stroke:#181818;stroke-width:1;"/><polygon fill="#181818" points="449.72,158.83,447.4471,168.413,450.6414,163.7444,455.3101,166.9387,449.72,158.83" style="stroke:#181818;stroke-width:1;"/><polygon fill="#181818" points="462.33,226.04,464.602,216.4568,461.4081,221.1257,456.7392,217.9318,462.33,226.04" style="stroke:#181818;stroke-width:1;"/></g><!--link PA to PS--><g class="link" data-entity-1="PA" data-entity-2="PS" data-source-line="33" data-uid="lnk28" id="link_PA_PS"><path d="M648.0764,164.6747 C652.6064,184.1947 656.443,200.6855 660.973,220.1955" fill="none" id="PA-PS" style="stroke:#181818;stroke-width:1;"/><polygon fill="#181818" points="646.72,158.83,644.8581,168.5013,647.8503,163.7006,652.651,166.6928,646.72,158.83" style="stroke:#181818;stroke-width:1;"/><polygon fill="#181818" points="662.33,226.04,664.1908,216.3685,661.1991,221.1696,656.3981,218.1779,662.33,226.04" style="stroke:#181818;stroke-width:1;"/></g><!--SRC=[NP1FJuGm4CNl_HJDdlImCV5iJFYN3J4i5GuUrCCiT3SDIzkK0KECtzrIOItStflVj3FpkaP83GPQMgbMAyabbZXUEUtRwoCXKjMSxWAMqWCW_u9nHw6ZrX_U2D5GDN3XjEHc41Nlw3UXz3sjxHy2nwNyERr8omb5VOUgvMQ58eSAtY7q1YIkOE5WRkhDezpLOoE63OWTO32sVFCLS-IeK9n51IYKNE7Zl8PM1eMyhBUmLOSpq7g2GGqQkN4m2_o9Fc41-I6a1eGJT3R6P9WwGgCQRZxatGkS6tWeu7GIcBtUksIJa12NBjtldwVK_atacy8tkMzYtzYRetBfAMug_rDsM7nJIUYKZS5TkvIpW3xD0zaiMVaB]--></g></svg>