<svg xmlns="http://www.w3.org/2000/svg" xmlns:xlink="http://www.w3.org/1999/xlink" contentStyleType="text/css" data-diagram-type="DESCRIPTION" height="119px" preserveAspectRatio="none" style="width:1754px;height:119px;background:#FFFFFF;" version="1.1" viewBox="0 0 1754 119" width="1754px" zoomAndPan="magnify"><defs/><g><!--entity SPA--><g class="entity" data-entity="SPA" data-source-line="1" data-uid="ent0002" id="entity_SPA"><rect fill="#F1F1F1" height="36.2969" rx="2.5" ry="2.5" style="stroke:#181818;stroke-width:0.5;" width="114.4658" x="7" y="61.41"/><text fill="#000000" font-family="sans-serif" font-size="14" lengthAdjust="spacing" textLength="94.4658" x="17" y="84.4051">SPA Frontend</text></g><!--entity API--><g class="entity" data-entity="API" data-source-line="2" data-uid="ent0003" id="entity_API"><rect fill="#F1F1F1" height="36.2969" rx="2.5" ry="2.5" style="stroke:#181818;stroke-width:0.5;" width="85.6318" x="253.42" y="61.41"/><text fill="#000000" font-family="sans-serif" font-size="14" lengthAdjust="spacing" textLength="65.6318" x="263.42" y="84.4051">API Layer</text></g><!--entity BS--><g class="entity" data-entity="BS" data-source-line="3" data-uid="ent0004" id="entity_BS"><rect fill="#F1F1F1" height="36.2969" rx="2.5" ry="2.5" style="stroke:#181818;stroke-width:0.5;" width="132.6836" x="645.89" y="61.41"/><text fill="#000000" font-family="sans-serif" font-size="14" lengthAdjust="spacing" textLength="112.6836" x="655.89" y="84.4051">Booking Service</text></g><!--entity SMS--><g class="entity" data-entity="SMS" data-source-line="4" data-uid="ent0005" id="entity_SMS"><rect fill="#F1F1F1" height="36.2969" rx="2.5" ry="2.5" style="stroke:#181818;stroke-width:0.5;" width="237.1982" x="373.63" y="61.41"/><text fill="#000000" font-family="sans-serif" font-size="14" lengthAdjust="spacing" textLength="217.1982" x="383.63" y="84.4051">Schedule Management Service</text></g><!--entity NS--><g class="entity" data-entity="NS" data-source-line="5" data-uid="ent0006" id="entity_NS"><rect fill="#F1F1F1" height="36.2969" rx="2.5" ry="2.5" style="stroke:#181818;stroke-width:0.5;" width="156.5205" x="1021.97" y="61.41"/><text fill="#000000" font-family="sans-serif" font-size="14" lengthAdjust="spacing" textLength="136.5205" x="1031.97" y="84.4051">Notification Service</text></g><!--entity RS--><g class="entity" data-entity="RS" data-source-line="6" data-uid="ent0007" id="entity_RS"><rect fill="#F1F1F1" height="36.2969" rx="2.5" ry="2.5" style="stroke:#181818;stroke-width:0.5;" width="144.8789" x="1213.79" y="61.41"/><text fill="#000000" font-family="sans-serif" font-size="14" lengthAdjust="spacing" textLength="124.8789" x="1223.79" y="84.4051">Reporting Service</text></g><!--entity DB--><g class="entity" data-entity="DB" data-source-line="7" data-uid="ent0008" id="entity_DB"><path d="M1611.44,66.91 C1611.44,56.91 1674.2339,56.91 1674.2339,56.91 C1674.2339,56.91 1737.0279,56.91 1737.0279,66.91 L1737.0279,92.2069 C1737.0279,102.2069 1674.2339,102.2069 1674.2339,102.2069 C1674.2339,102.2069 1611.44,102.2069 1611.44,92.2069 L1611.44,66.91" fill="#F1F1F1" style="stroke:#181818;stroke-width:0.5;"/><path d="M1611.44,66.91 C1611.44,76.91 1674.2339,76.91 1674.2339,76.91 C1674.2339,76.91 1737.0279,76.91 1737.0279,66.91" fill="none" style="stroke:#181818;stroke-width:0.5;"/><text fill="#000000" font-family="sans-serif" font-size="14" lengthAdjust="spacing" textLength="105.5879" x="1621.44" y="93.9051">PostgreSQL DB</text></g><!--entity REDIS--><g class="entity" data-entity="REDIS" data-source-line="8" data-uid="ent0009" id="entity_REDIS"><rect fill="#F1F1F1" height="36.2969" rx="2.5" ry="2.5" style="stroke:#181818;stroke-width:0.5;" width="183.1328" x="1393.67" y="61.41"/><text fill="#000000" font-family="sans-serif" font-size="14" lengthAdjust="spacing" textLength="163.1328" x="1403.67" y="84.4051">Redis (Cache &amp; Queue)</text></g><!--entity W--><g class="entity" data-entity="W" data-source-line="9" data-uid="ent0010" id="entity_W"><rect fill="#F1F1F1" height="36.2969" rx="2.5" ry="2.5" style="stroke:#181818;stroke-width:0.5;" width="77.9346" x="909.27" y="61.41"/><text fill="#000000" font-family="sans-serif" font-size="14" lengthAdjust="spacing" textLength="57.9346" x="919.27" y="84.4051">Workers</text></g><!--link SPA to API--><g class="link" data-entity-1="SPA" data-entity-2="API" data-source-line="11" data-uid="lnk11" id="link_SPA_API"><path d="M121.88,79.56 C162.54,79.56 210.14,79.56 247.12,79.56" fill="none" id="SPA-to-API" style="stroke:#181818;stroke-width:1;"/><polygon fill="#181818" points="253.12,79.56,244.12,75.56,248.12,79.56,244.12,83.56,253.12,79.56" style="stroke:#181818;stroke-width:1;"/><text fill="#000000" font-family="sans-serif" font-size="13" lengthAdjust="spacing" textLength="95.1704" x="139.94" y="72.6269">REST/GraphQL</text></g><!--link API to BS--><g class="link" data-entity-1="API" data-entity-2="BS" data-source-line="12" data-uid="lnk12" id="link_API_BS"><path d="M326.34,60.99 C340.23,53.48 357.26,45.7 373.73,41.91 C425.06,30.11 558.89,32.61 610.73,41.91 C631.64,45.67 648.3099,51.1605 666.6199,58.6805" fill="none" id="API-to-BS" style="stroke:#181818;stroke-width:1;"/><polygon fill="#181818" points="672.17,60.96,665.3644,53.8407,667.5449,59.0604,662.3251,61.2409,672.17,60.96" style="stroke:#181818;stroke-width:1;"/></g><!--link API to SMS--><g class="link" data-entity-1="API" data-entity-2="SMS" data-source-line="13" data-uid="lnk13" id="link_API_SMS"><path d="M339.49,79.56 C350.73,79.56 355.96,79.56 367.2,79.56" fill="none" id="API-to-SMS" style="stroke:#181818;stroke-width:1;"/><polygon fill="#181818" points="373.2,79.56,364.2,75.56,368.2,79.56,364.2,83.56,373.2,79.56" style="stroke:#181818;stroke-width:1;"/></g><!--link API to RS--><g class="link" data-entity-1="API" data-entity-2="RS" data-source-line="14" data-uid="lnk14" id="link_API_RS"><path d="M326.34,60.99 C340.23,53.48 357.26,45.7 373.73,41.91 C460.9,21.86 1090.55,26.92 1178.73,41.91 C1200.76,45.66 1218.6952,51.2624 1238.1052,58.7824" fill="none" id="API-to-RS" style="stroke:#181818;stroke-width:1;"/><polygon fill="#181818" points="1243.7,60.95,1236.7529,53.9688,1239.0377,59.1437,1233.8628,61.4285,1243.7,60.95" style="stroke:#181818;stroke-width:1;"/></g><!--link BS to DB--><g class="link" data-entity-1="BS" data-entity-2="DB" data-source-line="15" data-uid="lnk15" id="link_BS_DB"><path d="M778.97,63.59 C817.03,55.31 865.77,46.07 909.73,41.91 C983.52,34.94 1503.88,28.34 1576.73,41.91 C1592.88,44.92 1604.208,48.3097 1619.328,54.2697" fill="none" id="BS-to-DB" style="stroke:#181818;stroke-width:1;"/><polygon fill="#181818" points="1624.91,56.47,1618.0039,49.4482,1620.2583,54.6364,1615.0701,56.8909,1624.91,56.47" style="stroke:#181818;stroke-width:1;"/></g><!--link BS to REDIS--><g class="link" data-entity-1="BS" data-entity-2="REDIS" data-source-line="16" data-uid="lnk16" id="link_BS_REDIS"><path d="M778.85,63.48 C843.23,48.83 943.75,28.25 1032.23,20.1 C1185.35,6 1224.95,29.42 1376.23,56.91 C1383.17,58.17 1384.4615,58.3884 1391.6715,59.7984" fill="none" id="BS-to-REDIS" style="stroke:#181818;stroke-width:1;"/><polygon fill="#181818" points="1397.56,60.95,1389.495,55.297,1392.653,59.9904,1387.9596,63.1483,1397.56,60.95" style="stroke:#181818;stroke-width:1;"/><text fill="#000000" font-family="sans-serif" font-size="13" lengthAdjust="spacing" textLength="106.6787" x="1033.23" y="22.9769">invalidate cache</text></g><!--link BS to W--><g class="link" data-entity-1="BS" data-entity-2="W" data-source-line="17" data-uid="lnk17" id="link_BS_W"><path d="M778.91,79.56 C820.9,79.56 867.64,79.56 903.01,79.56" fill="none" id="BS-to-W" style="stroke:#181818;stroke-width:1;"/><polygon fill="#181818" points="909.01,79.56,900.01,75.56,904.01,79.56,900.01,83.56,909.01,79.56" style="stroke:#181818;stroke-width:1;"/><text fill="#000000" font-family="sans-serif" font-size="13" lengthAdjust="spacing" textLength="94.9102" x="796.92" y="72.6269">publish events</text></g><!--link SMS to DB--><g class="link" data-entity-1="SMS" data-entity-2="DB" data-source-line="18" data-uid="lnk18" id="link_SMS_DB"><path d="M553.6,60.93 C581.44,53.4 614.95,45.63 645.73,41.91 C748.43,29.5 1475.04,22.96 1576.73,41.91 C1592.88,44.92 1604.208,48.3097 1619.328,54.2697" fill="none" id="SMS-to-DB" style="stroke:#181818;stroke-width:1;"/><polygon fill="#181818" points="1624.91,56.47,1618.0039,49.4482,1620.2583,54.6364,1615.0701,56.8909,1624.91,56.47" style="stroke:#181818;stroke-width:1;"/></g><!--link SMS to REDIS--><g class="link" data-entity-1="SMS" data-entity-2="REDIS" data-source-line="19" data-uid="lnk19" id="link_SMS_REDIS"><path d="M526.49,61.05 C555.15,46.67 597.59,27.92 637.23,20.1 C684.33,10.82 697.25,18.71 745.23,20.1 C1026.03,28.29 1097.74,20.06 1376.23,56.91 C1384.57,58.02 1387.3125,58.3502 1395.9225,59.8802" fill="none" id="SMS-to-REDIS" style="stroke:#181818;stroke-width:1;"/><polygon fill="#181818" points="1401.83,60.93,1393.6687,55.4171,1396.9071,60.0552,1392.269,63.2937,1401.83,60.93" style="stroke:#181818;stroke-width:1;"/><text fill="#000000" font-family="sans-serif" font-size="13" lengthAdjust="spacing" textLength="106.6787" x="638.23" y="22.9769">invalidate cache</text></g><!--link NS to W--><g class="link" data-entity-1="NS" data-entity-2="W" data-source-line="20" data-uid="lnk20" id="link_NS_W"><path d="M1021.79,93.16 C1010.34,93.03 1004.7915,92.9965 993.3315,91.0065" fill="none" id="NS-to-W" style="stroke:#181818;stroke-width:1;"/><polygon fill="#181818" points="987.42,89.98,995.603,95.4608,992.3463,90.8354,996.9717,87.5788,987.42,89.98" style="stroke:#181818;stroke-width:1;"/></g><!--link W to NS--><g class="link" data-entity-1="W" data-entity-2="NS" data-source-line="22" data-uid="lnk22" id="link_W_NS"><path d="M987.42,69.14 C998.88,67.16 1004.3404,66.1734 1015.7904,66.0334" fill="none" id="W-to-NS" style="stroke:#181818;stroke-width:1;"/><polygon fill="#181818" points="1021.79,65.96,1012.7418,62.0703,1016.7904,66.0211,1012.8396,70.0697,1021.79,65.96" style="stroke:#181818;stroke-width:1;"/></g><!--link RS to DB--><g class="link" data-entity-1="RS" data-entity-2="DB" data-source-line="21" data-uid="lnk21" id="link_RS_DB"><path d="M1328.77,60.95 C1348.18,53.43 1371.7,45.66 1393.73,41.91 C1473.92,28.28 1496.78,27.01 1576.73,41.91 C1592.88,44.92 1604.208,48.3097 1619.328,54.2697" fill="none" id="RS-to-DB" style="stroke:#181818;stroke-width:1;"/><polygon fill="#181818" points="1624.91,56.47,1618.0039,49.4482,1620.2583,54.6364,1615.0701,56.8909,1624.91,56.47" style="stroke:#181818;stroke-width:1;"/></g><!--link W to RS--><g class="link" data-entity-1="W" data-entity-2="RS" data-source-line="23" data-uid="lnk23" id="link_W_RS"><path d="M976.67,61 C989.82,53.49 1005.98,45.71 1021.73,41.91 C1089.57,25.55 1109.94,30.22 1178.73,41.91 C1200.76,45.66 1218.6952,51.2624 1238.1052,58.7824" fill="none" id="W-to-RS" style="stroke:#181818;stroke-width:1;"/><polygon fill="#181818" points="1243.7,60.95,1236.7529,53.9688,1239.0377,59.1437,1233.8628,61.4285,1243.7,60.95" style="stroke:#181818;stroke-width:1;"/></g><!--SRC=[TL31QeGm5BpdAnvxAEsXzBw7mbhRik2AceBdj_ggOTr4aYZqx_kYbcuAFMNoPZ9lCfOQZxeR27QoEC2RDTgJRdU03dWWx2z_A8wGuHVPXUJRBPaOSr6w0qbsLWqjaaJUAcJJKpinEg76ZgwaVQIMfqYU6wy-LODU6HtfyaXMqMYi_xkvag95ZsTqB2cCyvqbMMQG9WkT9h55gnpSlo07X3ie9vheORLvJO_HjjhO2rctaBKGeR77vr05x5aiFvxUBOvzcOamOeORs53utGOvN283u1WhMFQmXT8p3egJ4pGXpKRNJ8tJUL2k1vgvDoVORdFOqByM-MeXgfy7TJYvn7hDyWq0]--></g></svg>