<svg xmlns="http://www.w3.org/2000/svg" xmlns:xlink="http://www.w3.org/1999/xlink" contentStyleType="text/css" data-diagram-type="CLASS" height="473px" preserveAspectRatio="none" style="width:714px;height:473px;background:#FFFFFF;" version="1.1" viewBox="0 0 714 473" width="714px" zoomAndPan="magnify"><defs/><g><!--class Customer--><g class="entity" data-entity="Customer" data-source-line="1" data-uid="ent0002" id="entity_Customer"><rect fill="#F1F1F1" height="113.1875" rx="2.5" ry="2.5" style="stroke:#181818;stroke-width:0.5;" width="120.7598" x="7" y="7"/><ellipse cx="31.3401" cy="23" fill="#ADD1B2" rx="11" ry="11" style="stroke:#181818;stroke-width:1;"/><path d="M34.3089,28.6406 Q33.7308,28.9375 33.0901,29.0781 Q32.4495,29.2344 31.7464,29.2344 Q29.2464,29.2344 27.9183,27.5938 Q26.6058,25.9375 26.6058,22.8125 Q26.6058,19.6875 27.9183,18.0313 Q29.2464,16.375 31.7464,16.375 Q32.4495,16.375 33.0901,16.5313 Q33.7464,16.6875 34.3089,16.9844 L34.3089,19.7031 Q33.6839,19.125 33.0901,18.8594 Q32.4964,18.5781 31.8714,18.5781 Q30.5276,18.5781 29.8401,19.6563 Q29.1526,20.7188 29.1526,22.8125 Q29.1526,24.9063 29.8401,25.9844 Q30.5276,27.0469 31.8714,27.0469 Q32.4964,27.0469 33.0901,26.7813 Q33.6839,26.5 34.3089,25.9219 L34.3089,28.6406 Z " fill="#000000"/><text fill="#000000" font-family="sans-serif" font-size="14" lengthAdjust="spacing" textLength="68.0039" x="47.4157" y="27.8467">Customer</text><line style="stroke:#181818;stroke-width:0.5;" x1="8" x2="126.7598" y1="39" y2="39"/><ellipse cx="18" cy="52.6484" fill="none" rx="3" ry="3" style="stroke:#038048;stroke-width:1;"/><text fill="#000000" font-family="sans-serif" font-size="14" lengthAdjust="spacing" textLength="57.3467" x="27" y="55.9951">id: UUID</text><ellipse cx="18" cy="68.9453" fill="none" rx="3" ry="3" style="stroke:#038048;stroke-width:1;"/><text fill="#000000" font-family="sans-serif" font-size="14" lengthAdjust="spacing" textLength="90.6514" x="27" y="72.292">name: String</text><ellipse cx="18" cy="85.2422" fill="none" rx="3" ry="3" style="stroke:#038048;stroke-width:1;"/><text fill="#000000" font-family="sans-serif" font-size="14" lengthAdjust="spacing" textLength="89.5576" x="27" y="88.5889">email: String</text><ellipse cx="18" cy="101.5391" fill="none" rx="3" ry="3" style="stroke:#038048;stroke-width:1;"/><text fill="#000000" font-family="sans-serif" font-size="14" lengthAdjust="spacing" textLength="94.7598" x="27" y="104.8857">phone: String</text><line style="stroke:#181818;stroke-width:0.5;" x1="8" x2="126.7598" y1="112.1875" y2="112.1875"/></g><!--class Staff--><g class="entity" data-entity="Staff" data-source-line="7" data-uid="ent0003" id="entity_Staff"><rect fill="#F1F1F1" height="96.8906" rx="2.5" ry="2.5" style="stroke:#181818;stroke-width:0.5;" width="355.7588" x="162.5" y="15.15"/><ellipse cx="319.7231" cy="31.15" fill="#ADD1B2" rx="11" ry="11" style="stroke:#181818;stroke-width:1;"/><path d="M322.6919,36.7906 Q322.1138,37.0875 321.4731,37.2281 Q320.8325,37.3844 320.1294,37.3844 Q317.6294,37.3844 316.3013,35.7437 Q314.9888,34.0875 314.9888,30.9625 Q314.9888,27.8375 316.3013,26.1812 Q317.6294,24.525 320.1294,24.525 Q320.8325,24.525 321.4731,24.6812 Q322.1294,24.8375 322.6919,25.1344 L322.6919,27.8531 Q322.0669,27.275 321.4731,27.0094 Q320.8794,26.7281 320.2544,26.7281 Q318.9106,26.7281 318.2231,27.8062 Q317.5356,28.8687 317.5356,30.9625 Q317.5356,33.0562 318.2231,34.1344 Q318.9106,35.1969 320.2544,35.1969 Q320.8794,35.1969 321.4731,34.9312 Q322.0669,34.65 322.6919,34.0719 L322.6919,36.7906 Z " fill="#000000"/><text fill="#000000" font-family="sans-serif" font-size="14" lengthAdjust="spacing" textLength="32.8125" x="340.2231" y="35.9967">Staff</text><line style="stroke:#181818;stroke-width:0.5;" x1="163.5" x2="517.2588" y1="47.15" y2="47.15"/><ellipse cx="173.5" cy="60.7984" fill="none" rx="3" ry="3" style="stroke:#038048;stroke-width:1;"/><text fill="#000000" font-family="sans-serif" font-size="14" lengthAdjust="spacing" textLength="57.3467" x="182.5" y="64.1451">id: UUID</text><ellipse cx="173.5" cy="77.0953" fill="none" rx="3" ry="3" style="stroke:#038048;stroke-width:1;"/><text fill="#000000" font-family="sans-serif" font-size="14" lengthAdjust="spacing" textLength="90.6514" x="182.5" y="80.442">name: String</text><ellipse cx="173.5" cy="93.3922" fill="none" rx="3" ry="3" style="stroke:#038048;stroke-width:1;"/><text fill="#000000" font-family="sans-serif" font-size="14" lengthAdjust="spacing" textLength="329.7588" x="182.5" y="96.7389">workingHours: Map&lt;DayOfWeek, TimeRange&gt;</text><line style="stroke:#181818;stroke-width:0.5;" x1="163.5" x2="517.2588" y1="104.0406" y2="104.0406"/></g><!--class Service--><g class="entity" data-entity="Service" data-source-line="12" data-uid="ent0004" id="entity_Service"><rect fill="#F1F1F1" height="113.1875" rx="2.5" ry="2.5" style="stroke:#181818;stroke-width:0.5;" width="154.8848" x="552.94" y="7"/><ellipse cx="600.2618" cy="23" fill="#ADD1B2" rx="11" ry="11" style="stroke:#181818;stroke-width:1;"/><path d="M603.2305,28.6406 Q602.6524,28.9375 602.0118,29.0781 Q601.3712,29.2344 600.668,29.2344 Q598.168,29.2344 596.8399,27.5938 Q595.5274,25.9375 595.5274,22.8125 Q595.5274,19.6875 596.8399,18.0313 Q598.168,16.375 600.668,16.375 Q601.3712,16.375 602.0118,16.5313 Q602.668,16.6875 603.2305,16.9844 L603.2305,19.7031 Q602.6055,19.125 602.0118,18.8594 Q601.418,18.5781 600.793,18.5781 Q599.4493,18.5781 598.7618,19.6563 Q598.0743,20.7188 598.0743,22.8125 Q598.0743,24.9063 598.7618,25.9844 Q599.4493,27.0469 600.793,27.0469 Q601.418,27.0469 602.0118,26.7813 Q602.6055,26.5 603.2305,25.9219 L603.2305,28.6406 Z " fill="#000000"/><text fill="#000000" font-family="sans-serif" font-size="14" lengthAdjust="spacing" textLength="51.7412" x="620.7618" y="27.8467">Service</text><line style="stroke:#181818;stroke-width:0.5;" x1="553.94" x2="706.8248" y1="39" y2="39"/><ellipse cx="563.94" cy="52.6484" fill="none" rx="3" ry="3" style="stroke:#038048;stroke-width:1;"/><text fill="#000000" font-family="sans-serif" font-size="14" lengthAdjust="spacing" textLength="57.3467" x="572.94" y="55.9951">id: UUID</text><ellipse cx="563.94" cy="68.9453" fill="none" rx="3" ry="3" style="stroke:#038048;stroke-width:1;"/><text fill="#000000" font-family="sans-serif" font-size="14" lengthAdjust="spacing" textLength="90.6514" x="572.94" y="72.292">name: String</text><ellipse cx="563.94" cy="85.2422" fill="none" rx="3" ry="3" style="stroke:#038048;stroke-width:1;"/><text fill="#000000" font-family="sans-serif" font-size="14" lengthAdjust="spacing" textLength="128.8848" x="572.94" y="88.5889">duration: Duration</text><ellipse cx="563.94" cy="101.5391" fill="none" rx="3" ry="3" style="stroke:#038048;stroke-width:1;"/><text fill="#000000" font-family="sans-serif" font-size="14" lengthAdjust="spacing" textLength="101.0967" x="572.94" y="104.8857">price: Decimal</text><line style="stroke:#181818;stroke-width:0.5;" x1="553.94" x2="706.8248" y1="112.1875" y2="112.1875"/></g><!--class Booking--><g class="entity" data-entity="Booking" data-source-line="18" data-uid="ent0005" id="entity_Booking"><rect fill="#F1F1F1" height="113.1875" rx="2.5" ry="2.5" style="stroke:#181818;stroke-width:0.5;" width="385.7754" x="147.49" y="180.18"/><ellipse cx="307.8816" cy="196.18" fill="#ADD1B2" rx="11" ry="11" style="stroke:#181818;stroke-width:1;"/><path d="M310.8504,201.8206 Q310.2722,202.1175 309.6316,202.2581 Q308.991,202.4144 308.2879,202.4144 Q305.7879,202.4144 304.4597,200.7738 Q303.1472,199.1175 303.1472,195.9925 Q303.1472,192.8675 304.4597,191.2113 Q305.7879,189.555 308.2879,189.555 Q308.991,189.555 309.6316,189.7113 Q310.2879,189.8675 310.8504,190.1644 L310.8504,192.8831 Q310.2254,192.305 309.6316,192.0394 Q309.0379,191.7581 308.4129,191.7581 Q307.0691,191.7581 306.3816,192.8363 Q305.6941,193.8988 305.6941,195.9925 Q305.6941,198.0863 306.3816,199.1644 Q307.0691,200.2269 308.4129,200.2269 Q309.0379,200.2269 309.6316,199.9613 Q310.2254,199.68 310.8504,199.1019 L310.8504,201.8206 Z " fill="#000000"/><text fill="#000000" font-family="sans-serif" font-size="14" lengthAdjust="spacing" textLength="56.4922" x="328.3816" y="201.0267">Booking</text><line style="stroke:#181818;stroke-width:0.5;" x1="148.49" x2="532.2654" y1="212.18" y2="212.18"/><ellipse cx="158.49" cy="225.8284" fill="none" rx="3" ry="3" style="stroke:#038048;stroke-width:1;"/><text fill="#000000" font-family="sans-serif" font-size="14" lengthAdjust="spacing" textLength="57.3467" x="167.49" y="229.1751">id: UUID</text><ellipse cx="158.49" cy="242.1253" fill="none" rx="3" ry="3" style="stroke:#038048;stroke-width:1;"/><text fill="#000000" font-family="sans-serif" font-size="14" lengthAdjust="spacing" textLength="140.5195" x="167.49" y="245.472">datetime: DateTime</text><ellipse cx="158.49" cy="258.4222" fill="none" rx="3" ry="3" style="stroke:#038048;stroke-width:1;"/><text fill="#000000" font-family="sans-serif" font-size="14" lengthAdjust="spacing" textLength="359.7754" x="167.49" y="261.7689">status: Enum { Scheduled, Cancelled, Completed }</text><ellipse cx="158.49" cy="274.7191" fill="none" rx="3" ry="3" style="stroke:#038048;stroke-width:1;"/><text fill="#000000" font-family="sans-serif" font-size="14" lengthAdjust="spacing" textLength="89.7832" x="167.49" y="278.0657">notes: String</text><line style="stroke:#181818;stroke-width:0.5;" x1="148.49" x2="532.2654" y1="285.3675" y2="285.3675"/></g><!--class Notification--><g class="entity" data-entity="Notification" data-source-line="24" data-uid="ent0006" id="entity_Notification"><rect fill="#F1F1F1" height="113.1875" rx="2.5" ry="2.5" style="stroke:#181818;stroke-width:0.5;" width="305.5557" x="187.6" y="353.37"/><ellipse cx="295.9633" cy="369.37" fill="#ADD1B2" rx="11" ry="11" style="stroke:#181818;stroke-width:1;"/><path d="M298.932,375.0106 Q298.3539,375.3075 297.7133,375.4481 Q297.0727,375.6044 296.3695,375.6044 Q293.8695,375.6044 292.5414,373.9638 Q291.2289,372.3075 291.2289,369.1825 Q291.2289,366.0575 292.5414,364.4013 Q293.8695,362.745 296.3695,362.745 Q297.0727,362.745 297.7133,362.9013 Q298.3695,363.0575 298.932,363.3544 L298.932,366.0731 Q298.307,365.495 297.7133,365.2294 Q297.1195,364.9481 296.4945,364.9481 Q295.1508,364.9481 294.4633,366.0263 Q293.7758,367.0888 293.7758,369.1825 Q293.7758,371.2763 294.4633,372.3544 Q295.1508,373.4169 296.4945,373.4169 Q297.1195,373.4169 297.7133,373.1513 Q298.307,372.87 298.932,372.2919 L298.932,375.0106 Z " fill="#000000"/><text fill="#000000" font-family="sans-serif" font-size="14" lengthAdjust="spacing" textLength="80.3291" x="316.4633" y="374.2167">Notification</text><line style="stroke:#181818;stroke-width:0.5;" x1="188.6" x2="492.1557" y1="385.37" y2="385.37"/><ellipse cx="198.6" cy="399.0184" fill="none" rx="3" ry="3" style="stroke:#038048;stroke-width:1;"/><text fill="#000000" font-family="sans-serif" font-size="14" lengthAdjust="spacing" textLength="57.3467" x="207.6" y="402.3651">id: UUID</text><ellipse cx="198.6" cy="415.3153" fill="none" rx="3" ry="3" style="stroke:#038048;stroke-width:1;"/><text fill="#000000" font-family="sans-serif" font-size="14" lengthAdjust="spacing" textLength="279.5557" x="207.6" y="418.662">type: Enum { Confirmation, Reminder }</text><ellipse cx="198.6" cy="431.6122" fill="none" rx="3" ry="3" style="stroke:#038048;stroke-width:1;"/><text fill="#000000" font-family="sans-serif" font-size="14" lengthAdjust="spacing" textLength="215.6943" x="207.6" y="434.9589">medium: Enum { Email, SMS }</text><ellipse cx="198.6" cy="447.9091" fill="none" rx="3" ry="3" style="stroke:#038048;stroke-width:1;"/><text fill="#000000" font-family="sans-serif" font-size="14" lengthAdjust="spacing" textLength="271.6191" x="207.6" y="451.2557">status: Enum { Pending, Sent, Failed }</text><line style="stroke:#181818;stroke-width:0.5;" x1="188.6" x2="492.1557" y1="458.5575" y2="458.5575"/></g><!--link Customer to Booking--><g class="link" data-entity-1="Customer" data-entity-2="Booking" data-source-line="30" data-uid="lnk7" id="link_Customer_Booking"><path codeLine="30" d="M127.93,108.49 C133.78,112.51 139.67,116.46 145.38,120.18 C176.38,140.37 210.91,161.32 242.19,179.75" fill="none" id="Customer-Booking" style="stroke:#181818;stroke-width:1;"/><text fill="#000000" font-family="sans-serif" font-size="13" lengthAdjust="spacing" textLength="8.271" x="135.8136" y="110.1227">1</text><text fill="#000000" font-family="sans-serif" font-size="13" lengthAdjust="spacing" textLength="6.5" x="223.8882" y="168.9612">*</text></g><!--link Staff to Booking--><g class="link" data-entity-1="Staff" data-entity-2="Booking" data-source-line="31" data-uid="lnk8" id="link_Staff_Booking"><path codeLine="31" d="M340.38,112.28 C340.38,133.25 340.38,158.03 340.38,179.87" fill="none" id="Staff-Booking" style="stroke:#181818;stroke-width:1;"/><text fill="#000000" font-family="sans-serif" font-size="13" lengthAdjust="spacing" textLength="8.271" x="331.8366" y="132.2572">1</text><text fill="#000000" font-family="sans-serif" font-size="13" lengthAdjust="spacing" textLength="6.5" x="334.0451" y="169.0958">*</text></g><!--link Service to Booking--><g class="link" data-entity-1="Service" data-entity-2="Booking" data-source-line="32" data-uid="lnk9" id="link_Service_Booking"><path codeLine="32" d="M552.67,110.47 C516.59,131.76 473.38,157.27 435.39,179.69" fill="none" id="Service-Booking" style="stroke:#181818;stroke-width:1;"/><text fill="#000000" font-family="sans-serif" font-size="13" lengthAdjust="spacing" textLength="8.271" x="536.6398" y="111.4195">1</text><text fill="#000000" font-family="sans-serif" font-size="13" lengthAdjust="spacing" textLength="6.5" x="440.0578" y="169.2971">*</text></g><!--link Booking to Notification--><g class="link" data-entity-1="Booking" data-entity-2="Notification" data-source-line="33" data-uid="lnk10" id="link_Booking_Notification"><path codeLine="33" d="M340.38,293.83 C340.38,312.85 340.38,334.08 340.38,353.08" fill="none" id="Booking-Notification" style="stroke:#181818;stroke-width:1;"/><text fill="#000000" font-family="sans-serif" font-size="13" lengthAdjust="spacing" textLength="8.271" x="331.9334" y="313.3689">1</text><text fill="#000000" font-family="sans-serif" font-size="13" lengthAdjust="spacing" textLength="6.5" x="334.0451" y="342.3082">*</text></g><!--SRC=[XP8nRy8m48Nt_8fJnZOCNQEgGmbLEz1MfAYpPL_WH6n7phaLGlptsWP2L93ONkwUdx_SMRQYxs7gUxOQ7UmoW7jI9IoNRrNKHcWieMP7PXM_KGjgnuLkRStPiSza2gnPDCtjj5_hDa6-Mk_w4kQYUwp4zgFvHjmKy4KQ5yAiyEaSY-w79DuELju99cjAg8ugiRfmE9HGaXRjaFfiRQIuJ5M2aIacLq55dbZjMR0Fk3FZDUoWbcjKlaLLm5GOYUr1MjsroAXWd_WiOtynfNVBr91CV9UtyxR3uPQfDGqvdQm5B52JKM5VALoZ8gy7wookg81wNX_Q_tW_qQW04Gnek82NO4wK-snu1Vb33fC9v7VvQJRPOQ7N6iULN6cTvZfgZV_u3m00]--></g></svg>