<svg xmlns="http://www.w3.org/2000/svg" xmlns:xlink="http://www.w3.org/1999/xlink" contentStyleType="text/css" data-diagram-type="DESCRIPTION" height="439px" preserveAspectRatio="none" style="width:480px;height:439px;background:#FFFFFF;" version="1.1" viewBox="0 0 480 439" width="480px" zoomAndPan="magnify"><defs/><g><!--entity Client--><g class="entity" data-entity="Client" data-source-line="1" data-uid="ent0002" id="entity_Client"><polygon fill="#F1F1F1" points="30.92,16,40.92,6,172.9395,6,172.9395,42.2969,162.9395,52.2969,30.92,52.2969,30.92,16" style="stroke:#181818;stroke-width:0.5;"/><line style="stroke:#181818;stroke-width:0.5;" x1="162.9395" x2="172.9395" y1="16" y2="6"/><line style="stroke:#181818;stroke-width:0.5;" x1="30.92" x2="162.9395" y1="16" y2="16"/><line style="stroke:#181818;stroke-width:0.5;" x1="162.9395" x2="162.9395" y1="16" y2="52.2969"/><text fill="#000000" font-family="sans-serif" font-size="14" lengthAdjust="spacing" textLength="102.0195" x="45.92" y="38.9951">Client Browser</text></g><!--entity LB--><g class="entity" data-entity="LB" data-source-line="2" data-uid="ent0003" id="entity_LB"><polygon fill="#F1F1F1" points="31.99,139.3,41.99,129.3,171.863,129.3,171.863,165.5969,161.863,175.5969,31.99,175.5969,31.99,139.3" style="stroke:#181818;stroke-width:0.5;"/><line style="stroke:#181818;stroke-width:0.5;" x1="161.863" x2="171.863" y1="139.3" y2="129.3"/><line style="stroke:#181818;stroke-width:0.5;" x1="31.99" x2="161.863" y1="139.3" y2="139.3"/><line style="stroke:#181818;stroke-width:0.5;" x1="161.863" x2="161.863" y1="139.3" y2="175.5969"/><text fill="#000000" font-family="sans-serif" font-size="14" lengthAdjust="spacing" textLength="99.873" x="46.99" y="162.2951">Load Balancer</text></g><!--entity App--><g class="entity" data-entity="App" data-source-line="3" data-uid="ent0004" id="entity_App"><polygon fill="#F1F1F1" points="16,262.6,26,252.6,187.8516,252.6,187.8516,288.8969,177.8516,298.8969,16,298.8969,16,262.6" style="stroke:#181818;stroke-width:0.5;"/><line style="stroke:#181818;stroke-width:0.5;" x1="177.8516" x2="187.8516" y1="262.6" y2="252.6"/><line style="stroke:#181818;stroke-width:0.5;" x1="16" x2="177.8516" y1="262.6" y2="262.6"/><line style="stroke:#181818;stroke-width:0.5;" x1="177.8516" x2="177.8516" y1="262.6" y2="298.8969"/><text fill="#000000" font-family="sans-serif" font-size="14" lengthAdjust="spacing" textLength="131.8516" x="31" y="285.5951">App Server Cluster</text></g><!--entity DB--><g class="entity" data-entity="DB" data-source-line="4" data-uid="ent0005" id="entity_DB"><path d="M63.13,386.39 C63.13,376.39 125.9239,376.39 125.9239,376.39 C125.9239,376.39 188.7179,376.39 188.7179,386.39 L188.7179,411.6869 C188.7179,421.6869 125.9239,421.6869 125.9239,421.6869 C125.9239,421.6869 63.13,421.6869 63.13,411.6869 L63.13,386.39" fill="#F1F1F1" style="stroke:#181818;stroke-width:0.5;"/><path d="M63.13,386.39 C63.13,396.39 125.9239,396.39 125.9239,396.39 C125.9239,396.39 188.7179,396.39 188.7179,386.39" fill="none" style="stroke:#181818;stroke-width:0.5;"/><text fill="#000000" font-family="sans-serif" font-size="14" lengthAdjust="spacing" textLength="105.5879" x="73.13" y="413.3851">PostgreSQL DB</text></g><!--entity REDIS--><g class="entity" data-entity="REDIS" data-source-line="5" data-uid="ent0006" id="entity_REDIS"><polygon fill="#F1F1F1" points="270.82,385.89,280.82,375.89,463.029,375.89,463.029,412.1869,453.029,422.1869,270.82,422.1869,270.82,385.89" style="stroke:#181818;stroke-width:0.5;"/><line style="stroke:#181818;stroke-width:0.5;" x1="453.029" x2="463.029" y1="385.89" y2="375.89"/><line style="stroke:#181818;stroke-width:0.5;" x1="270.82" x2="453.029" y1="385.89" y2="385.89"/><line style="stroke:#181818;stroke-width:0.5;" x1="453.029" x2="453.029" y1="385.89" y2="422.1869"/><text fill="#000000" font-family="sans-serif" font-size="14" lengthAdjust="spacing" textLength="152.209" x="285.82" y="408.8851">Redis Cache &amp; Queue</text></g><!--entity Workers--><g class="entity" data-entity="Workers" data-source-line="6" data-uid="ent0007" id="entity_Workers"><polygon fill="#F1F1F1" points="262.46,262.6,272.46,252.6,401.3829,252.6,401.3829,288.8969,391.3829,298.8969,262.46,298.8969,262.46,262.6" style="stroke:#181818;stroke-width:0.5;"/><line style="stroke:#181818;stroke-width:0.5;" x1="391.3829" x2="401.3829" y1="262.6" y2="252.6"/><line style="stroke:#181818;stroke-width:0.5;" x1="262.46" x2="391.3829" y1="262.6" y2="262.6"/><line style="stroke:#181818;stroke-width:0.5;" x1="391.3829" x2="391.3829" y1="262.6" y2="298.8969"/><text fill="#000000" font-family="sans-serif" font-size="14" lengthAdjust="spacing" textLength="98.9229" x="277.46" y="285.5951">Worker Nodes</text></g><!--link Client to LB--><g class="link" data-entity-1="Client" data-entity-2="LB" data-source-line="8" data-uid="lnk8" id="link_Client_LB"><path d="M101.93,52.68 C101.93,74.47 101.93,101.29 101.93,123.04" fill="none" id="Client-to-LB" style="stroke:#181818;stroke-width:1;"/><polygon fill="#181818" points="101.93,129.04,105.93,120.04,101.93,124.04,97.93,120.04,101.93,129.04" style="stroke:#181818;stroke-width:1;"/><text fill="#000000" font-family="sans-serif" font-size="13" lengthAdjust="spacing" textLength="41.7485" x="102.93" y="95.3669">HTTPS</text></g><!--link LB to App--><g class="link" data-entity-1="LB" data-entity-2="App" data-source-line="9" data-uid="lnk9" id="link_LB_App"><path d="M101.93,175.98 C101.93,197.77 101.93,224.59 101.93,246.33" fill="none" id="LB-to-App" style="stroke:#181818;stroke-width:1;"/><polygon fill="#181818" points="101.93,252.33,105.93,243.33,101.93,247.33,97.93,243.33,101.93,252.33" style="stroke:#181818;stroke-width:1;"/><text fill="#000000" font-family="sans-serif" font-size="13" lengthAdjust="spacing" textLength="41.7485" x="102.93" y="218.6669">HTTPS</text></g><!--link App to DB--><g class="link" data-entity-1="App" data-entity-2="DB" data-source-line="10" data-uid="lnk10" id="link_App_DB"><path d="M52.26,299.24 C32.64,311.48 17.06,327.81 27.93,345.89 C36.01,359.36 43.6268,366.641 57.4168,374.251" fill="none" id="App-to-DB" style="stroke:#181818;stroke-width:1;"/><polygon fill="#181818" points="62.67,377.15,56.7229,369.2994,58.2923,374.7342,52.8576,376.3037,62.67,377.15" style="stroke:#181818;stroke-width:1;"/><text fill="#000000" font-family="sans-serif" font-size="13" lengthAdjust="spacing" textLength="61.9468" x="28.93" y="341.9569">JDBC/SQL</text></g><!--link App to REDIS--><g class="link" data-entity-1="App" data-entity-2="REDIS" data-source-line="11" data-uid="lnk11" id="link_App_REDIS"><path d="M104.39,299.22 C107.26,314.55 113.48,334.12 126.93,345.89 C148.46,364.74 207.476,377.2727 264.386,385.7827" fill="none" id="App-to-REDIS" style="stroke:#181818;stroke-width:1;"/><polygon fill="#181818" points="270.32,386.67,262.0105,381.383,265.375,385.9305,260.8274,389.295,270.32,386.67" style="stroke:#181818;stroke-width:1;"/><text fill="#000000" font-family="sans-serif" font-size="13" lengthAdjust="spacing" textLength="125.709" x="127.93" y="341.9569">Cache &amp; Job Queue</text></g><!--link Workers to REDIS--><g class="link" data-entity-1="Workers" data-entity-2="REDIS" data-source-line="12" data-uid="lnk12" id="link_Workers_REDIS"><path d="M356.96,299.36 C364.56,307.79 371.94,317.99 375.93,328.89 C381.41,343.9 380.428,356.0312 376.658,369.8612" fill="none" id="Workers-to-REDIS" style="stroke:#181818;stroke-width:1;"/><polygon fill="#181818" points="375.08,375.65,381.3062,368.0188,376.395,370.826,373.5878,365.9148,375.08,375.65" style="stroke:#181818;stroke-width:1;"/><text fill="#000000" font-family="sans-serif" font-size="13" lengthAdjust="spacing" textLength="89.6797" x="379.93" y="341.9569">Dequeue Jobs</text></g><!--link Workers to DB--><g class="link" data-entity-1="Workers" data-entity-2="DB" data-source-line="13" data-uid="lnk13" id="link_Workers_DB"><path d="M313.65,299.13 C300.53,314.02 281.74,333.12 261.93,345.89 C239.72,360.21 218.6413,369.5425 194.7713,377.9225" fill="none" id="Workers-to-DB" style="stroke:#181818;stroke-width:1;"/><polygon fill="#181818" points="189.11,379.91,198.9269,380.7029,193.8277,378.2538,196.2769,373.1546,189.11,379.91" style="stroke:#181818;stroke-width:1;"/><text fill="#000000" font-family="sans-serif" font-size="13" lengthAdjust="spacing" textLength="72.5347" x="283.93" y="341.9569">Read/Write</text></g><!--SRC=[LOxB2i8m44Nt-Oh1XJlfteLW6a6bI1z2rwCPj2XDJLBzVITfAhYRt7CcStkZ2HRviwFUWxJcuyWk01rCaUWZBmngaFZ4_ffm8HFQ3WCqPDzaUMLqFd6EXKQF5tGibSRvcwMcAa39oDMyNvFk-1fUxmHBg4OQAGhrJXsQvBJ6FlZ_4pzSX5FWX4Z5LwiDDu8rxC_diX4yXYHKcwCmXqm5wwXadd6PNngFCPXh7CrbgYBIfJzBqIkmOBa_8NvU4-gijPsdBm00]--></g></svg>