<svg xmlns="http://www.w3.org/2000/svg" xmlns:xlink="http://www.w3.org/1999/xlink" contentStyleType="text/css" data-diagram-type="DESCRIPTION" height="323px" preserveAspectRatio="none" style="width:818px;height:323px;background:#FFFFFF;" version="1.1" viewBox="0 0 818 323" width="818px" zoomAndPan="magnify"><defs/><g><!--cluster Fork & Knife Platform--><g class="cluster" data-entity="Fork . Knife Platform" data-source-line="6" data-uid="ent0006" id="cluster_Fork . Knife Platform"><rect fill="none" height="165.02" rx="2.5" ry="2.5" style="stroke:#181818;stroke-width:1;" width="754" x="7" y="152.79"/><text fill="#000000" font-family="sans-serif" font-size="14" font-weight="bold" lengthAdjust="spacing" textLength="171.8281" x="298.0859" y="167.7851">Fork &amp; Knife Platform</text></g><!--entity CustApp--><g class="entity" data-entity="CustApp" data-source-line="7" data-uid="ent0007" id="entity_CustApp"><rect fill="#F1F1F1" height="36.2969" rx="2.5" ry="2.5" style="stroke:#181818;stroke-width:0.5;" width="254.1855" x="30.91" y="195.79"/><text fill="#000000" font-family="sans-serif" font-size="14" lengthAdjust="spacing" textLength="234.1855" x="40.91" y="218.7851">Customer App (Web/iOS/Android)</text></g><!--entity RestPortal--><g class="entity" data-entity="RestPortal" data-source-line="8" data-uid="ent0008" id="entity_RestPortal"><rect fill="#F1F1F1" height="36.2969" rx="2.5" ry="2.5" style="stroke:#181818;stroke-width:0.5;" width="142.4453" x="319.78" y="195.79"/><text fill="#000000" font-family="sans-serif" font-size="14" lengthAdjust="spacing" textLength="122.4453" x="329.78" y="218.7851">Restaurant Portal</text></g><!--entity DriverApp--><g class="entity" data-entity="DriverApp" data-source-line="9" data-uid="ent0009" id="entity_DriverApp"><rect fill="#F1F1F1" height="36.2969" rx="2.5" ry="2.5" style="stroke:#181818;stroke-width:0.5;" width="94.8809" x="497.56" y="195.79"/><text fill="#000000" font-family="sans-serif" font-size="14" lengthAdjust="spacing" textLength="74.8809" x="507.56" y="218.7851">Driver App</text></g><!--entity AdminPortal--><g class="entity" data-entity="AdminPortal" data-source-line="10" data-uid="ent0010" id="entity_AdminPortal"><rect fill="#F1F1F1" height="36.2969" rx="2.5" ry="2.5" style="stroke:#181818;stroke-width:0.5;" width="110.0361" x="626.98" y="195.79"/><text fill="#000000" font-family="sans-serif" font-size="14" lengthAdjust="spacing" textLength="90.0361" x="636.98" y="218.7851">Admin Portal</text></g><!--entity Customer--><g class="entity" data-entity="Customer" data-source-line="1" data-uid="ent0002" id="entity_Customer"><ellipse cx="158.002" cy="14" fill="#F1F1F1" rx="8" ry="8" style="stroke:#181818;stroke-width:0.5;"/><path d="M158.002,22 L158.002,49 M145.002,30 L171.002,30 M158.002,49 L145.002,64 M158.002,49 L171.002,64" fill="none" style="stroke:#181818;stroke-width:0.5;"/><text fill="#000000" font-family="sans-serif" font-size="14" lengthAdjust="spacing" textLength="68.0039" x="124" y="78.4951">Customer</text></g><!--entity Restaurant--><g class="entity" data-entity="Restaurant" data-source-line="2" data-uid="ent0003" id="entity_Restaurant"><ellipse cx="349.0049" cy="14" fill="#F1F1F1" rx="8" ry="8" style="stroke:#181818;stroke-width:0.5;"/><path d="M349.0049,22 L349.0049,49 M336.0049,30 L362.0049,30 M349.0049,49 L336.0049,64 M349.0049,49 L362.0049,64" fill="none" style="stroke:#181818;stroke-width:0.5;"/><text fill="#000000" font-family="sans-serif" font-size="14" lengthAdjust="spacing" textLength="143.0898" x="277.46" y="78.4951">Restaurant Manager</text></g><!--entity Driver--><g class="entity" data-entity="Driver" data-source-line="3" data-uid="ent0004" id="entity_Driver"><ellipse cx="545.0013" cy="14" fill="#F1F1F1" rx="8" ry="8" style="stroke:#181818;stroke-width:0.5;"/><path d="M545.0013,22 L545.0013,49 M532.0013,30 L558.0013,30 M545.0013,49 L532.0013,64 M545.0013,49 L558.0013,64" fill="none" style="stroke:#181818;stroke-width:0.5;"/><text fill="#000000" font-family="sans-serif" font-size="14" lengthAdjust="spacing" textLength="105.6426" x="492.18" y="78.4951">Delivery Driver</text></g><!--entity Admin--><g class="entity" data-entity="Admin" data-source-line="4" data-uid="ent0005" id="entity_Admin"><ellipse cx="697.0013" cy="14" fill="#F1F1F1" rx="8" ry="8" style="stroke:#181818;stroke-width:0.5;"/><path d="M697.0013,22 L697.0013,49 M684.0013,30 L710.0013,30 M697.0013,49 L684.0013,64 M697.0013,49 L710.0013,64" fill="none" style="stroke:#181818;stroke-width:0.5;"/><text fill="#000000" font-family="sans-serif" font-size="14" lengthAdjust="spacing" textLength="108.6025" x="642.7" y="78.4951">Platform Admin</text></g><!--link Customer to CustApp--><g class="link" data-entity-1="Customer" data-entity-2="CustApp" data-source-line="13" data-uid="lnk11" id="link_Customer_CustApp"><path d="M158,82 C158,117.44 158,163.12 158,189.72" fill="none" id="Customer-to-CustApp" style="stroke:#181818;stroke-width:1;"/><polygon fill="#181818" points="158,195.72,162,186.72,158,190.72,154,186.72,158,195.72" style="stroke:#181818;stroke-width:1;"/><text fill="#000000" font-family="sans-serif" font-size="13" lengthAdjust="spacing" textLength="123.6904" x="159" y="124.8569">browse/order/track</text></g><!--link Restaurant to RestPortal--><g class="link" data-entity-1="Restaurant" data-entity-2="RestPortal" data-source-line="14" data-uid="lnk12" id="link_Restaurant_RestPortal"><path d="M358.32,82 C367.17,117.44 378.6068,163.2986 385.2468,189.8986" fill="none" id="Restaurant-to-RestPortal" style="stroke:#181818;stroke-width:1;"/><polygon fill="#181818" points="386.7,195.72,388.4012,186.0192,385.489,190.8689,380.6394,187.9567,386.7,195.72" style="stroke:#181818;stroke-width:1;"/><text fill="#000000" font-family="sans-serif" font-size="13" lengthAdjust="spacing" textLength="154.4258" x="371" y="124.8569">manage menu &amp; orders</text></g><!--link Driver to DriverApp--><g class="link" data-entity-1="Driver" data-entity-2="DriverApp" data-source-line="15" data-uid="lnk13" id="link_Driver_DriverApp"><path d="M543.02,82.28 C542.6,91.9 542.21,102.23 542,111.79 C541.35,141.12 542.4903,169.2391 543.6003,189.4091" fill="none" id="Driver-to-DriverApp" style="stroke:#181818;stroke-width:1;"/><polygon fill="#181818" points="543.93,195.4,547.4294,186.1938,543.6553,190.4076,539.4415,186.6334,543.93,195.4" style="stroke:#181818;stroke-width:1;"/><text fill="#000000" font-family="sans-serif" font-size="13" lengthAdjust="spacing" textLength="110.6333" x="543" y="124.8569">accept deliveries</text></g><!--link Admin to AdminPortal--><g class="link" data-entity-1="Admin" data-entity-2="AdminPortal" data-source-line="16" data-uid="lnk14" id="link_Admin_AdminPortal"><path d="M693.67,82 C690.51,117.44 686.4425,163.1437 684.0725,189.7437" fill="none" id="Admin-to-AdminPortal" style="stroke:#181818;stroke-width:1;"/><polygon fill="#181818" points="683.54,195.72,688.3229,187.1105,683.9837,190.7397,680.3545,186.4005,683.54,195.72" style="stroke:#181818;stroke-width:1;"/><text fill="#000000" font-family="sans-serif" font-size="13" lengthAdjust="spacing" textLength="119.1772" x="691" y="124.8569">monitor &amp; support</text></g><!--link CustApp to Fork & Knife Platform--><g class="link" data-entity-1="CustApp" data-entity-2="Fork . Knife Platform" data-source-line="18" data-uid="lnk15" id="link_CustApp_Fork . Knife Platform"><path d="M186.23,232.5 C210.89,247.08 248.11,267.28 283,279.09 C350.68,302.01 434.1638,308.0832 442.4038,308.6432" fill="none" id="CustApp-to-Fork &amp; Knife Platform" style="stroke:#181818;stroke-width:1;"/><polygon fill="#181818" points="448.39,309.05,439.6819,304.449,443.4015,308.711,439.1395,312.4306,448.39,309.05" style="stroke:#181818;stroke-width:1;"/><text fill="#000000" font-family="sans-serif" font-size="13" lengthAdjust="spacing" textLength="119.1646" x="284" y="275.1569">REST / WebSocket</text></g><!--link RestPortal to Fork & Knife Platform--><g class="link" data-entity-1="RestPortal" data-entity-2="Fork . Knife Platform" data-source-line="19" data-uid="lnk16" id="link_RestPortal_Fork . Knife Platform"><path d="M397.91,232.54 C403.5,245.86 412.07,264.3 422,279.09 C431.38,293.05 442.4414,303.1849 444.3514,304.9049" fill="none" id="RestPortal-to-Fork &amp; Knife Platform" style="stroke:#181818;stroke-width:1;"/><polygon fill="#181818" points="448.81,308.92,444.7988,299.925,445.0945,305.5741,439.4454,305.8698,448.81,308.92" style="stroke:#181818;stroke-width:1;"/><text fill="#000000" font-family="sans-serif" font-size="13" lengthAdjust="spacing" textLength="33.4395" x="423" y="275.1569">REST</text></g><!--link DriverApp to Fork & Knife Platform--><g class="link" data-entity-1="DriverApp" data-entity-2="Fork . Knife Platform" data-source-line="20" data-uid="lnk17" id="link_DriverApp_Fork . Knife Platform"><path d="M527.39,232.21 C500.54,258.54 456.4183,301.8033 453.4283,304.7433" fill="none" id="DriverApp-to-Fork &amp; Knife Platform" style="stroke:#181818;stroke-width:1;"/><polygon fill="#181818" points="449.15,308.95,458.3719,305.4921,452.7152,305.4444,452.7629,299.7877,449.15,308.95" style="stroke:#181818;stroke-width:1;"/><text fill="#000000" font-family="sans-serif" font-size="13" lengthAdjust="spacing" textLength="119.1646" x="496" y="275.1569">REST / WebSocket</text></g><!--link AdminPortal to Fork & Knife Platform--><g class="link" data-entity-1="AdminPortal" data-entity-2="Fork . Knife Platform" data-source-line="21" data-uid="lnk18" id="link_AdminPortal_Fork . Knife Platform"><path d="M671.16,232.36 C660.91,247.27 644.13,268.02 624,279.09 C590.51,297.51 463.651,307.9227 455.381,308.5827" fill="none" id="AdminPortal-to-Fork &amp; Knife Platform" style="stroke:#181818;stroke-width:1;"/><polygon fill="#181818" points="449.4,309.06,458.6897,312.3313,454.3842,308.6622,458.0533,304.3567,449.4,309.06" style="stroke:#181818;stroke-width:1;"/><text fill="#000000" font-family="sans-serif" font-size="13" lengthAdjust="spacing" textLength="33.4395" x="645" y="275.1569">REST</text></g><!--SRC=[bP71QiCm343l_WgHGzaE9VSU1c7TBcEiD8ETLKSj9eaTP6TZZFtxOZjENSOeEzcMd-Gd6QKp3CNzQ9tfYGj02-aWC5xkoJeS6RM3PzHuch5pE85RwjGxyITisQ-1Yjj4x3fqHyCzL4slT032JWWcwL2VEeBYqN0BAtZIwaYGCWhu4W0PbIoX6WQuUQD3gLxgij8D6zNSBerCjvTvMJSxmmwxfPbulAIZldyZw-PNpT13NYu4vdhVGYokw_LTie8D7DXyM2eDDyIbOvIjoEmyUzQQy3uC7thIupIUa6N5BEZXHMvYKKeQ73JnHnHP4HqzbydvgaOh_pShiECmJD6ewyju-A_VsC3-eNw54gR9rqQsv4GcUprJd6t_-KokVptr1m00]--></g></svg>