<svg xmlns="http://www.w3.org/2000/svg" xmlns:xlink="http://www.w3.org/1999/xlink" contentStyleType="text/css" data-diagram-type="DESCRIPTION" height="450px" preserveAspectRatio="none" style="width:983px;height:450px;background:#FFFFFF;" version="1.1" viewBox="0 0 983 450" width="983px" zoomAndPan="magnify"><defs/><g><!--cluster Fork & Knife Platform--><g class="cluster" data-entity="Fork . Knife Platform" data-source-line="6" data-uid="ent0002" id="cluster_Fork . Knife Platform"><path d="M8.5,6 L181.3281,6 A3.75,3.75 0 0 1 183.8281,8.5 L190.8281,28.2969 L956.5,28.2969 A2.5,2.5 0 0 1 959,30.7969 L959,440.69 A2.5,2.5 0 0 1 956.5,443.19 L8.5,443.19 A2.5,2.5 0 0 1 6,440.69 L6,8.5 A2.5,2.5 0 0 1 8.5,6" fill="none" style="stroke:#000000;stroke-width:1.5;"/><line style="stroke:#000000;stroke-width:1.5;" x1="6" x2="190.8281" y1="28.2969" y2="28.2969"/><text fill="#000000" font-family="sans-serif" font-size="14" font-weight="bold" lengthAdjust="spacing" textLength="171.8281" x="10" y="20.9951">Fork &amp; Knife Platform</text></g><!--entity APIGW--><g class="entity" data-entity="APIGW" data-source-line="7" data-uid="ent0003" id="entity_APIGW"><rect fill="#FFFFFF" height="36.2969" rx="2.5" ry="2.5" style="stroke:#000000;stroke-width:0.5;" width="108.4434" x="375.78" y="41"/><text fill="#000000" font-family="sans-serif" font-size="14" lengthAdjust="spacing" textLength="88.4434" x="385.78" y="63.9951">API Gateway</text></g><!--entity CustSvc--><g class="entity" data-entity="CustSvc" data-source-line="8" data-uid="ent0004" id="entity_CustSvc"><rect fill="#FFFFFF" height="36.2969" rx="2.5" ry="2.5" style="stroke:#000000;stroke-width:0.5;" width="151.4893" x="89.26" y="267.6"/><text fill="#000000" font-family="sans-serif" font-size="14" lengthAdjust="spacing" textLength="131.4893" x="99.26" y="290.5951">Customer Services</text></g><!--entity RestSvc--><g class="entity" data-entity="RestSvc" data-source-line="9" data-uid="ent0005" id="entity_RestSvc"><rect fill="#FFFFFF" height="36.2969" rx="2.5" ry="2.5" style="stroke:#000000;stroke-width:0.5;" width="160.7588" x="275.62" y="267.6"/><text fill="#000000" font-family="sans-serif" font-size="14" lengthAdjust="spacing" textLength="140.7588" x="285.62" y="290.5951">Restaurant Services</text></g><!--entity LogSvc--><g class="entity" data-entity="LogSvc" data-source-line="10" data-uid="ent0006" id="entity_LogSvc"><rect fill="#FFFFFF" height="36.2969" rx="2.5" ry="2.5" style="stroke:#000000;stroke-width:0.5;" width="144.291" x="471.85" y="267.6"/><text fill="#000000" font-family="sans-serif" font-size="14" lengthAdjust="spacing" textLength="124.291" x="481.85" y="290.5951">Logistics Services</text></g><!--entity OrderSvc--><g class="entity" data-entity="OrderSvc" data-source-line="11" data-uid="ent0007" id="entity_OrderSvc"><rect fill="#FFFFFF" height="36.2969" rx="2.5" ry="2.5" style="stroke:#000000;stroke-width:0.5;" width="116.2227" x="635.89" y="154.3"/><text fill="#000000" font-family="sans-serif" font-size="14" lengthAdjust="spacing" textLength="96.2227" x="645.89" y="177.2951">Order Service</text></g><!--entity PaySvc--><g class="entity" data-entity="PaySvc" data-source-line="12" data-uid="ent0008" id="entity_PaySvc"><rect fill="#FFFFFF" height="36.2969" rx="2.5" ry="2.5" style="stroke:#000000;stroke-width:0.5;" width="138.1113" x="650.94" y="267.6"/><text fill="#000000" font-family="sans-serif" font-size="14" lengthAdjust="spacing" textLength="118.1113" x="660.94" y="290.5951">Payment Service</text></g><!--entity NotifSvc--><g class="entity" data-entity="NotifSvc" data-source-line="13" data-uid="ent0009" id="entity_NotifSvc"><rect fill="#FFFFFF" height="36.2969" rx="2.5" ry="2.5" style="stroke:#000000;stroke-width:0.5;" width="156.5205" x="617.74" y="41"/><text fill="#000000" font-family="sans-serif" font-size="14" lengthAdjust="spacing" textLength="136.5205" x="627.74" y="63.9951">Notification Service</text></g><!--entity IdnSvc--><g class="entity" data-entity="IdnSvc" data-source-line="14" data-uid="ent0010" id="entity_IdnSvc"><rect fill="#FFFFFF" height="36.2969" rx="2.5" ry="2.5" style="stroke:#000000;stroke-width:0.5;" width="129.8467" x="82.08" y="385.89"/><text fill="#000000" font-family="sans-serif" font-size="14" lengthAdjust="spacing" textLength="109.8467" x="92.08" y="408.8851">Identity Service</text></g><!--entity Kafka--><g class="entity" data-entity="Kafka" data-source-line="15" data-uid="ent0011" id="entity_Kafka"><path d="M561.225,390.8934 C564.9974,385.5754 568.8618,385.6472 572.8117,390.6952 C576.8176,384.0562 580.8881,383.4611 586.0595,389.4749 C590.0107,382.5328 593.8649,381.7979 598.9592,388.3849 C603.1297,382.0585 606.8374,382.9471 610.8617,388.5309 C614.3602,383.0426 618.0387,381.9942 622.6269,387.3484 C625.8219,381.2514 631.3521,380.0245 635.4059,386.4737 C638.4806,381.4452 643.4995,380.7502 646.7503,386.2845 C651.6835,381.3691 656.305,380.5709 659.7215,387.8923 C663.0854,382.8246 666.5877,381.4913 671.1288,386.5686 C674.7761,381.4507 680.6393,382.4056 683.3681,387.6532 C687.6102,380.6258 692.0653,382.3331 696.4049,387.5494 C700.8709,382.9353 704.6424,382.4694 707.5625,389.0854 C711.1236,383.1302 717.7943,382.4725 721.1899,389.2623 C724.347,383.2258 729.8784,383.8041 732.8154,389.4808 C741.5499,391.8157 742.5217,398.8264 735.8895,404.3403 C741.2396,410.1467 740.3964,417.5165 732.0647,419.9762 C729.5371,424.9726 725.0365,426.9366 721.1126,421.4326 C717.7847,426.3378 712.1563,426.2074 709.3621,420.8231 C706.0966,427.9964 699.6957,428.6796 695.4537,421.7888 C691.1673,426.0571 687.4757,426.7926 684.1213,420.7632 C680.2043,425.7793 676.6126,427.0636 672.1715,421.3467 C669.4086,427.3959 663.2486,427.1567 659.8123,422.0958 C655.2079,428.6883 650.9898,426.8963 647.1945,421.261 C643.9464,427.4153 639.4063,427.8031 635.1306,422.3268 C630.8286,427.3522 626.7928,427.2338 623.3564,421.3893 C619.9191,428.4539 613.7662,427.4648 610.2499,421.4686 C606.5633,427.049 601.1324,426.9385 598.2442,420.6603 C594.004,427.1601 588.5242,425.7133 585.2583,419.653 C582.4551,425.2357 576.3289,426.2383 572.9036,420.3213 C569.5695,425.3549 565.1081,425.5554 562.0241,420.0628 C552.7082,416.2089 553.1801,410.24 559.9699,404.2887 C554.7569,399.8704 555.4967,394.2866 561.225,390.8934" fill="#F1F1F1" style="stroke:#181818;stroke-width:0.5;"/><text fill="#000000" font-family="sans-serif" font-size="14" lengthAdjust="spacing" textLength="157.3086" x="567.35" y="408.8851">Kafka Event Backbone</text></g><!--link APIGW to CustSvc--><g class="link" data-entity-1="APIGW" data-entity-2="CustSvc" data-source-line="18" data-uid="lnk12" id="link_APIGW_CustSvc"><path d="M400.78,77.68 C371.99,95.5 327.31,124.64 292,154.3 C248.2,191.1 206.7966,236.5507 183.9866,262.6707" fill="none" id="APIGW-to-CustSvc" style="stroke:#181818;stroke-width:1;"/><polygon fill="#181818" points="180.04,267.19,188.9728,263.0421,183.3288,263.4239,182.947,257.7799,180.04,267.19" style="stroke:#181818;stroke-width:1;"/><text fill="#000000" font-family="sans-serif" font-size="13" lengthAdjust="spacing" textLength="72.0205" x="293" y="177.0169">REST/gRPC</text></g><!--link APIGW to RestSvc--><g class="link" data-entity-1="APIGW" data-entity-2="RestSvc" data-source-line="19" data-uid="lnk13" id="link_APIGW_RestSvc"><path d="M420.13,77.69 C410.05,96.22 394.57,126.56 385,154.3 C371.38,193.77 363.5119,236.3044 359.4919,261.5944" fill="none" id="APIGW-to-RestSvc" style="stroke:#181818;stroke-width:1;"/><polygon fill="#181818" points="358.55,267.52,363.9133,259.2595,359.3349,262.582,356.0125,258.0037,358.55,267.52" style="stroke:#181818;stroke-width:1;"/><text fill="#000000" font-family="sans-serif" font-size="13" lengthAdjust="spacing" textLength="72.0205" x="386" y="177.0169">REST/gRPC</text></g><!--link APIGW to LogSvc--><g class="link" data-entity-1="APIGW" data-entity-2="LogSvc" data-source-line="20" data-uid="lnk14" id="link_APIGW_LogSvc"><path d="M438.95,77.77 C460.26,119.76 511.1141,219.9499 532.3841,261.8499" fill="none" id="APIGW-to-LogSvc" style="stroke:#181818;stroke-width:1;"/><polygon fill="#181818" points="535.1,267.2,534.5929,257.3642,532.8367,262.7416,527.4594,260.9854,535.1,267.2" style="stroke:#181818;stroke-width:1;"/><text fill="#000000" font-family="sans-serif" font-size="13" lengthAdjust="spacing" textLength="72.0205" x="495" y="177.0169">REST/gRPC</text></g><!--link APIGW to OrderSvc--><g class="link" data-entity-1="APIGW" data-entity-2="OrderSvc" data-source-line="21" data-uid="lnk15" id="link_APIGW_OrderSvc"><path d="M471.83,77.79 C521.26,98.63 597.4916,130.7583 646.8316,151.5683" fill="none" id="APIGW-to-OrderSvc" style="stroke:#181818;stroke-width:1;"/><polygon fill="#181818" points="652.36,153.9,645.6219,146.7169,647.753,151.9569,642.5129,154.0881,652.36,153.9" style="stroke:#181818;stroke-width:1;"/><text fill="#000000" font-family="sans-serif" font-size="13" lengthAdjust="spacing" textLength="72.0205" x="578" y="120.3669">REST/gRPC</text></g><!--link CustSvc to Kafka--><g class="link" data-entity-1="CustSvc" data-entity-2="Kafka" data-source-line="22" data-uid="lnk16" id="link_CustSvc_Kafka"><path d="M214.95,304.31 C237.52,312.65 264.38,323.14 288,333.89 C302.66,340.57 304.73,345.77 320,350.89 C395.81,376.31 479.8309,388.9015 546.0409,395.6515" fill="none" id="CustSvc-to-Kafka" style="stroke:#181818;stroke-width:1;"/><polygon fill="#181818" points="552.01,396.26,543.4621,391.3678,547.0358,395.7529,542.6507,399.3266,552.01,396.26" style="stroke:#181818;stroke-width:1;"/><text fill="#000000" font-family="sans-serif" font-size="13" lengthAdjust="spacing" textLength="142.5112" x="321" y="346.9569">publish search events</text></g><!--link RestSvc to Kafka--><g class="link" data-entity-1="RestSvc" data-entity-2="Kafka" data-source-line="23" data-uid="lnk17" id="link_RestSvc_Kafka"><path d="M402.47,304.38 C423.87,312.81 449.45,323.35 472,333.89 C486.59,340.71 489.3,344.32 504,350.89 C527.98,361.61 549.2421,369.8848 573.1421,378.4548" fill="none" id="RestSvc-to-Kafka" style="stroke:#181818;stroke-width:1;"/><polygon fill="#181818" points="578.79,380.48,571.6683,373.6769,574.0834,378.7923,568.968,381.2075,578.79,380.48" style="stroke:#181818;stroke-width:1;"/><text fill="#000000" font-family="sans-serif" font-size="13" lengthAdjust="spacing" textLength="93.8501" x="505" y="346.9569">menu updates</text></g><!--link OrderSvc to Kafka--><g class="link" data-entity-1="OrderSvc" data-entity-2="Kafka" data-source-line="24" data-uid="lnk18" id="link_OrderSvc_Kafka"><path d="M741.86,191.03 C759.93,198.76 780.18,208.78 797,220.6 C828.12,242.46 932.13,321.49 908,350.89 C886.78,376.75 812.2599,389.4297 746.0299,396.0897" fill="none" id="OrderSvc-to-Kafka" style="stroke:#181818;stroke-width:1;"/><polygon fill="#181818" points="740.06,396.69,749.4151,399.7694,745.0349,396.1897,748.6146,391.8096,740.06,396.69" style="stroke:#181818;stroke-width:1;"/><text fill="#000000" font-family="sans-serif" font-size="13" lengthAdjust="spacing" textLength="82.8242" x="893" y="290.3069">order events</text></g><!--link LogSvc to Kafka--><g class="link" data-entity-1="LogSvc" data-entity-2="Kafka" data-source-line="25" data-uid="lnk19" id="link_LogSvc_Kafka"><path d="M572.42,304.24 C584.05,312.31 597.08,322.6 607,333.89 C619.28,347.87 626.8662,360.9296 633.7362,375.2596" fill="none" id="LogSvc-to-Kafka" style="stroke:#181818;stroke-width:1;"/><polygon fill="#181818" points="636.33,380.67,636.0462,370.8252,634.1685,376.1614,628.8324,374.2836,636.33,380.67" style="stroke:#181818;stroke-width:1;"/><text fill="#000000" font-family="sans-serif" font-size="13" lengthAdjust="spacing" textLength="141.8892" x="619" y="346.9569">driver location events</text></g><!--link OrderSvc to PaySvc--><g class="link" data-entity-1="OrderSvc" data-entity-2="PaySvc" data-source-line="26" data-uid="lnk20" id="link_OrderSvc_PaySvc"><path d="M698.06,190.84 C702.92,211.62 709.6357,240.3672 714.5157,261.2672" fill="none" id="OrderSvc-to-PaySvc" style="stroke:#181818;stroke-width:1;"/><polygon fill="#181818" points="715.88,267.11,717.7288,257.4362,714.7431,262.241,709.9384,259.2552,715.88,267.11" style="stroke:#181818;stroke-width:1;"/><text fill="#000000" font-family="sans-serif" font-size="13" lengthAdjust="spacing" textLength="79.4346" x="709" y="233.6669">gRPC (saga)</text></g><!--link OrderSvc to LogSvc--><g class="link" data-entity-1="OrderSvc" data-entity-2="LogSvc" data-source-line="27" data-uid="lnk21" id="link_OrderSvc_LogSvc"><path d="M635.59,182.29 C610.21,188.92 582,200.47 563,220.6 C551.04,233.27 547.2596,247.1498 545.6096,261.4098" fill="none" id="OrderSvc-to-LogSvc" style="stroke:#181818;stroke-width:1;"/><polygon fill="#181818" points="544.92,267.37,549.928,258.8894,545.4947,262.4031,541.981,257.9699,544.92,267.37" style="stroke:#181818;stroke-width:1;"/><text fill="#000000" font-family="sans-serif" font-size="13" lengthAdjust="spacing" textLength="132.4692" x="564" y="233.6669">gRPC (assign driver)</text></g><!--link PaySvc to Kafka--><g class="link" data-entity-1="PaySvc" data-entity-2="Kafka" data-source-line="28" data-uid="lnk22" id="link_PaySvc_Kafka"><path d="M761.18,304.24 C782.91,316.08 802.68,332.81 790,350.89 C777.94,368.09 765.1889,377.4318 745.6089,385.1818" fill="none" id="PaySvc-to-Kafka" style="stroke:#181818;stroke-width:1;"/><polygon fill="#181818" points="740.03,387.39,749.8704,387.797,744.6791,385.5498,746.9262,380.3585,740.03,387.39" style="stroke:#181818;stroke-width:1;"/><text fill="#000000" font-family="sans-serif" font-size="13" lengthAdjust="spacing" textLength="105.8408" x="794" y="346.9569">payment events</text></g><!--link CustSvc to IdnSvc--><g class="link" data-entity-1="CustSvc" data-entity-2="IdnSvc" data-source-line="29" data-uid="lnk23" id="link_CustSvc_IdnSvc"><path d="M90.28,304.35 C75.96,311.2 62.72,320.71 54,333.89 C39.46,355.87 58.6431,371.0879 86.2231,383.0179" fill="none" id="CustSvc-to-IdnSvc" style="stroke:#181818;stroke-width:1;"/><polygon fill="#181818" points="91.73,385.4,85.0577,378.1557,87.1409,383.415,81.8816,385.4982,91.73,385.4" style="stroke:#181818;stroke-width:1;"/><text fill="#000000" font-family="sans-serif" font-size="13" lengthAdjust="spacing" textLength="48.9722" x="55" y="346.9569">OAuth2</text></g><!--link RestSvc to IdnSvc--><g class="link" data-entity-1="RestSvc" data-entity-2="IdnSvc" data-source-line="30" data-uid="lnk24" id="link_RestSvc_IdnSvc"><path d="M275.19,302.29 C217.12,313.84 148.32,328.51 144,333.89 C132.5,348.24 134.1166,364.3769 138.6466,379.6769" fill="none" id="RestSvc-to-IdnSvc" style="stroke:#181818;stroke-width:1;"/><polygon fill="#181818" points="140.35,385.43,141.6304,375.6647,138.9305,380.6357,133.9595,377.9359,140.35,385.43" style="stroke:#181818;stroke-width:1;"/><text fill="#000000" font-family="sans-serif" font-size="13" lengthAdjust="spacing" textLength="48.9722" x="145" y="346.9569">OAuth2</text></g><!--link LogSvc to IdnSvc--><g class="link" data-entity-1="LogSvc" data-entity-2="IdnSvc" data-source-line="31" data-uid="lnk25" id="link_LogSvc_IdnSvc"><path d="M471.36,300.93 C465.49,301.97 459.65,302.97 454,303.89 C356.61,319.8 324.76,295.14 234,333.89 C205.96,345.86 183.64,365.1547 167.4,381.4147" fill="none" id="LogSvc-to-IdnSvc" style="stroke:#181818;stroke-width:1;"/><polygon fill="#181818" points="163.16,385.66,172.3502,382.1188,166.6934,382.1223,166.6899,376.4654,163.16,385.66" style="stroke:#181818;stroke-width:1;"/><text fill="#000000" font-family="sans-serif" font-size="13" lengthAdjust="spacing" textLength="48.9722" x="235" y="346.9569">OAuth2</text></g><!--SRC=[TP9DQy9048Rl-HL32gKUfD2ZXu8L5R5KqKBFusOJboIxOJzIfFI_TtUpiLc3kOJC-sG-tXbLCjwWn1ea9HfvKL7uIG3Ua9I558Pd2r492Gyh_pX5o8pABdggB9Ry9abZtrXGI5T2bl08Myvo2liATIvadVgK_mNI-Nu3QzJq6oyfe0BxlVwAaOLHMjHKmf7AbX6gFEYYnvR4w84gZKOYrp7iuYFuNHHCQKPKpDhm2DsvGNlCKpuoulPugUb_SK_Qs8Zx49hbZA1cWaUm5qRu9hD9cRv4w2RZ7KWgOJ98jvYN2ClMrNSxEmdUWLvmg_7UmdJwsfi7CpWiZv_FnM6_6AZ1hJjgvyyTiRSbaljg3kYwd45ZJXLJPr0K9Ja3TMshfAyy9AsX1aoJsIDHoJN_aF1dsAS8xGtrJBBM0fK8XWSoojLjoSAkOtXIME0a9gvpTmGgnGeUSa-Iy7yqOZY6K6xeGhSxo-pcHfzVehbljS50Dz8V]--></g></svg>