<svg xmlns="http://www.w3.org/2000/svg" xmlns:xlink="http://www.w3.org/1999/xlink" contentStyleType="text/css" data-diagram-type="DESCRIPTION" height="362px" preserveAspectRatio="none" style="width:765px;height:362px;background:#FFFFFF;" version="1.1" viewBox="0 0 765 362" width="765px" zoomAndPan="magnify"><defs/><g><!--cluster Order Service--><g class="cluster" data-entity="Order Service" data-source-line="1" data-uid="ent0002" id="cluster_Order Service"><path d="M8.5,6 L117.8018,6 A3.75,3.75 0 0 1 120.3018,8.5 L127.3018,28.2969 L379.5,28.2969 A2.5,2.5 0 0 1 382,30.7969 L382,353.24 A2.5,2.5 0 0 1 379.5,355.74 L8.5,355.74 A2.5,2.5 0 0 1 6,353.24 L6,8.5 A2.5,2.5 0 0 1 8.5,6" fill="none" style="stroke:#000000;stroke-width:1.5;"/><line style="stroke:#000000;stroke-width:1.5;" x1="6" x2="127.3018" y1="28.2969" y2="28.2969"/><text fill="#000000" font-family="sans-serif" font-size="14" font-weight="bold" lengthAdjust="spacing" textLength="108.3018" x="10" y="20.9951">Order Service</text></g><!--entity C1--><g class="entity" data-entity="C1" data-source-line="2" data-uid="ent0003" id="entity_C1"><rect fill="#F1F1F1" height="46.2969" rx="2.5" ry="2.5" style="stroke:#181818;stroke-width:0.5;" width="153.6543" x="140.17" y="41"/><rect fill="#F1F1F1" height="10" style="stroke:#181818;stroke-width:0.5;" width="15" x="273.8243" y="46"/><rect fill="#F1F1F1" height="2" style="stroke:#181818;stroke-width:0.5;" width="4" x="271.8243" y="48"/><rect fill="#F1F1F1" height="2" style="stroke:#181818;stroke-width:0.5;" width="4" x="271.8243" y="52"/><text fill="#000000" font-family="sans-serif" font-size="14" lengthAdjust="spacing" textLength="113.6543" x="155.17" y="73.9951">Order Controller</text></g><!--entity C2--><g class="entity" data-entity="C2" data-source-line="3" data-uid="ent0004" id="entity_C2"><rect fill="#F1F1F1" height="46.2969" rx="2.5" ry="2.5" style="stroke:#181818;stroke-width:0.5;" width="212.751" x="110.62" y="164.29"/><rect fill="#F1F1F1" height="10" style="stroke:#181818;stroke-width:0.5;" width="15" x="303.371" y="169.29"/><rect fill="#F1F1F1" height="2" style="stroke:#181818;stroke-width:0.5;" width="4" x="301.371" y="171.29"/><rect fill="#F1F1F1" height="2" style="stroke:#181818;stroke-width:0.5;" width="4" x="301.371" y="175.29"/><text fill="#000000" font-family="sans-serif" font-size="14" lengthAdjust="spacing" textLength="172.751" x="125.62" y="197.2851">Order Saga Orchestrator</text></g><!--entity C3--><g class="entity" data-entity="C3" data-source-line="4" data-uid="ent0005" id="entity_C3"><rect fill="#F1F1F1" height="46.2969" rx="2.5" ry="2.5" style="stroke:#181818;stroke-width:0.5;" width="159.5537" x="22.22" y="293.44"/><rect fill="#F1F1F1" height="10" style="stroke:#181818;stroke-width:0.5;" width="15" x="161.7737" y="298.44"/><rect fill="#F1F1F1" height="2" style="stroke:#181818;stroke-width:0.5;" width="4" x="159.7737" y="300.44"/><rect fill="#F1F1F1" height="2" style="stroke:#181818;stroke-width:0.5;" width="4" x="159.7737" y="304.44"/><text fill="#000000" font-family="sans-serif" font-size="14" lengthAdjust="spacing" textLength="119.5537" x="37.22" y="326.4351">Order Repository</text></g><!--entity C4--><g class="entity" data-entity="C4" data-source-line="5" data-uid="ent0006" id="entity_C4"><rect fill="#F1F1F1" height="46.2969" rx="2.5" ry="2.5" style="stroke:#181818;stroke-width:0.5;" width="149.0742" x="216.46" y="293.44"/><rect fill="#F1F1F1" height="10" style="stroke:#181818;stroke-width:0.5;" width="15" x="345.5342" y="298.44"/><rect fill="#F1F1F1" height="2" style="stroke:#181818;stroke-width:0.5;" width="4" x="343.5342" y="300.44"/><rect fill="#F1F1F1" height="2" style="stroke:#181818;stroke-width:0.5;" width="4" x="343.5342" y="304.44"/><text fill="#000000" font-family="sans-serif" font-size="14" lengthAdjust="spacing" textLength="109.0742" x="231.46" y="326.4351">Event Publisher</text></g><!--entity Payment Service--><g class="entity" data-entity="Payment Service" data-source-line="11" data-uid="ent0010" id="entity_Payment Service"><ellipse cx="468" cy="316.59" fill="#F1F1F1" rx="8" ry="8" style="stroke:#181818;stroke-width:0.5;"/><text fill="#000000" font-family="sans-serif" font-size="14" lengthAdjust="spacing" textLength="118.1113" x="408.9443" y="346.5851">Payment Service</text></g><!--entity Logistics Service--><g class="entity" data-entity="Logistics Service" data-source-line="12" data-uid="ent0012" id="entity_Logistics Service"><ellipse cx="636" cy="316.59" fill="#F1F1F1" rx="8" ry="8" style="stroke:#181818;stroke-width:0.5;"/><text fill="#000000" font-family="sans-serif" font-size="14" lengthAdjust="spacing" textLength="116.9971" x="577.5015" y="346.5851">Logistics Service</text></g><!--link C1 to C2--><g class="link" data-entity-1="C1" data-entity-2="C2" data-source-line="8" data-uid="lnk7" id="link_C1_C2"><path d="M217,87.68 C217,109.46 217,136.29 217,158.03" fill="none" id="C1-to-C2" style="stroke:#181818;stroke-width:1;"/><polygon fill="#181818" points="217,164.03,221,155.03,217,159.03,213,155.03,217,164.03" style="stroke:#181818;stroke-width:1;"/><text fill="#000000" font-family="sans-serif" font-size="13" lengthAdjust="spacing" textLength="131.6694" x="218" y="130.3569">start order workflow</text></g><!--link C2 to C3--><g class="link" data-entity-1="C2" data-entity-2="C3" data-source-line="9" data-uid="lnk8" id="link_C2_C3"><path d="M189.19,210.96 C178.95,219.77 167.54,230.23 158,240.59 C142.81,257.09 131.1393,272.6596 120.4593,288.0596" fill="none" id="C2-to-C3" style="stroke:#181818;stroke-width:1;"/><polygon fill="#181818" points="117.04,292.99,125.4558,287.8739,119.8894,288.8813,118.882,283.3149,117.04,292.99" style="stroke:#181818;stroke-width:1;"/><text fill="#000000" font-family="sans-serif" font-size="13" lengthAdjust="spacing" textLength="80.9136" x="159" y="253.6569">persist state</text></g><!--link C2 to C4--><g class="link" data-entity-1="C2" data-entity-2="C4" data-source-line="10" data-uid="lnk9" id="link_C2_C4"><path d="M230.06,210.88 C243.5,233.98 261.3228,264.5938 274.8028,287.7638" fill="none" id="C2-to-C4" style="stroke:#181818;stroke-width:1;"/><polygon fill="#181818" points="277.82,292.95,276.7516,283.1593,275.3056,288.6282,269.8367,287.1823,277.82,292.95" style="stroke:#181818;stroke-width:1;"/><text fill="#000000" font-family="sans-serif" font-size="13" lengthAdjust="spacing" textLength="163.5664" x="258" y="253.6569">emit OrderCreated event</text></g><!--link C2 to Payment Service--><g class="link" data-entity-1="C2" data-entity-2="Payment Service" data-source-line="11" data-uid="lnk11" id="link_C2_Payment Service"><path d="M323.76,196.79 C360.14,204.02 399.13,217.11 429,240.59 C451.38,258.19 460.7556,286.3765 464.6956,301.8065" fill="none" id="C2-to-Payment Service" style="stroke:#181818;stroke-width:1;"/><polygon fill="#181818" points="466.18,307.62,467.829,297.9102,464.943,302.7754,460.0777,299.8894,466.18,307.62" style="stroke:#181818;stroke-width:1;"/><text fill="#000000" font-family="sans-serif" font-size="13" lengthAdjust="spacing" textLength="107.2754" x="446" y="253.6569">initiate payment</text></g><!--link C2 to Logistics Service--><g class="link" data-entity-1="C2" data-entity-2="Logistics Service" data-source-line="12" data-uid="lnk13" id="link_C2_Logistics Service"><path d="M323.79,197.17 C409.28,205.52 521.38,219.9 562,240.59 C593.95,256.86 616.9802,287.2157 627.6102,302.8757" fill="none" id="C2-to-Logistics Service" style="stroke:#181818;stroke-width:1;"/><polygon fill="#181818" points="630.98,307.84,629.2349,298.147,628.1718,303.7031,622.6158,302.64,630.98,307.84" style="stroke:#181818;stroke-width:1;"/><text fill="#000000" font-family="sans-serif" font-size="13" lengthAdjust="spacing" textLength="171.8247" x="586" y="253.6569">request driver assignment</text></g><!--SRC=[RT2nRi9030RW_Px2oiv0OMBe4dMh12fFSBsumI8vfxO9GbNVlRxGHAt4TCF_dVtBGqpds29KUsbGu8WoKi8AlW8axWVEc6qEQyuct7Ke5KI5Ult076CROI_fX6eIZN_fqmFwXWChERdTpUQVUHdBSxYyTwIdUUCsV8TGhs6rUlQPi0ErA0OypRkod3ywlWPF9h1nCA0egHLek2HRJx0dWwb9BUXX0rXMpgOwn5jVAYmdsG5bCd8AmprRx2ktleII_jM2dnU_0ZH2ezUBgjJcykq7]--></g></svg>