<svg xmlns="http://www.w3.org/2000/svg" xmlns:xlink="http://www.w3.org/1999/xlink" contentStyleType="text/css" data-diagram-type="SEQUENCE" height="923px" preserveAspectRatio="none" style="width:1918px;height:923px;background:#FFFFFF;" version="1.1" viewBox="0 0 1918 923" width="1918px" zoomAndPan="magnify"><defs/><g><g><title>Customer</title><rect fill="#000000" fill-opacity="0.00000" height="761.1875" width="8" x="38.002" y="81.2969"/><line style="stroke:#181818;stroke-width:0.5;stroke-dasharray:5,5;" x1="42" x2="42" y1="81.2969" y2="842.4844"/></g><g><title>API Gateway</title><rect fill="#000000" fill-opacity="0.00000" height="761.1875" width="8" x="146.4448" y="81.2969"/><line style="stroke:#181818;stroke-width:0.5;stroke-dasharray:5,5;" x1="150.2231" x2="150.2231" y1="81.2969" y2="842.4844"/></g><g><title>Order-API</title><rect fill="#000000" fill-opacity="0.00000" height="761.1875" width="8" x="317.2598" y="81.2969"/><line style="stroke:#181818;stroke-width:0.5;stroke-dasharray:5,5;" x1="320.644" x2="320.644" y1="81.2969" y2="842.4844"/></g><g><title>Order DB</title><rect fill="#000000" fill-opacity="0.00000" height="761.1875" width="8" x="452.2739" y="81.2969"/><line style="stroke:#181818;stroke-width:0.5;stroke-dasharray:5,5;" x1="455.8408" x2="455.8408" y1="81.2969" y2="842.4844"/></g><g><title>Kafka .order-events.</title><rect fill="#000000" fill-opacity="0.00000" height="761.1875" width="8" x="580.98" y="81.2969"/><line style="stroke:#181818;stroke-width:0.5;stroke-dasharray:5,5;" x1="584.707" x2="584.707" y1="81.2969" y2="842.4844"/></g><g><title>Saga Orchestrator</title><rect fill="#000000" fill-opacity="0.00000" height="761.1875" width="8" x="741.3877" y="81.2969"/><line style="stroke:#181818;stroke-width:0.5;stroke-dasharray:5,5;" x1="745.2529" x2="745.2529" y1="81.2969" y2="842.4844"/></g><g><title>Payment-API</title><rect fill="#000000" fill-opacity="0.00000" height="761.1875" width="8" x="990.0122" y="81.2969"/><line style="stroke:#181818;stroke-width:0.5;stroke-dasharray:5,5;" x1="993.4521" x2="993.4521" y1="81.2969" y2="842.4844"/></g><g><title>Payment Service</title><rect fill="#000000" fill-opacity="0.00000" height="761.1875" width="8" x="1154.5303" y="81.2969"/><line style="stroke:#181818;stroke-width:0.5;stroke-dasharray:5,5;" x1="1158.4746" x2="1158.4746" y1="81.2969" y2="842.4844"/></g><g><title>Stripe</title><rect fill="#000000" fill-opacity="0.00000" height="761.1875" width="8" x="1258.3467" y="81.2969"/><line style="stroke:#181818;stroke-width:0.5;stroke-dasharray:5,5;" x1="1261.5859" x2="1261.5859" y1="81.2969" y2="842.4844"/></g><g><title>Dispatch-API</title><rect fill="#000000" fill-opacity="0.00000" height="761.1875" width="8" x="1347.4521" y="81.2969"/><line style="stroke:#181818;stroke-width:0.5;stroke-dasharray:5,5;" x1="1351.1074" x2="1351.1074" y1="81.2969" y2="842.4844"/></g><g><title>Kafka .dispatch-events.</title><rect fill="#000000" fill-opacity="0.00000" height="761.1875" width="8" x="1499.0791" y="81.2969"/><line style="stroke:#181818;stroke-width:0.5;stroke-dasharray:5,5;" x1="1502.7969" x2="1502.7969" y1="81.2969" y2="842.4844"/></g><g><title>Dispatch Service</title><rect fill="#000000" fill-opacity="0.00000" height="761.1875" width="8" x="1737.5918" y="81.2969"/><line style="stroke:#181818;stroke-width:0.5;stroke-dasharray:5,5;" x1="1740.7515" x2="1740.7515" y1="81.2969" y2="842.4844"/></g><g><title>Driver App</title><rect fill="#000000" fill-opacity="0.00000" height="761.1875" width="8" x="1857.8726" y="81.2969"/><line style="stroke:#181818;stroke-width:0.5;stroke-dasharray:5,5;" x1="1861.4321" x2="1861.4321" y1="81.2969" y2="842.4844"/></g><g class="participant participant-head" data-participant="Customer"><text fill="#000000" font-family="sans-serif" font-size="14" lengthAdjust="spacing" textLength="68.0039" x="5" y="77.9951">Customer</text><ellipse cx="42.002" cy="13.5" fill="#E2E2F0" rx="8" ry="8" style="stroke:#181818;stroke-width:0.5;"/><path d="M42.002,21.5 L42.002,48.5 M29.002,29.5 L55.002,29.5 M42.002,48.5 L29.002,63.5 M42.002,48.5 L55.002,63.5" fill="none" style="stroke:#181818;stroke-width:0.5;"/></g><g class="participant participant-tail" data-participant="Customer"><text fill="#000000" font-family="sans-serif" font-size="14" lengthAdjust="spacing" textLength="68.0039" x="5" y="854.4795">Customer</text><ellipse cx="42.002" cy="866.2813" fill="#E2E2F0" rx="8" ry="8" style="stroke:#181818;stroke-width:0.5;"/><path d="M42.002,874.2813 L42.002,901.2813 M29.002,882.2813 L55.002,882.2813 M42.002,901.2813 L29.002,916.2813 M42.002,901.2813 L55.002,916.2813" fill="none" style="stroke:#181818;stroke-width:0.5;"/></g><g class="participant participant-head" data-participant="APIGW"><rect fill="#E2E2F0" height="30.2969" rx="2.5" ry="2.5" style="stroke:#181818;stroke-width:0.5;" width="102.4434" x="99.2231" y="50"/><text fill="#000000" font-family="sans-serif" font-size="14" lengthAdjust="spacing" textLength="88.4434" x="106.2231" y="69.9951">API Gateway</text></g><g class="participant participant-tail" data-participant="APIGW"><rect fill="#E2E2F0" height="30.2969" rx="2.5" ry="2.5" style="stroke:#181818;stroke-width:0.5;" width="102.4434" x="99.2231" y="841.4844"/><text fill="#000000" font-family="sans-serif" font-size="14" lengthAdjust="spacing" textLength="88.4434" x="106.2231" y="861.4795">API Gateway</text></g><g class="participant participant-head" data-participant="OrderAPI"><rect fill="#E2E2F0" height="30.2969" rx="2.5" ry="2.5" style="stroke:#181818;stroke-width:0.5;" width="81.2314" x="280.644" y="50"/><text fill="#000000" font-family="sans-serif" font-size="14" lengthAdjust="spacing" textLength="67.2314" x="287.644" y="69.9951">Order-API</text></g><g class="participant participant-tail" data-participant="OrderAPI"><rect fill="#E2E2F0" height="30.2969" rx="2.5" ry="2.5" style="stroke:#181818;stroke-width:0.5;" width="81.2314" x="280.644" y="841.4844"/><text fill="#000000" font-family="sans-serif" font-size="14" lengthAdjust="spacing" textLength="67.2314" x="287.644" y="861.4795">Order-API</text></g><g class="participant participant-head" data-participant="OrderDB"><rect fill="#E2E2F0" height="30.2969" rx="2.5" ry="2.5" style="stroke:#181818;stroke-width:0.5;" width="78.8662" x="416.8408" y="50"/><text fill="#000000" font-family="sans-serif" font-size="14" lengthAdjust="spacing" textLength="64.8662" x="423.8408" y="69.9951">Order DB</text></g><g class="participant participant-tail" data-participant="OrderDB"><rect fill="#E2E2F0" height="30.2969" rx="2.5" ry="2.5" style="stroke:#181818;stroke-width:0.5;" width="78.8662" x="416.8408" y="841.4844"/><text fill="#000000" font-family="sans-serif" font-size="14" lengthAdjust="spacing" textLength="64.8662" x="423.8408" y="861.4795">Order DB</text></g><g class="participant participant-head" data-participant="KafkaOrder"><rect fill="#E2E2F0" height="30.2969" rx="2.5" ry="2.5" style="stroke:#181818;stroke-width:0.5;" width="158.5459" x="505.707" y="50"/><text fill="#000000" font-family="sans-serif" font-size="14" lengthAdjust="spacing" textLength="144.5459" x="512.707" y="69.9951">Kafka (order-events)</text></g><g class="participant participant-tail" data-participant="KafkaOrder"><rect fill="#E2E2F0" height="30.2969" rx="2.5" ry="2.5" style="stroke:#181818;stroke-width:0.5;" width="158.5459" x="505.707" y="841.4844"/><text fill="#000000" font-family="sans-serif" font-size="14" lengthAdjust="spacing" textLength="144.5459" x="512.707" y="861.4795">Kafka (order-events)</text></g><g class="participant participant-head" data-participant="Saga"><rect fill="#E2E2F0" height="30.2969" rx="2.5" ry="2.5" style="stroke:#181818;stroke-width:0.5;" width="142.2695" x="674.2529" y="50"/><text fill="#000000" font-family="sans-serif" font-size="14" lengthAdjust="spacing" textLength="128.2695" x="681.2529" y="69.9951">Saga Orchestrator</text></g><g class="participant participant-tail" data-participant="Saga"><rect fill="#E2E2F0" height="30.2969" rx="2.5" ry="2.5" style="stroke:#181818;stroke-width:0.5;" width="142.2695" x="674.2529" y="841.4844"/><text fill="#000000" font-family="sans-serif" font-size="14" lengthAdjust="spacing" textLength="128.2695" x="681.2529" y="861.4795">Saga Orchestrator</text></g><g class="participant participant-head" data-participant="PayAPI"><rect fill="#E2E2F0" height="30.2969" rx="2.5" ry="2.5" style="stroke:#181818;stroke-width:0.5;" width="103.1201" x="942.4521" y="50"/><text fill="#000000" font-family="sans-serif" font-size="14" lengthAdjust="spacing" textLength="89.1201" x="949.4521" y="69.9951">Payment-API</text></g><g class="participant participant-tail" data-participant="PayAPI"><rect fill="#E2E2F0" height="30.2969" rx="2.5" ry="2.5" style="stroke:#181818;stroke-width:0.5;" width="103.1201" x="942.4521" y="841.4844"/><text fill="#000000" font-family="sans-serif" font-size="14" lengthAdjust="spacing" textLength="89.1201" x="949.4521" y="861.4795">Payment-API</text></g><g class="participant participant-head" data-participant="Payment"><rect fill="#E2E2F0" height="30.2969" rx="2.5" ry="2.5" style="stroke:#181818;stroke-width:0.5;" width="132.1113" x="1092.4746" y="50"/><text fill="#000000" font-family="sans-serif" font-size="14" lengthAdjust="spacing" textLength="118.1113" x="1099.4746" y="69.9951">Payment Service</text></g><g class="participant participant-tail" data-participant="Payment"><rect fill="#E2E2F0" height="30.2969" rx="2.5" ry="2.5" style="stroke:#181818;stroke-width:0.5;" width="132.1113" x="1092.4746" y="841.4844"/><text fill="#000000" font-family="sans-serif" font-size="14" lengthAdjust="spacing" textLength="118.1113" x="1099.4746" y="861.4795">Payment Service</text></g><g class="participant participant-head" data-participant="Stripe"><rect fill="#E2E2F0" height="30.2969" rx="2.5" ry="2.5" style="stroke:#181818;stroke-width:0.5;" width="55.5215" x="1234.5859" y="50"/><text fill="#000000" font-family="sans-serif" font-size="14" lengthAdjust="spacing" textLength="41.5215" x="1241.5859" y="69.9951">Stripe</text></g><g class="participant participant-tail" data-participant="Stripe"><rect fill="#E2E2F0" height="30.2969" rx="2.5" ry="2.5" style="stroke:#181818;stroke-width:0.5;" width="55.5215" x="1234.5859" y="841.4844"/><text fill="#000000" font-family="sans-serif" font-size="14" lengthAdjust="spacing" textLength="41.5215" x="1241.5859" y="861.4795">Stripe</text></g><g class="participant participant-head" data-participant="DispatchAPI"><rect fill="#E2E2F0" height="30.2969" rx="2.5" ry="2.5" style="stroke:#181818;stroke-width:0.5;" width="102.6895" x="1300.1074" y="50"/><text fill="#000000" font-family="sans-serif" font-size="14" lengthAdjust="spacing" textLength="88.6895" x="1307.1074" y="69.9951">Dispatch-API</text></g><g class="participant participant-tail" data-participant="DispatchAPI"><rect fill="#E2E2F0" height="30.2969" rx="2.5" ry="2.5" style="stroke:#181818;stroke-width:0.5;" width="102.6895" x="1300.1074" y="841.4844"/><text fill="#000000" font-family="sans-serif" font-size="14" lengthAdjust="spacing" textLength="88.6895" x="1307.1074" y="861.4795">Dispatch-API</text></g><g class="participant participant-head" data-participant="KafkaDisp"><rect fill="#E2E2F0" height="30.2969" rx="2.5" ry="2.5" style="stroke:#181818;stroke-width:0.5;" width="180.5645" x="1412.7969" y="50"/><text fill="#000000" font-family="sans-serif" font-size="14" lengthAdjust="spacing" textLength="166.5645" x="1419.7969" y="69.9951">Kafka (dispatch-events)</text></g><g class="participant participant-tail" data-participant="KafkaDisp"><rect fill="#E2E2F0" height="30.2969" rx="2.5" ry="2.5" style="stroke:#181818;stroke-width:0.5;" width="180.5645" x="1412.7969" y="841.4844"/><text fill="#000000" font-family="sans-serif" font-size="14" lengthAdjust="spacing" textLength="166.5645" x="1419.7969" y="861.4795">Kafka (dispatch-events)</text></g><g class="participant participant-head" data-participant="Dispatch"><rect fill="#E2E2F0" height="30.2969" rx="2.5" ry="2.5" style="stroke:#181818;stroke-width:0.5;" width="131.6807" x="1675.7515" y="50"/><text fill="#000000" font-family="sans-serif" font-size="14" lengthAdjust="spacing" textLength="117.6807" x="1682.7515" y="69.9951">Dispatch Service</text></g><g class="participant participant-tail" data-participant="Dispatch"><rect fill="#E2E2F0" height="30.2969" rx="2.5" ry="2.5" style="stroke:#181818;stroke-width:0.5;" width="131.6807" x="1675.7515" y="841.4844"/><text fill="#000000" font-family="sans-serif" font-size="14" lengthAdjust="spacing" textLength="117.6807" x="1682.7515" y="861.4795">Dispatch Service</text></g><g class="participant participant-head" data-participant="Driver"><rect fill="#E2E2F0" height="30.2969" rx="2.5" ry="2.5" style="stroke:#181818;stroke-width:0.5;" width="88.8809" x="1817.4321" y="50"/><text fill="#000000" font-family="sans-serif" font-size="14" lengthAdjust="spacing" textLength="74.8809" x="1824.4321" y="69.9951">Driver App</text></g><g class="participant participant-tail" data-participant="Driver"><rect fill="#E2E2F0" height="30.2969" rx="2.5" ry="2.5" style="stroke:#181818;stroke-width:0.5;" width="88.8809" x="1817.4321" y="841.4844"/><text fill="#000000" font-family="sans-serif" font-size="14" lengthAdjust="spacing" textLength="74.8809" x="1824.4321" y="861.4795">Driver App</text></g><rect fill="#EEEEEE" height="3" style="stroke:#EEEEEE;stroke-width:1;" width="1911.313" x="0" y="111.8633"/><line style="stroke:#000000;stroke-width:1;" x1="0" x2="1911.313" y1="111.8633" y2="111.8633"/><line style="stroke:#000000;stroke-width:1;" x1="0" x2="1911.313" y1="114.8633" y2="114.8633"/><rect fill="#EEEEEE" height="23.1328" style="stroke:#000000;stroke-width:2;" width="127.4453" x="891.9338" y="101.2969"/><text fill="#000000" font-family="sans-serif" font-size="13" font-weight="bold" lengthAdjust="spacing" textLength="108.9194" x="897.9338" y="117.3638">Order Creation</text><g class="message" data-participant-1="Customer" data-participant-2="APIGW"><polygon fill="#181818" points="138.4448,151.5625,148.4448,155.5625,138.4448,159.5625,142.4448,155.5625" style="stroke:#181818;stroke-width:1;"/><line style="stroke:#181818;stroke-width:1;" x1="42.002" x2="144.4448" y1="155.5625" y2="155.5625"/><text fill="#000000" font-family="sans-serif" font-size="13" lengthAdjust="spacing" textLength="84.4429" x="49.002" y="150.4966">POST /orders</text></g><g class="message" data-participant-1="APIGW" data-participant-2="OrderAPI"><polygon fill="#181818" points="309.2598,180.6953,319.2598,184.6953,309.2598,188.6953,313.2598,184.6953" style="stroke:#181818;stroke-width:1;"/><line style="stroke:#181818;stroke-width:1;" x1="150.4448" x2="315.2598" y1="184.6953" y2="184.6953"/><text fill="#000000" font-family="sans-serif" font-size="13" lengthAdjust="spacing" textLength="134.0435" x="157.4448" y="179.6294">CreateOrderRequest</text></g><g class="message" data-participant-1="OrderAPI" data-participant-2="OrderDB"><polygon fill="#181818" points="444.2739,209.8281,454.2739,213.8281,444.2739,217.8281,448.2739,213.8281" style="stroke:#181818;stroke-width:1;"/><line style="stroke:#181818;stroke-width:1;" x1="321.2598" x2="450.2739" y1="213.8281" y2="213.8281"/><text fill="#000000" font-family="sans-serif" font-size="13" lengthAdjust="spacing" textLength="111.0142" x="328.2598" y="208.7622">insert NEW order</text></g><g class="message" data-participant-1="OrderAPI" data-participant-2="KafkaOrder"><polygon fill="#181818" points="572.98,238.9609,582.98,242.9609,572.98,246.9609,576.98,242.9609" style="stroke:#181818;stroke-width:1;"/><line style="stroke:#181818;stroke-width:1;" x1="321.2598" x2="578.98" y1="242.9609" y2="242.9609"/><text fill="#000000" font-family="sans-serif" font-size="13" lengthAdjust="spacing" textLength="180.667" x="328.2598" y="237.895">OrderCreated (outbox CDC)</text></g><g class="message" data-participant-1="OrderAPI" data-participant-2="APIGW"><polygon fill="#181818" points="161.4448,268.0938,151.4448,272.0938,161.4448,276.0938,157.4448,272.0938" style="stroke:#181818;stroke-width:1;"/><line style="stroke:#181818;stroke-width:1;stroke-dasharray:2,2;" x1="155.4448" x2="320.2598" y1="272.0938" y2="272.0938"/><text fill="#000000" font-family="sans-serif" font-size="13" lengthAdjust="spacing" textLength="146.8149" x="167.4448" y="267.0278">201 Created + orderId</text></g><rect fill="#EEEEEE" height="3" style="stroke:#EEEEEE;stroke-width:1;" width="1911.313" x="0" y="300.6602"/><line style="stroke:#000000;stroke-width:1;" x1="0" x2="1911.313" y1="300.6602" y2="300.6602"/><line style="stroke:#000000;stroke-width:1;" x1="0" x2="1911.313" y1="303.6602" y2="303.6602"/><rect fill="#EEEEEE" height="23.1328" style="stroke:#000000;stroke-width:2;" width="256.3599" x="827.4766" y="290.0938"/><text fill="#000000" font-family="sans-serif" font-size="13" font-weight="bold" lengthAdjust="spacing" textLength="237.834" x="833.4766" y="306.1606">Saga Step 1: Authorize Payment</text><g class="message" data-participant-1="KafkaOrder" data-participant-2="Saga"><polygon fill="#181818" points="733.3877,340.3594,743.3877,344.3594,733.3877,348.3594,737.3877,344.3594" style="stroke:#181818;stroke-width:1;"/><line style="stroke:#181818;stroke-width:1;stroke-dasharray:2,2;" x1="584.98" x2="739.3877" y1="344.3594" y2="344.3594"/><text fill="#000000" font-family="sans-serif" font-size="13" lengthAdjust="spacing" textLength="88.9053" x="591.98" y="339.2935">OrderCreated</text></g><g class="message" data-participant-1="Saga" data-participant-2="PayAPI"><polygon fill="#181818" points="982.0122,369.4922,992.0122,373.4922,982.0122,377.4922,986.0122,373.4922" style="stroke:#181818;stroke-width:1;"/><line style="stroke:#181818;stroke-width:1;" x1="745.3877" x2="988.0122" y1="373.4922" y2="373.4922"/><text fill="#000000" font-family="sans-serif" font-size="13" lengthAdjust="spacing" textLength="224.6245" x="752.3877" y="368.4263">AuthorizeCharge(orderId, amount)</text></g><g class="message" data-participant-1="PayAPI" data-participant-2="Payment"><polygon fill="#181818" points="1146.5303,398.625,1156.5303,402.625,1146.5303,406.625,1150.5303,402.625" style="stroke:#181818;stroke-width:1;"/><line style="stroke:#181818;stroke-width:1;" x1="994.0122" x2="1152.5303" y1="402.625" y2="402.625"/><text fill="#000000" font-family="sans-serif" font-size="13" lengthAdjust="spacing" textLength="140.5181" x="1001.0122" y="397.5591">process authorization</text></g><g class="message" data-participant-1="Payment" data-participant-2="Stripe"><polygon fill="#181818" points="1250.3467,427.7578,1260.3467,431.7578,1250.3467,435.7578,1254.3467,431.7578" style="stroke:#181818;stroke-width:1;"/><line style="stroke:#181818;stroke-width:1;" x1="1158.5303" x2="1256.3467" y1="431.7578" y2="431.7578"/><text fill="#000000" font-family="sans-serif" font-size="13" lengthAdjust="spacing" textLength="55.0913" x="1165.5303" y="426.6919">charge()</text></g><g class="message" data-participant-1="Stripe" data-participant-2="Payment"><polygon fill="#181818" points="1169.5303,456.8906,1159.5303,460.8906,1169.5303,464.8906,1165.5303,460.8906" style="stroke:#181818;stroke-width:1;"/><line style="stroke:#181818;stroke-width:1;stroke-dasharray:2,2;" x1="1163.5303" x2="1261.3467" y1="460.8906" y2="460.8906"/><text fill="#000000" font-family="sans-serif" font-size="13" lengthAdjust="spacing" textLength="50.8511" x="1175.5303" y="455.8247">success</text></g><g class="message" data-participant-1="Payment" data-participant-2="PayAPI"><polygon fill="#181818" points="1005.0122,486.0234,995.0122,490.0234,1005.0122,494.0234,1001.0122,490.0234" style="stroke:#181818;stroke-width:1;"/><line style="stroke:#181818;stroke-width:1;" x1="999.0122" x2="1157.5303" y1="490.0234" y2="490.0234"/><text fill="#000000" font-family="sans-serif" font-size="13" lengthAdjust="spacing" textLength="127.9497" x="1011.0122" y="484.9575">PaymentAuthorized</text></g><g class="message" data-participant-1="PayAPI" data-participant-2="Saga"><polygon fill="#181818" points="756.3877,515.1563,746.3877,519.1563,756.3877,523.1563,752.3877,519.1563" style="stroke:#181818;stroke-width:1;"/><line style="stroke:#181818;stroke-width:1;stroke-dasharray:2,2;" x1="750.3877" x2="993.0122" y1="519.1563" y2="519.1563"/><text fill="#000000" font-family="sans-serif" font-size="13" lengthAdjust="spacing" textLength="15.4819" x="762.3877" y="514.0903">ok</text></g><g class="message" data-participant-1="Saga" data-participant-2="KafkaOrder"><polygon fill="#181818" points="595.98,544.2891,585.98,548.2891,595.98,552.2891,591.98,548.2891" style="stroke:#181818;stroke-width:1;"/><line style="stroke:#181818;stroke-width:1;" x1="589.98" x2="744.3877" y1="548.2891" y2="548.2891"/><text fill="#000000" font-family="sans-serif" font-size="13" lengthAdjust="spacing" textLength="127.9497" x="601.98" y="543.2231">PaymentAuthorized</text></g><rect fill="#EEEEEE" height="3" style="stroke:#EEEEEE;stroke-width:1;" width="1911.313" x="0" y="576.8555"/><line style="stroke:#000000;stroke-width:1;" x1="0" x2="1911.313" y1="576.8555" y2="576.8555"/><line style="stroke:#000000;stroke-width:1;" x1="0" x2="1911.313" y1="579.8555" y2="579.8555"/><rect fill="#EEEEEE" height="23.1328" style="stroke:#000000;stroke-width:2;" width="230.3853" x="840.4639" y="566.2891"/><text fill="#000000" font-family="sans-serif" font-size="13" font-weight="bold" lengthAdjust="spacing" textLength="211.8594" x="846.4639" y="582.356">Saga Step 2: Dispatch Driver</text><g class="message" data-participant-1="Saga" data-participant-2="DispatchAPI"><polygon fill="#181818" points="1339.4521,616.5547,1349.4521,620.5547,1339.4521,624.5547,1343.4521,620.5547" style="stroke:#181818;stroke-width:1;"/><line style="stroke:#181818;stroke-width:1;" x1="745.3877" x2="1345.4521" y1="620.5547" y2="620.5547"/><text fill="#000000" font-family="sans-serif" font-size="13" lengthAdjust="spacing" textLength="270.9434" x="752.3877" y="615.4888">RequestDelivery(orderId, pickup, dropoff)</text></g><g class="message" data-participant-1="DispatchAPI" data-participant-2="Dispatch"><polygon fill="#181818" points="1729.5918,645.6875,1739.5918,649.6875,1729.5918,653.6875,1733.5918,649.6875" style="stroke:#181818;stroke-width:1;"/><line style="stroke:#181818;stroke-width:1;" x1="1351.4521" x2="1735.5918" y1="649.6875" y2="649.6875"/><text fill="#000000" font-family="sans-serif" font-size="13" lengthAdjust="spacing" textLength="83.4907" x="1358.4521" y="644.6216">match driver</text></g><g class="message" data-participant-1="Dispatch" data-participant-2="Driver"><polygon fill="#181818" points="1849.8726,674.8203,1859.8726,678.8203,1849.8726,682.8203,1853.8726,678.8203" style="stroke:#181818;stroke-width:1;"/><line style="stroke:#181818;stroke-width:1;" x1="1741.5918" x2="1855.8726" y1="678.8203" y2="678.8203"/><text fill="#000000" font-family="sans-serif" font-size="13" lengthAdjust="spacing" textLength="54.3994" x="1748.5918" y="673.7544">offer job</text></g><g class="message" data-participant-1="Driver" data-participant-2="Dispatch"><polygon fill="#181818" points="1752.5918,703.9531,1742.5918,707.9531,1752.5918,711.9531,1748.5918,707.9531" style="stroke:#181818;stroke-width:1;"/><line style="stroke:#181818;stroke-width:1;stroke-dasharray:2,2;" x1="1746.5918" x2="1860.8726" y1="707.9531" y2="707.9531"/><text fill="#000000" font-family="sans-serif" font-size="13" lengthAdjust="spacing" textLength="43.6084" x="1758.5918" y="702.8872">accept</text></g><g class="message" data-participant-1="Dispatch" data-participant-2="KafkaDisp"><polygon fill="#181818" points="1514.0791,733.0859,1504.0791,737.0859,1514.0791,741.0859,1510.0791,737.0859" style="stroke:#181818;stroke-width:1;"/><line style="stroke:#181818;stroke-width:1;" x1="1508.0791" x2="1740.5918" y1="737.0859" y2="737.0859"/><text fill="#000000" font-family="sans-serif" font-size="13" lengthAdjust="spacing" textLength="214.5127" x="1520.0791" y="732.02">DriverAssigned(orderId, driverId)</text></g><g class="message" data-participant-1="KafkaDisp" data-participant-2="Saga"><polygon fill="#181818" points="756.3877,762.2188,746.3877,766.2188,756.3877,770.2188,752.3877,766.2188" style="stroke:#181818;stroke-width:1;"/><line style="stroke:#181818;stroke-width:1;stroke-dasharray:2,2;" x1="750.3877" x2="1502.0791" y1="766.2188" y2="766.2188"/><text fill="#000000" font-family="sans-serif" font-size="13" lengthAdjust="spacing" textLength="98.7949" x="762.3877" y="761.1528">DriverAssigned</text></g><g class="message" data-participant-1="Saga" data-participant-2="OrderDB"><polygon fill="#181818" points="467.2739,791.3516,457.2739,795.3516,467.2739,799.3516,463.2739,795.3516" style="stroke:#181818;stroke-width:1;"/><line style="stroke:#181818;stroke-width:1;" x1="461.2739" x2="744.3877" y1="795.3516" y2="795.3516"/><text fill="#000000" font-family="sans-serif" font-size="13" lengthAdjust="spacing" textLength="177.8613" x="473.2739" y="790.2856">update status DISPATCHED</text></g><g class="message" data-participant-1="Saga" data-participant-2="KafkaOrder"><polygon fill="#181818" points="595.98,820.4844,585.98,824.4844,595.98,828.4844,591.98,824.4844" style="stroke:#181818;stroke-width:1;"/><line style="stroke:#181818;stroke-width:1;" x1="589.98" x2="744.3877" y1="824.4844" y2="824.4844"/><text fill="#000000" font-family="sans-serif" font-size="13" lengthAdjust="spacing" textLength="110.519" x="601.98" y="819.4185">OrderDispatched</text></g><!--SRC=[TLFBRjim4BppAnOvHMY4DZaITG1P2bAZG6DK0N9cHCfcNOiiIRbrlxvyMxBTcxWxCplx4EcCK52FseWzKqWIPNZ79HaCt5Jh5JmJmtwJumqG3VRz_3Q7l2ZAL6aJ7k1Vzd450yto16cMSyHNqky8t0elnWviCBhmQ9_mb3cX9HjYfRejqqOHsu57k-WSjoR7lLNB1ktxmbx4GClKWNSiuLpihAXHN8Py-9od6wubCTqs5qk1YugnNPe85nqxvdNncSiKF8CgVh3phgGC8Fz4QB48iuTQCMAu662nG6dlK3w6xM9OlxIlyD6lGYCVSycqMHpepB-_ir-ZNG1AoGnibXZue9aoyEtf3RpO37NQAmwCe4hj3OpcNVo1kgcBMFrpMKxAFtowXmJ-49HNr7VdRw8rJC8zXceqMw7uNvPMwRhr22Vtl_81OVs5Evd8r5kYDkmsrhi3iXVZO0eKW97Ywc2GIdHCQo2HwuUDaWsB3CU3eGkQ1Ge1AASgUkoSofINJCLGzaQp2oTkEy0WThcLQQ-NpFdW7d2-gNWtUMnMQNBF6EBk6_RJmOwdoKZUxKPv1rG9AVg-G1FQL0N3tjUXuJvpNGVn8Tj5tri7FyGxYcRA6P_O2KapO-Q_1qUHIck-6HWz-GlrLhGuEuThhDnwlkfHKdiee0qne_stLkswUgs_F3LNnnrOqHwZ_m00]--></g></svg>