<svg xmlns="http://www.w3.org/2000/svg" xmlns:xlink="http://www.w3.org/1999/xlink" contentStyleType="text/css" data-diagram-type="DESCRIPTION" height="462px" preserveAspectRatio="none" style="width:1328px;height:462px;background:#FFFFFF;" version="1.1" viewBox="0 0 1328 462" width="1328px" zoomAndPan="magnify"><defs/><g><!--cluster Domain Microservices--><g class="cluster" data-entity="Domain Microservices" data-source-line="5" data-uid="ent0006" id="cluster_Domain Microservices"><path d="M8.5,239.6 L182.75,239.6 A3.75,3.75 0 0 1 185.25,242.1 L192.25,261.8969 L1119.5,261.8969 A2.5,2.5 0 0 1 1122,264.3969 L1122,334.39 A2.5,2.5 0 0 1 1119.5,336.89 L8.5,336.89 A2.5,2.5 0 0 1 6,334.39 L6,242.1 A2.5,2.5 0 0 1 8.5,239.6" fill="none" style="stroke:#000000;stroke-width:1.5;"/><line style="stroke:#000000;stroke-width:1.5;" x1="6" x2="192.25" y1="261.8969" y2="261.8969"/><text fill="#000000" font-family="sans-serif" font-size="14" font-weight="bold" lengthAdjust="spacing" textLength="173.25" x="10" y="254.5951">Domain Microservices</text></g><!--entity CS--><g class="entity" data-entity="CS" data-source-line="6" data-uid="ent0007" id="entity_CS"><rect fill="#F1F1F1" height="46.2969" rx="2.5" ry="2.5" style="stroke:#181818;stroke-width:0.5;" width="164.1953" x="941.9" y="274.6"/><rect fill="#F1F1F1" height="10" style="stroke:#181818;stroke-width:0.5;" width="15" x="1086.0953" y="279.6"/><rect fill="#F1F1F1" height="2" style="stroke:#181818;stroke-width:0.5;" width="4" x="1084.0953" y="281.6"/><rect fill="#F1F1F1" height="2" style="stroke:#181818;stroke-width:0.5;" width="4" x="1084.0953" y="285.6"/><text fill="#000000" font-family="sans-serif" font-size="14" lengthAdjust="spacing" textLength="124.1953" x="956.9" y="307.5951">Customer Service</text></g><!--entity PS--><g class="entity" data-entity="PS" data-source-line="7" data-uid="ent0008" id="entity_PS"><rect fill="#F1F1F1" height="46.2969" rx="2.5" ry="2.5" style="stroke:#181818;stroke-width:0.5;" width="136.9609" x="769.52" y="274.6"/><rect fill="#F1F1F1" height="10" style="stroke:#181818;stroke-width:0.5;" width="15" x="886.4809" y="279.6"/><rect fill="#F1F1F1" height="2" style="stroke:#181818;stroke-width:0.5;" width="4" x="884.4809" y="281.6"/><rect fill="#F1F1F1" height="2" style="stroke:#181818;stroke-width:0.5;" width="4" x="884.4809" y="285.6"/><text fill="#000000" font-family="sans-serif" font-size="14" lengthAdjust="spacing" textLength="96.9609" x="784.52" y="307.5951">Policy Service</text></g><!--entity CMS--><g class="entity" data-entity="CMS" data-source-line="8" data-uid="ent0009" id="entity_CMS"><rect fill="#F1F1F1" height="46.2969" rx="2.5" ry="2.5" style="stroke:#181818;stroke-width:0.5;" width="143.2568" x="182.37" y="274.6"/><rect fill="#F1F1F1" height="10" style="stroke:#181818;stroke-width:0.5;" width="15" x="305.6268" y="279.6"/><rect fill="#F1F1F1" height="2" style="stroke:#181818;stroke-width:0.5;" width="4" x="303.6268" y="281.6"/><rect fill="#F1F1F1" height="2" style="stroke:#181818;stroke-width:0.5;" width="4" x="303.6268" y="285.6"/><text fill="#000000" font-family="sans-serif" font-size="14" lengthAdjust="spacing" textLength="103.2568" x="197.37" y="307.5951">Claims Service</text></g><!--entity IS--><g class="entity" data-entity="IS" data-source-line="9" data-uid="ent0010" id="entity_IS"><rect fill="#F1F1F1" height="46.2969" rx="2.5" ry="2.5" style="stroke:#181818;stroke-width:0.5;" width="172.1455" x="360.93" y="274.6"/><rect fill="#F1F1F1" height="10" style="stroke:#181818;stroke-width:0.5;" width="15" x="513.0755" y="279.6"/><rect fill="#F1F1F1" height="2" style="stroke:#181818;stroke-width:0.5;" width="4" x="511.0755" y="281.6"/><rect fill="#F1F1F1" height="2" style="stroke:#181818;stroke-width:0.5;" width="4" x="511.0755" y="285.6"/><text fill="#000000" font-family="sans-serif" font-size="14" lengthAdjust="spacing" textLength="132.1455" x="375.93" y="307.5951">Interaction Service</text></g><!--entity MS--><g class="entity" data-entity="MS" data-source-line="10" data-uid="ent0011" id="entity_MS"><rect fill="#F1F1F1" height="46.2969" rx="2.5" ry="2.5" style="stroke:#181818;stroke-width:0.5;" width="166.4648" x="567.77" y="274.6"/><rect fill="#F1F1F1" height="10" style="stroke:#181818;stroke-width:0.5;" width="15" x="714.2348" y="279.6"/><rect fill="#F1F1F1" height="2" style="stroke:#181818;stroke-width:0.5;" width="4" x="712.2348" y="281.6"/><rect fill="#F1F1F1" height="2" style="stroke:#181818;stroke-width:0.5;" width="4" x="712.2348" y="285.6"/><text fill="#000000" font-family="sans-serif" font-size="14" lengthAdjust="spacing" textLength="126.4648" x="582.77" y="307.5951">Marketing Service</text></g><!--entity RS--><g class="entity" data-entity="RS" data-source-line="11" data-uid="ent0012" id="entity_RS"><rect fill="#F1F1F1" height="46.2969" rx="2.5" ry="2.5" style="stroke:#181818;stroke-width:0.5;" width="125.21" x="22.4" y="274.6"/><rect fill="#F1F1F1" height="10" style="stroke:#181818;stroke-width:0.5;" width="15" x="127.61" y="279.6"/><rect fill="#F1F1F1" height="2" style="stroke:#181818;stroke-width:0.5;" width="4" x="125.61" y="281.6"/><rect fill="#F1F1F1" height="2" style="stroke:#181818;stroke-width:0.5;" width="4" x="125.61" y="285.6"/><text fill="#000000" font-family="sans-serif" font-size="14" lengthAdjust="spacing" textLength="85.21" x="37.4" y="307.5951">Risk Service</text></g><!--entity GW--><g class="entity" data-entity="GW" data-source-line="1" data-uid="ent0002" id="entity_GW"><rect fill="#F1F1F1" height="46.2969" rx="2.5" ry="2.5" style="stroke:#181818;stroke-width:0.5;" width="128.4434" x="420.78" y="130.3"/><rect fill="#F1F1F1" height="10" style="stroke:#181818;stroke-width:0.5;" width="15" x="529.2234" y="135.3"/><rect fill="#F1F1F1" height="2" style="stroke:#181818;stroke-width:0.5;" width="4" x="527.2234" y="137.3"/><rect fill="#F1F1F1" height="2" style="stroke:#181818;stroke-width:0.5;" width="4" x="527.2234" y="141.3"/><text fill="#000000" font-family="sans-serif" font-size="14" lengthAdjust="spacing" textLength="88.4434" x="435.78" y="163.2951">API Gateway</text></g><!--entity ESB--><g class="entity" data-entity="ESB" data-source-line="2" data-uid="ent0003" id="entity_ESB"><rect fill="#F1F1F1" height="46.2969" rx="2.5" ry="2.5" style="stroke:#181818;stroke-width:0.5;" width="151.2891" x="1151.36" y="7"/><rect fill="#F1F1F1" height="10" style="stroke:#181818;stroke-width:0.5;" width="15" x="1282.6491" y="12"/><rect fill="#F1F1F1" height="2" style="stroke:#181818;stroke-width:0.5;" width="4" x="1280.6491" y="14"/><rect fill="#F1F1F1" height="2" style="stroke:#181818;stroke-width:0.5;" width="4" x="1280.6491" y="18"/><text fill="#000000" font-family="sans-serif" font-size="14" lengthAdjust="spacing" textLength="111.2891" x="1166.36" y="39.9951">ESB Connectors</text></g><!--entity ACL--><g class="entity" data-entity="ACL" data-source-line="3" data-uid="ent0004" id="entity_ACL"><rect fill="#F1F1F1" height="46.2969" rx="2.5" ry="2.5" style="stroke:#181818;stroke-width:0.5;" width="190.7939" x="1131.6" y="130.3"/><rect fill="#F1F1F1" height="10" style="stroke:#181818;stroke-width:0.5;" width="15" x="1302.3939" y="135.3"/><rect fill="#F1F1F1" height="2" style="stroke:#181818;stroke-width:0.5;" width="4" x="1300.3939" y="137.3"/><rect fill="#F1F1F1" height="2" style="stroke:#181818;stroke-width:0.5;" width="4" x="1300.3939" y="141.3"/><text fill="#000000" font-family="sans-serif" font-size="14" lengthAdjust="spacing" textLength="150.7939" x="1146.6" y="163.2951">Anti-Corruption Layer</text></g><!--entity Kafka--><g class="entity" data-entity="Kafka" data-source-line="4" data-uid="ent0005" id="entity_Kafka"><rect fill="#F1F1F1" height="46.2969" rx="2.5" ry="2.5" style="stroke:#181818;stroke-width:0.5;" width="128.71" x="870.65" y="130.3"/><rect fill="#F1F1F1" height="10" style="stroke:#181818;stroke-width:0.5;" width="15" x="979.36" y="135.3"/><rect fill="#F1F1F1" height="2" style="stroke:#181818;stroke-width:0.5;" width="4" x="977.36" y="137.3"/><rect fill="#F1F1F1" height="2" style="stroke:#181818;stroke-width:0.5;" width="4" x="977.36" y="141.3"/><text fill="#000000" font-family="sans-serif" font-size="14" lengthAdjust="spacing" textLength="88.71" x="885.65" y="163.2951">Kafka Topics</text></g><!--entity DB--><g class="entity" data-entity="DB" data-source-line="13" data-uid="ent0013" id="entity_DB"><path d="M575.86,409.89 C575.86,399.89 651.0031,399.89 651.0031,399.89 C651.0031,399.89 726.1461,399.89 726.1461,409.89 L726.1461,435.1869 C726.1461,445.1869 651.0031,445.1869 651.0031,445.1869 C651.0031,445.1869 575.86,445.1869 575.86,435.1869 L575.86,409.89" fill="#F1F1F1" style="stroke:#181818;stroke-width:0.5;"/><path d="M575.86,409.89 C575.86,419.89 651.0031,419.89 651.0031,419.89 C651.0031,419.89 726.1461,419.89 726.1461,409.89" fill="none" style="stroke:#181818;stroke-width:0.5;"/><text fill="#000000" font-family="sans-serif" font-size="14" lengthAdjust="spacing" textLength="130.2861" x="585.86" y="436.8851">Service Databases</text></g><!--entity ETL--><g class="entity" data-entity="ETL" data-source-line="14" data-uid="ent0014" id="entity_ETL"><rect fill="#F1F1F1" height="46.2969" rx="2.5" ry="2.5" style="stroke:#181818;stroke-width:0.5;" width="124.7451" x="1140.63" y="274.6"/><rect fill="#F1F1F1" height="10" style="stroke:#181818;stroke-width:0.5;" width="15" x="1245.3751" y="279.6"/><rect fill="#F1F1F1" height="2" style="stroke:#181818;stroke-width:0.5;" width="4" x="1243.3751" y="281.6"/><rect fill="#F1F1F1" height="2" style="stroke:#181818;stroke-width:0.5;" width="4" x="1243.3751" y="285.6"/><text fill="#000000" font-family="sans-serif" font-size="14" lengthAdjust="spacing" textLength="84.7451" x="1155.63" y="307.5951">ETL Pipeline</text></g><!--link GW to CS--><g class="link" data-entity-1="GW" data-entity-2="CS" data-source-line="16" data-uid="lnk15" id="link_GW_CS"><path d="M548,177.05 C599.72,195.2 669,218.48 698,223.6 C747.49,232.33 876.09,216.44 924,231.6 C951.66,240.35 974.2675,255.2835 993.3475,270.4035" fill="none" id="GW-to-CS" style="stroke:#181818;stroke-width:1;"/><polygon fill="#181818" points="998.05,274.13,993.4806,265.4053,994.1313,271.0246,988.512,271.6752,998.05,274.13" style="stroke:#181818;stroke-width:1;"/><text fill="#000000" font-family="sans-serif" font-size="13" lengthAdjust="spacing" textLength="33.4395" x="699" y="219.6669">REST</text></g><!--link GW to PS--><g class="link" data-entity-1="GW" data-entity-2="PS" data-source-line="17" data-uid="lnk16" id="link_GW_PS"><path d="M516.57,177.04 C542.62,195.18 577.82,218.45 594,223.6 C627.5,234.25 718.97,219.56 752,231.6 C776.64,240.57 795.6592,255.1308 811.8192,270.1808" fill="none" id="GW-to-PS" style="stroke:#181818;stroke-width:1;"/><polygon fill="#181818" points="816.21,274.27,812.35,265.2091,812.551,270.8624,806.8978,271.0634,816.21,274.27" style="stroke:#181818;stroke-width:1;"/><text fill="#000000" font-family="sans-serif" font-size="13" lengthAdjust="spacing" textLength="33.4395" x="595" y="219.6669">REST</text></g><!--link GW to CMS--><g class="link" data-entity-1="GW" data-entity-2="CMS" data-source-line="18" data-uid="lnk17" id="link_GW_CMS"><path d="M439.99,176.93 C411.62,191.58 374.52,211.62 343,231.6 C322.13,244.82 304.4728,257.624 287.3428,270.674" fill="none" id="GW-to-CMS" style="stroke:#181818;stroke-width:1;"/><polygon fill="#181818" points="282.57,274.31,292.1532,272.0378,286.5473,271.28,287.3052,265.6741,282.57,274.31" style="stroke:#181818;stroke-width:1;"/><text fill="#000000" font-family="sans-serif" font-size="13" lengthAdjust="spacing" textLength="33.4395" x="386" y="219.6669">REST</text></g><!--link GW to IS--><g class="link" data-entity-1="GW" data-entity-2="IS" data-source-line="19" data-uid="lnk18" id="link_GW_IS"><path d="M461.86,177.07 C454.7,185.58 447.73,195.82 444,206.6 C436.37,228.65 437.6161,249.658 440.8461,268.308" fill="none" id="GW-to-IS" style="stroke:#181818;stroke-width:1;"/><polygon fill="#181818" points="441.87,274.22,444.2755,264.6694,441.0168,269.2933,436.3928,266.0346,441.87,274.22" style="stroke:#181818;stroke-width:1;"/><text fill="#000000" font-family="sans-serif" font-size="13" lengthAdjust="spacing" textLength="33.4395" x="445" y="219.6669">REST</text></g><!--link GW to MS--><g class="link" data-entity-1="GW" data-entity-2="MS" data-source-line="20" data-uid="lnk19" id="link_GW_MS"><path d="M490.64,176.93 C495.63,192.25 504.43,211.83 519,223.6 C530.4,232.81 537.56,225.74 551,231.6 C576.64,242.78 598.2053,256.7403 617.4353,270.7903" fill="none" id="GW-to-MS" style="stroke:#181818;stroke-width:1;"/><polygon fill="#181818" points="622.28,274.33,617.3728,265.7907,618.2428,271.3803,612.6532,272.2503,622.28,274.33" style="stroke:#181818;stroke-width:1;"/><text fill="#000000" font-family="sans-serif" font-size="13" lengthAdjust="spacing" textLength="33.4395" x="520" y="219.6669">REST</text></g><!--link GW to RS--><g class="link" data-entity-1="GW" data-entity-2="RS" data-source-line="21" data-uid="lnk20" id="link_GW_RS"><path d="M420.5,161.43 C353.74,170.58 247.83,190.56 165,231.6 C143.17,242.41 126.3252,256.0036 111.2352,270.2336" fill="none" id="GW-to-RS" style="stroke:#181818;stroke-width:1;"/><polygon fill="#181818" points="106.87,274.35,116.1621,271.0855,110.5077,270.9196,110.6735,265.2652,106.87,274.35" style="stroke:#181818;stroke-width:1;"/><text fill="#000000" font-family="sans-serif" font-size="13" lengthAdjust="spacing" textLength="33.4395" x="224" y="219.6669">REST</text></g><!--link CS to Kafka--><g class="link" data-entity-1="CS" data-entity-2="Kafka" data-source-line="23" data-uid="lnk21" id="link_CS_Kafka"><path d="M1041.07,274.16 C1053.31,254.99 1065.47,227.35 1052,206.6 C1040.07,188.22 1025.6002,178.4235 1005.4202,170.6635" fill="none" id="CS-to-Kafka" style="stroke:#181818;stroke-width:1;"/><polygon fill="#181818" points="999.82,168.51,1006.7847,175.4737,1004.4868,170.3046,1009.656,168.0068,999.82,168.51" style="stroke:#181818;stroke-width:1;"/><text fill="#000000" font-family="sans-serif" font-size="13" lengthAdjust="spacing" textLength="94.9102" x="1058" y="219.6669">publish events</text></g><!--link Kafka to CS--><g class="link" data-entity-1="Kafka" data-entity-2="CS" data-source-line="26" data-uid="lnk23" id="link_Kafka_CS"><path d="M949.1,177 C965.77,203.64 990.1493,242.6124 1006.7793,269.2124" fill="none" id="Kafka-to-CS" style="stroke:#181818;stroke-width:1;"/><polygon fill="#181818" points="1009.96,274.3,1008.5807,264.5482,1007.3094,270.0604,1001.7973,268.7891,1009.96,274.3" style="stroke:#181818;stroke-width:1;"/><text fill="#000000" font-family="sans-serif" font-size="13" lengthAdjust="spacing" textLength="62.3911" x="977" y="219.6669">subscribe</text></g><!--link PS to Kafka--><g class="link" data-entity-1="PS" data-entity-2="Kafka" data-source-line="24" data-uid="lnk22" id="link_PS_Kafka"><path d="M807.75,274.21 C780.96,254.1 745.79,227.25 744,223.6 C740.68,216.81 739.41,212.6 744,206.6 C759.49,186.31 815.3663,173.0241 864.5263,164.5941" fill="none" id="PS-to-Kafka" style="stroke:#181818;stroke-width:1;"/><polygon fill="#181818" points="870.44,163.58,860.8934,161.1587,865.5119,164.4251,862.2455,169.0436,870.44,163.58" style="stroke:#181818;stroke-width:1;"/><text fill="#000000" font-family="sans-serif" font-size="13" lengthAdjust="spacing" textLength="94.9102" x="745" y="219.6669">publish events</text></g><!--link Kafka to PS--><g class="link" data-entity-1="Kafka" data-entity-2="PS" data-source-line="27" data-uid="lnk24" id="link_Kafka_PS"><path d="M917.56,177.04 C910.7,186.12 902.83,196.75 896,206.6 C880.29,229.22 866.5368,250.73 855.0468,269.14" fill="none" id="Kafka-to-PS" style="stroke:#181818;stroke-width:1;"/><polygon fill="#181818" points="851.87,274.23,860.0285,268.7128,854.5173,269.9883,853.2418,264.4771,851.87,274.23" style="stroke:#181818;stroke-width:1;"/><text fill="#000000" font-family="sans-serif" font-size="13" lengthAdjust="spacing" textLength="62.3911" x="897" y="219.6669">subscribe</text></g><!--link ESB to ACL--><g class="link" data-entity-1="ESB" data-entity-2="ACL" data-source-line="29" data-uid="lnk25" id="link_ESB_ACL"><path d="M1227,53.68 C1227,75.47 1227,102.29 1227,124.04" fill="none" id="ESB-to-ACL" style="stroke:#181818;stroke-width:1;"/><polygon fill="#181818" points="1227,130.04,1231,121.04,1227,125.04,1223,121.04,1227,130.04" style="stroke:#181818;stroke-width:1;"/><text fill="#000000" font-family="sans-serif" font-size="13" lengthAdjust="spacing" textLength="84.335" x="1228" y="96.3669">adapt legacy</text></g><!--link ACL to CS--><g class="link" data-entity-1="ACL" data-entity-2="CS" data-source-line="30" data-uid="lnk26" id="link_ACL_CS"><path d="M1211.39,176.88 C1199.39,192.39 1181.44,212.21 1161,223.6 C1145.92,231.99 1138.93,224.96 1123,231.6 C1097.17,242.36 1075.6412,256.4716 1056.6412,270.7116" fill="none" id="ACL-to-CS" style="stroke:#181818;stroke-width:1;"/><polygon fill="#181818" points="1051.84,274.31,1061.4407,272.1132,1055.841,271.3113,1056.6429,265.7116,1051.84,274.31" style="stroke:#181818;stroke-width:1;"/><text fill="#000000" font-family="sans-serif" font-size="13" lengthAdjust="spacing" textLength="76.7559" x="1185" y="219.6669">feed events</text></g><!--link ETL to DB--><g class="link" data-entity-1="ETL" data-entity-2="DB" data-source-line="32" data-uid="lnk27" id="link_ETL_DB"><path d="M1169.61,321.34 C1155.47,329.95 1138.48,339.07 1122,344.89 C987.64,392.36 827.1942,410.2048 732.4442,417.0948" fill="none" id="ETL-to-DB" style="stroke:#181818;stroke-width:1;"/><polygon fill="#181818" points="726.46,417.53,735.7264,420.8667,731.4468,417.1674,735.1462,412.8878,726.46,417.53" style="stroke:#181818;stroke-width:1;"/><text fill="#000000" font-family="sans-serif" font-size="13" lengthAdjust="spacing" textLength="96.1543" x="1098" y="365.9569">data migration</text></g><!--link CS to DB--><g class="link" data-entity-1="CS" data-entity-2="DB" data-source-line="33" data-uid="lnk28" id="link_CS_DB"><path d="M979.34,321.2 C962.28,329.28 942.48,338.08 924,344.89 C858.52,369.02 787.6805,388.4736 732.2905,402.3336" fill="none" id="CS-to-DB" style="stroke:#181818;stroke-width:1;"/><polygon fill="#181818" points="726.47,403.79,736.1718,405.4857,731.3205,402.5763,734.2299,397.725,726.47,403.79" style="stroke:#181818;stroke-width:1;"/></g><!--link PS to DB--><g class="link" data-entity-1="PS" data-entity-2="DB" data-source-line="34" data-uid="lnk29" id="link_PS_DB"><path d="M803.7,321.27 C769.75,343.56 723.1262,374.188 689.4662,396.278" fill="none" id="PS-to-DB" style="stroke:#181818;stroke-width:1;"/><polygon fill="#181818" points="684.45,399.57,694.169,397.9762,688.6302,396.8267,689.7797,391.2878,684.45,399.57" style="stroke:#181818;stroke-width:1;"/></g><!--link CMS to DB--><g class="link" data-entity-1="CMS" data-entity-2="DB" data-source-line="35" data-uid="lnk30" id="link_CMS_DB"><path d="M292.52,321.23 C307.86,329.51 325.9,338.44 343,344.89 C420.07,374 506.2764,394.074 569.5664,406.724" fill="none" id="CMS-to-DB" style="stroke:#181818;stroke-width:1;"/><polygon fill="#181818" points="575.45,407.9,567.4085,402.2136,570.547,406.92,565.8406,410.0584,575.45,407.9" style="stroke:#181818;stroke-width:1;"/></g><!--link IS to DB--><g class="link" data-entity-1="IS" data-entity-2="DB" data-source-line="36" data-uid="lnk31" id="link_IS_DB"><path d="M484.42,321.27 C521.45,343.56 572.6486,374.3871 609.3686,396.4771" fill="none" id="IS-to-DB" style="stroke:#181818;stroke-width:1;"/><polygon fill="#181818" points="614.51,399.57,608.8599,391.503,610.2255,396.9925,604.736,398.3582,614.51,399.57" style="stroke:#181818;stroke-width:1;"/></g><!--link MS to DB--><g class="link" data-entity-1="MS" data-entity-2="DB" data-source-line="37" data-uid="lnk32" id="link_MS_DB"><path d="M651,321.27 C651,343.56 651,371.48 651,393.57" fill="none" id="MS-to-DB" style="stroke:#181818;stroke-width:1;"/><polygon fill="#181818" points="651,399.57,655,390.57,651,394.57,647,390.57,651,399.57" style="stroke:#181818;stroke-width:1;"/></g><!--link RS to DB--><g class="link" data-entity-1="RS" data-entity-2="DB" data-source-line="38" data-uid="lnk33" id="link_RS_DB"><path d="M117.54,321.16 C131.57,329.84 148.52,339.07 165,344.89 C304.72,394.29 472.3023,411.5562 569.6523,417.7962" fill="none" id="RS-to-DB" style="stroke:#181818;stroke-width:1;"/><polygon fill="#181818" points="575.64,418.18,566.9143,413.6125,570.6502,417.8602,566.4026,421.5961,575.64,418.18" style="stroke:#181818;stroke-width:1;"/></g><!--SRC=[VP91YuCm48Nl-HL3x_q3FIoqMefi2q4BFO_fr0rg8abiaMN_-oRQMdLXRyDx7o-PbmXTDrgHSh3QyWGEwEY1tGhGmk72nDlTPpk8j58ad3Qs1xmq9RRAoNMaZMaR9xM28tPaUd0R7QVW9zvAXBDkf1Y2Ue4rA4ei25Qnhb4gE4bXj2Lpbu8yzyq09Y5HQvskoK0s47rGbCqXhYifkXd25qXKeQpjFEMqO1BboA3ejvg2oO8xeId9ILNCg6LQAcqv0zAC_R0hEipH-lMV5iHFPUWeddMzFn-1ouOggOOCBp1skC1w_U5RW0sa- -py4lXIy1ikb6Gf_27IKM3-WA0CxxY1fiqhQR-0xlvkbl5_NJReuprjcrjXP4uJWyyD5lvUqFq_yWPUiN5GKO6YOq4Qisv4r_6SK55mufrtGhjGoy9WUCJN0hvJFawXa-UOZDDRIr_JBm00]--></g></svg>