<svg xmlns="http://www.w3.org/2000/svg" xmlns:xlink="http://www.w3.org/1999/xlink" contentStyleType="text/css" data-diagram-type="DESCRIPTION" height="314px" preserveAspectRatio="none" style="width:1300px;height:314px;background:#FFFFFF;" version="1.1" viewBox="0 0 1300 314" width="1300px" zoomAndPan="magnify"><defs/><g><!--entity CRM--><g class="entity" data-entity="CRM" data-source-line="6" data-uid="ent0006" id="entity_CRM"><rect fill="#F1F1F1" height="36.2969" rx="2.5" ry="2.5" style="stroke:#181818;stroke-width:0.5;" width="149.1992" x="555.81" y="158.8"/><text fill="#000000" font-family="sans-serif" font-size="14" lengthAdjust="spacing" textLength="129.1992" x="565.81" y="181.7951">InsureSphere CRM</text></g><!--entity Agent--><g class="entity" data-entity="Agent" data-source-line="1" data-uid="ent0002" id="entity_Agent"><ellipse cx="380.4086" cy="14" fill="#F1F1F1" rx="8" ry="8" style="stroke:#181818;stroke-width:0.5;"/><path d="M380.4086,22 L380.4086,49 M367.4086,30 L393.4086,30 M380.4086,49 L367.4086,64 M380.4086,49 L393.4086,64" fill="none" style="stroke:#181818;stroke-width:0.5;"/><text fill="#000000" font-family="sans-serif" font-size="14" lengthAdjust="spacing" textLength="114.5771" x="323.12" y="78.4951">Insurance Agent</text></g><!--entity Support--><g class="entity" data-entity="Support" data-source-line="2" data-uid="ent0003" id="entity_Support"><ellipse cx="552.4078" cy="14" fill="#F1F1F1" rx="8" ry="8" style="stroke:#181818;stroke-width:0.5;"/><path d="M552.4078,22 L552.4078,49 M539.4078,30 L565.4078,30 M552.4078,49 L539.4078,64 M552.4078,49 L565.4078,64" fill="none" style="stroke:#181818;stroke-width:0.5;"/><text fill="#000000" font-family="sans-serif" font-size="14" lengthAdjust="spacing" textLength="159.4756" x="472.67" y="78.4951">Customer Support Rep</text></g><!--entity Underwriter--><g class="entity" data-entity="Underwriter" data-source-line="3" data-uid="ent0004" id="entity_Underwriter"><ellipse cx="708.405" cy="14" fill="#F1F1F1" rx="8" ry="8" style="stroke:#181818;stroke-width:0.5;"/><path d="M708.405,22 L708.405,49 M695.405,30 L721.405,30 M708.405,49 L695.405,64 M708.405,49 L721.405,64" fill="none" style="stroke:#181818;stroke-width:0.5;"/><text fill="#000000" font-family="sans-serif" font-size="14" lengthAdjust="spacing" textLength="83.3301" x="666.74" y="78.4951">Underwriter</text></g><!--entity Marketing--><g class="entity" data-entity="Marketing" data-source-line="4" data-uid="ent0005" id="entity_Marketing"><ellipse cx="853.4049" cy="14" fill="#F1F1F1" rx="8" ry="8" style="stroke:#181818;stroke-width:0.5;"/><path d="M853.4049,22 L853.4049,49 M840.4049,30 L866.4049,30 M853.4049,49 L840.4049,64 M853.4049,49 L866.4049,64" fill="none" style="stroke:#181818;stroke-width:0.5;"/><text fill="#000000" font-family="sans-serif" font-size="14" lengthAdjust="spacing" textLength="136.0898" x="785.36" y="78.4951">Marketing Manager</text></g><!--entity Mainframe--><g class="entity" data-entity="Mainframe" data-source-line="9" data-uid="ent0007" id="entity_Mainframe"><rect fill="#F1F1F1" height="36.2969" rx="2.5" ry="2.5" style="stroke:#181818;stroke-width:0.5;" width="196.8115" x="7" y="272.09"/><text fill="#000000" font-family="sans-serif" font-size="14" lengthAdjust="spacing" textLength="176.8115" x="17" y="295.0851">Mainframe Policy System</text></g><!--entity Claims--><g class="entity" data-entity="Claims" data-source-line="10" data-uid="ent0008" id="entity_Claims"><rect fill="#F1F1F1" height="36.2969" rx="2.5" ry="2.5" style="stroke:#181818;stroke-width:0.5;" width="157.7441" x="238.53" y="272.09"/><text fill="#000000" font-family="sans-serif" font-size="14" lengthAdjust="spacing" textLength="137.7441" x="248.53" y="295.0851">Java Claims System</text></g><!--entity Billing--><g class="entity" data-entity="Billing" data-source-line="11" data-uid="ent0009" id="entity_Billing"><rect fill="#F1F1F1" height="36.2969" rx="2.5" ry="2.5" style="stroke:#181818;stroke-width:0.5;" width="173.9316" x="431.44" y="272.09"/><text fill="#000000" font-family="sans-serif" font-size="14" lengthAdjust="spacing" textLength="153.9316" x="441.44" y="295.0851">AS/400 Billing System</text></g><!--entity DWH--><g class="entity" data-entity="DWH" data-source-line="12" data-uid="ent0010" id="entity_DWH"><rect fill="#F1F1F1" height="36.2969" rx="2.5" ry="2.5" style="stroke:#181818;stroke-width:0.5;" width="204.3721" x="640.22" y="272.09"/><text fill="#000000" font-family="sans-serif" font-size="14" lengthAdjust="spacing" textLength="184.3721" x="650.22" y="295.0851">Teradata Data Warehouse</text></g><!--entity MarketingCloud--><g class="entity" data-entity="MarketingCloud" data-source-line="13" data-uid="ent0011" id="entity_MarketingCloud"><rect fill="#F1F1F1" height="36.2969" rx="2.5" ry="2.5" style="stroke:#181818;stroke-width:0.5;" width="134.7139" x="880.05" y="272.09"/><text fill="#000000" font-family="sans-serif" font-size="14" lengthAdjust="spacing" textLength="114.7139" x="890.05" y="295.0851">Marketing Cloud</text></g><!--entity IDP--><g class="entity" data-entity="IDP" data-source-line="14" data-uid="ent0012" id="entity_IDP"><rect fill="#F1F1F1" height="36.2969" rx="2.5" ry="2.5" style="stroke:#181818;stroke-width:0.5;" width="244.834" x="1049.99" y="272.09"/><text fill="#000000" font-family="sans-serif" font-size="14" lengthAdjust="spacing" textLength="224.834" x="1059.99" y="295.0851">Identity Provider (OAuth2/OIDC)</text></g><!--link Agent to CRM--><g class="link" data-entity-1="Agent" data-entity-2="CRM" data-source-line="16" data-uid="lnk13" id="link_Agent_CRM"><path d="M412.8,82 C428.72,98.37 449.05,116.59 470.41,128.8 C496.43,143.67 521.7559,152.6992 549.6159,159.9992" fill="none" id="Agent-to-CRM" style="stroke:#181818;stroke-width:1;"/><polygon fill="#181818" points="555.42,161.52,547.7278,155.3694,550.5833,160.2527,545.7,163.1082,555.42,161.52" style="stroke:#181818;stroke-width:1;"/><text fill="#000000" font-family="sans-serif" font-size="13" lengthAdjust="spacing" textLength="87.8325" x="471.41" y="124.8669">HTTPS / REST</text></g><!--link Support to CRM--><g class="link" data-entity-1="Support" data-entity-2="CRM" data-source-line="17" data-uid="lnk14" id="link_Support_CRM"><path d="M558.28,82.19 C561.87,97.48 567.53,114.81 576.41,128.8 C583.67,140.25 589.8362,146.7752 599.9262,154.7652" fill="none" id="Support-to-CRM" style="stroke:#181818;stroke-width:1;"/><polygon fill="#181818" points="604.63,158.49,600.0575,149.7669,600.7102,155.386,595.0911,156.0386,604.63,158.49" style="stroke:#181818;stroke-width:1;"/><text fill="#000000" font-family="sans-serif" font-size="13" lengthAdjust="spacing" textLength="87.8325" x="577.41" y="124.8669">HTTPS / REST</text></g><!--link Underwriter to CRM--><g class="link" data-entity-1="Underwriter" data-entity-2="CRM" data-source-line="18" data-uid="lnk15" id="link_Underwriter_CRM"><path d="M693.49,82.17 C686.92,97.13 678.59,114.22 669.41,128.8 C662.83,139.22 658.1603,145.3639 650.6903,153.9039" fill="none" id="Underwriter-to-CRM" style="stroke:#181818;stroke-width:1;"/><polygon fill="#181818" points="646.74,158.42,655.6762,154.2793,650.0319,154.6566,649.6547,149.0123,646.74,158.42" style="stroke:#181818;stroke-width:1;"/><text fill="#000000" font-family="sans-serif" font-size="13" lengthAdjust="spacing" textLength="87.8325" x="678.41" y="124.8669">HTTPS / REST</text></g><!--link Marketing to CRM--><g class="link" data-entity-1="Marketing" data-entity-2="CRM" data-source-line="19" data-uid="lnk16" id="link_Marketing_CRM"><path d="M825.24,82.28 C811.45,98.5 793.68,116.53 774.41,128.8 C753.54,142.07 734.321,150.1737 711.091,157.3737" fill="none" id="Marketing-to-CRM" style="stroke:#181818;stroke-width:1;"/><polygon fill="#181818" points="705.36,159.15,715.1408,160.3062,710.1359,157.6697,712.7724,152.6649,705.36,159.15" style="stroke:#181818;stroke-width:1;"/><text fill="#000000" font-family="sans-serif" font-size="13" lengthAdjust="spacing" textLength="87.8325" x="795.41" y="124.8669">HTTPS / REST</text></g><!--link CRM to Mainframe--><g class="link" data-entity-1="CRM" data-entity-2="Mainframe" data-source-line="20" data-uid="lnk17" id="link_CRM_Mainframe"><path d="M555.35,178.46 C472.91,180.91 337.48,190.51 226.41,225.09 C191.67,235.91 160.3108,253.5027 136.6108,268.4927" fill="none" id="CRM-to-Mainframe" style="stroke:#181818;stroke-width:1;"/><polygon fill="#181818" points="131.54,271.7,141.2844,270.2697,135.7657,269.0273,137.0081,263.5085,131.54,271.7" style="stroke:#181818;stroke-width:1;"/><text fill="#000000" font-family="sans-serif" font-size="13" lengthAdjust="spacing" textLength="120.4531" x="227.41" y="238.1569">MQ / REST via ESB</text></g><!--link CRM to Claims--><g class="link" data-entity-1="CRM" data-entity-2="Claims" data-source-line="21" data-uid="lnk18" id="link_CRM_Claims"><path d="M555.34,179.47 C502.41,183.4 431.45,194.64 376.41,225.09 C356.28,236.23 342.7162,251.8525 332.2062,266.7025" fill="none" id="CRM-to-Claims" style="stroke:#181818;stroke-width:1;"/><polygon fill="#181818" points="328.74,271.6,337.2043,266.5645,331.6285,267.5187,330.6743,261.943,328.74,271.6" style="stroke:#181818;stroke-width:1;"/><text fill="#000000" font-family="sans-serif" font-size="13" lengthAdjust="spacing" textLength="125.9565" x="377.41" y="238.1569">SOAP/REST via ESB</text></g><!--link CRM to Billing--><g class="link" data-entity-1="CRM" data-entity-2="Billing" data-source-line="22" data-uid="lnk19" id="link_CRM_Billing"><path d="M555.53,194.75 C540.5,201.65 526.54,211.38 517.41,225.09 C508.33,238.72 508.6948,251.9937 511.7748,265.8137" fill="none" id="CRM-to-Billing" style="stroke:#181818;stroke-width:1;"/><polygon fill="#181818" points="513.08,271.67,515.0265,262.0154,511.9924,266.7897,507.218,263.7556,513.08,271.67" style="stroke:#181818;stroke-width:1;"/><text fill="#000000" font-family="sans-serif" font-size="13" lengthAdjust="spacing" textLength="180.7178" x="518.41" y="238.1569">FTP / DB replication via ESB</text></g><!--link CRM to DWH--><g class="link" data-entity-1="CRM" data-entity-2="DWH" data-source-line="23" data-uid="lnk20" id="link_CRM_DWH"><path d="M664.37,195.51 C677.55,203.39 692.15,213.52 703.41,225.09 C716.77,238.82 724.9723,252.5657 731.8123,266.3457" fill="none" id="CRM-to-DWH" style="stroke:#181818;stroke-width:1;"/><polygon fill="#181818" points="734.48,271.72,734.0614,261.88,732.2569,267.2414,726.8956,265.4369,734.48,271.72" style="stroke:#181818;stroke-width:1;"/><text fill="#000000" font-family="sans-serif" font-size="13" lengthAdjust="spacing" textLength="72.6489" x="716.41" y="238.1569">CDC / JDBC</text></g><!--link CRM to MarketingCloud--><g class="link" data-entity-1="CRM" data-entity-2="MarketingCloud" data-source-line="24" data-uid="lnk21" id="link_CRM_MarketingCloud"><path d="M700.51,195.58 C730.61,203.7 766.02,214 797.41,225.09 C836.53,238.92 874.5433,255.4351 904.5733,269.1651" fill="none" id="CRM-to-MarketingCloud" style="stroke:#181818;stroke-width:1;"/><polygon fill="#181818" points="910.03,271.66,903.5082,264.2799,905.4827,269.581,900.1817,271.5555,910.03,271.66" style="stroke:#181818;stroke-width:1;"/><text fill="#000000" font-family="sans-serif" font-size="13" lengthAdjust="spacing" textLength="58.1382" x="839.41" y="238.1569">REST API</text></g><!--link CRM to IDP--><g class="link" data-entity-1="CRM" data-entity-2="IDP" data-source-line="25" data-uid="lnk22" id="link_CRM_IDP"><path d="M705.34,189.34 C761,198.15 838.68,211.16 906.41,225.09 C974.34,239.07 1045.4858,256.4883 1099.0858,270.1483" fill="none" id="CRM-to-IDP" style="stroke:#181818;stroke-width:1;"/><polygon fill="#181818" points="1104.9,271.63,1097.1666,265.5313,1100.0549,270.3952,1095.1909,273.2835,1104.9,271.63" style="stroke:#181818;stroke-width:1;"/><text fill="#000000" font-family="sans-serif" font-size="13" lengthAdjust="spacing" textLength="86.5059" x="980.41" y="238.1569">OAuth2/OIDC</text></g><!--SRC=[TP7DReCm48JlFCKgf_OG4LKzSQZ4JweG2OK6gfnNi2LMmKR6f8ggldkD0ubHcml6iv_jqGmMIaXOnBph9VA2mA-8gmLWT_bpy0A4VQT4GnAolcs5LB2drb3ZVkBUUKdoIp95qeoj_OGaA3z9CLv1WXoh4RogZYEfKCYhcaPVbBL7aWJXFZ6eNk7R-Pc12JB-8R4XI4NDYZDavqvHCruzpkm3MpmXX3MofhFPYsA3VkO-hrOGiBeUF5liADbmJX9BL0ZHy3cWfAFeEp9uTDZC7KynXBNeota8Hfe5KUeoc3f3AiM9wKpXOUVtwlZaxk8eV3IduoXr7DCQB9Sl9YOFDdcUPk32VftbpbJUdR5LrZtavleEC4Z3w5Q81ydRE8KJGrXdmPKQ2_0Ws_cf-oyo1U_1QvxgUw809BMwOrHCy3-uJbcZOHHgT1i5eMN8pbOpvZK_ZQ-4pa_BLgo_]--></g></svg>