<svg xmlns="http://www.w3.org/2000/svg" xmlns:xlink="http://www.w3.org/1999/xlink" contentStyleType="text/css" data-diagram-type="SEQUENCE" height="502px" preserveAspectRatio="none" style="width:1344px;height:502px;background:#FFFFFF;" version="1.1" viewBox="0 0 1344 502" width="1344px" zoomAndPan="magnify"><defs/><g><g><title>Customer</title><rect fill="#000000" fill-opacity="0.00000" height="340.4609" width="8" x="38.002" y="81.2969"/><line style="stroke:#181818;stroke-width:0.5;stroke-dasharray:5,5;" x1="42" x2="42" y1="81.2969" y2="421.7578"/></g><g><title>Ordering Service</title><rect fill="#000000" fill-opacity="0.00000" height="340.4609" width="8" x="220.8013" y="81.2969"/><line style="stroke:#181818;stroke-width:0.5;stroke-dasharray:5,5;" x1="223.8652" x2="223.8652" y1="81.2969" y2="421.7578"/></g><g><title>Kafka</title><rect fill="#000000" fill-opacity="0.00000" height="340.4609" width="8" x="353.5029" y="81.2969"/><line style="stroke:#181818;stroke-width:0.5;stroke-dasharray:5,5;" x1="356.7373" x2="356.7373" y1="81.2969" y2="421.7578"/></g><g><title>Matching Engine</title><rect fill="#000000" fill-opacity="0.00000" height="340.4609" width="8" x="485.668" y="81.2969"/><line style="stroke:#181818;stroke-width:0.5;stroke-dasharray:5,5;" x1="489.2686" x2="489.2686" y1="81.2969" y2="421.7578"/></g><g><title>Job Offer Manager</title><rect fill="#000000" fill-opacity="0.00000" height="340.4609" width="8" x="664.8618" y="81.2969"/><line style="stroke:#181818;stroke-width:0.5;stroke-dasharray:5,5;" x1="668.3149" x2="668.3149" y1="81.2969" y2="421.7578"/></g><g><title>Real-Time Gateway</title><rect fill="#000000" fill-opacity="0.00000" height="340.4609" width="8" x="820.833" y="81.2969"/><line style="stroke:#181818;stroke-width:0.5;stroke-dasharray:5,5;" x1="824.4087" x2="824.4087" y1="81.2969" y2="421.7578"/></g><g><title>Driver App</title><rect fill="#000000" fill-opacity="0.00000" height="340.4609" width="8" x="946.6978" y="81.2969"/><line style="stroke:#181818;stroke-width:0.5;stroke-dasharray:5,5;" x1="950.2573" x2="950.2573" y1="81.2969" y2="421.7578"/></g><g><title>Acceptance Processor</title><rect fill="#000000" fill-opacity="0.00000" height="340.4609" width="8" x="1081.2168" y="81.2969"/><line style="stroke:#181818;stroke-width:0.5;stroke-dasharray:5,5;" x1="1085.1382" x2="1085.1382" y1="81.2969" y2="421.7578"/></g><g><title>Kafka</title><rect fill="#000000" fill-opacity="0.00000" height="340.4609" width="8" x="1255.0332" y="81.2969"/><line style="stroke:#181818;stroke-width:0.5;stroke-dasharray:5,5;" x1="1258.2954" x2="1258.2954" y1="81.2969" y2="421.7578"/></g><g class="participant participant-head" data-participant="Customer"><text fill="#000000" font-family="sans-serif" font-size="14" lengthAdjust="spacing" textLength="68.0039" x="5" y="77.9951">Customer</text><ellipse cx="42.002" cy="13.5" fill="#E2E2F0" rx="8" ry="8" style="stroke:#181818;stroke-width:0.5;"/><path d="M42.002,21.5 L42.002,48.5 M29.002,29.5 L55.002,29.5 M42.002,48.5 L29.002,63.5 M42.002,48.5 L55.002,63.5" fill="none" style="stroke:#181818;stroke-width:0.5;"/></g><g class="participant participant-tail" data-participant="Customer"><text fill="#000000" font-family="sans-serif" font-size="14" lengthAdjust="spacing" textLength="68.0039" x="5" y="433.7529">Customer</text><ellipse cx="42.002" cy="445.5547" fill="#E2E2F0" rx="8" ry="8" style="stroke:#181818;stroke-width:0.5;"/><path d="M42.002,453.5547 L42.002,480.5547 M29.002,461.5547 L55.002,461.5547 M42.002,480.5547 L29.002,495.5547 M42.002,480.5547 L55.002,495.5547" fill="none" style="stroke:#181818;stroke-width:0.5;"/></g><g class="participant participant-head" data-participant="Ordering"><rect fill="#E2E2F0" height="30.2969" rx="2.5" ry="2.5" style="stroke:#181818;stroke-width:0.5;" width="131.8721" x="158.8652" y="50"/><text fill="#000000" font-family="sans-serif" font-size="14" lengthAdjust="spacing" textLength="117.8721" x="165.8652" y="69.9951">Ordering Service</text></g><g class="participant participant-tail" data-participant="Ordering"><rect fill="#E2E2F0" height="30.2969" rx="2.5" ry="2.5" style="stroke:#181818;stroke-width:0.5;" width="131.8721" x="158.8652" y="420.7578"/><text fill="#000000" font-family="sans-serif" font-size="14" lengthAdjust="spacing" textLength="117.8721" x="165.8652" y="440.7529">Ordering Service</text></g><g class="participant participant-head" data-participant="KafkaOrder"><rect fill="#E2E2F0" height="46.5938" rx="2.5" ry="2.5" style="stroke:#181818;stroke-width:0.5;" width="113.5313" x="300.7373" y="33.7031"/><text fill="#000000" font-family="sans-serif" font-size="14" lengthAdjust="spacing" textLength="39.375" x="337.8154" y="53.6982">Kafka</text><text fill="#000000" font-family="sans-serif" font-size="14" lengthAdjust="spacing" textLength="99.5313" x="307.7373" y="69.9951">order.lifecycle</text></g><g class="participant participant-tail" data-participant="KafkaOrder"><rect fill="#E2E2F0" height="46.5938" rx="2.5" ry="2.5" style="stroke:#181818;stroke-width:0.5;" width="113.5313" x="300.7373" y="420.7578"/><text fill="#000000" font-family="sans-serif" font-size="14" lengthAdjust="spacing" textLength="39.375" x="337.8154" y="440.7529">Kafka</text><text fill="#000000" font-family="sans-serif" font-size="14" lengthAdjust="spacing" textLength="99.5313" x="307.7373" y="457.0498">order.lifecycle</text></g><g class="participant participant-head" data-participant="Match"><rect fill="#E2E2F0" height="30.2969" rx="2.5" ry="2.5" style="stroke:#181818;stroke-width:0.5;" width="130.7988" x="424.2686" y="50"/><text fill="#000000" font-family="sans-serif" font-size="14" lengthAdjust="spacing" textLength="116.7988" x="431.2686" y="69.9951">Matching Engine</text></g><g class="participant participant-tail" data-participant="Match"><rect fill="#E2E2F0" height="30.2969" rx="2.5" ry="2.5" style="stroke:#181818;stroke-width:0.5;" width="130.7988" x="424.2686" y="420.7578"/><text fill="#000000" font-family="sans-serif" font-size="14" lengthAdjust="spacing" textLength="116.7988" x="431.2686" y="440.7529">Matching Engine</text></g><g class="participant participant-head" data-participant="Offer"><rect fill="#E2E2F0" height="30.2969" rx="2.5" ry="2.5" style="stroke:#181818;stroke-width:0.5;" width="141.0938" x="598.3149" y="50"/><text fill="#000000" font-family="sans-serif" font-size="14" lengthAdjust="spacing" textLength="127.0938" x="605.3149" y="69.9951">Job Offer Manager</text></g><g class="participant participant-tail" data-participant="Offer"><rect fill="#E2E2F0" height="30.2969" rx="2.5" ry="2.5" style="stroke:#181818;stroke-width:0.5;" width="141.0938" x="598.3149" y="420.7578"/><text fill="#000000" font-family="sans-serif" font-size="14" lengthAdjust="spacing" textLength="127.0938" x="605.3149" y="440.7529">Job Offer Manager</text></g><g class="participant participant-head" data-participant="RTGW"><rect fill="#E2E2F0" height="30.2969" rx="2.5" ry="2.5" style="stroke:#181818;stroke-width:0.5;" width="150.8486" x="749.4087" y="50"/><text fill="#000000" font-family="sans-serif" font-size="14" lengthAdjust="spacing" textLength="136.8486" x="756.4087" y="69.9951">Real-Time Gateway</text></g><g class="participant participant-tail" data-participant="RTGW"><rect fill="#E2E2F0" height="30.2969" rx="2.5" ry="2.5" style="stroke:#181818;stroke-width:0.5;" width="150.8486" x="749.4087" y="420.7578"/><text fill="#000000" font-family="sans-serif" font-size="14" lengthAdjust="spacing" textLength="136.8486" x="756.4087" y="440.7529">Real-Time Gateway</text></g><g class="participant participant-head" data-participant="Driver"><text fill="#000000" font-family="sans-serif" font-size="14" lengthAdjust="spacing" textLength="74.8809" x="910.2573" y="77.9951">Driver App</text><ellipse cx="950.6978" cy="13.5" fill="#E2E2F0" rx="8" ry="8" style="stroke:#181818;stroke-width:0.5;"/><path d="M950.6978,21.5 L950.6978,48.5 M937.6978,29.5 L963.6978,29.5 M950.6978,48.5 L937.6978,63.5 M950.6978,48.5 L963.6978,63.5" fill="none" style="stroke:#181818;stroke-width:0.5;"/></g><g class="participant participant-tail" data-participant="Driver"><text fill="#000000" font-family="sans-serif" font-size="14" lengthAdjust="spacing" textLength="74.8809" x="910.2573" y="433.7529">Driver App</text><ellipse cx="950.6978" cy="445.5547" fill="#E2E2F0" rx="8" ry="8" style="stroke:#181818;stroke-width:0.5;"/><path d="M950.6978,453.5547 L950.6978,480.5547 M937.6978,461.5547 L963.6978,461.5547 M950.6978,480.5547 L937.6978,495.5547 M950.6978,480.5547 L963.6978,495.5547" fill="none" style="stroke:#181818;stroke-width:0.5;"/></g><g class="participant participant-head" data-participant="Accept"><rect fill="#E2E2F0" height="30.2969" rx="2.5" ry="2.5" style="stroke:#181818;stroke-width:0.5;" width="168.1572" x="1001.1382" y="50"/><text fill="#000000" font-family="sans-serif" font-size="14" lengthAdjust="spacing" textLength="154.1572" x="1008.1382" y="69.9951">Acceptance Processor</text></g><g class="participant participant-tail" data-participant="Accept"><rect fill="#E2E2F0" height="30.2969" rx="2.5" ry="2.5" style="stroke:#181818;stroke-width:0.5;" width="168.1572" x="1001.1382" y="420.7578"/><text fill="#000000" font-family="sans-serif" font-size="14" lengthAdjust="spacing" textLength="154.1572" x="1008.1382" y="440.7529">Acceptance Processor</text></g><g class="participant participant-head" data-participant="KafkaAssign"><rect fill="#E2E2F0" height="46.5938" rx="2.5" ry="2.5" style="stroke:#181818;stroke-width:0.5;" width="159.4756" x="1179.2954" y="33.7031"/><text fill="#000000" font-family="sans-serif" font-size="14" lengthAdjust="spacing" textLength="39.375" x="1239.3457" y="53.6982">Kafka</text><text fill="#000000" font-family="sans-serif" font-size="14" lengthAdjust="spacing" textLength="145.4756" x="1186.2954" y="69.9951">dispatch.assignment</text></g><g class="participant participant-tail" data-participant="KafkaAssign"><rect fill="#E2E2F0" height="46.5938" rx="2.5" ry="2.5" style="stroke:#181818;stroke-width:0.5;" width="159.4756" x="1179.2954" y="420.7578"/><text fill="#000000" font-family="sans-serif" font-size="14" lengthAdjust="spacing" textLength="39.375" x="1239.3457" y="440.7529">Kafka</text><text fill="#000000" font-family="sans-serif" font-size="14" lengthAdjust="spacing" textLength="145.4756" x="1186.2954" y="457.0498">dispatch.assignment</text></g><g class="message" data-participant-1="Customer" data-participant-2="Ordering"><polygon fill="#181818" points="212.8013,108.4297,222.8013,112.4297,212.8013,116.4297,216.8013,112.4297" style="stroke:#181818;stroke-width:1;"/><line style="stroke:#181818;stroke-width:1;" x1="42.002" x2="218.8013" y1="112.4297" y2="112.4297"/><text fill="#000000" font-family="sans-serif" font-size="13" lengthAdjust="spacing" textLength="73.5884" x="49.002" y="107.3638">Place order</text></g><g class="message" data-participant-1="Ordering" data-participant-2="KafkaOrder"><polygon fill="#181818" points="345.5029,137.5625,355.5029,141.5625,345.5029,145.5625,349.5029,141.5625" style="stroke:#181818;stroke-width:1;"/><line style="stroke:#181818;stroke-width:1;" x1="224.8013" x2="351.5029" y1="141.5625" y2="141.5625"/><text fill="#000000" font-family="sans-serif" font-size="13" lengthAdjust="spacing" textLength="88.9053" x="231.8013" y="136.4966">OrderCreated</text></g><g class="message" data-participant-1="KafkaOrder" data-participant-2="Match"><polygon fill="#181818" points="477.668,166.6953,487.668,170.6953,477.668,174.6953,481.668,170.6953" style="stroke:#181818;stroke-width:1;"/><line style="stroke:#181818;stroke-width:1;" x1="357.5029" x2="483.668" y1="170.6953" y2="170.6953"/><text fill="#000000" font-family="sans-serif" font-size="13" lengthAdjust="spacing" textLength="37.0259" x="364.5029" y="165.6294">event</text></g><g class="message" data-participant-1="Match" data-participant-2="Offer"><polygon fill="#181818" points="656.8618,195.8281,666.8618,199.8281,656.8618,203.8281,660.8618,199.8281" style="stroke:#181818;stroke-width:1;"/><line style="stroke:#181818;stroke-width:1;" x1="489.668" x2="662.8618" y1="199.8281" y2="199.8281"/><text fill="#000000" font-family="sans-serif" font-size="13" lengthAdjust="spacing" textLength="155.1938" x="496.668" y="194.7622">MatchProposed(drivers)</text></g><g class="message" data-participant-1="Offer" data-participant-2="RTGW"><polygon fill="#181818" points="812.833,224.9609,822.833,228.9609,812.833,232.9609,816.833,228.9609" style="stroke:#181818;stroke-width:1;"/><line style="stroke:#181818;stroke-width:1;" x1="668.8618" x2="818.833" y1="228.9609" y2="228.9609"/><text fill="#000000" font-family="sans-serif" font-size="13" lengthAdjust="spacing" textLength="109.4272" x="675.8618" y="223.895">JobOffer(driver1)</text></g><g class="message" data-participant-1="RTGW" data-participant-2="Driver"><polygon fill="#181818" points="938.6978,254.0938,948.6978,258.0938,938.6978,262.0938,942.6978,258.0938" style="stroke:#181818;stroke-width:1;"/><line style="stroke:#181818;stroke-width:1;" x1="824.833" x2="944.6978" y1="258.0938" y2="258.0938"/><text fill="#000000" font-family="sans-serif" font-size="13" lengthAdjust="spacing" textLength="65.6729" x="831.833" y="253.0278">Push offer</text></g><g class="message" data-participant-1="Driver" data-participant-2="RTGW"><polygon fill="#181818" points="835.833,283.2266,825.833,287.2266,835.833,291.2266,831.833,287.2266" style="stroke:#181818;stroke-width:1;"/><line style="stroke:#181818;stroke-width:1;" x1="829.833" x2="949.6978" y1="287.2266" y2="287.2266"/><text fill="#000000" font-family="sans-serif" font-size="13" lengthAdjust="spacing" textLength="44.5352" x="841.833" y="282.1606">Accept</text></g><g class="message" data-participant-1="RTGW" data-participant-2="Accept"><polygon fill="#181818" points="1073.2168,312.3594,1083.2168,316.3594,1073.2168,320.3594,1077.2168,316.3594" style="stroke:#181818;stroke-width:1;"/><line style="stroke:#181818;stroke-width:1;" x1="824.833" x2="1079.2168" y1="316.3594" y2="316.3594"/><text fill="#000000" font-family="sans-serif" font-size="13" lengthAdjust="spacing" textLength="123.062" x="831.833" y="311.2935">DriverJobResponse</text></g><g class="message" data-participant-1="Accept" data-participant-2="KafkaAssign"><polygon fill="#181818" points="1247.0332,341.4922,1257.0332,345.4922,1247.0332,349.4922,1251.0332,345.4922" style="stroke:#181818;stroke-width:1;"/><line style="stroke:#181818;stroke-width:1;" x1="1085.2168" x2="1253.0332" y1="345.4922" y2="345.4922"/><text fill="#000000" font-family="sans-serif" font-size="13" lengthAdjust="spacing" textLength="95.9639" x="1092.2168" y="340.4263">OrderAssigned</text></g><g class="message" data-participant-1="Accept" data-participant-2="Ordering"><polygon fill="#181818" points="235.8013,370.625,225.8013,374.625,235.8013,378.625,231.8013,374.625" style="stroke:#181818;stroke-width:1;"/><line style="stroke:#181818;stroke-width:1;" x1="229.8013" x2="1084.2168" y1="374.625" y2="374.625"/><text fill="#000000" font-family="sans-serif" font-size="13" lengthAdjust="spacing" textLength="202.96" x="241.8013" y="369.5591">gRPC updateStatus(ASSIGNED)</text></g><g class="message" data-participant-1="Ordering" data-participant-2="Customer"><polygon fill="#181818" points="53.002,399.7578,43.002,403.7578,53.002,407.7578,49.002,403.7578" style="stroke:#181818;stroke-width:1;"/><line style="stroke:#181818;stroke-width:1;" x1="47.002" x2="223.8013" y1="403.7578" y2="403.7578"/><text fill="#000000" font-family="sans-serif" font-size="13" lengthAdjust="spacing" textLength="158.7993" x="59.002" y="398.6919">Status update via RTGW</text></g><!--SRC=[RP11Ry8m38Nl-HKH9pY0j2k7IHKWj4qRg4NQPHSlTKkqaaH9wCI_d-kqb4exHVRx7FizKD5wkRc6Q2_eXGCVjT8EJ9IpWo_HQrFB0dsh5Sua13aqf-WRL3_mPMmdhXfTeRgf9Wsmn5FJaNU8wjpzlZErDedbtXHxjT_oK5NeIJHGeqzNT9qfc2CqovE-eDn3n5-uCPYVzfy2sEHiwtLB_sJEiPJAwIUPKkWY68NowAt246nQc8H_JPSwkExk5OIWQtD14qVZ6VV44B1SFjyJb6jvR80sSMhYtYPap8mWVZSUoLKf7XJYE2z2iAMb8bNT1ivhdMJouMp0Sbwotx0GIIQk2uSmYfXRFV6q42mGq2T6Xrx3MLeElU-DutqqmqmggPz0-Zp7uAm9A7ffC9Yo6HocYYoEr4DITNxSoAihAOGYGho6ULOKB_kFtNOnIUuUz5echX-IhGO- -0y0]--></g></svg>