<svg xmlns="http://www.w3.org/2000/svg" xmlns:xlink="http://www.w3.org/1999/xlink" contentStyleType="text/css" data-diagram-type="DESCRIPTION" height="419px" preserveAspectRatio="none" style="width:1653px;height:419px;background:#FFFFFF;" version="1.1" viewBox="0 0 1653 419" width="1653px" zoomAndPan="magnify"><defs/><g><!--cluster Edge Layer--><g class="cluster" data-entity="Edge Layer" data-source-line="7" data-uid="ent0002" id="cluster_Edge Layer"><path d="M146.5,6 L235.3691,6 A3.75,3.75 0 0 1 237.8691,8.5 L244.8691,28.2969 L583.5,28.2969 A2.5,2.5 0 0 1 586,30.7969 L586,187.1 A2.5,2.5 0 0 1 583.5,189.6 L146.5,189.6 A2.5,2.5 0 0 1 144,187.1 L144,8.5 A2.5,2.5 0 0 1 146.5,6" fill="none" style="stroke:#000000;stroke-width:1.5;"/><line style="stroke:#000000;stroke-width:1.5;" x1="144" x2="244.8691" y1="28.2969" y2="28.2969"/><text fill="#000000" font-family="sans-serif" font-size="14" font-weight="bold" lengthAdjust="spacing" textLength="87.8691" x="148" y="20.9951">Edge Layer</text></g><!--cluster Core Services--><g class="cluster" data-entity="Core Services" data-source-line="15" data-uid="ent0008" id="cluster_Core Services"><path d="M8.5,213.6 L117.2002,213.6 A3.75,3.75 0 0 1 119.7002,216.1 L126.7002,235.8969 L1611.5,235.8969 A2.5,2.5 0 0 1 1614,238.3969 L1614,298.39 A2.5,2.5 0 0 1 1611.5,300.89 L8.5,300.89 A2.5,2.5 0 0 1 6,298.39 L6,216.1 A2.5,2.5 0 0 1 8.5,213.6" fill="none" style="stroke:#000000;stroke-width:1.5;"/><line style="stroke:#000000;stroke-width:1.5;" x1="6" x2="126.7002" y1="235.8969" y2="235.8969"/><text fill="#000000" font-family="sans-serif" font-size="14" font-weight="bold" lengthAdjust="spacing" textLength="107.7002" x="10" y="228.5951">Core Services</text></g><!--cluster Infrastructure--><g class="cluster" data-entity="Infrastructure" data-source-line="27" data-uid="ent0018" id="cluster_Infrastructure"><path d="M266.5,324.89 L378.3721,324.89 A3.75,3.75 0 0 1 380.8721,327.39 L387.8721,347.1869 L1093.5,347.1869 A2.5,2.5 0 0 1 1096,349.6869 L1096,409.69 A2.5,2.5 0 0 1 1093.5,412.19 L266.5,412.19 A2.5,2.5 0 0 1 264,409.69 L264,327.39 A2.5,2.5 0 0 1 266.5,324.89" fill="none" style="stroke:#000000;stroke-width:1.5;"/><line style="stroke:#000000;stroke-width:1.5;" x1="264" x2="387.8721" y1="347.1869" y2="347.1869"/><text fill="#000000" font-family="sans-serif" font-size="14" font-weight="bold" lengthAdjust="spacing" textLength="110.8721" x="268" y="339.8851">Infrastructure</text></g><!--entity API Gateway--><g class="entity" data-entity="API Gateway" data-source-line="8" data-uid="ent0003" id="entity_API Gateway"><rect fill="#F1F1F1" height="36.2969" rx="2.5" ry="2.5" style="stroke:#181818;stroke-width:0.5;" width="108.4434" x="269.78" y="41"/><text fill="#000000" font-family="sans-serif" font-size="14" lengthAdjust="spacing" textLength="88.4434" x="279.78" y="63.9951">API Gateway</text></g><!--entity Real-Time Gateway--><g class="entity" data-entity="Real-Time Gateway" data-source-line="9" data-uid="ent0004" id="entity_Real-Time Gateway"><rect fill="#F1F1F1" height="36.2969" rx="2.5" ry="2.5" style="stroke:#181818;stroke-width:0.5;" width="156.8486" x="413.58" y="41"/><text fill="#000000" font-family="sans-serif" font-size="14" lengthAdjust="spacing" textLength="136.8486" x="423.58" y="63.9951">Real-Time Gateway</text></g><!--entity BFF-Customer--><g class="entity" data-entity="BFF-Customer" data-source-line="10" data-uid="ent0005" id="entity_BFF-Customer"><rect fill="#F1F1F1" height="36.2969" rx="2.5" ry="2.5" style="stroke:#181818;stroke-width:0.5;" width="118.7656" x="322.62" y="137.3"/><text fill="#000000" font-family="sans-serif" font-size="14" lengthAdjust="spacing" textLength="98.7656" x="332.62" y="160.2951">BFF-Customer</text></g><!--entity BFF-Restaurant--><g class="entity" data-entity="BFF-Restaurant" data-source-line="11" data-uid="ent0006" id="entity_BFF-Restaurant"><rect fill="#F1F1F1" height="36.2969" rx="2.5" ry="2.5" style="stroke:#181818;stroke-width:0.5;" width="128.0352" x="159.98" y="137.3"/><text fill="#000000" font-family="sans-serif" font-size="14" lengthAdjust="spacing" textLength="108.0352" x="169.98" y="160.2951">BFF-Restaurant</text></g><!--entity BFF-Driver--><g class="entity" data-entity="BFF-Driver" data-source-line="12" data-uid="ent0007" id="entity_BFF-Driver"><rect fill="#F1F1F1" height="36.2969" rx="2.5" ry="2.5" style="stroke:#181818;stroke-width:0.5;" width="93.8418" x="476.08" y="137.3"/><text fill="#000000" font-family="sans-serif" font-size="14" lengthAdjust="spacing" textLength="73.8418" x="486.08" y="160.2951">BFF-Driver</text></g><!--entity Identity & Access--><g class="entity" data-entity="Identity . Access" data-source-line="16" data-uid="ent0009" id="entity_Identity . Access"><rect fill="#F1F1F1" height="36.2969" rx="2.5" ry="2.5" style="stroke:#181818;stroke-width:0.5;" width="141.6455" x="306.18" y="248.6"/><text fill="#000000" font-family="sans-serif" font-size="14" lengthAdjust="spacing" textLength="121.6455" x="316.18" y="271.5951">Identity &amp; Access</text></g><!--entity Menu & Catalog--><g class="entity" data-entity="Menu . Catalog" data-source-line="17" data-uid="ent0010" id="entity_Menu . Catalog"><rect fill="#F1F1F1" height="36.2969" rx="2.5" ry="2.5" style="stroke:#181818;stroke-width:0.5;" width="132.0205" x="21.99" y="248.6"/><text fill="#000000" font-family="sans-serif" font-size="14" lengthAdjust="spacing" textLength="112.0205" x="31.99" y="271.5951">Menu &amp; Catalog</text></g><!--entity Ordering--><g class="entity" data-entity="Ordering" data-source-line="18" data-uid="ent0011" id="entity_Ordering"><rect fill="#F1F1F1" height="36.2969" rx="2.5" ry="2.5" style="stroke:#181818;stroke-width:0.5;" width="81.6807" x="189.16" y="248.6"/><text fill="#000000" font-family="sans-serif" font-size="14" lengthAdjust="spacing" textLength="61.6807" x="199.16" y="271.5951">Ordering</text></g><!--entity Payment--><g class="entity" data-entity="Payment" data-source-line="19" data-uid="ent0012" id="entity_Payment"><rect fill="#F1F1F1" height="36.2969" rx="2.5" ry="2.5" style="stroke:#181818;stroke-width:0.5;" width="81.9199" x="483.04" y="248.6"/><text fill="#000000" font-family="sans-serif" font-size="14" lengthAdjust="spacing" textLength="61.9199" x="493.04" y="271.5951">Payment</text></g><!--entity Dispatch/Logistics--><g class="entity" data-entity="Dispatch.Logistics" data-source-line="20" data-uid="ent0013" id="entity_Dispatch.Logistics"><rect fill="#F1F1F1" height="36.2969" rx="2.5" ry="2.5" style="stroke:#181818;stroke-width:0.5;" width="147.0117" x="599.49" y="248.6"/><text fill="#000000" font-family="sans-serif" font-size="14" lengthAdjust="spacing" textLength="127.0117" x="609.49" y="271.5951">Dispatch/Logistics</text></g><!--entity Driver Management--><g class="entity" data-entity="Driver Management" data-source-line="21" data-uid="ent0014" id="entity_Driver Management"><rect fill="#F1F1F1" height="36.2969" rx="2.5" ry="2.5" style="stroke:#181818;stroke-width:0.5;" width="159.7539" x="781.12" y="248.6"/><text fill="#000000" font-family="sans-serif" font-size="14" lengthAdjust="spacing" textLength="139.7539" x="791.12" y="271.5951">Driver Management</text></g><!--entity Notification & Communication--><g class="entity" data-entity="Notification . Communication" data-source-line="22" data-uid="ent0015" id="entity_Notification . Communication"><rect fill="#F1F1F1" height="36.2969" rx="2.5" ry="2.5" style="stroke:#181818;stroke-width:0.5;" width="230.4922" x="975.75" y="248.6"/><text fill="#000000" font-family="sans-serif" font-size="14" lengthAdjust="spacing" textLength="210.4922" x="985.75" y="271.5951">Notification &amp; Communication</text></g><!--entity Ratings & Reviews--><g class="entity" data-entity="Ratings . Reviews" data-source-line="23" data-uid="ent0016" id="entity_Ratings . Reviews"><rect fill="#F1F1F1" height="36.2969" rx="2.5" ry="2.5" style="stroke:#181818;stroke-width:0.5;" width="150.4297" x="1240.79" y="248.6"/><text fill="#000000" font-family="sans-serif" font-size="14" lengthAdjust="spacing" textLength="130.4297" x="1250.79" y="271.5951">Ratings &amp; Reviews</text></g><!--entity Reporting & Analytics--><g class="entity" data-entity="Reporting . Analytics" data-source-line="24" data-uid="ent0017" id="entity_Reporting . Analytics"><rect fill="#F1F1F1" height="36.2969" rx="2.5" ry="2.5" style="stroke:#181818;stroke-width:0.5;" width="172.0791" x="1425.96" y="248.6"/><text fill="#000000" font-family="sans-serif" font-size="14" lengthAdjust="spacing" textLength="152.0791" x="1435.96" y="271.5951">Reporting &amp; Analytics</text></g><!--entity Kafka Event Bus--><g class="entity" data-entity="Kafka Event Bus" data-source-line="28" data-uid="ent0019" id="entity_Kafka Event Bus"><rect fill="#F1F1F1" height="36.2969" rx="2.5" ry="2.5" style="stroke:#181818;stroke-width:0.5;" width="134.1533" x="752.92" y="359.89"/><text fill="#000000" font-family="sans-serif" font-size="14" lengthAdjust="spacing" textLength="114.1533" x="762.92" y="382.8851">Kafka Event Bus</text></g><!--entity Redis-Geo--><g class="entity" data-entity="Redis-Geo" data-source-line="29" data-uid="ent0020" id="entity_Redis-Geo"><rect fill="#F1F1F1" height="36.2969" rx="2.5" ry="2.5" style="stroke:#181818;stroke-width:0.5;" width="91.4902" x="626.25" y="359.89"/><text fill="#000000" font-family="sans-serif" font-size="14" lengthAdjust="spacing" textLength="71.4902" x="636.25" y="382.8851">Redis-Geo</text></g><!--entity Postgres Cluster--><g class="entity" data-entity="Postgres Cluster" data-source-line="30" data-uid="ent0021" id="entity_Postgres Cluster"><rect fill="#F1F1F1" height="36.2969" rx="2.5" ry="2.5" style="stroke:#181818;stroke-width:0.5;" width="134.4814" x="456.76" y="359.89"/><text fill="#000000" font-family="sans-serif" font-size="14" lengthAdjust="spacing" textLength="114.4814" x="466.76" y="382.8851">Postgres Cluster</text></g><!--entity MongoDB Cluster--><g class="entity" data-entity="MongoDB Cluster" data-source-line="31" data-uid="ent0022" id="entity_MongoDB Cluster"><rect fill="#F1F1F1" height="36.2969" rx="2.5" ry="2.5" style="stroke:#181818;stroke-width:0.5;" width="141.4951" x="280.25" y="359.89"/><text fill="#000000" font-family="sans-serif" font-size="14" lengthAdjust="spacing" textLength="121.4951" x="290.25" y="382.8851">MongoDB Cluster</text></g><!--entity Object Storage (S3)--><g class="entity" data-entity="Object Storage .S3." data-source-line="32" data-uid="ent0023" id="entity_Object Storage .S3."><rect fill="#F1F1F1" height="36.2969" rx="2.5" ry="2.5" style="stroke:#181818;stroke-width:0.5;" width="157.9902" x="922" y="359.89"/><text fill="#000000" font-family="sans-serif" font-size="14" lengthAdjust="spacing" textLength="137.9902" x="932" y="382.8851">Object Storage (S3)</text></g><!--link API Gateway to BFF-Customer--><g class="link" data-entity-1="API Gateway" data-entity-2="BFF-Customer" data-source-line="35" data-uid="lnk24" id="link_API Gateway_BFF-Customer"><path d="M334.64,77.45 C345.04,94.35 357.6474,114.8488 368.0874,131.8288" fill="none" id="API Gateway-to-BFF-Customer" style="stroke:#181818;stroke-width:1;"/><polygon fill="#181818" points="371.23,136.94,369.9236,127.1782,368.6112,132.6807,363.1087,131.3683,371.23,136.94" style="stroke:#181818;stroke-width:1;"/></g><!--link API Gateway to BFF-Restaurant--><g class="link" data-entity-1="API Gateway" data-entity-2="BFF-Restaurant" data-source-line="36" data-uid="lnk25" id="link_API Gateway_BFF-Restaurant"><path d="M305.66,77.45 C287.73,94.35 264.9356,115.844 246.9256,132.824" fill="none" id="API Gateway-to-BFF-Restaurant" style="stroke:#181818;stroke-width:1;"/><polygon fill="#181818" points="242.56,136.94,251.8524,133.6765,246.198,133.51,246.3645,127.8556,242.56,136.94" style="stroke:#181818;stroke-width:1;"/></g><!--link API Gateway to BFF-Driver--><g class="link" data-entity-1="API Gateway" data-entity-2="BFF-Driver" data-source-line="37" data-uid="lnk26" id="link_API Gateway_BFF-Driver"><path d="M360.96,77.67 C396.6,94.55 444.7981,117.3904 480.4781,134.3004" fill="none" id="API Gateway-to-BFF-Driver" style="stroke:#181818;stroke-width:1;"/><polygon fill="#181818" points="485.9,136.87,479.4802,129.401,481.3817,134.7286,476.0541,136.6302,485.9,136.87" style="stroke:#181818;stroke-width:1;"/></g><!--link Real-Time Gateway to Kafka Event Bus--><g class="link" data-entity-1="Real-Time Gateway" data-entity-2="Kafka Event Bus" data-source-line="38" data-uid="lnk27" id="link_Real-Time Gateway_Kafka Event Bus"><path d="M570.92,64.46 C814.93,78.57 1545,127.07 1614,205.6 C1644.3,240.08 1646.28,276.25 1614,308.89 C1600.15,322.9 923.74,310.82 905,316.89 C878.86,325.37 858.2467,340.9517 842.1967,355.4917" fill="none" id="Real-Time Gateway-to-Kafka Event Bus" style="stroke:#181818;stroke-width:1;stroke-dasharray:7,7;"/><polygon fill="#181818" points="837.75,359.52,847.1055,356.442,841.4555,356.1631,841.7344,350.5131,837.75,359.52" style="stroke:#181818;stroke-width:1;"/></g><!--link BFF-Customer to Ordering--><g class="link" data-entity-1="BFF-Customer" data-entity-2="Ordering" data-source-line="40" data-uid="lnk28" id="link_BFF-Customer_Ordering"><path d="M350.41,174.07 C336.83,181.51 320.73,190.15 306,197.6 C298.55,201.36 295.81,200.76 289,205.6 C271.83,217.79 259.2117,230.7504 248.0517,243.7304" fill="none" id="BFF-Customer-to-Ordering" style="stroke:#181818;stroke-width:1;"/><polygon fill="#181818" points="244.14,248.28,253.0406,244.0634,247.3997,244.4887,246.9744,238.8478,244.14,248.28" style="stroke:#181818;stroke-width:1;"/></g><!--link BFF-Customer to Menu & Catalog--><g class="link" data-entity-1="BFF-Customer" data-entity-2="Menu . Catalog" data-source-line="41" data-uid="lnk29" id="link_BFF-Customer_Menu . Catalog"><path d="M356.49,173.91 C342.28,182.68 323.89,192.49 306,197.6 C248.63,213.97 228.24,185.67 172,205.6 C146.47,214.64 126.291,229.9276 110.381,244.2376" fill="none" id="BFF-Customer-to-Menu &amp; Catalog" style="stroke:#181818;stroke-width:1;"/><polygon fill="#181818" points="105.92,248.25,115.2865,245.2054,109.6375,244.9063,109.9366,239.2574,105.92,248.25" style="stroke:#181818;stroke-width:1;"/></g><!--link BFF-Customer to Identity & Access--><g class="link" data-entity-1="BFF-Customer" data-entity-2="Identity . Access" data-source-line="42" data-uid="lnk30" id="link_BFF-Customer_Identity . Access"><path d="M381.2,174.01 C380.26,194.4 379.0035,221.8562 378.0735,242.2362" fill="none" id="BFF-Customer-to-Identity &amp; Access" style="stroke:#181818;stroke-width:1;"/><polygon fill="#181818" points="377.8,248.23,382.2061,239.4217,378.0279,243.2352,374.2144,239.057,377.8,248.23" style="stroke:#181818;stroke-width:1;"/></g><!--link BFF-Restaurant to Menu & Catalog--><g class="link" data-entity-1="BFF-Restaurant" data-entity-2="Menu . Catalog" data-source-line="44" data-uid="lnk31" id="link_BFF-Restaurant_Menu . Catalog"><path d="M202.15,174.01 C176.77,194.4 139.8262,224.0906 114.4762,244.4706" fill="none" id="BFF-Restaurant-to-Menu &amp; Catalog" style="stroke:#181818;stroke-width:1;"/><polygon fill="#181818" points="109.8,248.23,119.3206,245.7084,113.6968,245.0972,114.308,239.4734,109.8,248.23" style="stroke:#181818;stroke-width:1;"/></g><!--link BFF-Restaurant to Ordering--><g class="link" data-entity-1="BFF-Restaurant" data-entity-2="Ordering" data-source-line="45" data-uid="lnk32" id="link_BFF-Restaurant_Ordering"><path d="M224.96,174.01 C226.08,194.4 227.5908,221.859 228.7108,242.239" fill="none" id="BFF-Restaurant-to-Ordering" style="stroke:#181818;stroke-width:1;"/><polygon fill="#181818" points="229.04,248.23,232.5401,239.0241,228.7656,243.2375,224.5522,239.4631,229.04,248.23" style="stroke:#181818;stroke-width:1;"/></g><!--link BFF-Driver to Dispatch/Logistics--><g class="link" data-entity-1="BFF-Driver" data-entity-2="Dispatch.Logistics" data-source-line="47" data-uid="lnk33" id="link_BFF-Driver_Dispatch.Logistics"><path d="M547.1,174.01 C575.09,194.4 616.1407,224.3166 644.1107,244.6966" fill="none" id="BFF-Driver-to-Dispatch/Logistics" style="stroke:#181818;stroke-width:1;"/><polygon fill="#181818" points="648.96,248.23,644.0417,239.6971,644.9189,245.2855,639.3305,246.1628,648.96,248.23" style="stroke:#181818;stroke-width:1;"/></g><!--link BFF-Driver to Driver Management--><g class="link" data-entity-1="BFF-Driver" data-entity-2="Driver Management" data-source-line="48" data-uid="lnk34" id="link_BFF-Driver_Driver Management"><path d="M570.15,161.08 C619.79,167.08 699.51,179.98 764,205.6 C791.07,216.35 814.1674,231.0889 833.0674,244.6689" fill="none" id="BFF-Driver-to-Driver Management" style="stroke:#181818;stroke-width:1;"/><polygon fill="#181818" points="837.94,248.17,832.9651,239.67,833.8795,245.2524,828.297,246.1668,837.94,248.17" style="stroke:#181818;stroke-width:1;"/></g><!--link Ordering to Kafka Event Bus--><g class="link" data-entity-1="Ordering" data-entity-2="Kafka Event Bus" data-source-line="50" data-uid="lnk35" id="link_Ordering_Kafka Event Bus"><path d="M248.87,285.26 C259.74,294.16 274.15,304.08 289,308.89 C336.15,324.18 687.9,301.45 735,316.89 C761.11,325.46 781.7293,341.0261 797.7893,355.5461" fill="none" id="Ordering-to-Kafka Event Bus" style="stroke:#181818;stroke-width:1;stroke-dasharray:7,7;"/><polygon fill="#181818" points="802.24,359.57,798.2466,350.5671,798.5311,356.2168,792.8814,356.5013,802.24,359.57" style="stroke:#181818;stroke-width:1;"/></g><!--link Dispatch/Logistics to Kafka Event Bus--><g class="link" data-entity-1="Dispatch.Logistics" data-entity-2="Kafka Event Bus" data-source-line="51" data-uid="lnk36" id="link_Dispatch.Logistics_Kafka Event Bus"><path d="M696.62,285.31 C724.05,305.7 764.2142,335.5711 791.6242,355.9411" fill="none" id="Dispatch/Logistics-to-Kafka Event Bus" style="stroke:#181818;stroke-width:1;stroke-dasharray:7,7;"/><polygon fill="#181818" points="796.44,359.52,791.6023,350.9412,792.4269,356.5376,786.8304,357.3622,796.44,359.52" style="stroke:#181818;stroke-width:1;"/></g><!--link Payment to Kafka Event Bus--><g class="link" data-entity-1="Payment" data-entity-2="Kafka Event Bus" data-source-line="52" data-uid="lnk37" id="link_Payment_Kafka Event Bus"><path d="M542.83,285.27 C553.48,294.05 567.54,303.87 582,308.89 C646.32,331.26 670.67,294.57 735,316.89 C760.79,325.84 781.2471,341.1721 797.3671,355.5121" fill="none" id="Payment-to-Kafka Event Bus" style="stroke:#181818;stroke-width:1;stroke-dasharray:7,7;"/><polygon fill="#181818" points="801.85,359.5,797.7842,350.5295,798.1142,356.1767,792.467,356.5068,801.85,359.5" style="stroke:#181818;stroke-width:1;"/></g><!--link Notification & Communication to Kafka Event Bus--><g class="link" data-entity-1="Notification . Communication" data-entity-2="Kafka Event Bus" data-source-line="53" data-uid="lnk38" id="link_Notification . Communication_Kafka Event Bus"><path d="M1040.33,285.39 C1015.72,293.45 985.57,302.59 958,308.89 C934.78,314.21 927.1,307.99 905,316.89 C880.01,326.95 859.883,341.784 843.603,355.684" fill="none" id="Notification &amp; Communication-to-Kafka Event Bus" style="stroke:#181818;stroke-width:1;stroke-dasharray:7,7;"/><polygon fill="#181818" points="839.04,359.58,848.4819,356.7781,842.8425,356.3334,843.2873,350.694,839.04,359.58" style="stroke:#181818;stroke-width:1;"/></g><!--link Reporting & Analytics to Kafka Event Bus--><g class="link" data-entity-1="Reporting . Analytics" data-entity-2="Kafka Event Bus" data-source-line="54" data-uid="lnk39" id="link_Reporting . Analytics_Kafka Event Bus"><path d="M1477.23,285.32 C1457.71,294.24 1432.6,304.16 1409,308.89 C1354.09,319.91 958.24,299.5 905,316.89 C878.88,325.43 858.2607,341.0061 842.2007,355.5261" fill="none" id="Reporting &amp; Analytics-to-Kafka Event Bus" style="stroke:#181818;stroke-width:1;stroke-dasharray:7,7;"/><polygon fill="#181818" points="837.75,359.55,847.1086,356.4813,841.4589,356.1968,841.7434,350.5471,837.75,359.55" style="stroke:#181818;stroke-width:1;"/></g><!--link Dispatch/Logistics to Redis-Geo--><g class="link" data-entity-1="Dispatch.Logistics" data-entity-2="Redis-Geo" data-source-line="56" data-uid="lnk40" id="link_Dispatch.Logistics_Redis-Geo"><path d="M672.84,285.31 C672.65,305.7 672.406,333.1503 672.216,353.5203" fill="none" id="Dispatch/Logistics-to-Redis-Geo" style="stroke:#181818;stroke-width:1;"/><polygon fill="#181818" points="672.16,359.52,676.2438,350.5577,672.2066,354.5202,668.2441,350.4831,672.16,359.52" style="stroke:#181818;stroke-width:1;"/></g><!--link Ordering to Postgres Cluster--><g class="link" data-entity-1="Ordering" data-entity-2="Postgres Cluster" data-source-line="57" data-uid="lnk41" id="link_Ordering_Postgres Cluster"><path d="M249.2,285.27 C260.06,294.05 274.36,303.86 289,308.89 C352.13,330.6 375.94,294.97 439,316.89 C464.78,325.86 485.2371,341.1821 501.3571,355.5221" fill="none" id="Ordering-to-Postgres Cluster" style="stroke:#181818;stroke-width:1;"/><polygon fill="#181818" points="505.84,359.51,501.7742,350.5395,502.1042,356.1867,496.457,356.5168,505.84,359.51" style="stroke:#181818;stroke-width:1;"/></g><!--link Payment to Postgres Cluster--><g class="link" data-entity-1="Payment" data-entity-2="Postgres Cluster" data-source-line="58" data-uid="lnk42" id="link_Payment_Postgres Cluster"><path d="M524,285.31 C524,305.7 524,333.15 524,353.52" fill="none" id="Payment-to-Postgres Cluster" style="stroke:#181818;stroke-width:1;"/><polygon fill="#181818" points="524,359.52,528,350.52,524,354.52,520,350.52,524,359.52" style="stroke:#181818;stroke-width:1;"/></g><!--link Menu & Catalog to MongoDB Cluster--><g class="link" data-entity-1="Menu . Catalog" data-entity-2="MongoDB Cluster" data-source-line="59" data-uid="lnk43" id="link_Menu . Catalog_MongoDB Cluster"><path d="M122,285.28 C137.15,292.87 155.32,301.65 172,308.89 C215.01,327.57 259.2989,344.2959 295.4789,357.4059" fill="none" id="Menu &amp; Catalog-to-MongoDB Cluster" style="stroke:#181818;stroke-width:1;"/><polygon fill="#181818" points="301.12,359.45,294.0211,352.6232,296.4191,357.7466,291.2957,360.1446,301.12,359.45" style="stroke:#181818;stroke-width:1;"/></g><!--link Notification & Communication to Object Storage (S3)--><g class="link" data-entity-1="Notification . Communication" data-entity-2="Object Storage .S3." data-source-line="60" data-uid="lnk44" id="link_Notification . Communication_Object Storage .S3."><path d="M1076.54,285.31 C1059.74,305.7 1036.0149,334.5189 1019.2349,354.8889" fill="none" id="Notification &amp; Communication-to-Object Storage (S3)" style="stroke:#181818;stroke-width:1;"/><polygon fill="#181818" points="1015.42,359.52,1024.2297,355.1167,1018.5991,355.6608,1018.055,350.0302,1015.42,359.52" style="stroke:#181818;stroke-width:1;"/></g><!--SRC=[XLF1RgCm4BtxAwnMgdOFT0zxwArI8KaLRTDMoTvMFKpDX7e37cIRL6ZLVr-32I74j1U4PnxlpVCRp4wg4ZGKNAEmeB8S-J_6UGnYbscgL9fGJffVBcQBc_bDqo6TelRLE7Smzi5CpoAeA4cXiXjREwgUbB7IGI53VZ5FtVC1QjGNhTIVk-SblmUBxr2_DESrGXxzbWMULEF58aegOwb0tHVMQ2nK6fJjIpCjzmtYOo2Pa4Q-GRsN0asdkapTbDBM_8hV2LSsBSCALUKg2LZ8AMjBJurVgVpX6Ue2ExMPD2LOyVRZWJ9fh1IUmW_0Lw2STWz-92ktKe2Lf1e1AefATMVlshsgpBZU6lSItqrt5oNffj6CgI2llSpGt59jDHYhAs4hZPsxNx3T0P_ldJoFgmDNAarqZ-ITaB6PHiEJtDrgTwShKXdDufFQq-jVboBVMDADthVDp-_j02UvyIYw7MSq0HXcDW4vP1XO1NvzVHkmnqwrFTKnkL1t77K84rWIDZRn2TiPwZWH6nhrpT0-1L3dwyMEl1FN4-AUWXvMVAh_wIPFVHJUuyamG-EsxWSxF33TjiuN-cXb2Z1AhOjo_1DyOTad6_XB_WC0]--></g></svg>